solid special edition spinner
facet normal -0.4458119327951273 0.8951266505793875 0.0
  outer loop
    vertex -10.161323407421879 -76.44311083621957 11.500000000000073
    vertex -9.717300214690008 -76.22196800952624 -1.4999999999999947
    vertex -10.161323407421879 -76.44311083621957 -1.4999999999999947
  endloop
endfacet
facet normal -0.4458119327951273 0.8951266505793875 0.0
  outer loop
    vertex -9.717300214690008 -76.22196800952624 -1.4999999999999947
    vertex -10.161323407421879 -76.44311083621957 11.500000000000073
    vertex -9.717300214690008 -76.22196800952624 11.500000000000073
  endloop
endfacet
facet normal 0.16547281421810858 0.9862143518296311 0.0
  outer loop
    vertex -7.774105072565637 -75.93241198928922 11.500000000000073
    vertex -7.284898271568322 -76.0144939686738 -1.4999999999999947
    vertex -7.774105072565637 -75.93241198928922 -1.4999999999999947
  endloop
endfacet
facet normal 0.16547281421810858 0.9862143518296311 0.0
  outer loop
    vertex -7.284898271568322 -76.0144939686738 -1.4999999999999947
    vertex -7.774105072565637 -75.93241198928922 11.500000000000073
    vertex -7.284898271568322 -76.0144939686738 11.500000000000073
  endloop
endfacet
facet normal -0.7440235500819714 0.6681533932589284 0.0
  outer loop
    vertex -10.949206202119715 -77.0427800440335 11.500000000000073
    vertex -11.280640421754924 -77.41184928352186 -1.4999999999999947
    vertex -11.280640421754924 -77.41184928352186 11.500000000000073
  endloop
endfacet
facet normal -0.7440235500819714 0.6681533932589284 0.0
  outer loop
    vertex -11.280640421754924 -77.41184928352186 -1.4999999999999947
    vertex -10.949206202119715 -77.0427800440335 11.500000000000073
    vertex -10.949206202119715 -77.0427800440335 -1.4999999999999947
  endloop
endfacet
facet normal 0.989079497471818 0.1473829965799857 0.0
  outer loop
    vertex -4.319229118803482 -79.03498460482069 -1.4999999999999947
    vertex -4.246120504895631 -79.52561264728688 11.500000000000073
    vertex -4.246120504895631 -79.52561264728688 -1.4999999999999947
  endloop
endfacet
facet normal 0.989079497471818 0.1473829965799857 0.0
  outer loop
    vertex -4.246120504895631 -79.52561264728688 11.500000000000073
    vertex -4.319229118803482 -79.03498460482069 -1.4999999999999947
    vertex -4.319229118803482 -79.03498460482069 11.500000000000073
  endloop
endfacet
facet normal 0.9213530854792749 0.3887267573473949 0.0
  outer loop
    vertex -4.646079253379221 -78.10035556262862 -1.4999999999999947
    vertex -4.453253248493796 -78.55738824999533 11.500000000000073
    vertex -4.453253248493796 -78.55738824999533 -1.4999999999999947
  endloop
endfacet
facet normal 0.9213530854792749 0.3887267573473949 0.0
  outer loop
    vertex -4.453253248493796 -78.55738824999533 11.500000000000073
    vertex -4.646079253379221 -78.10035556262862 -1.4999999999999947
    vertex -4.646079253379221 -78.10035556262862 11.500000000000073
  endloop
endfacet
facet normal 0.0405625779513458 0.9991769999704462 0.0
  outer loop
    vertex -8.26974193171173 -75.91229112107942 11.500000000000073
    vertex -7.774105072565637 -75.93241198928922 -1.4999999999999947
    vertex -8.26974193171173 -75.91229112107942 -1.4999999999999947
  endloop
endfacet
facet normal 0.0405625779513458 0.9991769999704462 0.0
  outer loop
    vertex -7.774105072565637 -75.93241198928922 -1.4999999999999947
    vertex -8.26974193171173 -75.91229112107942 11.500000000000073
    vertex -7.774105072565637 -75.93241198928922 11.500000000000073
  endloop
endfacet
facet normal 0.405535717353122 0.9140791989488051 0.0
  outer loop
    vertex -6.809836612209489 -76.1572425773849 11.500000000000073
    vertex -6.356412100645306 -76.35840658458923 -1.4999999999999947
    vertex -6.809836612209489 -76.1572425773849 -1.4999999999999947
  endloop
endfacet
facet normal 0.405535717353122 0.9140791989488051 0.0
  outer loop
    vertex -6.356412100645306 -76.35840658458923 -1.4999999999999947
    vertex -6.809836612209489 -76.1572425773849 11.500000000000073
    vertex -6.356412100645306 -76.35840658458923 11.500000000000073
  endloop
endfacet
facet normal -0.1654728142181307 -0.9862143518296274 -0.0
  outer loop
    vertex -8.589553973769984 -83.79021340504953 11.500000000000073
    vertex -9.0787607747673 -83.70813142566493 -1.4999999999999947
    vertex -8.589553973769984 -83.79021340504953 -1.4999999999999947
  endloop
endfacet
facet normal -0.1654728142181307 -0.9862143518296274 -0.0
  outer loop
    vertex -9.0787607747673 -83.70813142566493 -1.4999999999999947
    vertex -8.589553973769984 -83.79021340504953 11.500000000000073
    vertex -9.0787607747673 -83.70813142566493 11.500000000000073
  endloop
endfacet
facet normal 0.6544148768664042 -0.7561356815651072 0.0
  outer loop
    vertex -5.414452844215904 -82.67984535030526 11.500000000000073
    vertex -5.789530247228887 -83.00446464614386 -1.4999999999999947
    vertex -5.414452844215904 -82.67984535030526 -1.4999999999999947
  endloop
endfacet
facet normal 0.6544148768664042 -0.7561356815651072 0.0
  outer loop
    vertex -5.789530247228887 -83.00446464614386 -1.4999999999999947
    vertex -5.414452844215904 -82.67984535030526 11.500000000000073
    vertex -5.789530247228887 -83.00446464614386 11.500000000000073
  endloop
endfacet
facet normal -0.9213530854792796 -0.38872675734738305 -0.0
  outer loop
    vertex -11.910405797841815 -81.1652371443434 11.500000000000073
    vertex -11.717579792956391 -81.62226983171013 -1.4999999999999947
    vertex -11.717579792956391 -81.62226983171013 11.500000000000073
  endloop
endfacet
facet normal -0.9213530854792796 -0.38872675734738305 -0.0
  outer loop
    vertex -11.717579792956391 -81.62226983171013 -1.4999999999999947
    vertex -11.910405797841815 -81.1652371443434 11.500000000000073
    vertex -11.910405797841815 -81.1652371443434 -1.4999999999999947
  endloop
endfacet
facet normal -0.6544148768664049 0.7561356815651067 0.0
  outer loop
    vertex -10.949206202119715 -77.0427800440335 11.500000000000073
    vertex -10.574128799106733 -76.7181607481949 -1.4999999999999947
    vertex -10.949206202119715 -77.0427800440335 -1.4999999999999947
  endloop
endfacet
facet normal -0.6544148768664049 0.7561356815651067 0.0
  outer loop
    vertex -10.574128799106733 -76.7181607481949 -1.4999999999999947
    vertex -10.949206202119715 -77.0427800440335 11.500000000000073
    vertex -10.574128799106733 -76.7181607481949 11.500000000000073
  endloop
endfacet
facet normal 0.8868116740709191 -0.46213099304367616 0.0
  outer loop
    vertex -4.571216687320002 -81.46317878071417 -1.4999999999999947
    vertex -4.8004545039561 -81.90307737005679 11.500000000000073
    vertex -4.8004545039561 -81.90307737005679 -1.4999999999999947
  endloop
endfacet
facet normal 0.8868116740709191 -0.46213099304367616 0.0
  outer loop
    vertex -4.8004545039561 -81.90307737005679 11.500000000000073
    vertex -4.571216687320002 -81.46317878071417 -1.4999999999999947
    vertex -4.571216687320002 -81.46317878071417 11.500000000000073
  endloop
endfacet
facet normal 0.20919698540472714 -0.9778735200922328 0.0
  outer loop
    vertex -7.11459731442852 -83.66440557174258 11.500000000000073
    vertex -7.599666686676865 -83.76817671218305 -1.4999999999999947
    vertex -7.11459731442852 -83.66440557174258 -1.4999999999999947
  endloop
endfacet
facet normal 0.20919698540472714 -0.9778735200922328 0.0
  outer loop
    vertex -7.599666686676865 -83.76817671218305 -1.4999999999999947
    vertex -7.11459731442852 -83.66440557174258 11.500000000000073
    vertex -7.599666686676865 -83.76817671218305 11.500000000000073
  endloop
endfacet
facet normal 0.9738781591128 -0.22707120293657698 0.0
  outer loop
    vertex -4.286282833440769 -80.51493031333095 -1.4999999999999947
    vertex -4.398920391980787 -80.99801780632562 11.500000000000073
    vertex -4.398920391980787 -80.99801780632562 -1.4999999999999947
  endloop
endfacet
facet normal 0.9738781591128 -0.22707120293657698 0.0
  outer loop
    vertex -4.398920391980787 -80.99801780632562 11.500000000000073
    vertex -4.286282833440769 -80.51493031333095 -1.4999999999999947
    vertex -4.286282833440769 -80.51493031333095 11.500000000000073
  endloop
endfacet
facet normal 0.8653675597341296 0.5011376922162187 0.0
  outer loop
    vertex -4.894666152174044 -77.67109422121841 -1.4999999999999947
    vertex -4.646079253379221 -78.10035556262862 11.500000000000073
    vertex -4.646079253379221 -78.10035556262862 -1.4999999999999947
  endloop
endfacet
facet normal 0.8653675597341296 0.5011376922162187 0.0
  outer loop
    vertex -4.646079253379221 -78.10035556262862 11.500000000000073
    vertex -4.894666152174044 -77.67109422121841 -1.4999999999999947
    vertex -4.894666152174044 -77.67109422121841 11.500000000000073
  endloop
endfacet
facet normal 0.9377392708315121 -0.34733997745779893 0.0
  outer loop
    vertex -4.398920391980787 -80.99801780632562 -1.4999999999999947
    vertex -4.571216687320002 -81.46317878071417 11.500000000000073
    vertex -4.571216687320002 -81.46317878071417 -1.4999999999999947
  endloop
endfacet
facet normal 0.9377392708315121 -0.34733997745779893 0.0
  outer loop
    vertex -4.571216687320002 -81.46317878071417 11.500000000000073
    vertex -4.398920391980787 -80.99801780632562 -1.4999999999999947
    vertex -4.398920391980787 -80.99801780632562 11.500000000000073
  endloop
endfacet
facet normal -0.04056257795134592 -0.9991769999704463 -0.0
  outer loop
    vertex -8.093917114623892 -83.81033427325933 11.500000000000073
    vertex -8.589553973769984 -83.79021340504953 -1.4999999999999947
    vertex -8.093917114623892 -83.81033427325933 -1.4999999999999947
  endloop
endfacet
facet normal -0.04056257795134592 -0.9991769999704463 -0.0
  outer loop
    vertex -8.589553973769984 -83.79021340504953 -1.4999999999999947
    vertex -8.093917114623892 -83.81033427325933 11.500000000000073
    vertex -8.589553973769984 -83.79021340504953 11.500000000000073
  endloop
endfacet
facet normal 0.7440235500819781 -0.6681533932589211 0.0
  outer loop
    vertex -5.083018624580691 -82.31077611081689 -1.4999999999999947
    vertex -5.414452844215904 -82.67984535030526 11.500000000000073
    vertex -5.414452844215904 -82.67984535030526 -1.4999999999999947
  endloop
endfacet
facet normal 0.7440235500819781 -0.6681533932589211 0.0
  outer loop
    vertex -5.414452844215904 -82.67984535030526 11.500000000000073
    vertex -5.083018624580691 -82.31077611081689 -1.4999999999999947
    vertex -5.083018624580691 -82.31077611081689 11.500000000000073
  endloop
endfacet
facet normal 0.08498735440064106 -0.996382029942321 0.0
  outer loop
    vertex -7.599666686676865 -83.76817671218305 11.500000000000073
    vertex -8.093917114623892 -83.81033427325933 -1.4999999999999947
    vertex -7.599666686676865 -83.76817671218305 -1.4999999999999947
  endloop
endfacet
facet normal 0.08498735440064106 -0.996382029942321 0.0
  outer loop
    vertex -8.093917114623892 -83.81033427325933 -1.4999999999999947
    vertex -7.599666686676865 -83.76817671218305 11.500000000000073
    vertex -8.093917114623892 -83.81033427325933 11.500000000000073
  endloop
endfacet
facet normal 0.8218985274546137 -0.569633926805574 0.0
  outer loop
    vertex -4.8004545039561 -81.90307737005679 -1.4999999999999947
    vertex -5.083018624580691 -82.31077611081689 11.500000000000073
    vertex -5.083018624580691 -82.31077611081689 -1.4999999999999947
  endloop
endfacet
facet normal 0.8218985274546137 -0.569633926805574 0.0
  outer loop
    vertex -5.083018624580691 -82.31077611081689 11.500000000000073
    vertex -4.8004545039561 -81.90307737005679 -1.4999999999999947
    vertex -4.8004545039561 -81.90307737005679 11.500000000000073
  endloop
endfacet
facet normal 0.5544856901141774 -0.832193258479426 0.0
  outer loop
    vertex -5.789530247228887 -83.00446464614386 11.500000000000073
    vertex -6.202335638913742 -83.27951455811919 -1.4999999999999947
    vertex -5.789530247228887 -83.00446464614386 -1.4999999999999947
  endloop
endfacet
facet normal 0.5544856901141774 -0.832193258479426 0.0
  outer loop
    vertex -6.202335638913742 -83.27951455811919 -1.4999999999999947
    vertex -5.789530247228887 -83.00446464614386 11.500000000000073
    vertex -6.202335638913742 -83.27951455811919 11.500000000000073
  endloop
endfacet
facet normal 0.4458119327951273 -0.8951266505793875 0.0
  outer loop
    vertex -6.202335638913742 -83.27951455811919 11.500000000000073
    vertex -6.646358831645613 -83.50065738481253 -1.4999999999999947
    vertex -6.202335638913742 -83.27951455811919 -1.4999999999999947
  endloop
endfacet
facet normal 0.4458119327951273 -0.8951266505793875 0.0
  outer loop
    vertex -6.646358831645613 -83.50065738481253 -1.4999999999999947
    vertex -6.202335638913742 -83.27951455811919 11.500000000000073
    vertex -6.646358831645613 -83.50065738481253 11.500000000000073
  endloop
endfacet
facet normal 0.3301074549807469 -0.9439433606769712 0.0
  outer loop
    vertex -6.646358831645613 -83.50065738481253 11.500000000000073
    vertex -7.11459731442852 -83.66440557174258 -1.4999999999999947
    vertex -6.646358831645613 -83.50065738481253 -1.4999999999999947
  endloop
endfacet
facet normal 0.3301074549807469 -0.9439433606769712 0.0
  outer loop
    vertex -7.11459731442852 -83.66440557174258 -1.4999999999999947
    vertex -6.646358831645613 -83.50065738481253 11.500000000000073
    vertex -7.11459731442852 -83.66440557174258 11.500000000000073
  endloop
endfacet
facet normal -0.7957346706264509 -0.6056453863136531 -0.0
  outer loop
    vertex -11.468992894161568 -82.05153117312034 11.500000000000073
    vertex -11.168565465349959 -82.4462514607917 -1.4999999999999947
    vertex -11.168565465349959 -82.4462514607917 11.500000000000073
  endloop
endfacet
facet normal -0.7957346706264509 -0.6056453863136531 -0.0
  outer loop
    vertex -11.168565465349959 -82.4462514607917 -1.4999999999999947
    vertex -11.468992894161568 -82.05153117312034 11.500000000000073
    vertex -11.468992894161568 -82.05153117312034 -1.4999999999999947
  endloop
endfacet
facet normal -0.40553571735310395 -0.914079198948813 -0.0
  outer loop
    vertex -9.55382243412613 -83.56538281695384 11.500000000000073
    vertex -10.007246945690312 -83.36421880974952 -1.4999999999999947
    vertex -9.55382243412613 -83.56538281695384 -1.4999999999999947
  endloop
endfacet
facet normal -0.40553571735310395 -0.914079198948813 -0.0
  outer loop
    vertex -10.007246945690312 -83.36421880974952 -1.4999999999999947
    vertex -9.55382243412613 -83.56538281695384 11.500000000000073
    vertex -10.007246945690312 -83.36421880974952 11.500000000000073
  endloop
endfacet
facet normal -0.9628083226767611 -0.27018536930108206 -0.0
  outer loop
    vertex -12.044429927532127 -80.68764078951803 11.500000000000073
    vertex -11.910405797841815 -81.1652371443434 -1.4999999999999947
    vertex -11.910405797841815 -81.1652371443434 11.500000000000073
  endloop
endfacet
facet normal -0.9628083226767611 -0.27018536930108206 -0.0
  outer loop
    vertex -11.910405797841815 -81.1652371443434 -1.4999999999999947
    vertex -12.044429927532127 -80.68764078951803 11.500000000000073
    vertex -12.044429927532127 -80.68764078951803 -1.4999999999999947
  endloop
endfacet
facet normal -0.2877734453560181 -0.9576985142245585 -0.0
  outer loop
    vertex -9.0787607747673 -83.70813142566493 11.500000000000073
    vertex -9.55382243412613 -83.56538281695384 -1.4999999999999947
    vertex -9.0787607747673 -83.70813142566493 -1.4999999999999947
  endloop
endfacet
facet normal -0.2877734453560181 -0.9576985142245585 -0.0
  outer loop
    vertex -9.55382243412613 -83.56538281695384 -1.4999999999999947
    vertex -9.0787607747673 -83.70813142566493 11.500000000000073
    vertex -9.55382243412613 -83.56538281695384 11.500000000000073
  endloop
endfacet
facet normal -0.9890794974718174 -0.14738299657998902 -0.0
  outer loop
    vertex -12.117538541439977 -80.19701274705186 11.500000000000073
    vertex -12.044429927532127 -80.68764078951803 -1.4999999999999947
    vertex -12.044429927532127 -80.68764078951803 11.500000000000073
  endloop
endfacet
facet normal -0.9890794974718174 -0.14738299657998902 -0.0
  outer loop
    vertex -12.044429927532127 -80.68764078951803 -1.4999999999999947
    vertex -12.117538541439977 -80.19701274705186 11.500000000000073
    vertex -12.117538541439977 -80.19701274705186 -1.4999999999999947
  endloop
endfacet
facet normal -0.5169024488322467 -0.856044308661197 -0.0
  outer loop
    vertex -10.007246945690312 -83.36421880974952 11.500000000000073
    vertex -10.431883534049803 -83.10781188061512 -1.4999999999999947
    vertex -10.007246945690312 -83.36421880974952 -1.4999999999999947
  endloop
endfacet
facet normal -0.5169024488322467 -0.856044308661197 -0.0
  outer loop
    vertex -10.431883534049803 -83.10781188061512 -1.4999999999999947
    vertex -10.007246945690312 -83.36421880974952 11.500000000000073
    vertex -10.431883534049803 -83.10781188061512 11.500000000000073
  endloop
endfacet
facet normal 0.0 0.0 1.0
  outer loop
    vertex -12.117538541439977 -80.19701274705186 11.500000000000073
    vertex -12.077376212894839 -79.20769508100778 11.500000000000073
    vertex -12.128578673051067 -79.70109051426155 11.500000000000073
  endloop
endfacet
facet normal 0.0 0.0 1.0
  outer loop
    vertex -12.077376212894839 -79.20769508100778 11.500000000000073
    vertex -12.117538541439977 -80.19701274705186 11.500000000000073
    vertex -12.044429927532127 -80.68764078951803 11.500000000000073
  endloop
endfacet
facet normal 0.0 0.0 1.0
  outer loop
    vertex -12.077376212894839 -79.20769508100778 11.500000000000073
    vertex -12.044429927532127 -80.68764078951803 11.500000000000073
    vertex -11.96473865435482 -78.72460758801313 11.500000000000073
  endloop
endfacet
facet normal 0.0 0.0 1.0
  outer loop
    vertex -11.96473865435482 -78.72460758801313 11.500000000000073
    vertex -12.044429927532127 -80.68764078951803 11.500000000000073
    vertex -11.910405797841815 -81.1652371443434 11.500000000000073
  endloop
endfacet
facet normal 0.0 0.0 1.0
  outer loop
    vertex -11.96473865435482 -78.72460758801313 11.500000000000073
    vertex -11.910405797841815 -81.1652371443434 11.500000000000073
    vertex -11.792442359015602 -78.25944661362459 11.500000000000073
  endloop
endfacet
facet normal 0.0 0.0 1.0
  outer loop
    vertex -11.792442359015602 -78.25944661362459 11.500000000000073
    vertex -11.910405797841815 -81.1652371443434 11.500000000000073
    vertex -11.717579792956391 -81.62226983171013 11.500000000000073
  endloop
endfacet
facet normal 0.0 0.0 1.0
  outer loop
    vertex -11.792442359015602 -78.25944661362459 11.500000000000073
    vertex -11.717579792956391 -81.62226983171013 11.500000000000073
    vertex -11.563204542379516 -77.81954802428199 11.500000000000073
  endloop
endfacet
facet normal 0.0 0.0 1.0
  outer loop
    vertex -11.563204542379516 -77.81954802428199 11.500000000000073
    vertex -11.717579792956391 -81.62226983171013 11.500000000000073
    vertex -11.468992894161568 -82.05153117312034 11.500000000000073
  endloop
endfacet
facet normal 0.0 0.0 1.0
  outer loop
    vertex -11.563204542379516 -77.81954802428199 11.500000000000073
    vertex -11.468992894161568 -82.05153117312034 11.500000000000073
    vertex -11.280640421754924 -77.41184928352186 11.500000000000073
  endloop
endfacet
facet normal 0.0 0.0 1.0
  outer loop
    vertex -11.280640421754924 -77.41184928352186 11.500000000000073
    vertex -11.468992894161568 -82.05153117312034 11.500000000000073
    vertex -11.168565465349959 -82.4462514607917 11.500000000000073
  endloop
endfacet
facet normal 0.0 0.0 1.0
  outer loop
    vertex -11.280640421754924 -77.41184928352186 11.500000000000073
    vertex -11.168565465349959 -82.4462514607917 11.500000000000073
    vertex -10.949206202119715 -77.0427800440335 11.500000000000073
  endloop
endfacet
facet normal 0.0 0.0 1.0
  outer loop
    vertex -10.949206202119715 -77.0427800440335 11.500000000000073
    vertex -11.168565465349959 -82.4462514607917 11.500000000000073
    vertex -10.821035426540568 -82.80020571999317 11.500000000000073
  endloop
endfacet
facet normal 0.0 0.0 1.0
  outer loop
    vertex -10.949206202119715 -77.0427800440335 11.500000000000073
    vertex -10.821035426540568 -82.80020571999317 11.500000000000073
    vertex -10.574128799106733 -76.7181607481949 11.500000000000073
  endloop
endfacet
facet normal 0.0 0.0 1.0
  outer loop
    vertex -10.574128799106733 -76.7181607481949 11.500000000000073
    vertex -10.821035426540568 -82.80020571999317 11.500000000000073
    vertex -10.431883534049803 -83.10781188061512 11.500000000000073
  endloop
endfacet
facet normal 0.0 0.0 1.0
  outer loop
    vertex -10.574128799106733 -76.7181607481949 11.500000000000073
    vertex -10.431883534049803 -83.10781188061512 11.500000000000073
    vertex -10.161323407421879 -76.44311083621957 11.500000000000073
  endloop
endfacet
facet normal 0.0 0.0 1.0
  outer loop
    vertex -10.161323407421879 -76.44311083621957 11.500000000000073
    vertex -10.431883534049803 -83.10781188061512 11.500000000000073
    vertex -10.007246945690312 -83.36421880974952 11.500000000000073
  endloop
endfacet
facet normal 0.0 0.0 1.0
  outer loop
    vertex -10.161323407421879 -76.44311083621957 11.500000000000073
    vertex -10.007246945690312 -83.36421880974952 11.500000000000073
    vertex -9.717300214690008 -76.22196800952624 11.500000000000073
  endloop
endfacet
facet normal 0.0 0.0 1.0
  outer loop
    vertex -9.717300214690008 -76.22196800952624 11.500000000000073
    vertex -10.007246945690312 -83.36421880974952 11.500000000000073
    vertex -9.55382243412613 -83.56538281695384 11.500000000000073
  endloop
endfacet
facet normal 0.0 0.0 1.0
  outer loop
    vertex -9.717300214690008 -76.22196800952624 11.500000000000073
    vertex -9.55382243412613 -83.56538281695384 11.500000000000073
    vertex -9.249061731907103 -76.05821982259617 11.500000000000073
  endloop
endfacet
facet normal 0.0 0.0 1.0
  outer loop
    vertex -9.249061731907103 -76.05821982259617 11.500000000000073
    vertex -9.55382243412613 -83.56538281695384 11.500000000000073
    vertex -9.0787607747673 -83.70813142566493 11.500000000000073
  endloop
endfacet
facet normal 0.0 0.0 1.0
  outer loop
    vertex -9.249061731907103 -76.05821982259617 11.500000000000073
    vertex -9.0787607747673 -83.70813142566493 11.500000000000073
    vertex -8.763992359658758 -75.95444868215569 11.500000000000073
  endloop
endfacet
facet normal 0.0 0.0 1.0
  outer loop
    vertex -8.763992359658758 -75.95444868215569 11.500000000000073
    vertex -9.0787607747673 -83.70813142566493 11.500000000000073
    vertex -8.589553973769984 -83.79021340504953 11.500000000000073
  endloop
endfacet
facet normal 0.0 0.0 1.0
  outer loop
    vertex -8.763992359658758 -75.95444868215569 11.500000000000073
    vertex -8.589553973769984 -83.79021340504953 11.500000000000073
    vertex -8.26974193171173 -75.91229112107942 11.500000000000073
  endloop
endfacet
facet normal 0.0 0.0 1.0
  outer loop
    vertex -8.26974193171173 -75.91229112107942 11.500000000000073
    vertex -8.589553973769984 -83.79021340504953 11.500000000000073
    vertex -8.093917114623892 -83.81033427325933 11.500000000000073
  endloop
endfacet
facet normal 0.0 0.0 1.0
  outer loop
    vertex -8.26974193171173 -75.91229112107942 11.500000000000073
    vertex -8.093917114623892 -83.81033427325933 11.500000000000073
    vertex -7.774105072565637 -75.93241198928922 11.500000000000073
  endloop
endfacet
facet normal 0.0 0.0 1.0
  outer loop
    vertex -7.774105072565637 -75.93241198928922 11.500000000000073
    vertex -8.093917114623892 -83.81033427325933 11.500000000000073
    vertex -7.599666686676865 -83.76817671218305 11.500000000000073
  endloop
endfacet
facet normal 0.0 0.0 1.0
  outer loop
    vertex -7.774105072565637 -75.93241198928922 11.500000000000073
    vertex -7.599666686676865 -83.76817671218305 11.500000000000073
    vertex -7.284898271568322 -76.0144939686738 11.500000000000073
  endloop
endfacet
facet normal 0.0 0.0 1.0
  outer loop
    vertex -7.284898271568322 -76.0144939686738 11.500000000000073
    vertex -7.599666686676865 -83.76817671218305 11.500000000000073
    vertex -7.11459731442852 -83.66440557174258 11.500000000000073
  endloop
endfacet
facet normal 0.0 0.0 1.0
  outer loop
    vertex -7.284898271568322 -76.0144939686738 11.500000000000073
    vertex -7.11459731442852 -83.66440557174258 11.500000000000073
    vertex -6.809836612209489 -76.1572425773849 11.500000000000073
  endloop
endfacet
facet normal 0.0 0.0 1.0
  outer loop
    vertex -6.809836612209489 -76.1572425773849 11.500000000000073
    vertex -7.11459731442852 -83.66440557174258 11.500000000000073
    vertex -6.646358831645613 -83.50065738481253 11.500000000000073
  endloop
endfacet
facet normal 0.0 0.0 1.0
  outer loop
    vertex -6.809836612209489 -76.1572425773849 11.500000000000073
    vertex -6.646358831645613 -83.50065738481253 11.500000000000073
    vertex -6.356412100645306 -76.35840658458923 11.500000000000073
  endloop
endfacet
facet normal 0.0 0.0 1.0
  outer loop
    vertex -6.356412100645306 -76.35840658458923 11.500000000000073
    vertex -6.646358831645613 -83.50065738481253 11.500000000000073
    vertex -6.202335638913742 -83.27951455811919 11.500000000000073
  endloop
endfacet
facet normal 0.0 0.0 1.0
  outer loop
    vertex -6.356412100645306 -76.35840658458923 11.500000000000073
    vertex -6.202335638913742 -83.27951455811919 11.500000000000073
    vertex -5.931775512285815 -76.61481351372363 11.500000000000073
  endloop
endfacet
facet normal 0.0 0.0 1.0
  outer loop
    vertex -5.931775512285815 -76.61481351372363 11.500000000000073
    vertex -6.202335638913742 -83.27951455811919 11.500000000000073
    vertex -5.789530247228887 -83.00446464614386 11.500000000000073
  endloop
endfacet
facet normal 0.0 0.0 1.0
  outer loop
    vertex -5.931775512285815 -76.61481351372363 11.500000000000073
    vertex -5.789530247228887 -83.00446464614386 11.500000000000073
    vertex -5.542623619795047 -76.92241967434558 11.500000000000073
  endloop
endfacet
facet normal 0.0 0.0 1.0
  outer loop
    vertex -5.542623619795047 -76.92241967434558 11.500000000000073
    vertex -5.789530247228887 -83.00446464614386 11.500000000000073
    vertex -5.414452844215904 -82.67984535030526 11.500000000000073
  endloop
endfacet
facet normal 0.0 0.0 1.0
  outer loop
    vertex -5.542623619795047 -76.92241967434558 11.500000000000073
    vertex -5.414452844215904 -82.67984535030526 11.500000000000073
    vertex -5.195093580985657 -77.27637393354706 11.500000000000073
  endloop
endfacet
facet normal 0.0 0.0 1.0
  outer loop
    vertex -5.195093580985657 -77.27637393354706 11.500000000000073
    vertex -5.414452844215904 -82.67984535030526 11.500000000000073
    vertex -5.083018624580691 -82.31077611081689 11.500000000000073
  endloop
endfacet
facet normal 0.0 0.0 1.0
  outer loop
    vertex -5.195093580985657 -77.27637393354706 11.500000000000073
    vertex -5.083018624580691 -82.31077611081689 11.500000000000073
    vertex -4.894666152174044 -77.67109422121841 11.500000000000073
  endloop
endfacet
facet normal 0.0 0.0 1.0
  outer loop
    vertex -4.894666152174044 -77.67109422121841 11.500000000000073
    vertex -5.083018624580691 -82.31077611081689 11.500000000000073
    vertex -4.8004545039561 -81.90307737005679 11.500000000000073
  endloop
endfacet
facet normal 0.0 0.0 1.0
  outer loop
    vertex -4.894666152174044 -77.67109422121841 11.500000000000073
    vertex -4.8004545039561 -81.90307737005679 11.500000000000073
    vertex -4.646079253379221 -78.10035556262862 11.500000000000073
  endloop
endfacet
facet normal 0.0 0.0 1.0
  outer loop
    vertex -4.646079253379221 -78.10035556262862 11.500000000000073
    vertex -4.8004545039561 -81.90307737005679 11.500000000000073
    vertex -4.571216687320002 -81.46317878071417 11.500000000000073
  endloop
endfacet
facet normal 0.0 0.0 1.0
  outer loop
    vertex -4.646079253379221 -78.10035556262862 11.500000000000073
    vertex -4.571216687320002 -81.46317878071417 11.500000000000073
    vertex -4.453253248493796 -78.55738824999533 11.500000000000073
  endloop
endfacet
facet normal 0.0 0.0 1.0
  outer loop
    vertex -4.453253248493796 -78.55738824999533 11.500000000000073
    vertex -4.571216687320002 -81.46317878071417 11.500000000000073
    vertex -4.398920391980787 -80.99801780632562 11.500000000000073
  endloop
endfacet
facet normal 0.0 0.0 1.0
  outer loop
    vertex -4.453253248493796 -78.55738824999533 11.500000000000073
    vertex -4.398920391980787 -80.99801780632562 11.500000000000073
    vertex -4.319229118803482 -79.03498460482069 11.500000000000073
  endloop
endfacet
facet normal 0.0 0.0 1.0
  outer loop
    vertex -4.319229118803482 -79.03498460482069 11.500000000000073
    vertex -4.398920391980787 -80.99801780632562 11.500000000000073
    vertex -4.286282833440769 -80.51493031333095 11.500000000000073
  endloop
endfacet
facet normal 0.0 0.0 1.0
  outer loop
    vertex -4.319229118803482 -79.03498460482069 11.500000000000073
    vertex -4.286282833440769 -80.51493031333095 11.500000000000073
    vertex -4.246120504895631 -79.52561264728688 11.500000000000073
  endloop
endfacet
facet normal 0.0 0.0 1.0
  outer loop
    vertex -4.246120504895631 -79.52561264728688 11.500000000000073
    vertex -4.286282833440769 -80.51493031333095 11.500000000000073
    vertex -4.235080373284539 -80.0215348800772 11.500000000000073
  endloop
endfacet
facet normal -0.9997522977442931 -0.02225630596048021 -0.0
  outer loop
    vertex -12.128578673051067 -79.70109051426155 11.500000000000073
    vertex -12.117538541439977 -80.19701274705186 -1.4999999999999947
    vertex -12.117538541439977 -80.19701274705186 11.500000000000073
  endloop
endfacet
facet normal -0.9997522977442931 -0.02225630596048021 -0.0
  outer loop
    vertex -12.117538541439977 -80.19701274705186 -1.4999999999999947
    vertex -12.128578673051067 -79.70109051426155 11.500000000000073
    vertex -12.128578673051067 -79.70109051426155 -1.4999999999999947
  endloop
endfacet
facet normal 0.0 0.0 -1.0
  outer loop
    vertex -12.077376212894839 -79.20769508100778 -1.4999999999999947
    vertex -12.117538541439977 -80.19701274705186 -1.4999999999999947
    vertex -12.128578673051067 -79.70109051426155 -1.4999999999999947
  endloop
endfacet
facet normal 0.0 0.0 -1.0
  outer loop
    vertex -12.117538541439977 -80.19701274705186 -1.4999999999999947
    vertex -12.077376212894839 -79.20769508100778 -1.4999999999999947
    vertex -12.044429927532127 -80.68764078951803 -1.4999999999999947
  endloop
endfacet
facet normal 0.0 0.0 -1.0
  outer loop
    vertex -12.044429927532127 -80.68764078951803 -1.4999999999999947
    vertex -12.077376212894839 -79.20769508100778 -1.4999999999999947
    vertex -11.96473865435482 -78.72460758801313 -1.4999999999999947
  endloop
endfacet
facet normal 0.0 0.0 -1.0
  outer loop
    vertex -12.044429927532127 -80.68764078951803 -1.4999999999999947
    vertex -11.96473865435482 -78.72460758801313 -1.4999999999999947
    vertex -11.910405797841815 -81.1652371443434 -1.4999999999999947
  endloop
endfacet
facet normal 0.0 0.0 -1.0
  outer loop
    vertex -11.910405797841815 -81.1652371443434 -1.4999999999999947
    vertex -11.96473865435482 -78.72460758801313 -1.4999999999999947
    vertex -11.792442359015602 -78.25944661362459 -1.4999999999999947
  endloop
endfacet
facet normal 0.0 0.0 -1.0
  outer loop
    vertex -11.910405797841815 -81.1652371443434 -1.4999999999999947
    vertex -11.792442359015602 -78.25944661362459 -1.4999999999999947
    vertex -11.717579792956391 -81.62226983171013 -1.4999999999999947
  endloop
endfacet
facet normal 0.0 0.0 -1.0
  outer loop
    vertex -11.717579792956391 -81.62226983171013 -1.4999999999999947
    vertex -11.792442359015602 -78.25944661362459 -1.4999999999999947
    vertex -11.563204542379516 -77.81954802428199 -1.4999999999999947
  endloop
endfacet
facet normal 0.0 0.0 -1.0
  outer loop
    vertex -11.717579792956391 -81.62226983171013 -1.4999999999999947
    vertex -11.563204542379516 -77.81954802428199 -1.4999999999999947
    vertex -11.468992894161568 -82.05153117312034 -1.4999999999999947
  endloop
endfacet
facet normal 0.0 0.0 -1.0
  outer loop
    vertex -11.468992894161568 -82.05153117312034 -1.4999999999999947
    vertex -11.563204542379516 -77.81954802428199 -1.4999999999999947
    vertex -11.280640421754924 -77.41184928352186 -1.4999999999999947
  endloop
endfacet
facet normal 0.0 0.0 -1.0
  outer loop
    vertex -11.468992894161568 -82.05153117312034 -1.4999999999999947
    vertex -11.280640421754924 -77.41184928352186 -1.4999999999999947
    vertex -11.168565465349959 -82.4462514607917 -1.4999999999999947
  endloop
endfacet
facet normal 0.0 0.0 -1.0
  outer loop
    vertex -11.168565465349959 -82.4462514607917 -1.4999999999999947
    vertex -11.280640421754924 -77.41184928352186 -1.4999999999999947
    vertex -10.949206202119715 -77.0427800440335 -1.4999999999999947
  endloop
endfacet
facet normal 0.0 0.0 -1.0
  outer loop
    vertex -11.168565465349959 -82.4462514607917 -1.4999999999999947
    vertex -10.949206202119715 -77.0427800440335 -1.4999999999999947
    vertex -10.821035426540568 -82.80020571999317 -1.4999999999999947
  endloop
endfacet
facet normal 0.0 0.0 -1.0
  outer loop
    vertex -10.821035426540568 -82.80020571999317 -1.4999999999999947
    vertex -10.949206202119715 -77.0427800440335 -1.4999999999999947
    vertex -10.574128799106733 -76.7181607481949 -1.4999999999999947
  endloop
endfacet
facet normal 0.0 0.0 -1.0
  outer loop
    vertex -10.821035426540568 -82.80020571999317 -1.4999999999999947
    vertex -10.574128799106733 -76.7181607481949 -1.4999999999999947
    vertex -10.431883534049803 -83.10781188061512 -1.4999999999999947
  endloop
endfacet
facet normal 0.0 0.0 -1.0
  outer loop
    vertex -10.431883534049803 -83.10781188061512 -1.4999999999999947
    vertex -10.574128799106733 -76.7181607481949 -1.4999999999999947
    vertex -10.161323407421879 -76.44311083621957 -1.4999999999999947
  endloop
endfacet
facet normal 0.0 0.0 -1.0
  outer loop
    vertex -10.431883534049803 -83.10781188061512 -1.4999999999999947
    vertex -10.161323407421879 -76.44311083621957 -1.4999999999999947
    vertex -10.007246945690312 -83.36421880974952 -1.4999999999999947
  endloop
endfacet
facet normal 0.0 0.0 -1.0
  outer loop
    vertex -10.007246945690312 -83.36421880974952 -1.4999999999999947
    vertex -10.161323407421879 -76.44311083621957 -1.4999999999999947
    vertex -9.717300214690008 -76.22196800952624 -1.4999999999999947
  endloop
endfacet
facet normal 0.0 0.0 -1.0
  outer loop
    vertex -10.007246945690312 -83.36421880974952 -1.4999999999999947
    vertex -9.717300214690008 -76.22196800952624 -1.4999999999999947
    vertex -9.55382243412613 -83.56538281695384 -1.4999999999999947
  endloop
endfacet
facet normal 0.0 0.0 -1.0
  outer loop
    vertex -9.55382243412613 -83.56538281695384 -1.4999999999999947
    vertex -9.717300214690008 -76.22196800952624 -1.4999999999999947
    vertex -9.249061731907103 -76.05821982259617 -1.4999999999999947
  endloop
endfacet
facet normal 0.0 0.0 -1.0
  outer loop
    vertex -9.55382243412613 -83.56538281695384 -1.4999999999999947
    vertex -9.249061731907103 -76.05821982259617 -1.4999999999999947
    vertex -9.0787607747673 -83.70813142566493 -1.4999999999999947
  endloop
endfacet
facet normal 0.0 0.0 -1.0
  outer loop
    vertex -9.0787607747673 -83.70813142566493 -1.4999999999999947
    vertex -9.249061731907103 -76.05821982259617 -1.4999999999999947
    vertex -8.763992359658758 -75.95444868215569 -1.4999999999999947
  endloop
endfacet
facet normal 0.0 0.0 -1.0
  outer loop
    vertex -9.0787607747673 -83.70813142566493 -1.4999999999999947
    vertex -8.763992359658758 -75.95444868215569 -1.4999999999999947
    vertex -8.589553973769984 -83.79021340504953 -1.4999999999999947
  endloop
endfacet
facet normal 0.0 0.0 -1.0
  outer loop
    vertex -8.589553973769984 -83.79021340504953 -1.4999999999999947
    vertex -8.763992359658758 -75.95444868215569 -1.4999999999999947
    vertex -8.26974193171173 -75.91229112107942 -1.4999999999999947
  endloop
endfacet
facet normal 0.0 0.0 -1.0
  outer loop
    vertex -8.589553973769984 -83.79021340504953 -1.4999999999999947
    vertex -8.26974193171173 -75.91229112107942 -1.4999999999999947
    vertex -8.093917114623892 -83.81033427325933 -1.4999999999999947
  endloop
endfacet
facet normal 0.0 0.0 -1.0
  outer loop
    vertex -8.093917114623892 -83.81033427325933 -1.4999999999999947
    vertex -8.26974193171173 -75.91229112107942 -1.4999999999999947
    vertex -7.774105072565637 -75.93241198928922 -1.4999999999999947
  endloop
endfacet
facet normal 0.0 0.0 -1.0
  outer loop
    vertex -8.093917114623892 -83.81033427325933 -1.4999999999999947
    vertex -7.774105072565637 -75.93241198928922 -1.4999999999999947
    vertex -7.599666686676865 -83.76817671218305 -1.4999999999999947
  endloop
endfacet
facet normal 0.0 0.0 -1.0
  outer loop
    vertex -7.599666686676865 -83.76817671218305 -1.4999999999999947
    vertex -7.774105072565637 -75.93241198928922 -1.4999999999999947
    vertex -7.284898271568322 -76.0144939686738 -1.4999999999999947
  endloop
endfacet
facet normal 0.0 0.0 -1.0
  outer loop
    vertex -7.599666686676865 -83.76817671218305 -1.4999999999999947
    vertex -7.284898271568322 -76.0144939686738 -1.4999999999999947
    vertex -7.11459731442852 -83.66440557174258 -1.4999999999999947
  endloop
endfacet
facet normal 0.0 0.0 -1.0
  outer loop
    vertex -7.11459731442852 -83.66440557174258 -1.4999999999999947
    vertex -7.284898271568322 -76.0144939686738 -1.4999999999999947
    vertex -6.809836612209489 -76.1572425773849 -1.4999999999999947
  endloop
endfacet
facet normal 0.0 0.0 -1.0
  outer loop
    vertex -7.11459731442852 -83.66440557174258 -1.4999999999999947
    vertex -6.809836612209489 -76.1572425773849 -1.4999999999999947
    vertex -6.646358831645613 -83.50065738481253 -1.4999999999999947
  endloop
endfacet
facet normal 0.0 0.0 -1.0
  outer loop
    vertex -6.646358831645613 -83.50065738481253 -1.4999999999999947
    vertex -6.809836612209489 -76.1572425773849 -1.4999999999999947
    vertex -6.356412100645306 -76.35840658458923 -1.4999999999999947
  endloop
endfacet
facet normal 0.0 0.0 -1.0
  outer loop
    vertex -6.646358831645613 -83.50065738481253 -1.4999999999999947
    vertex -6.356412100645306 -76.35840658458923 -1.4999999999999947
    vertex -6.202335638913742 -83.27951455811919 -1.4999999999999947
  endloop
endfacet
facet normal 0.0 0.0 -1.0
  outer loop
    vertex -6.202335638913742 -83.27951455811919 -1.4999999999999947
    vertex -6.356412100645306 -76.35840658458923 -1.4999999999999947
    vertex -5.931775512285815 -76.61481351372363 -1.4999999999999947
  endloop
endfacet
facet normal 0.0 0.0 -1.0
  outer loop
    vertex -6.202335638913742 -83.27951455811919 -1.4999999999999947
    vertex -5.931775512285815 -76.61481351372363 -1.4999999999999947
    vertex -5.789530247228887 -83.00446464614386 -1.4999999999999947
  endloop
endfacet
facet normal 0.0 0.0 -1.0
  outer loop
    vertex -5.789530247228887 -83.00446464614386 -1.4999999999999947
    vertex -5.931775512285815 -76.61481351372363 -1.4999999999999947
    vertex -5.542623619795047 -76.92241967434558 -1.4999999999999947
  endloop
endfacet
facet normal 0.0 0.0 -1.0
  outer loop
    vertex -5.789530247228887 -83.00446464614386 -1.4999999999999947
    vertex -5.542623619795047 -76.92241967434558 -1.4999999999999947
    vertex -5.414452844215904 -82.67984535030526 -1.4999999999999947
  endloop
endfacet
facet normal 0.0 0.0 -1.0
  outer loop
    vertex -5.414452844215904 -82.67984535030526 -1.4999999999999947
    vertex -5.542623619795047 -76.92241967434558 -1.4999999999999947
    vertex -5.195093580985657 -77.27637393354706 -1.4999999999999947
  endloop
endfacet
facet normal 0.0 0.0 -1.0
  outer loop
    vertex -5.414452844215904 -82.67984535030526 -1.4999999999999947
    vertex -5.195093580985657 -77.27637393354706 -1.4999999999999947
    vertex -5.083018624580691 -82.31077611081689 -1.4999999999999947
  endloop
endfacet
facet normal 0.0 0.0 -1.0
  outer loop
    vertex -5.083018624580691 -82.31077611081689 -1.4999999999999947
    vertex -5.195093580985657 -77.27637393354706 -1.4999999999999947
    vertex -4.894666152174044 -77.67109422121841 -1.4999999999999947
  endloop
endfacet
facet normal 0.0 0.0 -1.0
  outer loop
    vertex -5.083018624580691 -82.31077611081689 -1.4999999999999947
    vertex -4.894666152174044 -77.67109422121841 -1.4999999999999947
    vertex -4.8004545039561 -81.90307737005679 -1.4999999999999947
  endloop
endfacet
facet normal 0.0 0.0 -1.0
  outer loop
    vertex -4.8004545039561 -81.90307737005679 -1.4999999999999947
    vertex -4.894666152174044 -77.67109422121841 -1.4999999999999947
    vertex -4.646079253379221 -78.10035556262862 -1.4999999999999947
  endloop
endfacet
facet normal 0.0 0.0 -1.0
  outer loop
    vertex -4.8004545039561 -81.90307737005679 -1.4999999999999947
    vertex -4.646079253379221 -78.10035556262862 -1.4999999999999947
    vertex -4.571216687320002 -81.46317878071417 -1.4999999999999947
  endloop
endfacet
facet normal 0.0 0.0 -1.0
  outer loop
    vertex -4.571216687320002 -81.46317878071417 -1.4999999999999947
    vertex -4.646079253379221 -78.10035556262862 -1.4999999999999947
    vertex -4.453253248493796 -78.55738824999533 -1.4999999999999947
  endloop
endfacet
facet normal 0.0 0.0 -1.0
  outer loop
    vertex -4.571216687320002 -81.46317878071417 -1.4999999999999947
    vertex -4.453253248493796 -78.55738824999533 -1.4999999999999947
    vertex -4.398920391980787 -80.99801780632562 -1.4999999999999947
  endloop
endfacet
facet normal 0.0 0.0 -1.0
  outer loop
    vertex -4.398920391980787 -80.99801780632562 -1.4999999999999947
    vertex -4.453253248493796 -78.55738824999533 -1.4999999999999947
    vertex -4.319229118803482 -79.03498460482069 -1.4999999999999947
  endloop
endfacet
facet normal 0.0 0.0 -1.0
  outer loop
    vertex -4.398920391980787 -80.99801780632562 -1.4999999999999947
    vertex -4.319229118803482 -79.03498460482069 -1.4999999999999947
    vertex -4.286282833440769 -80.51493031333095 -1.4999999999999947
  endloop
endfacet
facet normal 0.0 0.0 -1.0
  outer loop
    vertex -4.286282833440769 -80.51493031333095 -1.4999999999999947
    vertex -4.319229118803482 -79.03498460482069 -1.4999999999999947
    vertex -4.246120504895631 -79.52561264728688 -1.4999999999999947
  endloop
endfacet
facet normal 0.0 0.0 -1.0
  outer loop
    vertex -4.286282833440769 -80.51493031333095 -1.4999999999999947
    vertex -4.246120504895631 -79.52561264728688 -1.4999999999999947
    vertex -4.235080373284539 -80.0215348800772 -1.4999999999999947
  endloop
endfacet
facet normal -0.6201173199107707 -0.784509088249896 -0.0
  outer loop
    vertex -10.431883534049803 -83.10781188061512 11.500000000000073
    vertex -10.821035426540568 -82.80020571999317 -1.4999999999999947
    vertex -10.431883534049803 -83.10781188061512 -1.4999999999999947
  endloop
endfacet
facet normal -0.6201173199107707 -0.784509088249896 -0.0
  outer loop
    vertex -10.821035426540568 -82.80020571999317 -1.4999999999999947
    vertex -10.431883534049803 -83.10781188061512 11.500000000000073
    vertex -10.821035426540568 -82.80020571999317 11.500000000000073
  endloop
endfacet
facet normal -0.7135525704141508 -0.7006016908738935 -0.0
  outer loop
    vertex -11.168565465349959 -82.4462514607917 11.500000000000073
    vertex -10.821035426540568 -82.80020571999317 -1.4999999999999947
    vertex -10.821035426540568 -82.80020571999317 11.500000000000073
  endloop
endfacet
facet normal -0.7135525704141508 -0.7006016908738935 -0.0
  outer loop
    vertex -10.821035426540568 -82.80020571999317 -1.4999999999999947
    vertex -11.168565465349959 -82.4462514607917 11.500000000000073
    vertex -11.168565465349959 -82.4462514607917 -1.4999999999999947
  endloop
endfacet
facet normal -0.8868116740709181 0.462130993043678 0.0
  outer loop
    vertex -11.563204542379516 -77.81954802428199 11.500000000000073
    vertex -11.792442359015602 -78.25944661362459 -1.4999999999999947
    vertex -11.792442359015602 -78.25944661362459 11.500000000000073
  endloop
endfacet
facet normal -0.8868116740709181 0.462130993043678 0.0
  outer loop
    vertex -11.792442359015602 -78.25944661362459 -1.4999999999999947
    vertex -11.563204542379516 -77.81954802428199 11.500000000000073
    vertex -11.563204542379516 -77.81954802428199 -1.4999999999999947
  endloop
endfacet
facet normal -0.8653675597341296 -0.5011376922162187 -0.0
  outer loop
    vertex -11.717579792956391 -81.62226983171013 11.500000000000073
    vertex -11.468992894161568 -82.05153117312034 -1.4999999999999947
    vertex -11.468992894161568 -82.05153117312034 11.500000000000073
  endloop
endfacet
facet normal -0.8653675597341296 -0.5011376922162187 -0.0
  outer loop
    vertex -11.468992894161568 -82.05153117312034 -1.4999999999999947
    vertex -11.717579792956391 -81.62226983171013 11.500000000000073
    vertex -11.717579792956391 -81.62226983171013 -1.4999999999999947
  endloop
endfacet
facet normal -0.9738781591127982 0.22707120293658473 0.0
  outer loop
    vertex -11.96473865435482 -78.72460758801313 11.500000000000073
    vertex -12.077376212894839 -79.20769508100778 -1.4999999999999947
    vertex -12.077376212894839 -79.20769508100778 11.500000000000073
  endloop
endfacet
facet normal -0.9738781591127982 0.22707120293658473 0.0
  outer loop
    vertex -12.077376212894839 -79.20769508100778 -1.4999999999999947
    vertex -11.96473865435482 -78.72460758801313 11.500000000000073
    vertex -11.96473865435482 -78.72460758801313 -1.4999999999999947
  endloop
endfacet
facet normal -0.9377392708315115 0.34733997745780015 0.0
  outer loop
    vertex -11.792442359015602 -78.25944661362459 11.500000000000073
    vertex -11.96473865435482 -78.72460758801313 -1.4999999999999947
    vertex -11.96473865435482 -78.72460758801313 11.500000000000073
  endloop
endfacet
facet normal -0.9377392708315115 0.34733997745780015 0.0
  outer loop
    vertex -11.96473865435482 -78.72460758801313 -1.4999999999999947
    vertex -11.792442359015602 -78.25944661362459 11.500000000000073
    vertex -11.792442359015602 -78.25944661362459 -1.4999999999999947
  endloop
endfacet
facet normal -0.9946584070582664 0.10322137989928273 0.0
  outer loop
    vertex -12.077376212894839 -79.20769508100778 11.500000000000073
    vertex -12.128578673051067 -79.70109051426155 -1.4999999999999947
    vertex -12.128578673051067 -79.70109051426155 11.500000000000073
  endloop
endfacet
facet normal -0.9946584070582664 0.10322137989928273 0.0
  outer loop
    vertex -12.128578673051067 -79.70109051426155 -1.4999999999999947
    vertex -12.077376212894839 -79.20769508100778 11.500000000000073
    vertex -12.077376212894839 -79.20769508100778 -1.4999999999999947
  endloop
endfacet
facet normal -0.08498735440061848 0.9963820299423227 0.0
  outer loop
    vertex -8.763992359658758 -75.95444868215569 11.500000000000073
    vertex -8.26974193171173 -75.91229112107942 -1.4999999999999947
    vertex -8.763992359658758 -75.95444868215569 -1.4999999999999947
  endloop
endfacet
facet normal -0.08498735440061848 0.9963820299423227 0.0
  outer loop
    vertex -8.26974193171173 -75.91229112107942 -1.4999999999999947
    vertex -8.763992359658758 -75.95444868215569 11.500000000000073
    vertex -8.26974193171173 -75.91229112107942 11.500000000000073
  endloop
endfacet
facet normal -0.8218985274546283 0.5696339268055526 0.0
  outer loop
    vertex -11.280640421754924 -77.41184928352186 11.500000000000073
    vertex -11.563204542379516 -77.81954802428199 -1.4999999999999947
    vertex -11.563204542379516 -77.81954802428199 11.500000000000073
  endloop
endfacet
facet normal -0.8218985274546283 0.5696339268055526 0.0
  outer loop
    vertex -11.563204542379516 -77.81954802428199 -1.4999999999999947
    vertex -11.280640421754924 -77.41184928352186 11.500000000000073
    vertex -11.280640421754924 -77.41184928352186 -1.4999999999999947
  endloop
endfacet
facet normal -0.5544856901141787 0.8321932584794252 0.0
  outer loop
    vertex -10.574128799106733 -76.7181607481949 11.500000000000073
    vertex -10.161323407421879 -76.44311083621957 -1.4999999999999947
    vertex -10.574128799106733 -76.7181607481949 -1.4999999999999947
  endloop
endfacet
facet normal -0.5544856901141787 0.8321932584794252 0.0
  outer loop
    vertex -10.161323407421879 -76.44311083621957 -1.4999999999999947
    vertex -10.574128799106733 -76.7181607481949 11.500000000000073
    vertex -10.161323407421879 -76.44311083621957 11.500000000000073
  endloop
endfacet
facet normal 0.9628083226767603 0.27018536930108467 0.0
  outer loop
    vertex -4.453253248493796 -78.55738824999533 -1.4999999999999947
    vertex -4.319229118803482 -79.03498460482069 11.500000000000073
    vertex -4.319229118803482 -79.03498460482069 -1.4999999999999947
  endloop
endfacet
facet normal 0.9628083226767603 0.27018536930108467 0.0
  outer loop
    vertex -4.319229118803482 -79.03498460482069 11.500000000000073
    vertex -4.453253248493796 -78.55738824999533 -1.4999999999999947
    vertex -4.453253248493796 -78.55738824999533 11.500000000000073
  endloop
endfacet
facet normal 0.28777344535601734 0.9576985142245589 0.0
  outer loop
    vertex -7.284898271568322 -76.0144939686738 11.500000000000073
    vertex -6.809836612209489 -76.1572425773849 -1.4999999999999947
    vertex -7.284898271568322 -76.0144939686738 -1.4999999999999947
  endloop
endfacet
facet normal 0.28777344535601734 0.9576985142245589 0.0
  outer loop
    vertex -6.809836612209489 -76.1572425773849 -1.4999999999999947
    vertex -7.284898271568322 -76.0144939686738 11.500000000000073
    vertex -6.809836612209489 -76.1572425773849 11.500000000000073
  endloop
endfacet
facet normal -0.20919698540474893 0.9778735200922283 0.0
  outer loop
    vertex -9.249061731907103 -76.05821982259617 11.500000000000073
    vertex -8.763992359658758 -75.95444868215569 -1.4999999999999947
    vertex -9.249061731907103 -76.05821982259617 -1.4999999999999947
  endloop
endfacet
facet normal -0.20919698540474893 0.9778735200922283 0.0
  outer loop
    vertex -8.763992359658758 -75.95444868215569 -1.4999999999999947
    vertex -9.249061731907103 -76.05821982259617 11.500000000000073
    vertex -8.763992359658758 -75.95444868215569 11.500000000000073
  endloop
endfacet
facet normal 0.9946584070582661 -0.10322137989928556 0.0
  outer loop
    vertex -4.235080373284539 -80.0215348800772 -1.4999999999999947
    vertex -4.286282833440769 -80.51493031333095 11.500000000000073
    vertex -4.286282833440769 -80.51493031333095 -1.4999999999999947
  endloop
endfacet
facet normal 0.9946584070582661 -0.10322137989928556 0.0
  outer loop
    vertex -4.286282833440769 -80.51493031333095 11.500000000000073
    vertex -4.235080373284539 -80.0215348800772 -1.4999999999999947
    vertex -4.235080373284539 -80.0215348800772 11.500000000000073
  endloop
endfacet
facet normal 0.7957346706264412 0.6056453863136658 0.0
  outer loop
    vertex -5.195093580985657 -77.27637393354706 -1.4999999999999947
    vertex -4.894666152174044 -77.67109422121841 11.500000000000073
    vertex -4.894666152174044 -77.67109422121841 -1.4999999999999947
  endloop
endfacet
facet normal 0.7957346706264412 0.6056453863136658 0.0
  outer loop
    vertex -4.894666152174044 -77.67109422121841 11.500000000000073
    vertex -5.195093580985657 -77.27637393354706 -1.4999999999999947
    vertex -5.195093580985657 -77.27637393354706 11.500000000000073
  endloop
endfacet
facet normal 0.6201173199107699 0.7845090882498964 0.0
  outer loop
    vertex -5.931775512285815 -76.61481351372363 11.500000000000073
    vertex -5.542623619795047 -76.92241967434558 -1.4999999999999947
    vertex -5.931775512285815 -76.61481351372363 -1.4999999999999947
  endloop
endfacet
facet normal 0.6201173199107699 0.7845090882498964 0.0
  outer loop
    vertex -5.542623619795047 -76.92241967434558 -1.4999999999999947
    vertex -5.931775512285815 -76.61481351372363 11.500000000000073
    vertex -5.542623619795047 -76.92241967434558 11.500000000000073
  endloop
endfacet
facet normal 0.999752297744293 0.022256305960485893 0.0
  outer loop
    vertex -4.246120504895631 -79.52561264728688 -1.4999999999999947
    vertex -4.235080373284539 -80.0215348800772 11.500000000000073
    vertex -4.235080373284539 -80.0215348800772 -1.4999999999999947
  endloop
endfacet
facet normal 0.999752297744293 0.022256305960485893 0.0
  outer loop
    vertex -4.235080373284539 -80.0215348800772 11.500000000000073
    vertex -4.246120504895631 -79.52561264728688 -1.4999999999999947
    vertex -4.246120504895631 -79.52561264728688 11.500000000000073
  endloop
endfacet
facet normal 0.5169024488322455 0.8560443086611979 0.0
  outer loop
    vertex -6.356412100645306 -76.35840658458923 11.500000000000073
    vertex -5.931775512285815 -76.61481351372363 -1.4999999999999947
    vertex -6.356412100645306 -76.35840658458923 -1.4999999999999947
  endloop
endfacet
facet normal 0.5169024488322455 0.8560443086611979 0.0
  outer loop
    vertex -5.931775512285815 -76.61481351372363 -1.4999999999999947
    vertex -6.356412100645306 -76.35840658458923 11.500000000000073
    vertex -5.931775512285815 -76.61481351372363 11.500000000000073
  endloop
endfacet
facet normal 0.713552570414148 0.7006016908738962 0.0
  outer loop
    vertex -5.542623619795047 -76.92241967434558 -1.4999999999999947
    vertex -5.195093580985657 -77.27637393354706 11.500000000000073
    vertex -5.195093580985657 -77.27637393354706 -1.4999999999999947
  endloop
endfacet
facet normal 0.713552570414148 0.7006016908738962 0.0
  outer loop
    vertex -5.195093580985657 -77.27637393354706 11.500000000000073
    vertex -5.542623619795047 -76.92241967434558 -1.4999999999999947
    vertex -5.542623619795047 -76.92241967434558 11.500000000000073
  endloop
endfacet
facet normal -0.33010745498076804 0.9439433606769638 0.0
  outer loop
    vertex -9.717300214690008 -76.22196800952624 11.500000000000073
    vertex -9.249061731907103 -76.05821982259617 -1.4999999999999947
    vertex -9.717300214690008 -76.22196800952624 -1.4999999999999947
  endloop
endfacet
facet normal -0.33010745498076804 0.9439433606769638 0.0
  outer loop
    vertex -9.249061731907103 -76.05821982259617 -1.4999999999999947
    vertex -9.717300214690008 -76.22196800952624 11.500000000000073
    vertex -9.249061731907103 -76.05821982259617 11.500000000000073
  endloop
endfacet
endsolid special edition spinner
