solid splunk-spinner-v2
facet normal 0.0 0.0 -1.0
  outer loop
    vertex 30.999999999999993 102.75 0.0
    vertex -2.9999999999999947 95.4 0.0
    vertex -3.0 102.75 0.0
  endloop
endfacet
facet normal 0.0 0.0 -1.0
  outer loop
    vertex -2.9999999999999947 95.4 0.0
    vertex 30.999999999999993 102.75 0.0
    vertex 22.911883371163075 41.814221102782895 0.0
  endloop
endfacet
facet normal 0.0 0.0 -1.0
  outer loop
    vertex 22.911883371163075 41.814221102782895 0.0
    vertex 30.999999999999993 102.75 0.0
    vertex 26.911883371163082 41.814221102782895 0.0
  endloop
endfacet
facet normal 0.0 0.0 -1.0
  outer loop
    vertex 26.911883371163082 41.814221102782895 0.0
    vertex 30.999999999999993 102.75 0.0
    vertex 26.911883371163082 29.8142211027829 0.0
  endloop
endfacet
facet normal 0.0 0.0 -1.0
  outer loop
    vertex -2.9999999999999947 95.4 0.0
    vertex 30.999999999999993 -2.75 0.0
    vertex -3.0 -2.75 0.0
  endloop
endfacet
facet normal 0.0 0.0 -1.0
  outer loop
    vertex 30.999999999999993 -2.75 0.0
    vertex -2.9999999999999947 95.4 0.0
    vertex 22.911883371163075 29.8142211027829 0.0
  endloop
endfacet
facet normal 0.0 0.0 -1.0
  outer loop
    vertex 22.911883371163075 29.8142211027829 0.0
    vertex -2.9999999999999947 95.4 0.0
    vertex 22.911883371163075 41.814221102782895 0.0
  endloop
endfacet
facet normal 0.0 0.0 -1.0
  outer loop
    vertex 30.999999999999993 -2.75 0.0
    vertex 22.911883371163075 29.8142211027829 0.0
    vertex 26.911883371163082 29.8142211027829 0.0
  endloop
endfacet
facet normal 0.0 0.0 -1.0
  outer loop
    vertex 30.999999999999993 -2.75 0.0
    vertex 26.911883371163082 29.8142211027829 0.0
    vertex 30.999999999999993 102.75 0.0
  endloop
endfacet
facet normal 0.0 -1.0 0.0
  outer loop
    vertex 26.911883371163082 33.8142211027829 1.9999999999999962
    vertex 22.911883371163075 33.8142211027829 1.2499999999999998
    vertex 26.911883371163082 33.8142211027829 1.2499999999999998
  endloop
endfacet
facet normal 0.0 -1.0 0.0
  outer loop
    vertex 22.911883371163075 33.8142211027829 1.2499999999999998
    vertex 26.911883371163082 33.8142211027829 1.9999999999999962
    vertex 22.911883371163075 33.8142211027829 1.9999999999999962
  endloop
endfacet
facet normal 1.0 0.0 0.0
  outer loop
    vertex 22.911883371163075 29.8142211027829 0.0
    vertex 22.911883371163075 33.8142211027829 1.2499999999999998
    vertex 22.911883371163075 29.8142211027829 1.9999999999999962
  endloop
endfacet
facet normal 1.0 0.0 0.0
  outer loop
    vertex 22.911883371163075 33.8142211027829 1.2499999999999998
    vertex 22.911883371163075 29.8142211027829 0.0
    vertex 22.911883371163075 41.814221102782895 0.0
  endloop
endfacet
facet normal 1.0 0.0 0.0
  outer loop
    vertex 22.911883371163075 33.8142211027829 1.2499999999999998
    vertex 22.911883371163075 41.814221102782895 0.0
    vertex 22.911883371163075 41.814221102782895 1.2499999999999998
  endloop
endfacet
facet normal 1.0 0.0 0.0
  outer loop
    vertex 22.911883371163075 33.8142211027829 1.9999999999999962
    vertex 22.911883371163075 29.8142211027829 1.9999999999999962
    vertex 22.911883371163075 33.8142211027829 1.2499999999999998
  endloop
endfacet
facet normal 0.0 1.0 0.0
  outer loop
    vertex 22.911883371163075 29.8142211027829 1.9999999999999962
    vertex 26.911883371163082 29.8142211027829 0.0
    vertex 22.911883371163075 29.8142211027829 0.0
  endloop
endfacet
facet normal 0.0 1.0 0.0
  outer loop
    vertex 26.911883371163082 29.8142211027829 0.0
    vertex 22.911883371163075 29.8142211027829 1.9999999999999962
    vertex 26.911883371163082 29.8142211027829 1.9999999999999962
  endloop
endfacet
facet normal -1.0 0.0 0.0
  outer loop
    vertex 26.911883371163082 33.8142211027829 1.9999999999999962
    vertex 26.911883371163082 29.8142211027829 0.0
    vertex 26.911883371163082 29.8142211027829 1.9999999999999962
  endloop
endfacet
facet normal -1.0 0.0 0.0
  outer loop
    vertex 26.911883371163082 29.8142211027829 0.0
    vertex 26.911883371163082 33.8142211027829 1.9999999999999962
    vertex 26.911883371163082 33.8142211027829 1.2499999999999998
  endloop
endfacet
facet normal -1.0 0.0 0.0
  outer loop
    vertex 26.911883371163082 29.8142211027829 0.0
    vertex 26.911883371163082 33.8142211027829 1.2499999999999998
    vertex 26.911883371163082 41.814221102782895 0.0
  endloop
endfacet
facet normal -1.0 0.0 0.0
  outer loop
    vertex 26.911883371163082 41.814221102782895 0.0
    vertex 26.911883371163082 33.8142211027829 1.2499999999999998
    vertex 26.911883371163082 41.814221102782895 1.2499999999999998
  endloop
endfacet
facet normal 0.0 -1.0 0.0
  outer loop
    vertex 26.911883371163082 41.814221102782895 1.2499999999999998
    vertex 22.911883371163075 41.814221102782895 0.0
    vertex 26.911883371163082 41.814221102782895 0.0
  endloop
endfacet
facet normal 0.0 -1.0 0.0
  outer loop
    vertex 22.911883371163075 41.814221102782895 0.0
    vertex 26.911883371163082 41.814221102782895 1.2499999999999998
    vertex 22.911883371163075 41.814221102782895 1.2499999999999998
  endloop
endfacet
facet normal -0.0 -0.0 -1.0
  outer loop
    vertex 26.911883371163082 41.814221102782895 1.2499999999999998
    vertex 22.911883371163075 33.8142211027829 1.2499999999999998
    vertex 22.911883371163075 41.814221102782895 1.2499999999999998
  endloop
endfacet
facet normal -0.0 -0.0 -1.0
  outer loop
    vertex 22.911883371163075 33.8142211027829 1.2499999999999998
    vertex 26.911883371163082 41.814221102782895 1.2499999999999998
    vertex 26.911883371163082 33.8142211027829 1.2499999999999998
  endloop
endfacet
facet normal 1.415569575773647e-32 -1.48099808079071e-17 1.0
  outer loop
    vertex 25.462895796057037 2.4408992361693334 1.9999999999999907
    vertex 22.911883371163075 29.8142211027829 1.9999999999999962
    vertex 22.63133825081604 1.8557499120424594 1.9999999999999907
  endloop
endfacet
facet normal 1.415569575773647e-32 -1.48099808079071e-17 1.0
  outer loop
    vertex 22.911883371163075 29.8142211027829 1.9999999999999962
    vertex 25.462895796057037 2.4408992361693334 1.9999999999999907
    vertex 26.911883371163082 29.8142211027829 1.9999999999999962
  endloop
endfacet
facet normal 1.415569575773647e-32 -1.48099808079071e-17 1.0
  outer loop
    vertex 26.911883371163082 29.8142211027829 1.9999999999999962
    vertex 25.462895796057037 2.4408992361693334 1.9999999999999907
    vertex 28.2556046210056 3.189828660475644 1.9999999999999907
  endloop
endfacet
facet normal 1.415569575773647e-32 -1.48099808079071e-17 1.0
  outer loop
    vertex 26.911883371163082 29.8142211027829 1.9999999999999962
    vertex 28.2556046210056 3.189828660475644 1.9999999999999907
    vertex 26.911883371163082 33.8142211027829 1.9999999999999962
  endloop
endfacet
facet normal 1.415569575773647e-32 -1.48099808079071e-17 1.0
  outer loop
    vertex 26.911883371163082 33.8142211027829 1.9999999999999962
    vertex 28.2556046210056 3.189828660475644 1.9999999999999907
    vertex 28.25560462100559 96.8101713395244 1.999999999999992
  endloop
endfacet
facet normal 1.415569575773647e-32 -1.48099808079071e-17 1.0
  outer loop
    vertex 28.25560462100559 96.8101713395244 1.999999999999992
    vertex 28.2556046210056 3.189828660475644 1.9999999999999907
    vertex 30.99999999999999 95.90000000000008 1.999999999999992
  endloop
endfacet
facet normal 1.415569575773647e-32 -1.48099808079071e-17 1.0
  outer loop
    vertex 30.99999999999999 95.90000000000008 1.999999999999992
    vertex 28.2556046210056 3.189828660475644 1.9999999999999907
    vertex 30.999999999999993 4.099999999999998 1.9999999999999907
  endloop
endfacet
facet normal 1.415569575773647e-32 -1.48099808079071e-17 1.0
  outer loop
    vertex 8.229471627467271 1.43636380848857 1.9999999999999907
    vertex 10.133726120301295 49.488212654357746 1.9999999999999998
    vertex 10.133005895997506 50.50631669892465 1.9999999999999998
  endloop
endfacet
facet normal 1.415569575773647e-32 -1.48099808079071e-17 1.0
  outer loop
    vertex 10.133726120301295 49.488212654357746 1.9999999999999998
    vertex 8.229471627467271 1.43636380848857 1.9999999999999907
    vertex 11.109838312919756 1.184162260371167 1.9999999999999907
  endloop
endfacet
facet normal 1.415569575773647e-32 -1.48099808079071e-17 1.0
  outer loop
    vertex 10.133726120301295 49.488212654357746 1.9999999999999998
    vertex 11.109838312919756 1.184162260371167 1.9999999999999907
    vertex 10.397926520186868 48.504986071627776 1.9999999999999998
  endloop
endfacet
facet normal 1.415569575773647e-32 -1.48099808079071e-17 1.0
  outer loop
    vertex 10.397926520186868 48.504986071627776 1.9999999999999998
    vertex 11.109838312919756 1.184162260371167 1.9999999999999907
    vertex 10.907602275013826 47.62364221748905 1.9999999999999998
  endloop
endfacet
facet normal 1.415569575773647e-32 -1.48099808079071e-17 1.0
  outer loop
    vertex 10.907602275013826 47.62364221748905 1.9999999999999998
    vertex 11.109838312919756 1.184162260371167 1.9999999999999907
    vertex 11.628019824369723 46.90424321911152 1.9999999999999998
  endloop
endfacet
facet normal 1.415569575773647e-32 -1.48099808079071e-17 1.0
  outer loop
    vertex 11.628019824369723 46.90424321911152 1.9999999999999998
    vertex 11.109838312919756 1.184162260371167 1.9999999999999907
    vertex 14.000000000000009 1.0999999999999868 1.9999999999999907
  endloop
endfacet
facet normal 1.415569575773647e-32 -1.48099808079071e-17 1.0
  outer loop
    vertex 11.628019824369723 46.90424321911152 1.9999999999999998
    vertex 14.000000000000009 1.0999999999999868 1.9999999999999907
    vertex 12.510083902812244 46.395814929371575 1.9999999999999998
  endloop
endfacet
facet normal 1.415569575773647e-32 -1.48099808079071e-17 1.0
  outer loop
    vertex 12.510083902812244 46.395814929371575 1.9999999999999998
    vertex 14.000000000000009 1.0999999999999868 1.9999999999999907
    vertex 13.493683301075341 46.133005895997506 1.9999999999999998
  endloop
endfacet
facet normal 1.415569575773647e-32 -1.48099808079071e-17 1.0
  outer loop
    vertex 13.493683301075341 46.133005895997506 1.9999999999999998
    vertex 14.000000000000009 1.0999999999999868 1.9999999999999907
    vertex 14.511787345642253 46.1337261203013 1.9999999999999998
  endloop
endfacet
facet normal 1.415569575773647e-32 -1.48099808079071e-17 1.0
  outer loop
    vertex 14.511787345642253 46.1337261203013 1.9999999999999998
    vertex 14.000000000000009 1.0999999999999868 1.9999999999999907
    vertex 16.890161687080266 1.1841622603711615 1.9999999999999907
  endloop
endfacet
facet normal 1.415569575773647e-32 -1.48099808079071e-17 1.0
  outer loop
    vertex 14.511787345642253 46.1337261203013 1.9999999999999998
    vertex 16.890161687080266 1.1841622603711615 1.9999999999999907
    vertex 15.495013928372217 46.397926520186864 1.9999999999999998
  endloop
endfacet
facet normal 1.415569575773647e-32 -1.48099808079071e-17 1.0
  outer loop
    vertex 15.495013928372217 46.397926520186864 1.9999999999999998
    vertex 16.890161687080266 1.1841622603711615 1.9999999999999907
    vertex 16.376357782510947 46.90760227501383 1.9999999999999998
  endloop
endfacet
facet normal 1.415569575773647e-32 -1.48099808079071e-17 1.0
  outer loop
    vertex 16.376357782510947 46.90760227501383 1.9999999999999998
    vertex 16.890161687080266 1.1841622603711615 1.9999999999999907
    vertex 17.095756780888472 47.62801982436973 1.9999999999999998
  endloop
endfacet
facet normal 1.415569575773647e-32 -1.48099808079071e-17 1.0
  outer loop
    vertex 17.095756780888472 47.62801982436973 1.9999999999999998
    vertex 16.890161687080266 1.1841622603711615 1.9999999999999907
    vertex 19.77052837253275 1.4363638084885757 1.9999999999999907
  endloop
endfacet
facet normal 1.415569575773647e-32 -1.48099808079071e-17 1.0
  outer loop
    vertex 17.095756780888472 47.62801982436973 1.9999999999999998
    vertex 19.77052837253275 1.4363638084885757 1.9999999999999907
    vertex 17.60418507062842 48.51008390281225 1.9999999999999998
  endloop
endfacet
facet normal 1.415569575773647e-32 -1.48099808079071e-17 1.0
  outer loop
    vertex 17.60418507062842 48.51008390281225 1.9999999999999998
    vertex 19.77052837253275 1.4363638084885757 1.9999999999999907
    vertex 17.866994104002487 49.49368330107534 1.9999999999999998
  endloop
endfacet
facet normal 1.415569575773647e-32 -1.48099808079071e-17 1.0
  outer loop
    vertex 17.866994104002487 49.49368330107534 1.9999999999999998
    vertex 19.77052837253275 1.4363638084885757 1.9999999999999907
    vertex 19.770528372532734 98.56363619151139 1.999999999999992
  endloop
endfacet
facet normal 1.415569575773647e-32 -1.48099808079071e-17 1.0
  outer loop
    vertex 19.770528372532734 98.56363619151139 1.999999999999992
    vertex 19.77052837253275 1.4363638084885757 1.9999999999999907
    vertex 22.63133825081603 98.14425008795752 1.999999999999992
  endloop
endfacet
facet normal 1.415569575773647e-32 -1.48099808079071e-17 1.0
  outer loop
    vertex 22.63133825081603 98.14425008795752 1.999999999999992
    vertex 19.77052837253275 1.4363638084885757 1.9999999999999907
    vertex 22.63133825081604 1.8557499120424594 1.9999999999999907
  endloop
endfacet
facet normal 1.415569575773647e-32 -1.48099808079071e-17 1.0
  outer loop
    vertex 22.63133825081603 98.14425008795752 1.999999999999992
    vertex 22.63133825081604 1.8557499120424594 1.9999999999999907
    vertex 22.911883371163075 33.8142211027829 1.9999999999999962
  endloop
endfacet
facet normal 1.415569575773647e-32 -1.48099808079071e-17 1.0
  outer loop
    vertex 22.63133825081603 98.14425008795752 1.999999999999992
    vertex 22.911883371163075 33.8142211027829 1.9999999999999962
    vertex 25.46289579605702 97.55910076383068 1.999999999999992
  endloop
endfacet
facet normal 1.415569575773647e-32 -1.48099808079071e-17 1.0
  outer loop
    vertex 22.911883371163075 33.8142211027829 1.9999999999999962
    vertex 22.63133825081604 1.8557499120424594 1.9999999999999907
    vertex 22.911883371163075 29.8142211027829 1.9999999999999962
  endloop
endfacet
facet normal 1.415569575773647e-32 -1.48099808079071e-17 1.0
  outer loop
    vertex 25.46289579605702 97.55910076383068 1.999999999999992
    vertex 22.911883371163075 33.8142211027829 1.9999999999999962
    vertex 26.911883371163082 33.8142211027829 1.9999999999999962
  endloop
endfacet
facet normal 1.415569575773647e-32 -1.48099808079071e-17 1.0
  outer loop
    vertex 25.46289579605702 97.55910076383068 1.999999999999992
    vertex 26.911883371163082 33.8142211027829 1.9999999999999962
    vertex 28.25560462100559 96.8101713395244 1.999999999999992
  endloop
endfacet
facet normal 1.415569575773647e-32 -1.48099808079071e-17 1.0
  outer loop
    vertex -2.999999999999978 4.0999999999999925 1.9999999999999907
    vertex -2.999999999999989 95.9 1.999999999999992
    vertex -2.999999999999989 95.4 1.999999999999992
  endloop
endfacet
facet normal 1.415569575773647e-32 -1.48099808079071e-17 1.0
  outer loop
    vertex -2.999999999999989 95.9 1.999999999999992
    vertex -2.999999999999978 4.0999999999999925 1.9999999999999907
    vertex -0.2556046210055843 96.81017133952433 1.999999999999992
  endloop
endfacet
facet normal 1.415569575773647e-32 -1.48099808079071e-17 1.0
  outer loop
    vertex -0.2556046210055843 96.81017133952433 1.999999999999992
    vertex -2.999999999999978 4.0999999999999925 1.9999999999999907
    vertex -0.2556046210055843 3.189828660475638 1.9999999999999907
  endloop
endfacet
facet normal 1.415569575773647e-32 -1.48099808079071e-17 1.0
  outer loop
    vertex -0.2556046210055843 96.81017133952433 1.999999999999992
    vertex -0.2556046210055843 3.189828660475638 1.9999999999999907
    vertex 2.537104203942987 2.440899236169328 1.9999999999999907
  endloop
endfacet
facet normal 1.415569575773647e-32 -1.48099808079071e-17 1.0
  outer loop
    vertex -0.2556046210055843 96.81017133952433 1.999999999999992
    vertex 2.537104203942987 2.440899236169328 1.9999999999999907
    vertex 2.5371042039429774 97.55910076383063 1.999999999999992
  endloop
endfacet
facet normal 1.415569575773647e-32 -1.48099808079071e-17 1.0
  outer loop
    vertex 2.5371042039429774 97.55910076383063 1.999999999999992
    vertex 2.537104203942987 2.440899236169328 1.9999999999999907
    vertex 5.368661749183976 98.1442500879575 1.999999999999992
  endloop
endfacet
facet normal 1.415569575773647e-32 -1.48099808079071e-17 1.0
  outer loop
    vertex 5.368661749183976 98.1442500879575 1.999999999999992
    vertex 2.537104203942987 2.440899236169328 1.9999999999999907
    vertex 5.368661749183981 1.8557499120424537 1.9999999999999907
  endloop
endfacet
facet normal 1.415569575773647e-32 -1.48099808079071e-17 1.0
  outer loop
    vertex 5.368661749183976 98.1442500879575 1.999999999999992
    vertex 5.368661749183981 1.8557499120424537 1.9999999999999907
    vertex 8.229471627467264 98.56363619151138 1.999999999999992
  endloop
endfacet
facet normal 1.415569575773647e-32 -1.48099808079071e-17 1.0
  outer loop
    vertex 8.229471627467264 98.56363619151138 1.999999999999992
    vertex 5.368661749183981 1.8557499120424537 1.9999999999999907
    vertex 8.229471627467271 1.43636380848857 1.9999999999999907
  endloop
endfacet
facet normal 1.415569575773647e-32 -1.48099808079071e-17 1.0
  outer loop
    vertex 8.229471627467264 98.56363619151138 1.999999999999992
    vertex 8.229471627467271 1.43636380848857 1.9999999999999907
    vertex 11.10983831291975 98.81583773962879 1.999999999999992
  endloop
endfacet
facet normal 1.415569575773647e-32 -1.48099808079071e-17 1.0
  outer loop
    vertex 11.10983831291975 98.81583773962879 1.999999999999992
    vertex 8.229471627467271 1.43636380848857 1.9999999999999907
    vertex 10.133005895997506 50.50631669892465 1.9999999999999998
  endloop
endfacet
facet normal 1.415569575773647e-32 -1.48099808079071e-17 1.0
  outer loop
    vertex 11.10983831291975 98.81583773962879 1.999999999999992
    vertex 10.133005895997506 50.50631669892465 1.9999999999999998
    vertex 10.395814929371573 51.48991609718775 1.9999999999999998
  endloop
endfacet
facet normal 1.415569575773647e-32 -1.48099808079071e-17 1.0
  outer loop
    vertex 11.10983831291975 98.81583773962879 1.999999999999992
    vertex 10.395814929371573 51.48991609718775 1.9999999999999998
    vertex 10.904243219111521 52.37198017563028 1.9999999999999998
  endloop
endfacet
facet normal 1.415569575773647e-32 -1.48099808079071e-17 1.0
  outer loop
    vertex 11.10983831291975 98.81583773962879 1.999999999999992
    vertex 10.904243219111521 52.37198017563028 1.9999999999999998
    vertex 11.623642217489046 53.09239772498617 1.9999999999999998
  endloop
endfacet
facet normal 1.415569575773647e-32 -1.48099808079071e-17 1.0
  outer loop
    vertex 11.10983831291975 98.81583773962879 1.999999999999992
    vertex 11.623642217489046 53.09239772498617 1.9999999999999998
    vertex 14.000000000000014 98.89999999999996 1.999999999999992
  endloop
endfacet
facet normal 1.415569575773647e-32 -1.48099808079071e-17 1.0
  outer loop
    vertex 14.000000000000014 98.89999999999996 1.999999999999992
    vertex 11.623642217489046 53.09239772498617 1.9999999999999998
    vertex 12.504986071627778 53.60207347981313 1.9999999999999998
  endloop
endfacet
facet normal 1.415569575773647e-32 -1.48099808079071e-17 1.0
  outer loop
    vertex 14.000000000000014 98.89999999999996 1.999999999999992
    vertex 12.504986071627778 53.60207347981313 1.9999999999999998
    vertex 13.488212654357742 53.866273879698696 1.9999999999999998
  endloop
endfacet
facet normal 1.415569575773647e-32 -1.48099808079071e-17 1.0
  outer loop
    vertex 14.000000000000014 98.89999999999996 1.999999999999992
    vertex 13.488212654357742 53.866273879698696 1.9999999999999998
    vertex 14.50631669892465 53.86699410400249 1.9999999999999998
  endloop
endfacet
facet normal 1.415569575773647e-32 -1.48099808079071e-17 1.0
  outer loop
    vertex 14.000000000000014 98.89999999999996 1.999999999999992
    vertex 14.50631669892465 53.86699410400249 1.9999999999999998
    vertex 16.890161687080248 98.81583773962879 1.999999999999992
  endloop
endfacet
facet normal 1.415569575773647e-32 -1.48099808079071e-17 1.0
  outer loop
    vertex 16.890161687080248 98.81583773962879 1.999999999999992
    vertex 14.50631669892465 53.86699410400249 1.9999999999999998
    vertex 15.489916097187747 53.60418507062842 1.9999999999999998
  endloop
endfacet
facet normal 1.415569575773647e-32 -1.48099808079071e-17 1.0
  outer loop
    vertex 16.890161687080248 98.81583773962879 1.999999999999992
    vertex 15.489916097187747 53.60418507062842 1.9999999999999998
    vertex 16.37198017563027 53.09575678088848 1.9999999999999998
  endloop
endfacet
facet normal 1.415569575773647e-32 -1.48099808079071e-17 1.0
  outer loop
    vertex 16.890161687080248 98.81583773962879 1.999999999999992
    vertex 16.37198017563027 53.09575678088848 1.9999999999999998
    vertex 17.092397724986167 52.376357782510944 1.9999999999999998
  endloop
endfacet
facet normal 1.415569575773647e-32 -1.48099808079071e-17 1.0
  outer loop
    vertex 16.890161687080248 98.81583773962879 1.999999999999992
    vertex 17.092397724986167 52.376357782510944 1.9999999999999998
    vertex 19.770528372532734 98.56363619151139 1.999999999999992
  endloop
endfacet
facet normal 1.415569575773647e-32 -1.48099808079071e-17 1.0
  outer loop
    vertex 19.770528372532734 98.56363619151139 1.999999999999992
    vertex 17.092397724986167 52.376357782510944 1.9999999999999998
    vertex 17.602073479813125 51.495013928372224 1.9999999999999998
  endloop
endfacet
facet normal 1.415569575773647e-32 -1.48099808079071e-17 1.0
  outer loop
    vertex 19.770528372532734 98.56363619151139 1.999999999999992
    vertex 17.602073479813125 51.495013928372224 1.9999999999999998
    vertex 17.8662738796987 50.511787345642254 1.9999999999999998
  endloop
endfacet
facet normal 1.415569575773647e-32 -1.48099808079071e-17 1.0
  outer loop
    vertex 19.770528372532734 98.56363619151139 1.999999999999992
    vertex 17.8662738796987 50.511787345642254 1.9999999999999998
    vertex 17.866994104002487 49.49368330107534 1.9999999999999998
  endloop
endfacet
facet normal 0.0 0.0 1.0
  outer loop
    vertex 10.133726120301295 49.488212654357746 11.125
    vertex 10.395814929371573 51.48991609718775 11.125
    vertex 10.133005895997506 50.50631669892465 11.125
  endloop
endfacet
facet normal 0.0 0.0 1.0
  outer loop
    vertex 10.395814929371573 51.48991609718775 11.125
    vertex 10.133726120301295 49.488212654357746 11.125
    vertex 10.397926520186868 48.504986071627776 11.125
  endloop
endfacet
facet normal 0.0 0.0 1.0
  outer loop
    vertex 10.395814929371573 51.48991609718775 11.125
    vertex 10.397926520186868 48.504986071627776 11.125
    vertex 10.904243219111521 52.37198017563028 11.125
  endloop
endfacet
facet normal 0.0 0.0 1.0
  outer loop
    vertex 10.904243219111521 52.37198017563028 11.125
    vertex 10.397926520186868 48.504986071627776 11.125
    vertex 10.907602275013826 47.62364221748905 11.125
  endloop
endfacet
facet normal 0.0 0.0 1.0
  outer loop
    vertex 10.904243219111521 52.37198017563028 11.125
    vertex 10.907602275013826 47.62364221748905 11.125
    vertex 11.623642217489046 53.09239772498617 11.125
  endloop
endfacet
facet normal 0.0 0.0 1.0
  outer loop
    vertex 11.623642217489046 53.09239772498617 11.125
    vertex 10.907602275013826 47.62364221748905 11.125
    vertex 11.628019824369723 46.90424321911152 11.125
  endloop
endfacet
facet normal 0.0 0.0 1.0
  outer loop
    vertex 11.623642217489046 53.09239772498617 11.125
    vertex 11.628019824369723 46.90424321911152 11.125
    vertex 12.504986071627778 53.60207347981313 11.125
  endloop
endfacet
facet normal 0.0 0.0 1.0
  outer loop
    vertex 12.504986071627778 53.60207347981313 11.125
    vertex 11.628019824369723 46.90424321911152 11.125
    vertex 12.510083902812244 46.395814929371575 11.125
  endloop
endfacet
facet normal 0.0 0.0 1.0
  outer loop
    vertex 12.504986071627778 53.60207347981313 11.125
    vertex 12.510083902812244 46.395814929371575 11.125
    vertex 13.488212654357742 53.866273879698696 11.125
  endloop
endfacet
facet normal 0.0 0.0 1.0
  outer loop
    vertex 13.488212654357742 53.866273879698696 11.125
    vertex 12.510083902812244 46.395814929371575 11.125
    vertex 13.493683301075341 46.133005895997506 11.125
  endloop
endfacet
facet normal 0.0 0.0 1.0
  outer loop
    vertex 13.488212654357742 53.866273879698696 11.125
    vertex 13.493683301075341 46.133005895997506 11.125
    vertex 14.50631669892465 53.86699410400249 11.125
  endloop
endfacet
facet normal 0.0 0.0 1.0
  outer loop
    vertex 14.50631669892465 53.86699410400249 11.125
    vertex 13.493683301075341 46.133005895997506 11.125
    vertex 14.511787345642253 46.1337261203013 11.125
  endloop
endfacet
facet normal 0.0 0.0 1.0
  outer loop
    vertex 14.50631669892465 53.86699410400249 11.125
    vertex 14.511787345642253 46.1337261203013 11.125
    vertex 15.489916097187747 53.60418507062842 11.125
  endloop
endfacet
facet normal 0.0 0.0 1.0
  outer loop
    vertex 15.489916097187747 53.60418507062842 11.125
    vertex 14.511787345642253 46.1337261203013 11.125
    vertex 15.495013928372217 46.397926520186864 11.125
  endloop
endfacet
facet normal 0.0 0.0 1.0
  outer loop
    vertex 15.489916097187747 53.60418507062842 11.125
    vertex 15.495013928372217 46.397926520186864 11.125
    vertex 16.37198017563027 53.09575678088848 11.125
  endloop
endfacet
facet normal 0.0 0.0 1.0
  outer loop
    vertex 16.37198017563027 53.09575678088848 11.125
    vertex 15.495013928372217 46.397926520186864 11.125
    vertex 16.376357782510947 46.90760227501383 11.125
  endloop
endfacet
facet normal 0.0 0.0 1.0
  outer loop
    vertex 16.37198017563027 53.09575678088848 11.125
    vertex 16.376357782510947 46.90760227501383 11.125
    vertex 17.092397724986167 52.376357782510944 11.125
  endloop
endfacet
facet normal 0.0 0.0 1.0
  outer loop
    vertex 17.092397724986167 52.376357782510944 11.125
    vertex 16.376357782510947 46.90760227501383 11.125
    vertex 17.095756780888472 47.62801982436973 11.125
  endloop
endfacet
facet normal 0.0 0.0 1.0
  outer loop
    vertex 17.092397724986167 52.376357782510944 11.125
    vertex 17.095756780888472 47.62801982436973 11.125
    vertex 17.602073479813125 51.495013928372224 11.125
  endloop
endfacet
facet normal 0.0 0.0 1.0
  outer loop
    vertex 17.602073479813125 51.495013928372224 11.125
    vertex 17.095756780888472 47.62801982436973 11.125
    vertex 17.60418507062842 48.51008390281225 11.125
  endloop
endfacet
facet normal 0.0 0.0 1.0
  outer loop
    vertex 17.602073479813125 51.495013928372224 11.125
    vertex 17.60418507062842 48.51008390281225 11.125
    vertex 17.8662738796987 50.511787345642254 11.125
  endloop
endfacet
facet normal 0.0 0.0 1.0
  outer loop
    vertex 17.8662738796987 50.511787345642254 11.125
    vertex 17.60418507062842 48.51008390281225 11.125
    vertex 17.866994104002487 49.49368330107534 11.125
  endloop
endfacet
facet normal 0.9661086775918033 -0.2581356679767776 0.0
  outer loop
    vertex 17.866994104002487 49.49368330107534 1.9999999999999998
    vertex 17.60418507062842 48.51008390281225 11.125
    vertex 17.60418507062842 48.51008390281225 1.9999999999999998
  endloop
endfacet
facet normal 0.9661086775918033 -0.2581356679767776 0.0
  outer loop
    vertex 17.60418507062842 48.51008390281225 11.125
    vertex 17.866994104002487 49.49368330107534 1.9999999999999998
    vertex 17.866994104002487 49.49368330107534 11.125
  endloop
endfacet
facet normal 0.9999997497805526 0.0007074170144182718 0.0
  outer loop
    vertex 17.8662738796987 50.511787345642254 1.9999999999999998
    vertex 17.866994104002487 49.49368330107534 11.125
    vertex 17.866994104002487 49.49368330107534 1.9999999999999998
  endloop
endfacet
facet normal 0.9999997497805526 0.0007074170144182718 0.0
  outer loop
    vertex 17.866994104002487 49.49368330107534 11.125
    vertex 17.8662738796987 50.511787345642254 1.9999999999999998
    vertex 17.8662738796987 50.511787345642254 11.125
  endloop
endfacet
facet normal 0.9657424915994808 0.2595022927051456 0.0
  outer loop
    vertex 17.602073479813125 51.495013928372224 1.9999999999999998
    vertex 17.8662738796987 50.511787345642254 11.125
    vertex 17.8662738796987 50.511787345642254 1.9999999999999998
  endloop
endfacet
facet normal 0.9657424915994808 0.2595022927051456 0.0
  outer loop
    vertex 17.8662738796987 50.511787345642254 11.125
    vertex 17.602073479813125 51.495013928372224 1.9999999999999998
    vertex 17.602073479813125 51.495013928372224 11.125
  endloop
endfacet
facet normal 0.8656714785808287 0.5006125159958369 0.0
  outer loop
    vertex 17.092397724986167 52.376357782510944 1.9999999999999998
    vertex 17.602073479813125 51.495013928372224 11.125
    vertex 17.602073479813125 51.495013928372224 1.9999999999999998
  endloop
endfacet
facet normal 0.8656714785808287 0.5006125159958369 0.0
  outer loop
    vertex 17.602073479813125 51.495013928372224 11.125
    vertex 17.092397724986167 52.376357782510944 1.9999999999999998
    vertex 17.092397724986167 52.376357782510944 11.125
  endloop
endfacet
facet normal 0.7066063848866604 0.7076068236226987 0.0
  outer loop
    vertex 16.37198017563027 53.09575678088848 11.125
    vertex 17.092397724986167 52.376357782510944 1.9999999999999998
    vertex 16.37198017563027 53.09575678088848 1.9999999999999998
  endloop
endfacet
facet normal 0.7066063848866604 0.7076068236226987 0.0
  outer loop
    vertex 17.092397724986167 52.376357782510944 1.9999999999999998
    vertex 16.37198017563027 53.09575678088848 11.125
    vertex 17.092397724986167 52.376357782510944 11.125
  endloop
endfacet
facet normal 0.49938723378471234 0.8663788955952546 0.0
  outer loop
    vertex 15.489916097187747 53.60418507062842 11.125
    vertex 16.37198017563027 53.09575678088848 1.9999999999999998
    vertex 15.489916097187747 53.60418507062842 1.9999999999999998
  endloop
endfacet
facet normal 0.49938723378471234 0.8663788955952546 0.0
  outer loop
    vertex 16.37198017563027 53.09575678088848 1.9999999999999998
    vertex 15.489916097187747 53.60418507062842 11.125
    vertex 16.37198017563027 53.09575678088848 11.125
  endloop
endfacet
facet normal 0.25813566797678017 0.9661086775918026 0.0
  outer loop
    vertex 14.50631669892465 53.86699410400249 11.125
    vertex 15.489916097187747 53.60418507062842 1.9999999999999998
    vertex 14.50631669892465 53.86699410400249 1.9999999999999998
  endloop
endfacet
facet normal 0.25813566797678017 0.9661086775918026 0.0
  outer loop
    vertex 15.489916097187747 53.60418507062842 1.9999999999999998
    vertex 14.50631669892465 53.86699410400249 11.125
    vertex 15.489916097187747 53.60418507062842 11.125
  endloop
endfacet
facet normal -0.0007074170144210436 0.9999997497805525 0.0
  outer loop
    vertex 13.488212654357742 53.866273879698696 11.125
    vertex 14.50631669892465 53.86699410400249 1.9999999999999998
    vertex 13.488212654357742 53.866273879698696 1.9999999999999998
  endloop
endfacet
facet normal -0.0007074170144210436 0.9999997497805525 0.0
  outer loop
    vertex 14.50631669892465 53.86699410400249 1.9999999999999998
    vertex 13.488212654357742 53.866273879698696 11.125
    vertex 14.50631669892465 53.86699410400249 11.125
  endloop
endfacet
facet normal -0.25950229270514147 0.9657424915994819 0.0
  outer loop
    vertex 12.504986071627778 53.60207347981313 11.125
    vertex 13.488212654357742 53.866273879698696 1.9999999999999998
    vertex 12.504986071627778 53.60207347981313 1.9999999999999998
  endloop
endfacet
facet normal -0.25950229270514147 0.9657424915994819 0.0
  outer loop
    vertex 13.488212654357742 53.866273879698696 1.9999999999999998
    vertex 12.504986071627778 53.60207347981313 11.125
    vertex 13.488212654357742 53.866273879698696 11.125
  endloop
endfacet
facet normal -0.5006125159958353 0.8656714785808295 0.0
  outer loop
    vertex 11.623642217489046 53.09239772498617 11.125
    vertex 12.504986071627778 53.60207347981313 1.9999999999999998
    vertex 11.623642217489046 53.09239772498617 1.9999999999999998
  endloop
endfacet
facet normal -0.5006125159958353 0.8656714785808295 0.0
  outer loop
    vertex 12.504986071627778 53.60207347981313 1.9999999999999998
    vertex 11.623642217489046 53.09239772498617 11.125
    vertex 12.504986071627778 53.60207347981313 11.125
  endloop
endfacet
facet normal -0.7076068236227007 0.7066063848866582 0.0
  outer loop
    vertex 11.623642217489046 53.09239772498617 11.125
    vertex 10.904243219111521 52.37198017563028 1.9999999999999998
    vertex 10.904243219111521 52.37198017563028 11.125
  endloop
endfacet
facet normal -0.7076068236227007 0.7066063848866582 0.0
  outer loop
    vertex 10.904243219111521 52.37198017563028 1.9999999999999998
    vertex 11.623642217489046 53.09239772498617 11.125
    vertex 11.623642217489046 53.09239772498617 1.9999999999999998
  endloop
endfacet
facet normal -0.8663788955952518 0.49938723378471744 0.0
  outer loop
    vertex 10.904243219111521 52.37198017563028 11.125
    vertex 10.395814929371573 51.48991609718775 1.9999999999999998
    vertex 10.395814929371573 51.48991609718775 11.125
  endloop
endfacet
facet normal -0.8663788955952518 0.49938723378471744 0.0
  outer loop
    vertex 10.395814929371573 51.48991609718775 1.9999999999999998
    vertex 10.904243219111521 52.37198017563028 11.125
    vertex 10.904243219111521 52.37198017563028 1.9999999999999998
  endloop
endfacet
facet normal -0.9661086775918033 0.2581356679767775 0.0
  outer loop
    vertex 10.395814929371573 51.48991609718775 11.125
    vertex 10.133005895997506 50.50631669892465 1.9999999999999998
    vertex 10.133005895997506 50.50631669892465 11.125
  endloop
endfacet
facet normal -0.9661086775918033 0.2581356679767775 0.0
  outer loop
    vertex 10.133005895997506 50.50631669892465 1.9999999999999998
    vertex 10.395814929371573 51.48991609718775 11.125
    vertex 10.395814929371573 51.48991609718775 1.9999999999999998
  endloop
endfacet
facet normal -0.9999997497805526 -0.0007074170144196607 -0.0
  outer loop
    vertex 10.133005895997506 50.50631669892465 11.125
    vertex 10.133726120301295 49.488212654357746 1.9999999999999998
    vertex 10.133726120301295 49.488212654357746 11.125
  endloop
endfacet
facet normal -0.9999997497805526 -0.0007074170144196607 -0.0
  outer loop
    vertex 10.133726120301295 49.488212654357746 1.9999999999999998
    vertex 10.133005895997506 50.50631669892465 11.125
    vertex 10.133005895997506 50.50631669892465 1.9999999999999998
  endloop
endfacet
facet normal -0.9657424915994804 -0.25950229270514696 -0.0
  outer loop
    vertex 10.133726120301295 49.488212654357746 11.125
    vertex 10.397926520186868 48.504986071627776 1.9999999999999998
    vertex 10.397926520186868 48.504986071627776 11.125
  endloop
endfacet
facet normal -0.9657424915994804 -0.25950229270514696 -0.0
  outer loop
    vertex 10.397926520186868 48.504986071627776 1.9999999999999998
    vertex 10.133726120301295 49.488212654357746 11.125
    vertex 10.133726120301295 49.488212654357746 1.9999999999999998
  endloop
endfacet
facet normal -0.8656714785808313 -0.500612515995832 -0.0
  outer loop
    vertex 10.397926520186868 48.504986071627776 11.125
    vertex 10.907602275013826 47.62364221748905 1.9999999999999998
    vertex 10.907602275013826 47.62364221748905 11.125
  endloop
endfacet
facet normal -0.8656714785808313 -0.500612515995832 -0.0
  outer loop
    vertex 10.907602275013826 47.62364221748905 1.9999999999999998
    vertex 10.397926520186868 48.504986071627776 11.125
    vertex 10.397926520186868 48.504986071627776 1.9999999999999998
  endloop
endfacet
facet normal -0.7066063848866562 -0.7076068236227028 -0.0
  outer loop
    vertex 11.628019824369723 46.90424321911152 11.125
    vertex 10.907602275013826 47.62364221748905 1.9999999999999998
    vertex 11.628019824369723 46.90424321911152 1.9999999999999998
  endloop
endfacet
facet normal -0.7066063848866562 -0.7076068236227028 -0.0
  outer loop
    vertex 10.907602275013826 47.62364221748905 1.9999999999999998
    vertex 11.628019824369723 46.90424321911152 11.125
    vertex 10.907602275013826 47.62364221748905 11.125
  endloop
endfacet
facet normal -0.49938723378472066 -0.8663788955952498 -0.0
  outer loop
    vertex 12.510083902812244 46.395814929371575 11.125
    vertex 11.628019824369723 46.90424321911152 1.9999999999999998
    vertex 12.510083902812244 46.395814929371575 1.9999999999999998
  endloop
endfacet
facet normal -0.49938723378472066 -0.8663788955952498 -0.0
  outer loop
    vertex 11.628019824369723 46.90424321911152 1.9999999999999998
    vertex 12.510083902812244 46.395814929371575 11.125
    vertex 11.628019824369723 46.90424321911152 11.125
  endloop
endfacet
facet normal -0.258135667976775 -0.966108677591804 -0.0
  outer loop
    vertex 13.493683301075341 46.133005895997506 11.125
    vertex 12.510083902812244 46.395814929371575 1.9999999999999998
    vertex 13.493683301075341 46.133005895997506 1.9999999999999998
  endloop
endfacet
facet normal -0.258135667976775 -0.966108677591804 -0.0
  outer loop
    vertex 12.510083902812244 46.395814929371575 1.9999999999999998
    vertex 13.493683301075341 46.133005895997506 11.125
    vertex 12.510083902812244 46.395814929371575 11.125
  endloop
endfacet
facet normal 0.0007074170144210416 -0.9999997497805526 0.0
  outer loop
    vertex 14.511787345642253 46.1337261203013 11.125
    vertex 13.493683301075341 46.133005895997506 1.9999999999999998
    vertex 14.511787345642253 46.1337261203013 1.9999999999999998
  endloop
endfacet
facet normal 0.0007074170144210416 -0.9999997497805526 0.0
  outer loop
    vertex 13.493683301075341 46.133005895997506 1.9999999999999998
    vertex 14.511787345642253 46.1337261203013 11.125
    vertex 13.493683301075341 46.133005895997506 11.125
  endloop
endfacet
facet normal 0.2595022927051418 -0.9657424915994817 0.0
  outer loop
    vertex 15.495013928372217 46.397926520186864 11.125
    vertex 14.511787345642253 46.1337261203013 1.9999999999999998
    vertex 15.495013928372217 46.397926520186864 1.9999999999999998
  endloop
endfacet
facet normal 0.2595022927051418 -0.9657424915994817 0.0
  outer loop
    vertex 14.511787345642253 46.1337261203013 1.9999999999999998
    vertex 15.495013928372217 46.397926520186864 11.125
    vertex 14.511787345642253 46.1337261203013 11.125
  endloop
endfacet
facet normal 0.5006125159958353 -0.8656714785808295 0.0
  outer loop
    vertex 16.376357782510947 46.90760227501383 11.125
    vertex 15.495013928372217 46.397926520186864 1.9999999999999998
    vertex 16.376357782510947 46.90760227501383 1.9999999999999998
  endloop
endfacet
facet normal 0.5006125159958353 -0.8656714785808295 0.0
  outer loop
    vertex 15.495013928372217 46.397926520186864 1.9999999999999998
    vertex 16.376357782510947 46.90760227501383 11.125
    vertex 15.495013928372217 46.397926520186864 11.125
  endloop
endfacet
facet normal 0.7076068236227028 -0.7066063848866562 0.0
  outer loop
    vertex 17.095756780888472 47.62801982436973 1.9999999999999998
    vertex 16.376357782510947 46.90760227501383 11.125
    vertex 16.376357782510947 46.90760227501383 1.9999999999999998
  endloop
endfacet
facet normal 0.7076068236227028 -0.7066063848866562 0.0
  outer loop
    vertex 16.376357782510947 46.90760227501383 11.125
    vertex 17.095756780888472 47.62801982436973 1.9999999999999998
    vertex 17.095756780888472 47.62801982436973 11.125
  endloop
endfacet
facet normal 0.8663788955952504 -0.49938723378471983 0.0
  outer loop
    vertex 17.60418507062842 48.51008390281225 1.9999999999999998
    vertex 17.095756780888472 47.62801982436973 11.125
    vertex 17.095756780888472 47.62801982436973 1.9999999999999998
  endloop
endfacet
facet normal 0.8663788955952504 -0.49938723378471983 0.0
  outer loop
    vertex 17.095756780888472 47.62801982436973 11.125
    vertex 17.60418507062842 48.51008390281225 1.9999999999999998
    vertex 17.60418507062842 48.51008390281225 11.125
  endloop
endfacet
facet normal 0.0 -1.0 0.0
  outer loop
    vertex 30.999999999999993 -2.75 8.999999999999998
    vertex -3.0 -2.75 0.0
    vertex 30.999999999999993 -2.75 0.0
  endloop
endfacet
facet normal 0.0 -1.0 0.0
  outer loop
    vertex -3.0 -2.75 0.0
    vertex 30.999999999999993 -2.75 8.999999999999998
    vertex -3.0 -2.75 8.999999999999998
  endloop
endfacet
facet normal 0.0 0.0 1.0
  outer loop
    vertex -3.0 -2.75 8.999999999999998
    vertex -0.2556046210055843 3.189828660475638 8.999999999999998
    vertex -2.999999999999978 4.0999999999999925 8.999999999999998
  endloop
endfacet
facet normal 0.0 0.0 1.0
  outer loop
    vertex -0.2556046210055843 3.189828660475638 8.999999999999998
    vertex -3.0 -2.75 8.999999999999998
    vertex 2.537104203942987 2.440899236169328 8.999999999999998
  endloop
endfacet
facet normal 0.0 0.0 1.0
  outer loop
    vertex 2.537104203942987 2.440899236169328 8.999999999999998
    vertex -3.0 -2.75 8.999999999999998
    vertex 5.368661749183981 1.8557499120424537 8.999999999999998
  endloop
endfacet
facet normal 0.0 0.0 1.0
  outer loop
    vertex 5.368661749183981 1.8557499120424537 8.999999999999998
    vertex -3.0 -2.75 8.999999999999998
    vertex 30.999999999999993 -2.75 8.999999999999998
  endloop
endfacet
facet normal 0.0 0.0 1.0
  outer loop
    vertex 5.368661749183981 1.8557499120424537 8.999999999999998
    vertex 30.999999999999993 -2.75 8.999999999999998
    vertex 8.229471627467271 1.43636380848857 8.999999999999998
  endloop
endfacet
facet normal 0.0 0.0 1.0
  outer loop
    vertex 8.229471627467271 1.43636380848857 8.999999999999998
    vertex 30.999999999999993 -2.75 8.999999999999998
    vertex 11.109838312919756 1.184162260371167 8.999999999999998
  endloop
endfacet
facet normal 0.0 0.0 1.0
  outer loop
    vertex 11.109838312919756 1.184162260371167 8.999999999999998
    vertex 30.999999999999993 -2.75 8.999999999999998
    vertex 14.000000000000009 1.0999999999999868 8.999999999999998
  endloop
endfacet
facet normal 0.0 0.0 1.0
  outer loop
    vertex 14.000000000000009 1.0999999999999868 8.999999999999998
    vertex 30.999999999999993 -2.75 8.999999999999998
    vertex 16.890161687080266 1.1841622603711615 8.999999999999998
  endloop
endfacet
facet normal 0.0 0.0 1.0
  outer loop
    vertex 16.890161687080266 1.1841622603711615 8.999999999999998
    vertex 30.999999999999993 -2.75 8.999999999999998
    vertex 19.77052837253275 1.4363638084885757 8.999999999999998
  endloop
endfacet
facet normal 0.0 0.0 1.0
  outer loop
    vertex 19.77052837253275 1.4363638084885757 8.999999999999998
    vertex 30.999999999999993 -2.75 8.999999999999998
    vertex 22.63133825081604 1.8557499120424594 8.999999999999998
  endloop
endfacet
facet normal 0.0 0.0 1.0
  outer loop
    vertex 22.63133825081604 1.8557499120424594 8.999999999999998
    vertex 30.999999999999993 -2.75 8.999999999999998
    vertex 25.462895796057037 2.4408992361693334 8.999999999999998
  endloop
endfacet
facet normal 0.0 0.0 1.0
  outer loop
    vertex 25.462895796057037 2.4408992361693334 8.999999999999998
    vertex 30.999999999999993 -2.75 8.999999999999998
    vertex 28.2556046210056 3.189828660475644 8.999999999999998
  endloop
endfacet
facet normal 0.0 0.0 1.0
  outer loop
    vertex 28.2556046210056 3.189828660475644 8.999999999999998
    vertex 30.999999999999993 -2.75 8.999999999999998
    vertex 30.999999999999993 4.099999999999998 8.999999999999998
  endloop
endfacet
facet normal -0.31478712106592954 0.9491622982456813 0.0
  outer loop
    vertex 28.2556046210056 3.189828660475644 8.999999999999998
    vertex 30.999999999999993 4.099999999999998 1.9999999999999907
    vertex 28.2556046210056 3.189828660475644 1.9999999999999907
  endloop
endfacet
facet normal -0.31478712106592954 0.9491622982456813 0.0
  outer loop
    vertex 30.999999999999993 4.099999999999998 1.9999999999999907
    vertex 28.2556046210056 3.189828660475644 8.999999999999998
    vertex 30.999999999999993 4.099999999999998 8.999999999999998
  endloop
endfacet
facet normal -0.2590208317064231 0.9658717351398751 0.0
  outer loop
    vertex 25.462895796057037 2.4408992361693334 8.999999999999998
    vertex 28.2556046210056 3.189828660475644 1.9999999999999907
    vertex 25.462895796057037 2.4408992361693334 1.9999999999999907
  endloop
endfacet
facet normal -0.2590208317064231 0.9658717351398751 0.0
  outer loop
    vertex 28.2556046210056 3.189828660475644 1.9999999999999907
    vertex 25.462895796057037 2.4408992361693334 8.999999999999998
    vertex 28.2556046210056 3.189828660475644 8.999999999999998
  endloop
endfacet
facet normal -0.2023766989101553 0.9793077512907924 0.0
  outer loop
    vertex 22.63133825081604 1.8557499120424594 8.999999999999998
    vertex 25.462895796057037 2.4408992361693334 1.9999999999999907
    vertex 22.63133825081604 1.8557499120424594 1.9999999999999907
  endloop
endfacet
facet normal -0.2023766989101553 0.9793077512907924 0.0
  outer loop
    vertex 25.462895796057037 2.4408992361693334 1.9999999999999907
    vertex 22.63133825081604 1.8557499120424594 8.999999999999998
    vertex 25.462895796057037 2.4408992361693334 8.999999999999998
  endloop
endfacet
facet normal -0.14504669441885046 0.989424810906905 0.0
  outer loop
    vertex 19.77052837253275 1.4363638084885757 8.999999999999998
    vertex 22.63133825081604 1.8557499120424594 1.9999999999999907
    vertex 19.77052837253275 1.4363638084885757 1.9999999999999907
  endloop
endfacet
facet normal -0.14504669441885046 0.989424810906905 0.0
  outer loop
    vertex 22.63133825081604 1.8557499120424594 1.9999999999999907
    vertex 19.77052837253275 1.4363638084885757 8.999999999999998
    vertex 22.63133825081604 1.8557499120424594 8.999999999999998
  endloop
endfacet
facet normal -0.08722511445124119 0.9961886264202016 0.0
  outer loop
    vertex 16.890161687080266 1.1841622603711615 8.999999999999998
    vertex 19.77052837253275 1.4363638084885757 1.9999999999999907
    vertex 16.890161687080266 1.1841622603711615 1.9999999999999907
  endloop
endfacet
facet normal -0.08722511445124119 0.9961886264202016 0.0
  outer loop
    vertex 19.77052837253275 1.4363638084885757 1.9999999999999907
    vertex 16.890161687080266 1.1841622603711615 8.999999999999998
    vertex 19.77052837253275 1.4363638084885757 8.999999999999998
  endloop
endfacet
facet normal -0.029107921216776925 0.9995762746896497 0.0
  outer loop
    vertex 14.000000000000009 1.0999999999999868 8.999999999999998
    vertex 16.890161687080266 1.1841622603711615 1.9999999999999907
    vertex 14.000000000000009 1.0999999999999868 1.9999999999999907
  endloop
endfacet
facet normal -0.029107921216776925 0.9995762746896497 0.0
  outer loop
    vertex 16.890161687080266 1.1841622603711615 1.9999999999999907
    vertex 14.000000000000009 1.0999999999999868 8.999999999999998
    vertex 16.890161687080266 1.1841622603711615 8.999999999999998
  endloop
endfacet
facet normal 0.029107921216778906 0.9995762746896497 0.0
  outer loop
    vertex 11.109838312919756 1.184162260371167 8.999999999999998
    vertex 14.000000000000009 1.0999999999999868 1.9999999999999907
    vertex 11.109838312919756 1.184162260371167 1.9999999999999907
  endloop
endfacet
facet normal 0.029107921216778906 0.9995762746896497 0.0
  outer loop
    vertex 14.000000000000009 1.0999999999999868 1.9999999999999907
    vertex 11.109838312919756 1.184162260371167 8.999999999999998
    vertex 14.000000000000009 1.0999999999999868 8.999999999999998
  endloop
endfacet
facet normal 0.08722511445123732 0.996188626420202 0.0
  outer loop
    vertex 8.229471627467271 1.43636380848857 8.999999999999998
    vertex 11.109838312919756 1.184162260371167 1.9999999999999907
    vertex 8.229471627467271 1.43636380848857 1.9999999999999907
  endloop
endfacet
facet normal 0.08722511445123732 0.996188626420202 0.0
  outer loop
    vertex 11.109838312919756 1.184162260371167 1.9999999999999907
    vertex 8.229471627467271 1.43636380848857 8.999999999999998
    vertex 11.109838312919756 1.184162260371167 8.999999999999998
  endloop
endfacet
facet normal 0.14504669441885046 0.989424810906905 0.0
  outer loop
    vertex 5.368661749183981 1.8557499120424537 8.999999999999998
    vertex 8.229471627467271 1.43636380848857 1.9999999999999907
    vertex 5.368661749183981 1.8557499120424537 1.9999999999999907
  endloop
endfacet
facet normal 0.14504669441885046 0.989424810906905 0.0
  outer loop
    vertex 8.229471627467271 1.43636380848857 1.9999999999999907
    vertex 5.368661749183981 1.8557499120424537 8.999999999999998
    vertex 8.229471627467271 1.43636380848857 8.999999999999998
  endloop
endfacet
facet normal 0.2023766989101557 0.9793077512907924 0.0
  outer loop
    vertex 2.537104203942987 2.440899236169328 8.999999999999998
    vertex 5.368661749183981 1.8557499120424537 1.9999999999999907
    vertex 2.537104203942987 2.440899236169328 1.9999999999999907
  endloop
endfacet
facet normal 0.2023766989101557 0.9793077512907924 0.0
  outer loop
    vertex 5.368661749183981 1.8557499120424537 1.9999999999999907
    vertex 2.537104203942987 2.440899236169328 8.999999999999998
    vertex 5.368661749183981 1.8557499120424537 8.999999999999998
  endloop
endfacet
facet normal 0.2590208317064221 0.9658717351398752 0.0
  outer loop
    vertex -0.2556046210055843 3.189828660475638 8.999999999999998
    vertex 2.537104203942987 2.440899236169328 1.9999999999999907
    vertex -0.2556046210055843 3.189828660475638 1.9999999999999907
  endloop
endfacet
facet normal 0.2590208317064221 0.9658717351398752 0.0
  outer loop
    vertex 2.537104203942987 2.440899236169328 1.9999999999999907
    vertex -0.2556046210055843 3.189828660475638 8.999999999999998
    vertex 2.537104203942987 2.440899236169328 8.999999999999998
  endloop
endfacet
facet normal 0.3147871210659298 0.9491622982456813 0.0
  outer loop
    vertex -2.999999999999978 4.0999999999999925 8.999999999999998
    vertex -0.2556046210055843 3.189828660475638 1.9999999999999907
    vertex -2.999999999999978 4.0999999999999925 1.9999999999999907
  endloop
endfacet
facet normal 0.3147871210659298 0.9491622982456813 0.0
  outer loop
    vertex -0.2556046210055843 3.189828660475638 1.9999999999999907
    vertex -2.999999999999978 4.0999999999999925 8.999999999999998
    vertex -0.2556046210055843 3.189828660475638 8.999999999999998
  endloop
endfacet
facet normal -1.0 -3.7663831575491483e-19 4.819370577104145e-16
  outer loop
    vertex -2.999999999999978 4.0999999999999925 8.999999999999998
    vertex -3.0 -2.75 0.0
    vertex -3.0 -2.75 8.999999999999998
  endloop
endfacet
facet normal -1.0 -3.7663831575491483e-19 4.819370577104145e-16
  outer loop
    vertex -3.0 -2.75 0.0
    vertex -2.999999999999978 4.0999999999999925 8.999999999999998
    vertex -2.999999999999978 4.0999999999999925 1.9999999999999907
  endloop
endfacet
facet normal -1.0 -3.7663831575491483e-19 4.819370577104145e-16
  outer loop
    vertex -3.0 -2.75 0.0
    vertex -2.999999999999978 4.0999999999999925 1.9999999999999907
    vertex -2.9999999999999947 95.4 0.0
  endloop
endfacet
facet normal -1.0 -3.7663831575491483e-19 4.819370577104145e-16
  outer loop
    vertex -2.9999999999999947 95.4 0.0
    vertex -2.999999999999978 4.0999999999999925 1.9999999999999907
    vertex -2.999999999999989 95.4 1.999999999999992
  endloop
endfacet
facet normal 0.0 1.0 0.0
  outer loop
    vertex -3.0 102.75 8.999999999999995
    vertex 30.999999999999993 102.75 0.0
    vertex -3.0 102.75 0.0
  endloop
endfacet
facet normal 0.0 1.0 0.0
  outer loop
    vertex 30.999999999999993 102.75 0.0
    vertex -3.0 102.75 8.999999999999995
    vertex 30.999999999999993 102.75 8.999999999999995
  endloop
endfacet
facet normal 1.0 2.0438317364208904e-19 1.4775154721286536e-18
  outer loop
    vertex 30.999999999999993 -2.75 0.0
    vertex 30.999999999999993 4.099999999999998 1.9999999999999907
    vertex 30.999999999999993 -2.75 8.999999999999998
  endloop
endfacet
facet normal 1.0 2.0438317364208904e-19 1.4775154721286536e-18
  outer loop
    vertex 30.999999999999993 4.099999999999998 1.9999999999999907
    vertex 30.999999999999993 -2.75 0.0
    vertex 30.999999999999993 102.75 0.0
  endloop
endfacet
facet normal 1.0 2.0438317364208904e-19 1.4775154721286536e-18
  outer loop
    vertex 30.999999999999993 4.099999999999998 1.9999999999999907
    vertex 30.999999999999993 102.75 0.0
    vertex 30.99999999999999 95.90000000000008 1.999999999999992
  endloop
endfacet
facet normal 1.0 2.0438317364208904e-19 1.4775154721286536e-18
  outer loop
    vertex 30.99999999999999 95.90000000000008 1.999999999999992
    vertex 30.999999999999993 102.75 0.0
    vertex 30.99999999999999 95.90000000000008 8.999999999999995
  endloop
endfacet
facet normal 1.0 2.0438317364208904e-19 1.4775154721286536e-18
  outer loop
    vertex 30.99999999999999 95.90000000000008 8.999999999999995
    vertex 30.999999999999993 102.75 0.0
    vertex 30.999999999999993 102.75 8.999999999999995
  endloop
endfacet
facet normal 1.0 2.0438317364208904e-19 1.4775154721286536e-18
  outer loop
    vertex 30.999999999999993 4.099999999999998 8.999999999999998
    vertex 30.999999999999993 -2.75 8.999999999999998
    vertex 30.999999999999993 4.099999999999998 1.9999999999999907
  endloop
endfacet
facet normal -1.0 -1.6817077170617287e-15 1.7403530213550463e-15
  outer loop
    vertex -3.0 102.75 8.999999999999995
    vertex -2.999999999999989 95.9 1.999999999999992
    vertex -2.999999999999989 95.9 8.999999999999995
  endloop
endfacet
facet normal -1.0 -1.6817077170617287e-15 1.7403530213550463e-15
  outer loop
    vertex -2.999999999999989 95.9 1.999999999999992
    vertex -2.9999999999999947 95.4 0.0
    vertex -2.999999999999989 95.4 1.999999999999992
  endloop
endfacet
facet normal -1.0 -1.6817077170617287e-15 1.7403530213550463e-15
  outer loop
    vertex -2.9999999999999947 95.4 0.0
    vertex -2.999999999999989 95.9 1.999999999999992
    vertex -3.0 102.75 0.0
  endloop
endfacet
facet normal -1.0 -1.6817077170617287e-15 1.7403530213550463e-15
  outer loop
    vertex -3.0 102.75 0.0
    vertex -2.999999999999989 95.9 1.999999999999992
    vertex -3.0 102.75 8.999999999999995
  endloop
endfacet
facet normal 0.0 0.0 1.0
  outer loop
    vertex -3.0 102.75 8.999999999999995
    vertex 5.368661749183976 98.1442500879575 8.999999999999995
    vertex 30.999999999999993 102.75 8.999999999999995
  endloop
endfacet
facet normal 0.0 0.0 1.0
  outer loop
    vertex 5.368661749183976 98.1442500879575 8.999999999999995
    vertex -3.0 102.75 8.999999999999995
    vertex 2.5371042039429774 97.55910076383063 8.999999999999995
  endloop
endfacet
facet normal 0.0 0.0 1.0
  outer loop
    vertex 2.5371042039429774 97.55910076383063 8.999999999999995
    vertex -3.0 102.75 8.999999999999995
    vertex -0.2556046210055843 96.81017133952433 8.999999999999995
  endloop
endfacet
facet normal 0.0 0.0 1.0
  outer loop
    vertex -0.2556046210055843 96.81017133952433 8.999999999999995
    vertex -3.0 102.75 8.999999999999995
    vertex -2.999999999999989 95.9 8.999999999999995
  endloop
endfacet
facet normal 0.0 0.0 1.0
  outer loop
    vertex 30.999999999999993 102.75 8.999999999999995
    vertex 5.368661749183976 98.1442500879575 8.999999999999995
    vertex 8.229471627467264 98.56363619151138 8.999999999999995
  endloop
endfacet
facet normal 0.0 0.0 1.0
  outer loop
    vertex 30.999999999999993 102.75 8.999999999999995
    vertex 8.229471627467264 98.56363619151138 8.999999999999995
    vertex 11.10983831291975 98.81583773962879 8.999999999999995
  endloop
endfacet
facet normal 0.0 0.0 1.0
  outer loop
    vertex 30.999999999999993 102.75 8.999999999999995
    vertex 11.10983831291975 98.81583773962879 8.999999999999995
    vertex 14.000000000000014 98.89999999999996 8.999999999999995
  endloop
endfacet
facet normal 0.0 0.0 1.0
  outer loop
    vertex 30.999999999999993 102.75 8.999999999999995
    vertex 14.000000000000014 98.89999999999996 8.999999999999995
    vertex 16.890161687080248 98.81583773962879 8.999999999999995
  endloop
endfacet
facet normal 0.0 0.0 1.0
  outer loop
    vertex 30.999999999999993 102.75 8.999999999999995
    vertex 16.890161687080248 98.81583773962879 8.999999999999995
    vertex 19.770528372532734 98.56363619151139 8.999999999999995
  endloop
endfacet
facet normal 0.0 0.0 1.0
  outer loop
    vertex 30.999999999999993 102.75 8.999999999999995
    vertex 19.770528372532734 98.56363619151139 8.999999999999995
    vertex 22.63133825081603 98.14425008795752 8.999999999999995
  endloop
endfacet
facet normal 0.0 0.0 1.0
  outer loop
    vertex 30.999999999999993 102.75 8.999999999999995
    vertex 22.63133825081603 98.14425008795752 8.999999999999995
    vertex 25.46289579605702 97.55910076383068 8.999999999999995
  endloop
endfacet
facet normal 0.0 0.0 1.0
  outer loop
    vertex 30.999999999999993 102.75 8.999999999999995
    vertex 25.46289579605702 97.55910076383068 8.999999999999995
    vertex 28.25560462100559 96.8101713395244 8.999999999999995
  endloop
endfacet
facet normal 0.0 0.0 1.0
  outer loop
    vertex 30.999999999999993 102.75 8.999999999999995
    vertex 28.25560462100559 96.8101713395244 8.999999999999995
    vertex 30.99999999999999 95.90000000000008 8.999999999999995
  endloop
endfacet
facet normal 0.3147871210659199 -0.9491622982456847 0.0
  outer loop
    vertex -0.2556046210055843 96.81017133952433 8.999999999999995
    vertex -2.999999999999989 95.9 1.999999999999992
    vertex -0.2556046210055843 96.81017133952433 1.999999999999992
  endloop
endfacet
facet normal 0.3147871210659199 -0.9491622982456847 0.0
  outer loop
    vertex -2.999999999999989 95.9 1.999999999999992
    vertex -0.2556046210055843 96.81017133952433 8.999999999999995
    vertex -2.999999999999989 95.9 8.999999999999995
  endloop
endfacet
facet normal 0.2590208317064193 -0.965871735139876 0.0
  outer loop
    vertex 2.5371042039429774 97.55910076383063 8.999999999999995
    vertex -0.2556046210055843 96.81017133952433 1.999999999999992
    vertex 2.5371042039429774 97.55910076383063 1.999999999999992
  endloop
endfacet
facet normal 0.2590208317064193 -0.965871735139876 0.0
  outer loop
    vertex -0.2556046210055843 96.81017133952433 1.999999999999992
    vertex 2.5371042039429774 97.55910076383063 8.999999999999995
    vertex -0.2556046210055843 96.81017133952433 8.999999999999995
  endloop
endfacet
facet normal 0.2023766989101535 -0.9793077512907927 0.0
  outer loop
    vertex 5.368661749183976 98.1442500879575 8.999999999999995
    vertex 2.5371042039429774 97.55910076383063 1.999999999999992
    vertex 5.368661749183976 98.1442500879575 1.999999999999992
  endloop
endfacet
facet normal 0.2023766989101535 -0.9793077512907927 0.0
  outer loop
    vertex 2.5371042039429774 97.55910076383063 1.999999999999992
    vertex 5.368661749183976 98.1442500879575 8.999999999999995
    vertex 2.5371042039429774 97.55910076383063 8.999999999999995
  endloop
endfacet
facet normal 0.14504669441884854 -0.9894248109069053 0.0
  outer loop
    vertex 8.229471627467264 98.56363619151138 8.999999999999995
    vertex 5.368661749183976 98.1442500879575 1.999999999999992
    vertex 8.229471627467264 98.56363619151138 1.999999999999992
  endloop
endfacet
facet normal 0.14504669441884854 -0.9894248109069053 0.0
  outer loop
    vertex 5.368661749183976 98.1442500879575 1.999999999999992
    vertex 8.229471627467264 98.56363619151138 8.999999999999995
    vertex 5.368661749183976 98.1442500879575 8.999999999999995
  endloop
endfacet
facet normal 0.08722511445124119 -0.9961886264202016 0.0
  outer loop
    vertex 11.10983831291975 98.81583773962879 8.999999999999995
    vertex 8.229471627467264 98.56363619151138 1.999999999999992
    vertex 11.10983831291975 98.81583773962879 1.999999999999992
  endloop
endfacet
facet normal 0.08722511445124119 -0.9961886264202016 0.0
  outer loop
    vertex 8.229471627467264 98.56363619151138 1.999999999999992
    vertex 11.10983831291975 98.81583773962879 8.999999999999995
    vertex 8.229471627467264 98.56363619151138 8.999999999999995
  endloop
endfacet
facet normal 0.029107921216776845 -0.9995762746896498 0.0
  outer loop
    vertex 14.000000000000014 98.89999999999996 8.999999999999995
    vertex 11.10983831291975 98.81583773962879 1.999999999999992
    vertex 14.000000000000014 98.89999999999996 1.999999999999992
  endloop
endfacet
facet normal 0.029107921216776845 -0.9995762746896498 0.0
  outer loop
    vertex 11.10983831291975 98.81583773962879 1.999999999999992
    vertex 14.000000000000014 98.89999999999996 8.999999999999995
    vertex 11.10983831291975 98.81583773962879 8.999999999999995
  endloop
endfacet
facet normal -0.029107921216777157 -0.9995762746896497 -0.0
  outer loop
    vertex 16.890161687080248 98.81583773962879 8.999999999999995
    vertex 14.000000000000014 98.89999999999996 1.999999999999992
    vertex 16.890161687080248 98.81583773962879 1.999999999999992
  endloop
endfacet
facet normal -0.029107921216777157 -0.9995762746896497 -0.0
  outer loop
    vertex 14.000000000000014 98.89999999999996 1.999999999999992
    vertex 16.890161687080248 98.81583773962879 8.999999999999995
    vertex 14.000000000000014 98.89999999999996 8.999999999999995
  endloop
endfacet
facet normal -0.08722511445123336 -0.9961886264202023 -0.0
  outer loop
    vertex 19.770528372532734 98.56363619151139 8.999999999999995
    vertex 16.890161687080248 98.81583773962879 1.999999999999992
    vertex 19.770528372532734 98.56363619151139 1.999999999999992
  endloop
endfacet
facet normal -0.08722511445123336 -0.9961886264202023 -0.0
  outer loop
    vertex 16.890161687080248 98.81583773962879 1.999999999999992
    vertex 19.770528372532734 98.56363619151139 8.999999999999995
    vertex 16.890161687080248 98.81583773962879 8.999999999999995
  endloop
endfacet
facet normal -0.1450466944188484 -0.9894248109069054 -0.0
  outer loop
    vertex 22.63133825081603 98.14425008795752 8.999999999999995
    vertex 19.770528372532734 98.56363619151139 1.999999999999992
    vertex 22.63133825081603 98.14425008795752 1.999999999999992
  endloop
endfacet
facet normal -0.1450466944188484 -0.9894248109069054 -0.0
  outer loop
    vertex 19.770528372532734 98.56363619151139 1.999999999999992
    vertex 22.63133825081603 98.14425008795752 8.999999999999995
    vertex 19.770528372532734 98.56363619151139 8.999999999999995
  endloop
endfacet
facet normal -0.20237669891014257 -0.979307751290795 -0.0
  outer loop
    vertex 25.46289579605702 97.55910076383068 8.999999999999995
    vertex 22.63133825081603 98.14425008795752 1.999999999999992
    vertex 25.46289579605702 97.55910076383068 1.999999999999992
  endloop
endfacet
facet normal -0.20237669891014257 -0.979307751290795 -0.0
  outer loop
    vertex 22.63133825081603 98.14425008795752 1.999999999999992
    vertex 25.46289579605702 97.55910076383068 8.999999999999995
    vertex 22.63133825081603 98.14425008795752 8.999999999999995
  endloop
endfacet
facet normal -0.2590208317064154 -0.9658717351398772 -0.0
  outer loop
    vertex 28.25560462100559 96.8101713395244 8.999999999999995
    vertex 25.46289579605702 97.55910076383068 1.999999999999992
    vertex 28.25560462100559 96.8101713395244 1.999999999999992
  endloop
endfacet
facet normal -0.2590208317064154 -0.9658717351398772 -0.0
  outer loop
    vertex 25.46289579605702 97.55910076383068 1.999999999999992
    vertex 28.25560462100559 96.8101713395244 8.999999999999995
    vertex 25.46289579605702 97.55910076383068 8.999999999999995
  endloop
endfacet
facet normal -0.31478712106592016 -0.9491622982456844 -0.0
  outer loop
    vertex 30.99999999999999 95.90000000000008 8.999999999999995
    vertex 28.25560462100559 96.8101713395244 1.999999999999992
    vertex 30.99999999999999 95.90000000000008 1.999999999999992
  endloop
endfacet
facet normal -0.31478712106592016 -0.9491622982456844 -0.0
  outer loop
    vertex 28.25560462100559 96.8101713395244 1.999999999999992
    vertex 30.99999999999999 95.90000000000008 8.999999999999995
    vertex 28.25560462100559 96.8101713395244 8.999999999999995
  endloop
endfacet
endsolid splunk-spinner-v2
