solid splunk-spinner
facet normal 0.0 0.0 -1.0
  outer loop
    vertex 3.6246775368878077 -12.884332854687697 0.0
    vertex 6.624677536887808 -15.884332854687697 0.0
    vertex 3.6246775368878077 -41.88433285468769 0.0
  endloop
endfacet
facet normal 0.0 0.0 -1.0
  outer loop
    vertex 6.624677536887808 -15.884332854687697 0.0
    vertex 3.6246775368878077 -12.884332854687697 0.0
    vertex 60.62467753688779 -12.884332854687697 0.0
  endloop
endfacet
facet normal 0.0 0.0 -1.0
  outer loop
    vertex 6.624677536887808 -15.884332854687697 0.0
    vertex 60.62467753688779 -12.884332854687697 0.0
    vertex 57.62467753688779 -15.884332854687697 0.0
  endloop
endfacet
facet normal 0.0 0.0 -1.0
  outer loop
    vertex 57.62467753688779 -15.884332854687697 0.0
    vertex 60.62467753688779 -12.884332854687697 0.0
    vertex 57.62467753688779 -38.88433285468769 0.0
  endloop
endfacet
facet normal 0.0 0.0 -1.0
  outer loop
    vertex 3.6246775368878077 -41.88433285468769 0.0
    vertex 6.624677536887808 -38.88433285468769 0.0
    vertex 60.62467753688779 -41.88433285468769 0.0
  endloop
endfacet
facet normal 0.0 0.0 -1.0
  outer loop
    vertex 6.624677536887808 -38.88433285468769 0.0
    vertex 3.6246775368878077 -41.88433285468769 0.0
    vertex 6.624677536887808 -15.884332854687697 0.0
  endloop
endfacet
facet normal 0.0 0.0 -1.0
  outer loop
    vertex 60.62467753688779 -41.88433285468769 0.0
    vertex 6.624677536887808 -38.88433285468769 0.0
    vertex 57.62467753688779 -38.88433285468769 0.0
  endloop
endfacet
facet normal 0.0 0.0 -1.0
  outer loop
    vertex 60.62467753688779 -41.88433285468769 0.0
    vertex 57.62467753688779 -38.88433285468769 0.0
    vertex 60.62467753688779 -12.884332854687697 0.0
  endloop
endfacet
facet normal -0.0 -1.0 -0.0
  outer loop
    vertex 60.62467753688779 -41.88433285468769 9.999999999999998
    vertex 3.6246775368878077 -41.88433285468769 0.0
    vertex 60.62467753688779 -41.88433285468769 0.0
  endloop
endfacet
facet normal -0.0 -1.0 -0.0
  outer loop
    vertex 3.6246775368878077 -41.88433285468769 0.0
    vertex 60.62467753688779 -41.88433285468769 9.999999999999998
    vertex 3.6246775368878077 -41.88433285468769 9.999999999999998
  endloop
endfacet
facet normal -1.0 0.0 0.0
  outer loop
    vertex 3.6246775368878077 -12.884332854687697 9.999999999999998
    vertex 3.6246775368878077 -41.88433285468769 0.0
    vertex 3.6246775368878077 -41.88433285468769 9.999999999999998
  endloop
endfacet
facet normal -1.0 0.0 0.0
  outer loop
    vertex 3.6246775368878077 -41.88433285468769 0.0
    vertex 3.6246775368878077 -12.884332854687697 9.999999999999998
    vertex 3.6246775368878077 -12.884332854687697 0.0
  endloop
endfacet
facet normal -0.0 1.0 0.0
  outer loop
    vertex 3.6246775368878077 -12.884332854687697 9.999999999999998
    vertex 60.62467753688779 -12.884332854687697 0.0
    vertex 3.6246775368878077 -12.884332854687697 0.0
  endloop
endfacet
facet normal -0.0 1.0 0.0
  outer loop
    vertex 60.62467753688779 -12.884332854687697 0.0
    vertex 3.6246775368878077 -12.884332854687697 9.999999999999998
    vertex 60.62467753688779 -12.884332854687697 9.999999999999998
  endloop
endfacet
facet normal 1.0 0.0 0.0
  outer loop
    vertex 60.62467753688779 -12.884332854687697 0.0
    vertex 60.62467753688779 -41.88433285468769 9.999999999999998
    vertex 60.62467753688779 -41.88433285468769 0.0
  endloop
endfacet
facet normal 1.0 0.0 0.0
  outer loop
    vertex 60.62467753688779 -41.88433285468769 9.999999999999998
    vertex 60.62467753688779 -12.884332854687697 0.0
    vertex 60.62467753688779 -12.884332854687697 9.999999999999998
  endloop
endfacet
facet normal 0.0 0.0 1.0
  outer loop
    vertex 3.6246775368878077 -41.88433285468769 9.999999999999998
    vertex 6.624677536887808 -38.88433285468769 9.999999999999998
    vertex 3.6246775368878077 -12.884332854687697 9.999999999999998
  endloop
endfacet
facet normal 0.0 0.0 1.0
  outer loop
    vertex 6.624677536887808 -38.88433285468769 9.999999999999998
    vertex 3.6246775368878077 -41.88433285468769 9.999999999999998
    vertex 60.62467753688779 -41.88433285468769 9.999999999999998
  endloop
endfacet
facet normal 0.0 0.0 1.0
  outer loop
    vertex 6.624677536887808 -38.88433285468769 9.999999999999998
    vertex 60.62467753688779 -41.88433285468769 9.999999999999998
    vertex 57.62467753688779 -38.88433285468769 9.999999999999998
  endloop
endfacet
facet normal 0.0 0.0 1.0
  outer loop
    vertex 57.62467753688779 -38.88433285468769 9.999999999999998
    vertex 60.62467753688779 -41.88433285468769 9.999999999999998
    vertex 57.62467753688779 -15.884332854687697 9.999999999999998
  endloop
endfacet
facet normal 0.0 0.0 1.0
  outer loop
    vertex 3.6246775368878077 -12.884332854687697 9.999999999999998
    vertex 6.624677536887808 -15.884332854687697 9.999999999999998
    vertex 60.62467753688779 -12.884332854687697 9.999999999999998
  endloop
endfacet
facet normal 0.0 0.0 1.0
  outer loop
    vertex 6.624677536887808 -15.884332854687697 9.999999999999998
    vertex 3.6246775368878077 -12.884332854687697 9.999999999999998
    vertex 6.624677536887808 -38.88433285468769 9.999999999999998
  endloop
endfacet
facet normal 0.0 0.0 1.0
  outer loop
    vertex 60.62467753688779 -12.884332854687697 9.999999999999998
    vertex 6.624677536887808 -15.884332854687697 9.999999999999998
    vertex 57.62467753688779 -15.884332854687697 9.999999999999998
  endloop
endfacet
facet normal 0.0 0.0 1.0
  outer loop
    vertex 60.62467753688779 -12.884332854687697 9.999999999999998
    vertex 57.62467753688779 -15.884332854687697 9.999999999999998
    vertex 60.62467753688779 -41.88433285468769 9.999999999999998
  endloop
endfacet
facet normal 0.0 -1.0 0.0
  outer loop
    vertex 57.62467753688779 -15.884332854687697 9.999999999999998
    vertex 6.624677536887808 -15.884332854687697 0.0
    vertex 57.62467753688779 -15.884332854687697 0.0
  endloop
endfacet
facet normal 0.0 -1.0 0.0
  outer loop
    vertex 6.624677536887808 -15.884332854687697 0.0
    vertex 57.62467753688779 -15.884332854687697 9.999999999999998
    vertex 6.624677536887808 -15.884332854687697 9.999999999999998
  endloop
endfacet
facet normal -1.0 0.0 0.0
  outer loop
    vertex 57.62467753688779 -15.884332854687697 9.999999999999998
    vertex 57.62467753688779 -38.88433285468769 0.0
    vertex 57.62467753688779 -38.88433285468769 9.999999999999998
  endloop
endfacet
facet normal -1.0 0.0 0.0
  outer loop
    vertex 57.62467753688779 -38.88433285468769 0.0
    vertex 57.62467753688779 -15.884332854687697 9.999999999999998
    vertex 57.62467753688779 -15.884332854687697 0.0
  endloop
endfacet
facet normal 1.0 -0.0 -0.0
  outer loop
    vertex 6.624677536887808 -15.884332854687697 0.0
    vertex 6.624677536887808 -38.88433285468769 9.999999999999998
    vertex 6.624677536887808 -38.88433285468769 0.0
  endloop
endfacet
facet normal 1.0 -0.0 -0.0
  outer loop
    vertex 6.624677536887808 -38.88433285468769 9.999999999999998
    vertex 6.624677536887808 -15.884332854687697 0.0
    vertex 6.624677536887808 -15.884332854687697 9.999999999999998
  endloop
endfacet
facet normal 0.0 0.0 -1.0
  outer loop
    vertex 60.62467753688779 -57.4668948546877 -0.936453
    vertex 3.624677536887805 -86.4668948546877 -0.936453
    vertex 3.624677536887805 -57.4668948546877 -0.936453
  endloop
endfacet
facet normal 0.0 0.0 -1.0
  outer loop
    vertex 3.624677536887805 -86.4668948546877 -0.936453
    vertex 60.62467753688779 -57.4668948546877 -0.936453
    vertex 60.62467753688779 -86.4668948546877 -0.936453
  endloop
endfacet
facet normal 0.0 0.0 1.0
  outer loop
    vertex 3.624677536887805 -86.4668948546877 1.0635469999999962
    vertex 30.124677536887795 -75.43099646982546 1.063546999999998
    vertex 3.624677536887805 -57.4668948546877 1.0635469999999962
  endloop
endfacet
facet normal 0.0 0.0 1.0
  outer loop
    vertex 30.124677536887795 -75.43099646982546 1.063546999999998
    vertex 3.624677536887805 -86.4668948546877 1.0635469999999962
    vertex 31.089401356477712 -75.83059815984396 1.063546999999998
  endloop
endfacet
facet normal 0.0 0.0 1.0
  outer loop
    vertex 31.089401356477712 -75.83059815984396 1.063546999999998
    vertex 3.624677536887805 -86.4668948546877 1.0635469999999962
    vertex 60.62467753688779 -86.4668948546877 1.0635469999999962
  endloop
endfacet
facet normal 0.0 0.0 1.0
  outer loop
    vertex 3.624677536887805 -57.4668948546877 1.0635469999999962
    vertex 30.124677536887795 -75.43099646982546 1.063546999999998
    vertex 29.296250412141607 -74.79532197943388 1.063546999999998
  endloop
endfacet
facet normal 0.0 0.0 1.0
  outer loop
    vertex 3.624677536887805 -57.4668948546877 1.0635469999999962
    vertex 29.296250412141607 -74.79532197943388 1.063546999999998
    vertex 28.66057592175004 -73.9668948546877 1.063546999999998
  endloop
endfacet
facet normal 0.0 0.0 1.0
  outer loop
    vertex 3.624677536887805 -57.4668948546877 1.0635469999999962
    vertex 28.66057592175004 -73.9668948546877 1.063546999999998
    vertex 28.26097423173152 -73.00217103509777 1.063546999999998
  endloop
endfacet
facet normal 0.0 0.0 1.0
  outer loop
    vertex 3.624677536887805 -57.4668948546877 1.0635469999999962
    vertex 28.26097423173152 -73.00217103509777 1.063546999999998
    vertex 28.124677536887795 -71.9668948546877 1.063546999999998
  endloop
endfacet
facet normal 0.0 0.0 1.0
  outer loop
    vertex 31.089401356477712 -75.83059815984396 1.063546999999998
    vertex 60.62467753688779 -86.4668948546877 1.0635469999999962
    vertex 32.124677536887795 -75.9668948546877 1.063546999999998
  endloop
endfacet
facet normal 0.0 0.0 1.0
  outer loop
    vertex 32.124677536887795 -75.9668948546877 1.063546999999998
    vertex 60.62467753688779 -86.4668948546877 1.0635469999999962
    vertex 33.159953717297874 -75.83059815984396 1.063546999999998
  endloop
endfacet
facet normal 0.0 0.0 1.0
  outer loop
    vertex 33.159953717297874 -75.83059815984396 1.063546999999998
    vertex 60.62467753688779 -86.4668948546877 1.0635469999999962
    vertex 34.124677536887795 -75.43099646982546 1.063546999999998
  endloop
endfacet
facet normal 0.0 0.0 1.0
  outer loop
    vertex 34.124677536887795 -75.43099646982546 1.063546999999998
    vertex 60.62467753688779 -86.4668948546877 1.0635469999999962
    vertex 34.953104661633986 -74.79532197943388 1.063546999999998
  endloop
endfacet
facet normal 0.0 0.0 1.0
  outer loop
    vertex 34.953104661633986 -74.79532197943388 1.063546999999998
    vertex 60.62467753688779 -86.4668948546877 1.0635469999999962
    vertex 35.588779152025545 -73.9668948546877 1.063546999999998
  endloop
endfacet
facet normal 0.0 0.0 1.0
  outer loop
    vertex 35.588779152025545 -73.9668948546877 1.063546999999998
    vertex 60.62467753688779 -86.4668948546877 1.0635469999999962
    vertex 35.988380842044066 -73.00217103509777 1.063546999999998
  endloop
endfacet
facet normal 0.0 0.0 1.0
  outer loop
    vertex 35.988380842044066 -73.00217103509777 1.063546999999998
    vertex 60.62467753688779 -86.4668948546877 1.0635469999999962
    vertex 36.12467753688779 -71.9668948546877 1.063546999999998
  endloop
endfacet
facet normal 0.0 0.0 1.0
  outer loop
    vertex 3.624677536887805 -57.4668948546877 1.0635469999999962
    vertex 31.08940135647771 -68.10319154953143 1.063546999999998
    vertex 60.62467753688779 -57.4668948546877 1.0635469999999962
  endloop
endfacet
facet normal 0.0 0.0 1.0
  outer loop
    vertex 31.08940135647771 -68.10319154953143 1.063546999999998
    vertex 3.624677536887805 -57.4668948546877 1.0635469999999962
    vertex 30.12467753688779 -68.50279323954994 1.063546999999998
  endloop
endfacet
facet normal 0.0 0.0 1.0
  outer loop
    vertex 30.12467753688779 -68.50279323954994 1.063546999999998
    vertex 3.624677536887805 -57.4668948546877 1.0635469999999962
    vertex 29.2962504121416 -69.13846772994151 1.063546999999998
  endloop
endfacet
facet normal 0.0 0.0 1.0
  outer loop
    vertex 29.2962504121416 -69.13846772994151 1.063546999999998
    vertex 3.624677536887805 -57.4668948546877 1.0635469999999962
    vertex 28.660575921750034 -69.96689485468771 1.063546999999998
  endloop
endfacet
facet normal 0.0 0.0 1.0
  outer loop
    vertex 28.660575921750034 -69.96689485468771 1.063546999999998
    vertex 3.624677536887805 -57.4668948546877 1.0635469999999962
    vertex 28.26097423173152 -70.93161867427762 1.063546999999998
  endloop
endfacet
facet normal 0.0 0.0 1.0
  outer loop
    vertex 28.26097423173152 -70.93161867427762 1.063546999999998
    vertex 3.624677536887805 -57.4668948546877 1.0635469999999962
    vertex 28.124677536887795 -71.9668948546877 1.063546999999998
  endloop
endfacet
facet normal 0.0 0.0 1.0
  outer loop
    vertex 60.62467753688779 -57.4668948546877 1.0635469999999962
    vertex 31.08940135647771 -68.10319154953143 1.063546999999998
    vertex 32.124677536887795 -67.96689485468771 1.063546999999998
  endloop
endfacet
facet normal 0.0 0.0 1.0
  outer loop
    vertex 60.62467753688779 -57.4668948546877 1.0635469999999962
    vertex 32.124677536887795 -67.96689485468771 1.063546999999998
    vertex 33.159953717297874 -68.10319154953142 1.063546999999998
  endloop
endfacet
facet normal 0.0 0.0 1.0
  outer loop
    vertex 60.62467753688779 -57.4668948546877 1.0635469999999962
    vertex 33.159953717297874 -68.10319154953142 1.063546999999998
    vertex 34.12467753688779 -68.50279323954994 1.063546999999998
  endloop
endfacet
facet normal 0.0 0.0 1.0
  outer loop
    vertex 60.62467753688779 -57.4668948546877 1.0635469999999962
    vertex 34.12467753688779 -68.50279323954994 1.063546999999998
    vertex 34.95310466163398 -69.13846772994151 1.063546999999998
  endloop
endfacet
facet normal 0.0 0.0 1.0
  outer loop
    vertex 60.62467753688779 -57.4668948546877 1.0635469999999962
    vertex 34.95310466163398 -69.13846772994151 1.063546999999998
    vertex 35.588779152025545 -69.96689485468771 1.063546999999998
  endloop
endfacet
facet normal 0.0 0.0 1.0
  outer loop
    vertex 60.62467753688779 -57.4668948546877 1.0635469999999962
    vertex 35.588779152025545 -69.96689485468771 1.063546999999998
    vertex 35.988380842044066 -70.93161867427762 1.063546999999998
  endloop
endfacet
facet normal 0.0 0.0 1.0
  outer loop
    vertex 60.62467753688779 -57.4668948546877 1.0635469999999962
    vertex 35.988380842044066 -70.93161867427762 1.063546999999998
    vertex 36.12467753688779 -71.9668948546877 1.063546999999998
  endloop
endfacet
facet normal 0.0 0.0 1.0
  outer loop
    vertex 60.62467753688779 -57.4668948546877 1.0635469999999962
    vertex 36.12467753688779 -71.9668948546877 1.063546999999998
    vertex 60.62467753688779 -86.4668948546877 1.0635469999999962
  endloop
endfacet
facet normal 0.0 -1.0 0.0
  outer loop
    vertex 60.62467753688779 -86.4668948546877 1.0635469999999962
    vertex 3.624677536887805 -86.4668948546877 -0.936453
    vertex 60.62467753688779 -86.4668948546877 -0.936453
  endloop
endfacet
facet normal 0.0 -1.0 0.0
  outer loop
    vertex 3.624677536887805 -86.4668948546877 -0.936453
    vertex 60.62467753688779 -86.4668948546877 1.0635469999999962
    vertex 3.624677536887805 -86.4668948546877 1.0635469999999962
  endloop
endfacet
facet normal 1.0 -0.0 0.0
  outer loop
    vertex 60.62467753688779 -57.4668948546877 -0.936453
    vertex 60.62467753688779 -86.4668948546877 1.0635469999999962
    vertex 60.62467753688779 -86.4668948546877 -0.936453
  endloop
endfacet
facet normal 1.0 -0.0 0.0
  outer loop
    vertex 60.62467753688779 -86.4668948546877 1.0635469999999962
    vertex 60.62467753688779 -57.4668948546877 -0.936453
    vertex 60.62467753688779 -57.4668948546877 1.0635469999999962
  endloop
endfacet
facet normal 0.0 1.0 0.0
  outer loop
    vertex 3.624677536887805 -57.4668948546877 1.0635469999999962
    vertex 60.62467753688779 -57.4668948546877 -0.936453
    vertex 3.624677536887805 -57.4668948546877 -0.936453
  endloop
endfacet
facet normal 0.0 1.0 0.0
  outer loop
    vertex 60.62467753688779 -57.4668948546877 -0.936453
    vertex 3.624677536887805 -57.4668948546877 1.0635469999999962
    vertex 60.62467753688779 -57.4668948546877 1.0635469999999962
  endloop
endfacet
facet normal -1.0 -0.0 -0.0
  outer loop
    vertex 3.624677536887805 -57.4668948546877 1.0635469999999962
    vertex 3.624677536887805 -86.4668948546877 -0.936453
    vertex 3.624677536887805 -86.4668948546877 1.0635469999999962
  endloop
endfacet
facet normal -1.0 -0.0 -0.0
  outer loop
    vertex 3.624677536887805 -86.4668948546877 -0.936453
    vertex 3.624677536887805 -57.4668948546877 1.0635469999999962
    vertex 3.624677536887805 -57.4668948546877 -0.936453
  endloop
endfacet
facet normal -0.0 1.0 -0.0
  outer loop
    vertex 6.624677536887808 -38.88433285468769 9.999999999999998
    vertex 57.62467753688779 -38.88433285468769 0.0
    vertex 6.624677536887808 -38.88433285468769 0.0
  endloop
endfacet
facet normal -0.0 1.0 -0.0
  outer loop
    vertex 57.62467753688779 -38.88433285468769 0.0
    vertex 6.624677536887808 -38.88433285468769 9.999999999999998
    vertex 57.62467753688779 -38.88433285468769 9.999999999999998
  endloop
endfacet
facet normal 0.0 0.0 1.0
  outer loop
    vertex 28.26097423173152 -73.00217103509777 8.563546999999998
    vertex 28.26097423173152 -70.93161867427762 8.563546999999998
    vertex 28.124677536887795 -71.9668948546877 8.563546999999998
  endloop
endfacet
facet normal 0.0 0.0 1.0
  outer loop
    vertex 28.26097423173152 -70.93161867427762 8.563546999999998
    vertex 28.26097423173152 -73.00217103509777 8.563546999999998
    vertex 28.66057592175004 -73.9668948546877 8.563546999999998
  endloop
endfacet
facet normal 0.0 0.0 1.0
  outer loop
    vertex 28.26097423173152 -70.93161867427762 8.563546999999998
    vertex 28.66057592175004 -73.9668948546877 8.563546999999998
    vertex 28.660575921750034 -69.96689485468771 8.563546999999998
  endloop
endfacet
facet normal 0.0 0.0 1.0
  outer loop
    vertex 28.660575921750034 -69.96689485468771 8.563546999999998
    vertex 28.66057592175004 -73.9668948546877 8.563546999999998
    vertex 29.2962504121416 -69.13846772994151 8.563546999999998
  endloop
endfacet
facet normal 0.0 0.0 1.0
  outer loop
    vertex 29.2962504121416 -69.13846772994151 8.563546999999998
    vertex 28.66057592175004 -73.9668948546877 8.563546999999998
    vertex 29.296250412141607 -74.79532197943388 8.563546999999998
  endloop
endfacet
facet normal 0.0 0.0 1.0
  outer loop
    vertex 29.2962504121416 -69.13846772994151 8.563546999999998
    vertex 29.296250412141607 -74.79532197943388 8.563546999999998
    vertex 30.12467753688779 -68.50279323954994 8.563546999999998
  endloop
endfacet
facet normal 0.0 0.0 1.0
  outer loop
    vertex 30.12467753688779 -68.50279323954994 8.563546999999998
    vertex 29.296250412141607 -74.79532197943388 8.563546999999998
    vertex 30.124677536887795 -75.43099646982546 8.563546999999998
  endloop
endfacet
facet normal 0.0 0.0 1.0
  outer loop
    vertex 30.12467753688779 -68.50279323954994 8.563546999999998
    vertex 30.124677536887795 -75.43099646982546 8.563546999999998
    vertex 31.08940135647771 -68.10319154953143 8.563546999999998
  endloop
endfacet
facet normal 0.0 0.0 1.0
  outer loop
    vertex 31.08940135647771 -68.10319154953143 8.563546999999998
    vertex 30.124677536887795 -75.43099646982546 8.563546999999998
    vertex 31.089401356477712 -75.83059815984396 8.563546999999998
  endloop
endfacet
facet normal 0.0 0.0 1.0
  outer loop
    vertex 31.08940135647771 -68.10319154953143 8.563546999999998
    vertex 31.089401356477712 -75.83059815984396 8.563546999999998
    vertex 32.124677536887795 -67.96689485468771 8.563546999999998
  endloop
endfacet
facet normal 0.0 0.0 1.0
  outer loop
    vertex 32.124677536887795 -67.96689485468771 8.563546999999998
    vertex 31.089401356477712 -75.83059815984396 8.563546999999998
    vertex 32.124677536887795 -75.9668948546877 8.563546999999998
  endloop
endfacet
facet normal 0.0 0.0 1.0
  outer loop
    vertex 32.124677536887795 -67.96689485468771 8.563546999999998
    vertex 32.124677536887795 -75.9668948546877 8.563546999999998
    vertex 33.159953717297874 -75.83059815984396 8.563546999999998
  endloop
endfacet
facet normal 0.0 0.0 1.0
  outer loop
    vertex 32.124677536887795 -67.96689485468771 8.563546999999998
    vertex 33.159953717297874 -75.83059815984396 8.563546999999998
    vertex 33.159953717297874 -68.10319154953142 8.563546999999998
  endloop
endfacet
facet normal 0.0 0.0 1.0
  outer loop
    vertex 33.159953717297874 -68.10319154953142 8.563546999999998
    vertex 33.159953717297874 -75.83059815984396 8.563546999999998
    vertex 34.12467753688779 -68.50279323954994 8.563546999999998
  endloop
endfacet
facet normal 0.0 0.0 1.0
  outer loop
    vertex 34.12467753688779 -68.50279323954994 8.563546999999998
    vertex 33.159953717297874 -75.83059815984396 8.563546999999998
    vertex 34.124677536887795 -75.43099646982546 8.563546999999998
  endloop
endfacet
facet normal 0.0 0.0 1.0
  outer loop
    vertex 34.12467753688779 -68.50279323954994 8.563546999999998
    vertex 34.124677536887795 -75.43099646982546 8.563546999999998
    vertex 34.95310466163398 -69.13846772994151 8.563546999999998
  endloop
endfacet
facet normal 0.0 0.0 1.0
  outer loop
    vertex 34.95310466163398 -69.13846772994151 8.563546999999998
    vertex 34.124677536887795 -75.43099646982546 8.563546999999998
    vertex 34.953104661633986 -74.79532197943388 8.563546999999998
  endloop
endfacet
facet normal 0.0 0.0 1.0
  outer loop
    vertex 34.95310466163398 -69.13846772994151 8.563546999999998
    vertex 34.953104661633986 -74.79532197943388 8.563546999999998
    vertex 35.588779152025545 -69.96689485468771 8.563546999999998
  endloop
endfacet
facet normal 0.0 0.0 1.0
  outer loop
    vertex 35.588779152025545 -69.96689485468771 8.563546999999998
    vertex 34.953104661633986 -74.79532197943388 8.563546999999998
    vertex 35.588779152025545 -73.9668948546877 8.563546999999998
  endloop
endfacet
facet normal 0.0 0.0 1.0
  outer loop
    vertex 35.588779152025545 -69.96689485468771 8.563546999999998
    vertex 35.588779152025545 -73.9668948546877 8.563546999999998
    vertex 35.988380842044066 -73.00217103509777 8.563546999999998
  endloop
endfacet
facet normal 0.0 0.0 1.0
  outer loop
    vertex 35.588779152025545 -69.96689485468771 8.563546999999998
    vertex 35.988380842044066 -73.00217103509777 8.563546999999998
    vertex 35.988380842044066 -70.93161867427762 8.563546999999998
  endloop
endfacet
facet normal 0.0 0.0 1.0
  outer loop
    vertex 35.988380842044066 -70.93161867427762 8.563546999999998
    vertex 35.988380842044066 -73.00217103509777 8.563546999999998
    vertex 36.12467753688779 -71.9668948546877 8.563546999999998
  endloop
endfacet
facet normal 0.7933533402912372 -0.6087614290087179 0.0
  outer loop
    vertex 35.588779152025545 -73.9668948546877 1.063546999999998
    vertex 34.953104661633986 -74.79532197943388 8.563546999999998
    vertex 34.953104661633986 -74.79532197943388 1.063546999999998
  endloop
endfacet
facet normal 0.7933533402912372 -0.6087614290087179 0.0
  outer loop
    vertex 34.953104661633986 -74.79532197943388 8.563546999999998
    vertex 35.588779152025545 -73.9668948546877 1.063546999999998
    vertex 35.588779152025545 -73.9668948546877 8.563546999999998
  endloop
endfacet
facet normal 0.9238795325112863 -0.3826834323650914 0.0
  outer loop
    vertex 35.988380842044066 -73.00217103509777 1.063546999999998
    vertex 35.588779152025545 -73.9668948546877 8.563546999999998
    vertex 35.588779152025545 -73.9668948546877 1.063546999999998
  endloop
endfacet
facet normal 0.9238795325112863 -0.3826834323650914 0.0
  outer loop
    vertex 35.588779152025545 -73.9668948546877 8.563546999999998
    vertex 35.988380842044066 -73.00217103509777 1.063546999999998
    vertex 35.988380842044066 -73.00217103509777 8.563546999999998
  endloop
endfacet
facet normal 0.9914448613738104 -0.13052619222005216 0.0
  outer loop
    vertex 36.12467753688779 -71.9668948546877 1.063546999999998
    vertex 35.988380842044066 -73.00217103509777 8.563546999999998
    vertex 35.988380842044066 -73.00217103509777 1.063546999999998
  endloop
endfacet
facet normal 0.9914448613738104 -0.13052619222005216 0.0
  outer loop
    vertex 35.988380842044066 -73.00217103509777 8.563546999999998
    vertex 36.12467753688779 -71.9668948546877 1.063546999999998
    vertex 36.12467753688779 -71.9668948546877 8.563546999999998
  endloop
endfacet
facet normal 0.9914448613738106 0.13052619222005077 0.0
  outer loop
    vertex 35.988380842044066 -70.93161867427762 1.063546999999998
    vertex 36.12467753688779 -71.9668948546877 8.563546999999998
    vertex 36.12467753688779 -71.9668948546877 1.063546999999998
  endloop
endfacet
facet normal 0.9914448613738106 0.13052619222005077 0.0
  outer loop
    vertex 36.12467753688779 -71.9668948546877 8.563546999999998
    vertex 35.988380842044066 -70.93161867427762 1.063546999999998
    vertex 35.988380842044066 -70.93161867427762 8.563546999999998
  endloop
endfacet
facet normal 0.9238795325112845 0.3826834323650951 0.0
  outer loop
    vertex 35.588779152025545 -69.96689485468771 1.063546999999998
    vertex 35.988380842044066 -70.93161867427762 8.563546999999998
    vertex 35.988380842044066 -70.93161867427762 1.063546999999998
  endloop
endfacet
facet normal 0.9238795325112845 0.3826834323650951 0.0
  outer loop
    vertex 35.988380842044066 -70.93161867427762 8.563546999999998
    vertex 35.588779152025545 -69.96689485468771 1.063546999999998
    vertex 35.588779152025545 -69.96689485468771 8.563546999999998
  endloop
endfacet
facet normal 0.7933533402912347 0.6087614290087213 0.0
  outer loop
    vertex 34.95310466163398 -69.13846772994151 1.063546999999998
    vertex 35.588779152025545 -69.96689485468771 8.563546999999998
    vertex 35.588779152025545 -69.96689485468771 1.063546999999998
  endloop
endfacet
facet normal 0.7933533402912347 0.6087614290087213 0.0
  outer loop
    vertex 35.588779152025545 -69.96689485468771 8.563546999999998
    vertex 34.95310466163398 -69.13846772994151 1.063546999999998
    vertex 34.95310466163398 -69.13846772994151 8.563546999999998
  endloop
endfacet
facet normal 0.6087614290087248 0.7933533402912322 0.0
  outer loop
    vertex 34.12467753688779 -68.50279323954994 8.563546999999998
    vertex 34.95310466163398 -69.13846772994151 1.063546999999998
    vertex 34.12467753688779 -68.50279323954994 1.063546999999998
  endloop
endfacet
facet normal 0.6087614290087248 0.7933533402912322 0.0
  outer loop
    vertex 34.95310466163398 -69.13846772994151 1.063546999999998
    vertex 34.12467753688779 -68.50279323954994 8.563546999999998
    vertex 34.95310466163398 -69.13846772994151 8.563546999999998
  endloop
endfacet
facet normal 0.3826834323650914 0.9238795325112863 0.0
  outer loop
    vertex 33.159953717297874 -68.10319154953142 8.563546999999998
    vertex 34.12467753688779 -68.50279323954994 1.063546999999998
    vertex 33.159953717297874 -68.10319154953142 1.063546999999998
  endloop
endfacet
facet normal 0.3826834323650914 0.9238795325112863 0.0
  outer loop
    vertex 34.12467753688779 -68.50279323954994 1.063546999999998
    vertex 33.159953717297874 -68.10319154953142 8.563546999999998
    vertex 34.12467753688779 -68.50279323954994 8.563546999999998
  endloop
endfacet
facet normal 0.13052619222004153 0.9914448613738117 0.0
  outer loop
    vertex 32.124677536887795 -67.96689485468771 8.563546999999998
    vertex 33.159953717297874 -68.10319154953142 1.063546999999998
    vertex 32.124677536887795 -67.96689485468771 1.063546999999998
  endloop
endfacet
facet normal 0.13052619222004153 0.9914448613738117 0.0
  outer loop
    vertex 33.159953717297874 -68.10319154953142 1.063546999999998
    vertex 32.124677536887795 -67.96689485468771 8.563546999999998
    vertex 33.159953717297874 -68.10319154953142 8.563546999999998
  endloop
endfacet
facet normal -0.13052619222005143 0.9914448613738105 0.0
  outer loop
    vertex 31.08940135647771 -68.10319154953143 8.563546999999998
    vertex 32.124677536887795 -67.96689485468771 1.063546999999998
    vertex 31.08940135647771 -68.10319154953143 1.063546999999998
  endloop
endfacet
facet normal -0.13052619222005143 0.9914448613738105 0.0
  outer loop
    vertex 32.124677536887795 -67.96689485468771 1.063546999999998
    vertex 31.08940135647771 -68.10319154953143 8.563546999999998
    vertex 32.124677536887795 -67.96689485468771 8.563546999999998
  endloop
endfacet
facet normal -0.38268343236508207 0.92387953251129 0.0
  outer loop
    vertex 30.12467753688779 -68.50279323954994 8.563546999999998
    vertex 31.08940135647771 -68.10319154953143 1.063546999999998
    vertex 30.12467753688779 -68.50279323954994 1.063546999999998
  endloop
endfacet
facet normal -0.38268343236508207 0.92387953251129 0.0
  outer loop
    vertex 31.08940135647771 -68.10319154953143 1.063546999999998
    vertex 30.12467753688779 -68.50279323954994 8.563546999999998
    vertex 31.08940135647771 -68.10319154953143 8.563546999999998
  endloop
endfacet
facet normal -0.6087614290087248 0.7933533402912322 0.0
  outer loop
    vertex 29.2962504121416 -69.13846772994151 8.563546999999998
    vertex 30.12467753688779 -68.50279323954994 1.063546999999998
    vertex 29.2962504121416 -69.13846772994151 1.063546999999998
  endloop
endfacet
facet normal -0.6087614290087248 0.7933533402912322 0.0
  outer loop
    vertex 30.12467753688779 -68.50279323954994 1.063546999999998
    vertex 29.2962504121416 -69.13846772994151 8.563546999999998
    vertex 30.12467753688779 -68.50279323954994 8.563546999999998
  endloop
endfacet
facet normal -0.7933533402912347 0.6087614290087213 0.0
  outer loop
    vertex 29.2962504121416 -69.13846772994151 8.563546999999998
    vertex 28.660575921750034 -69.96689485468771 1.063546999999998
    vertex 28.660575921750034 -69.96689485468771 8.563546999999998
  endloop
endfacet
facet normal -0.7933533402912347 0.6087614290087213 0.0
  outer loop
    vertex 28.660575921750034 -69.96689485468771 1.063546999999998
    vertex 29.2962504121416 -69.13846772994151 8.563546999999998
    vertex 29.2962504121416 -69.13846772994151 1.063546999999998
  endloop
endfacet
facet normal -0.9238795325112881 0.3826834323650867 0.0
  outer loop
    vertex 28.660575921750034 -69.96689485468771 8.563546999999998
    vertex 28.26097423173152 -70.93161867427762 1.063546999999998
    vertex 28.26097423173152 -70.93161867427762 8.563546999999998
  endloop
endfacet
facet normal -0.9238795325112881 0.3826834323650867 0.0
  outer loop
    vertex 28.26097423173152 -70.93161867427762 1.063546999999998
    vertex 28.660575921750034 -69.96689485468771 8.563546999999998
    vertex 28.660575921750034 -69.96689485468771 1.063546999999998
  endloop
endfacet
facet normal -0.9914448613738104 0.13052619222005216 0.0
  outer loop
    vertex 28.26097423173152 -70.93161867427762 8.563546999999998
    vertex 28.124677536887795 -71.9668948546877 1.063546999999998
    vertex 28.124677536887795 -71.9668948546877 8.563546999999998
  endloop
endfacet
facet normal -0.9914448613738104 0.13052619222005216 0.0
  outer loop
    vertex 28.124677536887795 -71.9668948546877 1.063546999999998
    vertex 28.26097423173152 -70.93161867427762 8.563546999999998
    vertex 28.26097423173152 -70.93161867427762 1.063546999999998
  endloop
endfacet
facet normal -0.9914448613738104 -0.13052619222005216 -0.0
  outer loop
    vertex 28.124677536887795 -71.9668948546877 8.563546999999998
    vertex 28.26097423173152 -73.00217103509777 1.063546999999998
    vertex 28.26097423173152 -73.00217103509777 8.563546999999998
  endloop
endfacet
facet normal -0.9914448613738104 -0.13052619222005216 -0.0
  outer loop
    vertex 28.26097423173152 -73.00217103509777 1.063546999999998
    vertex 28.124677536887795 -71.9668948546877 8.563546999999998
    vertex 28.124677536887795 -71.9668948546877 1.063546999999998
  endloop
endfacet
facet normal -0.9238795325112863 -0.3826834323650914 -0.0
  outer loop
    vertex 28.26097423173152 -73.00217103509777 8.563546999999998
    vertex 28.66057592175004 -73.9668948546877 1.063546999999998
    vertex 28.66057592175004 -73.9668948546877 8.563546999999998
  endloop
endfacet
facet normal -0.9238795325112863 -0.3826834323650914 -0.0
  outer loop
    vertex 28.66057592175004 -73.9668948546877 1.063546999999998
    vertex 28.26097423173152 -73.00217103509777 8.563546999999998
    vertex 28.26097423173152 -73.00217103509777 1.063546999999998
  endloop
endfacet
facet normal -0.7933533402912347 -0.6087614290087213 -0.0
  outer loop
    vertex 28.66057592175004 -73.9668948546877 8.563546999999998
    vertex 29.296250412141607 -74.79532197943388 1.063546999999998
    vertex 29.296250412141607 -74.79532197943388 8.563546999999998
  endloop
endfacet
facet normal -0.7933533402912347 -0.6087614290087213 -0.0
  outer loop
    vertex 29.296250412141607 -74.79532197943388 1.063546999999998
    vertex 28.66057592175004 -73.9668948546877 8.563546999999998
    vertex 28.66057592175004 -73.9668948546877 1.063546999999998
  endloop
endfacet
facet normal -0.6087614290087248 -0.7933533402912322 -0.0
  outer loop
    vertex 30.124677536887795 -75.43099646982546 8.563546999999998
    vertex 29.296250412141607 -74.79532197943388 1.063546999999998
    vertex 30.124677536887795 -75.43099646982546 1.063546999999998
  endloop
endfacet
facet normal -0.6087614290087248 -0.7933533402912322 -0.0
  outer loop
    vertex 29.296250412141607 -74.79532197943388 1.063546999999998
    vertex 30.124677536887795 -75.43099646982546 8.563546999999998
    vertex 29.296250412141607 -74.79532197943388 8.563546999999998
  endloop
endfacet
facet normal -0.38268343236508207 -0.92387953251129 -0.0
  outer loop
    vertex 31.089401356477712 -75.83059815984396 8.563546999999998
    vertex 30.124677536887795 -75.43099646982546 1.063546999999998
    vertex 31.089401356477712 -75.83059815984396 1.063546999999998
  endloop
endfacet
facet normal -0.38268343236508207 -0.92387953251129 -0.0
  outer loop
    vertex 30.124677536887795 -75.43099646982546 1.063546999999998
    vertex 31.089401356477712 -75.83059815984396 8.563546999999998
    vertex 30.124677536887795 -75.43099646982546 8.563546999999998
  endloop
endfacet
facet normal -0.13052619222005216 -0.9914448613738104 -0.0
  outer loop
    vertex 32.124677536887795 -75.9668948546877 8.563546999999998
    vertex 31.089401356477712 -75.83059815984396 1.063546999999998
    vertex 32.124677536887795 -75.9668948546877 1.063546999999998
  endloop
endfacet
facet normal -0.13052619222005216 -0.9914448613738104 -0.0
  outer loop
    vertex 31.089401356477712 -75.83059815984396 1.063546999999998
    vertex 32.124677536887795 -75.9668948546877 8.563546999999998
    vertex 31.089401356477712 -75.83059815984396 8.563546999999998
  endloop
endfacet
facet normal 0.13052619222005143 -0.9914448613738105 0.0
  outer loop
    vertex 33.159953717297874 -75.83059815984396 8.563546999999998
    vertex 32.124677536887795 -75.9668948546877 1.063546999999998
    vertex 33.159953717297874 -75.83059815984396 1.063546999999998
  endloop
endfacet
facet normal 0.13052619222005143 -0.9914448613738105 0.0
  outer loop
    vertex 32.124677536887795 -75.9668948546877 1.063546999999998
    vertex 33.159953717297874 -75.83059815984396 8.563546999999998
    vertex 32.124677536887795 -75.9668948546877 8.563546999999998
  endloop
endfacet
facet normal 0.38268343236508207 -0.92387953251129 0.0
  outer loop
    vertex 34.124677536887795 -75.43099646982546 8.563546999999998
    vertex 33.159953717297874 -75.83059815984396 1.063546999999998
    vertex 34.124677536887795 -75.43099646982546 1.063546999999998
  endloop
endfacet
facet normal 0.38268343236508207 -0.92387953251129 0.0
  outer loop
    vertex 33.159953717297874 -75.83059815984396 1.063546999999998
    vertex 34.124677536887795 -75.43099646982546 8.563546999999998
    vertex 33.159953717297874 -75.83059815984396 8.563546999999998
  endloop
endfacet
facet normal 0.6087614290087248 -0.7933533402912322 0.0
  outer loop
    vertex 34.953104661633986 -74.79532197943388 8.563546999999998
    vertex 34.124677536887795 -75.43099646982546 1.063546999999998
    vertex 34.953104661633986 -74.79532197943388 1.063546999999998
  endloop
endfacet
facet normal 0.6087614290087248 -0.7933533402912322 0.0
  outer loop
    vertex 34.124677536887795 -75.43099646982546 1.063546999999998
    vertex 34.953104661633986 -74.79532197943388 8.563546999999998
    vertex 34.124677536887795 -75.43099646982546 8.563546999999998
  endloop
endfacet
endsolid splunk-spinner
