solid splunk-spinner-mcu-base
facet normal -0.0 -0.0 1.0
  outer loop
    vertex 18.9915272359155 17.744230096819958 1.9999999999999962
    vertex 46.49152723591549 29.780128481682198 1.9999999999999978
    vertex 18.9915272359155 48.74423009681995 1.9999999999999962
  endloop
endfacet
facet normal -0.0 -0.0 1.0
  outer loop
    vertex 46.49152723591549 29.780128481682198 1.9999999999999978
    vertex 18.9915272359155 17.744230096819958 1.9999999999999962
    vertex 47.456251055505405 29.380526791663687 1.9999999999999978
  endloop
endfacet
facet normal -0.0 -0.0 1.0
  outer loop
    vertex 47.456251055505405 29.380526791663687 1.9999999999999978
    vertex 18.9915272359155 17.744230096819958 1.9999999999999962
    vertex 77.99152723591548 17.744230096819958 1.9999999999999962
  endloop
endfacet
facet normal -0.0 -0.0 1.0
  outer loop
    vertex 18.9915272359155 48.74423009681995 1.9999999999999962
    vertex 46.49152723591549 29.780128481682198 1.9999999999999978
    vertex 45.6631001111693 30.415802972073767 1.9999999999999978
  endloop
endfacet
facet normal -0.0 -0.0 1.0
  outer loop
    vertex 18.9915272359155 48.74423009681995 1.9999999999999962
    vertex 45.6631001111693 30.415802972073767 1.9999999999999978
    vertex 45.027425620777734 31.244230096819958 1.9999999999999978
  endloop
endfacet
facet normal -0.0 -0.0 1.0
  outer loop
    vertex 18.9915272359155 48.74423009681995 1.9999999999999962
    vertex 45.027425620777734 31.244230096819958 1.9999999999999978
    vertex 44.62782393075921 32.208953916409875 1.9999999999999978
  endloop
endfacet
facet normal -0.0 -0.0 1.0
  outer loop
    vertex 18.9915272359155 48.74423009681995 1.9999999999999962
    vertex 44.62782393075921 32.208953916409875 1.9999999999999978
    vertex 44.49152723591549 33.244230096819955 1.9999999999999978
  endloop
endfacet
facet normal -0.0 -0.0 1.0
  outer loop
    vertex 47.456251055505405 29.380526791663687 1.9999999999999978
    vertex 77.99152723591548 17.744230096819958 1.9999999999999962
    vertex 48.49152723591549 29.24423009681996 1.9999999999999978
  endloop
endfacet
facet normal -0.0 -0.0 1.0
  outer loop
    vertex 48.49152723591549 29.24423009681996 1.9999999999999978
    vertex 77.99152723591548 17.744230096819958 1.9999999999999962
    vertex 49.52680341632557 29.380526791663687 1.9999999999999978
  endloop
endfacet
facet normal -0.0 -0.0 1.0
  outer loop
    vertex 49.52680341632557 29.380526791663687 1.9999999999999978
    vertex 77.99152723591548 17.744230096819958 1.9999999999999962
    vertex 50.49152723591549 29.780128481682198 1.9999999999999978
  endloop
endfacet
facet normal -0.0 -0.0 1.0
  outer loop
    vertex 50.49152723591549 29.780128481682198 1.9999999999999978
    vertex 77.99152723591548 17.744230096819958 1.9999999999999962
    vertex 51.31995436066168 30.415802972073767 1.9999999999999978
  endloop
endfacet
facet normal -0.0 -0.0 1.0
  outer loop
    vertex 51.31995436066168 30.415802972073767 1.9999999999999978
    vertex 77.99152723591548 17.744230096819958 1.9999999999999962
    vertex 51.95562885105324 31.244230096819958 1.9999999999999978
  endloop
endfacet
facet normal -0.0 -0.0 1.0
  outer loop
    vertex 51.95562885105324 31.244230096819958 1.9999999999999978
    vertex 77.99152723591548 17.744230096819958 1.9999999999999962
    vertex 52.35523054107176 32.208953916409875 1.9999999999999978
  endloop
endfacet
facet normal -0.0 -0.0 1.0
  outer loop
    vertex 52.35523054107176 32.208953916409875 1.9999999999999978
    vertex 77.99152723591548 17.744230096819958 1.9999999999999962
    vertex 52.491527235915484 33.244230096819955 1.9999999999999978
  endloop
endfacet
facet normal -0.0 -0.0 1.0
  outer loop
    vertex 52.491527235915484 33.244230096819955 1.9999999999999978
    vertex 77.99152723591548 17.744230096819958 1.9999999999999962
    vertex 63.49152723591548 45.24423009681995 1.9999999999999962
  endloop
endfacet
facet normal -0.0 -0.0 1.0
  outer loop
    vertex 63.49152723591548 45.24423009681995 1.9999999999999962
    vertex 77.99152723591548 17.744230096819958 1.9999999999999962
    vertex 67.99152723591548 45.24423009681995 1.9999999999999962
  endloop
endfacet
facet normal -0.0 -0.0 1.0
  outer loop
    vertex 67.99152723591548 45.24423009681995 1.9999999999999962
    vertex 77.99152723591548 17.744230096819958 1.9999999999999962
    vertex 67.99152723591548 48.74423009681995 1.9999999999999962
  endloop
endfacet
facet normal -0.0 -0.0 1.0
  outer loop
    vertex 67.99152723591548 48.74423009681995 1.9999999999999962
    vertex 77.99152723591548 17.744230096819958 1.9999999999999962
    vertex 77.99152723591548 48.74423009681995 1.9999999999999962
  endloop
endfacet
facet normal -0.0 -0.0 1.0
  outer loop
    vertex 18.9915272359155 48.74423009681995 1.9999999999999962
    vertex 46.491527235915484 36.70833171195771 1.9999999999999978
    vertex 63.49152723591548 48.74423009681995 1.9999999999999962
  endloop
endfacet
facet normal -0.0 -0.0 1.0
  outer loop
    vertex 46.491527235915484 36.70833171195771 1.9999999999999978
    vertex 18.9915272359155 48.74423009681995 1.9999999999999962
    vertex 45.6631001111693 36.07265722156614 1.9999999999999978
  endloop
endfacet
facet normal -0.0 -0.0 1.0
  outer loop
    vertex 45.6631001111693 36.07265722156614 1.9999999999999978
    vertex 18.9915272359155 48.74423009681995 1.9999999999999962
    vertex 45.027425620777734 35.24423009681995 1.9999999999999978
  endloop
endfacet
facet normal -0.0 -0.0 1.0
  outer loop
    vertex 45.027425620777734 35.24423009681995 1.9999999999999978
    vertex 18.9915272359155 48.74423009681995 1.9999999999999962
    vertex 44.62782393075921 34.279506277230034 1.9999999999999978
  endloop
endfacet
facet normal -0.0 -0.0 1.0
  outer loop
    vertex 44.62782393075921 34.279506277230034 1.9999999999999978
    vertex 18.9915272359155 48.74423009681995 1.9999999999999962
    vertex 44.49152723591549 33.244230096819955 1.9999999999999978
  endloop
endfacet
facet normal -0.0 -0.0 1.0
  outer loop
    vertex 63.49152723591548 48.74423009681995 1.9999999999999962
    vertex 46.491527235915484 36.70833171195771 1.9999999999999978
    vertex 47.456251055505405 37.10793340197622 1.9999999999999978
  endloop
endfacet
facet normal -0.0 -0.0 1.0
  outer loop
    vertex 63.49152723591548 48.74423009681995 1.9999999999999962
    vertex 47.456251055505405 37.10793340197622 1.9999999999999978
    vertex 48.49152723591549 37.24423009681995 1.9999999999999978
  endloop
endfacet
facet normal -0.0 -0.0 1.0
  outer loop
    vertex 63.49152723591548 48.74423009681995 1.9999999999999962
    vertex 48.49152723591549 37.24423009681995 1.9999999999999978
    vertex 49.52680341632557 37.10793340197623 1.9999999999999978
  endloop
endfacet
facet normal -0.0 -0.0 1.0
  outer loop
    vertex 63.49152723591548 48.74423009681995 1.9999999999999962
    vertex 49.52680341632557 37.10793340197623 1.9999999999999978
    vertex 50.491527235915484 36.70833171195771 1.9999999999999978
  endloop
endfacet
facet normal -0.0 -0.0 1.0
  outer loop
    vertex 63.49152723591548 48.74423009681995 1.9999999999999962
    vertex 50.491527235915484 36.70833171195771 1.9999999999999978
    vertex 51.31995436066168 36.07265722156614 1.9999999999999978
  endloop
endfacet
facet normal -0.0 -0.0 1.0
  outer loop
    vertex 63.49152723591548 48.74423009681995 1.9999999999999962
    vertex 51.31995436066168 36.07265722156614 1.9999999999999978
    vertex 51.95562885105324 35.24423009681995 1.9999999999999978
  endloop
endfacet
facet normal -0.0 -0.0 1.0
  outer loop
    vertex 63.49152723591548 48.74423009681995 1.9999999999999962
    vertex 51.95562885105324 35.24423009681995 1.9999999999999978
    vertex 52.35523054107176 34.27950627723004 1.9999999999999978
  endloop
endfacet
facet normal -0.0 -0.0 1.0
  outer loop
    vertex 63.49152723591548 48.74423009681995 1.9999999999999962
    vertex 52.35523054107176 34.27950627723004 1.9999999999999978
    vertex 52.491527235915484 33.244230096819955 1.9999999999999978
  endloop
endfacet
facet normal -0.0 -0.0 1.0
  outer loop
    vertex 63.49152723591548 48.74423009681995 1.9999999999999962
    vertex 52.491527235915484 33.244230096819955 1.9999999999999978
    vertex 63.49152723591548 45.24423009681995 1.9999999999999962
  endloop
endfacet
facet normal 1.0 0.0 0.0
  outer loop
    vertex 77.99152723591548 48.74423009681995 0.0
    vertex 77.99152723591548 17.744230096819958 1.9999999999999962
    vertex 77.99152723591548 17.744230096819958 0.0
  endloop
endfacet
facet normal 1.0 0.0 0.0
  outer loop
    vertex 77.99152723591548 17.744230096819958 1.9999999999999962
    vertex 77.99152723591548 48.74423009681995 0.0
    vertex 77.99152723591548 48.74423009681995 1.9999999999999962
  endloop
endfacet
facet normal -0.0 1.0 -0.0
  outer loop
    vertex 18.9915272359155 48.74423009681995 1.9999999999999962
    vertex 63.49152723591548 48.74423009681995 0.0
    vertex 18.9915272359155 48.74423009681995 0.0
  endloop
endfacet
facet normal -0.0 1.0 -0.0
  outer loop
    vertex 63.49152723591548 48.74423009681995 0.0
    vertex 18.9915272359155 48.74423009681995 1.9999999999999962
    vertex 63.49152723591548 48.74423009681995 1.9999999999999962
  endloop
endfacet
facet normal -0.38268343236508207 0.92387953251129 0.0
  outer loop
    vertex 46.491527235915484 36.70833171195771 9.499999999999998
    vertex 47.456251055505405 37.10793340197622 1.9999999999999978
    vertex 46.491527235915484 36.70833171195771 1.9999999999999978
  endloop
endfacet
facet normal -0.38268343236508207 0.92387953251129 0.0
  outer loop
    vertex 47.456251055505405 37.10793340197622 1.9999999999999978
    vertex 46.491527235915484 36.70833171195771 9.499999999999998
    vertex 47.456251055505405 37.10793340197622 9.499999999999998
  endloop
endfacet
facet normal 0.0 -1.0 0.0
  outer loop
    vertex 77.99152723591548 17.744230096819958 1.9999999999999962
    vertex 18.9915272359155 17.744230096819958 0.0
    vertex 77.99152723591548 17.744230096819958 0.0
  endloop
endfacet
facet normal 0.0 -1.0 0.0
  outer loop
    vertex 18.9915272359155 17.744230096819958 0.0
    vertex 77.99152723591548 17.744230096819958 1.9999999999999962
    vertex 18.9915272359155 17.744230096819958 1.9999999999999962
  endloop
endfacet
facet normal -1.0 -0.0 -0.0
  outer loop
    vertex 18.9915272359155 48.74423009681995 1.9999999999999962
    vertex 18.9915272359155 17.744230096819958 0.0
    vertex 18.9915272359155 17.744230096819958 1.9999999999999962
  endloop
endfacet
facet normal -1.0 -0.0 -0.0
  outer loop
    vertex 18.9915272359155 17.744230096819958 0.0
    vertex 18.9915272359155 48.74423009681995 1.9999999999999962
    vertex 18.9915272359155 48.74423009681995 0.0
  endloop
endfacet
facet normal -0.6087614290087248 0.7933533402912322 0.0
  outer loop
    vertex 45.6631001111693 36.07265722156614 9.499999999999998
    vertex 46.491527235915484 36.70833171195771 1.9999999999999978
    vertex 45.6631001111693 36.07265722156614 1.9999999999999978
  endloop
endfacet
facet normal -0.6087614290087248 0.7933533402912322 0.0
  outer loop
    vertex 46.491527235915484 36.70833171195771 1.9999999999999978
    vertex 45.6631001111693 36.07265722156614 9.499999999999998
    vertex 46.491527235915484 36.70833171195771 9.499999999999998
  endloop
endfacet
facet normal 0.0 0.0 1.0
  outer loop
    vertex 44.62782393075921 32.208953916409875 9.499999999999998
    vertex 44.62782393075921 34.279506277230034 9.499999999999998
    vertex 44.49152723591549 33.244230096819955 9.499999999999998
  endloop
endfacet
facet normal 0.0 0.0 1.0
  outer loop
    vertex 44.62782393075921 34.279506277230034 9.499999999999998
    vertex 44.62782393075921 32.208953916409875 9.499999999999998
    vertex 45.027425620777734 31.244230096819958 9.499999999999998
  endloop
endfacet
facet normal 0.0 0.0 1.0
  outer loop
    vertex 44.62782393075921 34.279506277230034 9.499999999999998
    vertex 45.027425620777734 31.244230096819958 9.499999999999998
    vertex 45.027425620777734 35.24423009681995 9.499999999999998
  endloop
endfacet
facet normal 0.0 0.0 1.0
  outer loop
    vertex 45.027425620777734 35.24423009681995 9.499999999999998
    vertex 45.027425620777734 31.244230096819958 9.499999999999998
    vertex 45.6631001111693 36.07265722156614 9.499999999999998
  endloop
endfacet
facet normal 0.0 0.0 1.0
  outer loop
    vertex 45.6631001111693 36.07265722156614 9.499999999999998
    vertex 45.027425620777734 31.244230096819958 9.499999999999998
    vertex 45.6631001111693 30.415802972073767 9.499999999999998
  endloop
endfacet
facet normal 0.0 0.0 1.0
  outer loop
    vertex 45.6631001111693 36.07265722156614 9.499999999999998
    vertex 45.6631001111693 30.415802972073767 9.499999999999998
    vertex 46.491527235915484 36.70833171195771 9.499999999999998
  endloop
endfacet
facet normal 0.0 0.0 1.0
  outer loop
    vertex 46.491527235915484 36.70833171195771 9.499999999999998
    vertex 45.6631001111693 30.415802972073767 9.499999999999998
    vertex 46.49152723591549 29.780128481682198 9.499999999999998
  endloop
endfacet
facet normal 0.0 0.0 1.0
  outer loop
    vertex 46.491527235915484 36.70833171195771 9.499999999999998
    vertex 46.49152723591549 29.780128481682198 9.499999999999998
    vertex 47.456251055505405 37.10793340197622 9.499999999999998
  endloop
endfacet
facet normal 0.0 0.0 1.0
  outer loop
    vertex 47.456251055505405 37.10793340197622 9.499999999999998
    vertex 46.49152723591549 29.780128481682198 9.499999999999998
    vertex 47.456251055505405 29.380526791663687 9.499999999999998
  endloop
endfacet
facet normal 0.0 0.0 1.0
  outer loop
    vertex 47.456251055505405 37.10793340197622 9.499999999999998
    vertex 47.456251055505405 29.380526791663687 9.499999999999998
    vertex 48.49152723591549 37.24423009681995 9.499999999999998
  endloop
endfacet
facet normal 0.0 0.0 1.0
  outer loop
    vertex 48.49152723591549 37.24423009681995 9.499999999999998
    vertex 47.456251055505405 29.380526791663687 9.499999999999998
    vertex 48.49152723591549 29.24423009681996 9.499999999999998
  endloop
endfacet
facet normal 0.0 0.0 1.0
  outer loop
    vertex 48.49152723591549 37.24423009681995 9.499999999999998
    vertex 48.49152723591549 29.24423009681996 9.499999999999998
    vertex 49.52680341632557 29.380526791663687 9.499999999999998
  endloop
endfacet
facet normal 0.0 0.0 1.0
  outer loop
    vertex 48.49152723591549 37.24423009681995 9.499999999999998
    vertex 49.52680341632557 29.380526791663687 9.499999999999998
    vertex 49.52680341632557 37.10793340197623 9.499999999999998
  endloop
endfacet
facet normal 0.0 0.0 1.0
  outer loop
    vertex 49.52680341632557 37.10793340197623 9.499999999999998
    vertex 49.52680341632557 29.380526791663687 9.499999999999998
    vertex 50.491527235915484 36.70833171195771 9.499999999999998
  endloop
endfacet
facet normal 0.0 0.0 1.0
  outer loop
    vertex 50.491527235915484 36.70833171195771 9.499999999999998
    vertex 49.52680341632557 29.380526791663687 9.499999999999998
    vertex 50.49152723591549 29.780128481682198 9.499999999999998
  endloop
endfacet
facet normal 0.0 0.0 1.0
  outer loop
    vertex 50.491527235915484 36.70833171195771 9.499999999999998
    vertex 50.49152723591549 29.780128481682198 9.499999999999998
    vertex 51.31995436066168 36.07265722156614 9.499999999999998
  endloop
endfacet
facet normal 0.0 0.0 1.0
  outer loop
    vertex 51.31995436066168 36.07265722156614 9.499999999999998
    vertex 50.49152723591549 29.780128481682198 9.499999999999998
    vertex 51.31995436066168 30.415802972073767 9.499999999999998
  endloop
endfacet
facet normal 0.0 0.0 1.0
  outer loop
    vertex 51.31995436066168 36.07265722156614 9.499999999999998
    vertex 51.31995436066168 30.415802972073767 9.499999999999998
    vertex 51.95562885105324 31.244230096819958 9.499999999999998
  endloop
endfacet
facet normal 0.0 0.0 1.0
  outer loop
    vertex 51.31995436066168 36.07265722156614 9.499999999999998
    vertex 51.95562885105324 31.244230096819958 9.499999999999998
    vertex 51.95562885105324 35.24423009681995 9.499999999999998
  endloop
endfacet
facet normal 0.0 0.0 1.0
  outer loop
    vertex 51.95562885105324 35.24423009681995 9.499999999999998
    vertex 51.95562885105324 31.244230096819958 9.499999999999998
    vertex 52.35523054107176 32.208953916409875 9.499999999999998
  endloop
endfacet
facet normal 0.0 0.0 1.0
  outer loop
    vertex 51.95562885105324 35.24423009681995 9.499999999999998
    vertex 52.35523054107176 32.208953916409875 9.499999999999998
    vertex 52.35523054107176 34.27950627723004 9.499999999999998
  endloop
endfacet
facet normal 0.0 0.0 1.0
  outer loop
    vertex 52.35523054107176 34.27950627723004 9.499999999999998
    vertex 52.35523054107176 32.208953916409875 9.499999999999998
    vertex 52.491527235915484 33.244230096819955 9.499999999999998
  endloop
endfacet
facet normal -0.7933533402912347 0.6087614290087213 0.0
  outer loop
    vertex 45.6631001111693 36.07265722156614 9.499999999999998
    vertex 45.027425620777734 35.24423009681995 1.9999999999999978
    vertex 45.027425620777734 35.24423009681995 9.499999999999998
  endloop
endfacet
facet normal -0.7933533402912347 0.6087614290087213 0.0
  outer loop
    vertex 45.027425620777734 35.24423009681995 1.9999999999999978
    vertex 45.6631001111693 36.07265722156614 9.499999999999998
    vertex 45.6631001111693 36.07265722156614 1.9999999999999978
  endloop
endfacet
facet normal 0.9914448613738106 0.13052619222005077 0.0
  outer loop
    vertex 52.35523054107176 34.27950627723004 1.9999999999999978
    vertex 52.491527235915484 33.244230096819955 9.499999999999998
    vertex 52.491527235915484 33.244230096819955 1.9999999999999978
  endloop
endfacet
facet normal 0.9914448613738106 0.13052619222005077 0.0
  outer loop
    vertex 52.491527235915484 33.244230096819955 9.499999999999998
    vertex 52.35523054107176 34.27950627723004 1.9999999999999978
    vertex 52.35523054107176 34.27950627723004 9.499999999999998
  endloop
endfacet
facet normal 0.3826834323650914 0.9238795325112863 0.0
  outer loop
    vertex 49.52680341632557 37.10793340197623 9.499999999999998
    vertex 50.491527235915484 36.70833171195771 1.9999999999999978
    vertex 49.52680341632557 37.10793340197623 1.9999999999999978
  endloop
endfacet
facet normal 0.3826834323650914 0.9238795325112863 0.0
  outer loop
    vertex 50.491527235915484 36.70833171195771 1.9999999999999978
    vertex 49.52680341632557 37.10793340197623 9.499999999999998
    vertex 50.491527235915484 36.70833171195771 9.499999999999998
  endloop
endfacet
facet normal 0.6087614290087248 0.7933533402912322 0.0
  outer loop
    vertex 50.491527235915484 36.70833171195771 9.499999999999998
    vertex 51.31995436066168 36.07265722156614 1.9999999999999978
    vertex 50.491527235915484 36.70833171195771 1.9999999999999978
  endloop
endfacet
facet normal 0.6087614290087248 0.7933533402912322 0.0
  outer loop
    vertex 51.31995436066168 36.07265722156614 1.9999999999999978
    vertex 50.491527235915484 36.70833171195771 9.499999999999998
    vertex 51.31995436066168 36.07265722156614 9.499999999999998
  endloop
endfacet
facet normal 0.6087614290087248 -0.7933533402912322 0.0
  outer loop
    vertex 51.31995436066168 30.415802972073767 9.499999999999998
    vertex 50.49152723591549 29.780128481682198 1.9999999999999978
    vertex 51.31995436066168 30.415802972073767 1.9999999999999978
  endloop
endfacet
facet normal 0.6087614290087248 -0.7933533402912322 0.0
  outer loop
    vertex 50.49152723591549 29.780128481682198 1.9999999999999978
    vertex 51.31995436066168 30.415802972073767 9.499999999999998
    vertex 50.49152723591549 29.780128481682198 9.499999999999998
  endloop
endfacet
facet normal -0.13052619222005216 -0.9914448613738104 -0.0
  outer loop
    vertex 48.49152723591549 29.24423009681996 9.499999999999998
    vertex 47.456251055505405 29.380526791663687 1.9999999999999978
    vertex 48.49152723591549 29.24423009681996 1.9999999999999978
  endloop
endfacet
facet normal -0.13052619222005216 -0.9914448613738104 -0.0
  outer loop
    vertex 47.456251055505405 29.380526791663687 1.9999999999999978
    vertex 48.49152723591549 29.24423009681996 9.499999999999998
    vertex 47.456251055505405 29.380526791663687 9.499999999999998
  endloop
endfacet
facet normal 0.9238795325112845 0.3826834323650951 0.0
  outer loop
    vertex 51.95562885105324 35.24423009681995 1.9999999999999978
    vertex 52.35523054107176 34.27950627723004 9.499999999999998
    vertex 52.35523054107176 34.27950627723004 1.9999999999999978
  endloop
endfacet
facet normal 0.9238795325112845 0.3826834323650951 0.0
  outer loop
    vertex 52.35523054107176 34.27950627723004 9.499999999999998
    vertex 51.95562885105324 35.24423009681995 1.9999999999999978
    vertex 51.95562885105324 35.24423009681995 9.499999999999998
  endloop
endfacet
facet normal -0.13052619222005143 0.9914448613738105 0.0
  outer loop
    vertex 47.456251055505405 37.10793340197622 9.499999999999998
    vertex 48.49152723591549 37.24423009681995 1.9999999999999978
    vertex 47.456251055505405 37.10793340197622 1.9999999999999978
  endloop
endfacet
facet normal -0.13052619222005143 0.9914448613738105 0.0
  outer loop
    vertex 48.49152723591549 37.24423009681995 1.9999999999999978
    vertex 47.456251055505405 37.10793340197622 9.499999999999998
    vertex 48.49152723591549 37.24423009681995 9.499999999999998
  endloop
endfacet
facet normal -0.9914448613738104 -0.13052619222005216 -0.0
  outer loop
    vertex 44.49152723591549 33.244230096819955 9.499999999999998
    vertex 44.62782393075921 32.208953916409875 1.9999999999999978
    vertex 44.62782393075921 32.208953916409875 9.499999999999998
  endloop
endfacet
facet normal -0.9914448613738104 -0.13052619222005216 -0.0
  outer loop
    vertex 44.62782393075921 32.208953916409875 1.9999999999999978
    vertex 44.49152723591549 33.244230096819955 9.499999999999998
    vertex 44.49152723591549 33.244230096819955 1.9999999999999978
  endloop
endfacet
facet normal -0.6087614290087248 -0.7933533402912322 -0.0
  outer loop
    vertex 46.49152723591549 29.780128481682198 9.499999999999998
    vertex 45.6631001111693 30.415802972073767 1.9999999999999978
    vertex 46.49152723591549 29.780128481682198 1.9999999999999978
  endloop
endfacet
facet normal -0.6087614290087248 -0.7933533402912322 -0.0
  outer loop
    vertex 45.6631001111693 30.415802972073767 1.9999999999999978
    vertex 46.49152723591549 29.780128481682198 9.499999999999998
    vertex 45.6631001111693 30.415802972073767 9.499999999999998
  endloop
endfacet
facet normal 0.13052619222004153 0.9914448613738117 0.0
  outer loop
    vertex 48.49152723591549 37.24423009681995 9.499999999999998
    vertex 49.52680341632557 37.10793340197623 1.9999999999999978
    vertex 48.49152723591549 37.24423009681995 1.9999999999999978
  endloop
endfacet
facet normal 0.13052619222004153 0.9914448613738117 0.0
  outer loop
    vertex 49.52680341632557 37.10793340197623 1.9999999999999978
    vertex 48.49152723591549 37.24423009681995 9.499999999999998
    vertex 49.52680341632557 37.10793340197623 9.499999999999998
  endloop
endfacet
facet normal 0.9238795325112863 -0.3826834323650914 0.0
  outer loop
    vertex 52.35523054107176 32.208953916409875 1.9999999999999978
    vertex 51.95562885105324 31.244230096819958 9.499999999999998
    vertex 51.95562885105324 31.244230096819958 1.9999999999999978
  endloop
endfacet
facet normal 0.9238795325112863 -0.3826834323650914 0.0
  outer loop
    vertex 51.95562885105324 31.244230096819958 9.499999999999998
    vertex 52.35523054107176 32.208953916409875 1.9999999999999978
    vertex 52.35523054107176 32.208953916409875 9.499999999999998
  endloop
endfacet
facet normal 0.7933533402912372 -0.6087614290087179 0.0
  outer loop
    vertex 51.95562885105324 31.244230096819958 1.9999999999999978
    vertex 51.31995436066168 30.415802972073767 9.499999999999998
    vertex 51.31995436066168 30.415802972073767 1.9999999999999978
  endloop
endfacet
facet normal 0.7933533402912372 -0.6087614290087179 0.0
  outer loop
    vertex 51.31995436066168 30.415802972073767 9.499999999999998
    vertex 51.95562885105324 31.244230096819958 1.9999999999999978
    vertex 51.95562885105324 31.244230096819958 9.499999999999998
  endloop
endfacet
facet normal 0.38268343236508207 -0.92387953251129 0.0
  outer loop
    vertex 50.49152723591549 29.780128481682198 9.499999999999998
    vertex 49.52680341632557 29.380526791663687 1.9999999999999978
    vertex 50.49152723591549 29.780128481682198 1.9999999999999978
  endloop
endfacet
facet normal 0.38268343236508207 -0.92387953251129 0.0
  outer loop
    vertex 49.52680341632557 29.380526791663687 1.9999999999999978
    vertex 50.49152723591549 29.780128481682198 9.499999999999998
    vertex 49.52680341632557 29.380526791663687 9.499999999999998
  endloop
endfacet
facet normal -0.9238795325112881 0.3826834323650867 0.0
  outer loop
    vertex 45.027425620777734 35.24423009681995 9.499999999999998
    vertex 44.62782393075921 34.279506277230034 1.9999999999999978
    vertex 44.62782393075921 34.279506277230034 9.499999999999998
  endloop
endfacet
facet normal -0.9238795325112881 0.3826834323650867 0.0
  outer loop
    vertex 44.62782393075921 34.279506277230034 1.9999999999999978
    vertex 45.027425620777734 35.24423009681995 9.499999999999998
    vertex 45.027425620777734 35.24423009681995 1.9999999999999978
  endloop
endfacet
facet normal 0.7933533402912347 0.6087614290087213 0.0
  outer loop
    vertex 51.31995436066168 36.07265722156614 1.9999999999999978
    vertex 51.95562885105324 35.24423009681995 9.499999999999998
    vertex 51.95562885105324 35.24423009681995 1.9999999999999978
  endloop
endfacet
facet normal 0.7933533402912347 0.6087614290087213 0.0
  outer loop
    vertex 51.95562885105324 35.24423009681995 9.499999999999998
    vertex 51.31995436066168 36.07265722156614 1.9999999999999978
    vertex 51.31995436066168 36.07265722156614 9.499999999999998
  endloop
endfacet
facet normal -0.9238795325112863 -0.3826834323650914 -0.0
  outer loop
    vertex 44.62782393075921 32.208953916409875 9.499999999999998
    vertex 45.027425620777734 31.244230096819958 1.9999999999999978
    vertex 45.027425620777734 31.244230096819958 9.499999999999998
  endloop
endfacet
facet normal -0.9238795325112863 -0.3826834323650914 -0.0
  outer loop
    vertex 45.027425620777734 31.244230096819958 1.9999999999999978
    vertex 44.62782393075921 32.208953916409875 9.499999999999998
    vertex 44.62782393075921 32.208953916409875 1.9999999999999978
  endloop
endfacet
facet normal -0.9914448613738104 0.13052619222005216 0.0
  outer loop
    vertex 44.62782393075921 34.279506277230034 9.499999999999998
    vertex 44.49152723591549 33.244230096819955 1.9999999999999978
    vertex 44.49152723591549 33.244230096819955 9.499999999999998
  endloop
endfacet
facet normal -0.9914448613738104 0.13052619222005216 0.0
  outer loop
    vertex 44.49152723591549 33.244230096819955 1.9999999999999978
    vertex 44.62782393075921 34.279506277230034 9.499999999999998
    vertex 44.62782393075921 34.279506277230034 1.9999999999999978
  endloop
endfacet
facet normal 0.9914448613738104 -0.13052619222005216 0.0
  outer loop
    vertex 52.491527235915484 33.244230096819955 1.9999999999999978
    vertex 52.35523054107176 32.208953916409875 9.499999999999998
    vertex 52.35523054107176 32.208953916409875 1.9999999999999978
  endloop
endfacet
facet normal 0.9914448613738104 -0.13052619222005216 0.0
  outer loop
    vertex 52.35523054107176 32.208953916409875 9.499999999999998
    vertex 52.491527235915484 33.244230096819955 1.9999999999999978
    vertex 52.491527235915484 33.244230096819955 9.499999999999998
  endloop
endfacet
facet normal -0.7933533402912347 -0.6087614290087213 -0.0
  outer loop
    vertex 45.027425620777734 31.244230096819958 9.499999999999998
    vertex 45.6631001111693 30.415802972073767 1.9999999999999978
    vertex 45.6631001111693 30.415802972073767 9.499999999999998
  endloop
endfacet
facet normal -0.7933533402912347 -0.6087614290087213 -0.0
  outer loop
    vertex 45.6631001111693 30.415802972073767 1.9999999999999978
    vertex 45.027425620777734 31.244230096819958 9.499999999999998
    vertex 45.027425620777734 31.244230096819958 1.9999999999999978
  endloop
endfacet
facet normal 0.13052619222005143 -0.9914448613738105 0.0
  outer loop
    vertex 49.52680341632557 29.380526791663687 9.499999999999998
    vertex 48.49152723591549 29.24423009681996 1.9999999999999978
    vertex 49.52680341632557 29.380526791663687 1.9999999999999978
  endloop
endfacet
facet normal 0.13052619222005143 -0.9914448613738105 0.0
  outer loop
    vertex 48.49152723591549 29.24423009681996 1.9999999999999978
    vertex 49.52680341632557 29.380526791663687 9.499999999999998
    vertex 48.49152723591549 29.24423009681996 9.499999999999998
  endloop
endfacet
facet normal -0.38268343236508207 -0.92387953251129 -0.0
  outer loop
    vertex 47.456251055505405 29.380526791663687 9.499999999999998
    vertex 46.49152723591549 29.780128481682198 1.9999999999999978
    vertex 47.456251055505405 29.380526791663687 1.9999999999999978
  endloop
endfacet
facet normal -0.38268343236508207 -0.92387953251129 -0.0
  outer loop
    vertex 46.49152723591549 29.780128481682198 1.9999999999999978
    vertex 47.456251055505405 29.380526791663687 9.499999999999998
    vertex 46.49152723591549 29.780128481682198 9.499999999999998
  endloop
endfacet
facet normal 0.0 0.0 -1.0
  outer loop
    vertex 77.99152723591548 48.74423009681995 0.0
    vertex 67.99152723591548 45.24423009681995 0.0
    vertex 67.99152723591548 48.74423009681995 0.0
  endloop
endfacet
facet normal 0.0 0.0 -1.0
  outer loop
    vertex 63.49152723591548 48.74423009681995 0.0
    vertex 18.9915272359155 17.744230096819958 0.0
    vertex 18.9915272359155 48.74423009681995 0.0
  endloop
endfacet
facet normal 0.0 0.0 -1.0
  outer loop
    vertex 18.9915272359155 17.744230096819958 0.0
    vertex 63.49152723591548 48.74423009681995 0.0
    vertex 63.49152723591548 45.24423009681995 0.0
  endloop
endfacet
facet normal 0.0 0.0 -1.0
  outer loop
    vertex 18.9915272359155 17.744230096819958 0.0
    vertex 63.49152723591548 45.24423009681995 0.0
    vertex 77.99152723591548 17.744230096819958 0.0
  endloop
endfacet
facet normal 0.0 0.0 -1.0
  outer loop
    vertex 77.99152723591548 17.744230096819958 0.0
    vertex 63.49152723591548 45.24423009681995 0.0
    vertex 67.99152723591548 45.24423009681995 0.0
  endloop
endfacet
facet normal 0.0 0.0 -1.0
  outer loop
    vertex 77.99152723591548 17.744230096819958 0.0
    vertex 67.99152723591548 45.24423009681995 0.0
    vertex 77.99152723591548 48.74423009681995 0.0
  endloop
endfacet
facet normal -1.0 0.0 0.0
  outer loop
    vertex 67.99152723591548 48.74423009681995 1.9999999999999962
    vertex 67.99152723591548 45.24423009681995 0.0
    vertex 67.99152723591548 45.24423009681995 1.9999999999999962
  endloop
endfacet
facet normal -1.0 0.0 0.0
  outer loop
    vertex 67.99152723591548 45.24423009681995 0.0
    vertex 67.99152723591548 48.74423009681995 1.9999999999999962
    vertex 67.99152723591548 48.74423009681995 0.0
  endloop
endfacet
facet normal 0.0 1.0 0.0
  outer loop
    vertex 63.49152723591548 45.24423009681995 1.9999999999999962
    vertex 67.99152723591548 45.24423009681995 0.0
    vertex 63.49152723591548 45.24423009681995 0.0
  endloop
endfacet
facet normal 0.0 1.0 0.0
  outer loop
    vertex 67.99152723591548 45.24423009681995 0.0
    vertex 63.49152723591548 45.24423009681995 1.9999999999999962
    vertex 67.99152723591548 45.24423009681995 1.9999999999999962
  endloop
endfacet
facet normal 1.0 -0.0 -0.0
  outer loop
    vertex 63.49152723591548 48.74423009681995 0.0
    vertex 63.49152723591548 45.24423009681995 1.9999999999999962
    vertex 63.49152723591548 45.24423009681995 0.0
  endloop
endfacet
facet normal 1.0 -0.0 -0.0
  outer loop
    vertex 63.49152723591548 45.24423009681995 1.9999999999999962
    vertex 63.49152723591548 48.74423009681995 0.0
    vertex 63.49152723591548 48.74423009681995 1.9999999999999962
  endloop
endfacet
facet normal -0.0 1.0 -0.0
  outer loop
    vertex 67.99152723591548 48.74423009681995 1.9999999999999962
    vertex 77.99152723591548 48.74423009681995 0.0
    vertex 67.99152723591548 48.74423009681995 0.0
  endloop
endfacet
facet normal -0.0 1.0 -0.0
  outer loop
    vertex 77.99152723591548 48.74423009681995 0.0
    vertex 67.99152723591548 48.74423009681995 1.9999999999999962
    vertex 77.99152723591548 48.74423009681995 1.9999999999999962
  endloop
endfacet
endsolid splunk-spinner-mcu-base
