solid splunk-spinner-v2
facet normal 0.0 0.0 -1.0
  outer loop
    vertex 158.696299 74.979128 -2.579114999999996
    vertex 135.696299 71.97912800000002 -2.579114999999996
    vertex 135.696299 74.979128 -2.579114999999996
  endloop
endfacet
facet normal 0.0 0.0 -1.0
  outer loop
    vertex 135.696299 71.97912800000002 -2.579114999999996
    vertex 158.696299 74.979128 -2.579114999999996
    vertex 158.696299 71.97912800000002 -2.579114999999996
  endloop
endfacet
facet normal -1.0 0.0 0.0
  outer loop
    vertex 135.696299 74.979128 0.07088500000000464
    vertex 135.696299 71.97912800000002 -2.579114999999996
    vertex 135.696299 71.97912800000002 0.07088500000000464
  endloop
endfacet
facet normal -1.0 0.0 0.0
  outer loop
    vertex 135.696299 71.97912800000002 -2.579114999999996
    vertex 135.696299 74.979128 0.07088500000000464
    vertex 135.696299 74.979128 -2.579114999999996
  endloop
endfacet
facet normal 1.0 0.0 0.0
  outer loop
    vertex 158.696299 74.979128 -2.579114999999996
    vertex 158.696299 71.97912800000002 0.07088500000000464
    vertex 158.696299 71.97912800000002 -2.579114999999996
  endloop
endfacet
facet normal 1.0 0.0 0.0
  outer loop
    vertex 158.696299 71.97912800000002 0.07088500000000464
    vertex 158.696299 74.979128 -2.579114999999996
    vertex 158.696299 74.979128 0.07088500000000464
  endloop
endfacet
facet normal 0.0 1.0 0.0
  outer loop
    vertex 135.696299 74.979128 0.07088500000000464
    vertex 158.696299 74.979128 -2.579114999999996
    vertex 135.696299 74.979128 -2.579114999999996
  endloop
endfacet
facet normal 0.0 1.0 0.0
  outer loop
    vertex 158.696299 74.979128 -2.579114999999996
    vertex 135.696299 74.979128 0.07088500000000464
    vertex 158.696299 74.979128 0.07088500000000464
  endloop
endfacet
facet normal 0.0 -1.0 0.0
  outer loop
    vertex 158.696299 71.97912800000002 0.07088500000000464
    vertex 135.696299 71.97912800000002 -2.579114999999996
    vertex 158.696299 71.97912800000002 -2.579114999999996
  endloop
endfacet
facet normal 0.0 -1.0 0.0
  outer loop
    vertex 135.696299 71.97912800000002 -2.579114999999996
    vertex 158.696299 71.97912800000002 0.07088500000000464
    vertex 135.696299 71.97912800000002 0.07088500000000464
  endloop
endfacet
facet normal 0.0 0.0 1.0
  outer loop
    vertex 158.696299 71.97912800000002 0.07088500000000464
    vertex 135.696299 74.979128 0.07088500000000464
    vertex 135.696299 71.97912800000002 0.07088500000000464
  endloop
endfacet
facet normal 0.0 0.0 1.0
  outer loop
    vertex 135.696299 74.979128 0.07088500000000464
    vertex 158.696299 71.97912800000002 0.07088500000000464
    vertex 158.696299 74.979128 0.07088500000000464
  endloop
endfacet
endsolid splunk-spinner-v2
