solid splunk-spinner-v2
facet normal -0.8663788955952518 0.49938723378471744 -7.395915348065493e-18
  outer loop
    vertex 124.03690210955115 39.41784066285013 6.00000000000001
    vertex 123.5284738198112 38.53577658440761 9.164891068280667e-15
    vertex 123.5284738198112 38.53577658440761 6.00000000000001
  endloop
endfacet
facet normal -0.8663788955952518 0.49938723378471744 -7.395915348065493e-18
  outer loop
    vertex 123.5284738198112 38.53577658440761 9.164891068280667e-15
    vertex 124.03690210955115 39.41784066285013 6.00000000000001
    vertex 124.03690210955115 39.41784066285013 9.164891068280667e-15
  endloop
endfacet
facet normal 0.25813566797678017 0.9661086775918026 -1.4308050973487102e-17
  outer loop
    vertex 127.63897558936426 40.91285459122235 6.00000000000001
    vertex 128.62257498762736 40.65004555784827 9.164891068280667e-15
    vertex 127.63897558936426 40.91285459122235 9.164891068280667e-15
  endloop
endfacet
facet normal 0.25813566797678017 0.9661086775918026 -1.4308050973487102e-17
  outer loop
    vertex 128.62257498762736 40.65004555784827 9.164891068280667e-15
    vertex 127.63897558936426 40.91285459122235 6.00000000000001
    vertex 128.62257498762736 40.65004555784827 6.00000000000001
  endloop
endfacet
facet normal 0.49938723378471234 0.8663788955952546 -1.2831054816141461e-17
  outer loop
    vertex 128.62257498762736 40.65004555784827 6.00000000000001
    vertex 129.5046390660699 40.141617268108334 9.164891068280667e-15
    vertex 128.62257498762736 40.65004555784827 9.164891068280667e-15
  endloop
endfacet
facet normal 0.49938723378471234 0.8663788955952546 -1.2831054816141461e-17
  outer loop
    vertex 129.5046390660699 40.141617268108334 9.164891068280667e-15
    vertex 128.62257498762736 40.65004555784827 6.00000000000001
    vertex 129.5046390660699 40.141617268108334 6.00000000000001
  endloop
endfacet
facet normal -0.9661086775918033 0.2581356679767775 -3.822984288572368e-18
  outer loop
    vertex 123.5284738198112 38.53577658440761 6.00000000000001
    vertex 123.26566478643713 37.552177186144505 9.164891068280667e-15
    vertex 123.26566478643713 37.552177186144505 6.00000000000001
  endloop
endfacet
facet normal -0.9661086775918033 0.2581356679767775 -3.822984288572368e-18
  outer loop
    vertex 123.26566478643713 37.552177186144505 9.164891068280667e-15
    vertex 123.5284738198112 38.53577658440761 6.00000000000001
    vertex 123.5284738198112 38.53577658440761 9.164891068280667e-15
  endloop
endfacet
facet normal -1.415569575773647e-32 0.0 1.0
  outer loop
    vertex 123.26638501074092 36.5340731415776 6.00000000000001
    vertex 123.5284738198112 38.53577658440761 6.00000000000001
    vertex 123.26566478643713 37.552177186144505 6.00000000000001
  endloop
endfacet
facet normal -1.415569575773647e-32 0.0 1.0
  outer loop
    vertex 123.5284738198112 38.53577658440761 6.00000000000001
    vertex 123.26638501074092 36.5340731415776 6.00000000000001
    vertex 123.5305854106265 35.55084655884764 6.00000000000001
  endloop
endfacet
facet normal -1.415569575773647e-32 0.0 1.0
  outer loop
    vertex 123.5284738198112 38.53577658440761 6.00000000000001
    vertex 123.5305854106265 35.55084655884764 6.00000000000001
    vertex 124.03690210955115 39.41784066285013 6.00000000000001
  endloop
endfacet
facet normal -1.415569575773647e-32 0.0 1.0
  outer loop
    vertex 124.03690210955115 39.41784066285013 6.00000000000001
    vertex 123.5305854106265 35.55084655884764 6.00000000000001
    vertex 124.04026116545344 34.669502704708904 6.00000000000001
  endloop
endfacet
facet normal -1.415569575773647e-32 0.0 1.0
  outer loop
    vertex 124.03690210955115 39.41784066285013 6.00000000000001
    vertex 124.04026116545344 34.669502704708904 6.00000000000001
    vertex 124.75630110792866 40.138258212206026 6.00000000000001
  endloop
endfacet
facet normal -1.415569575773647e-32 0.0 1.0
  outer loop
    vertex 124.75630110792866 40.138258212206026 6.00000000000001
    vertex 124.04026116545344 34.669502704708904 6.00000000000001
    vertex 124.76067871480933 33.95010370633138 6.00000000000001
  endloop
endfacet
facet normal -1.415569575773647e-32 0.0 1.0
  outer loop
    vertex 124.75630110792866 40.138258212206026 6.00000000000001
    vertex 124.76067871480933 33.95010370633138 6.00000000000001
    vertex 125.6376449620674 40.64793396703299 6.00000000000001
  endloop
endfacet
facet normal -1.415569575773647e-32 0.0 1.0
  outer loop
    vertex 125.6376449620674 40.64793396703299 6.00000000000001
    vertex 124.76067871480933 33.95010370633138 6.00000000000001
    vertex 125.64274279325186 33.44167541659143 6.00000000000001
  endloop
endfacet
facet normal -1.415569575773647e-32 0.0 1.0
  outer loop
    vertex 125.6376449620674 40.64793396703299 6.00000000000001
    vertex 125.64274279325186 33.44167541659143 6.00000000000001
    vertex 126.62087154479737 40.91213436691856 6.00000000000001
  endloop
endfacet
facet normal -1.415569575773647e-32 0.0 1.0
  outer loop
    vertex 126.62087154479737 40.91213436691856 6.00000000000001
    vertex 125.64274279325186 33.44167541659143 6.00000000000001
    vertex 126.62634219151496 33.17886638321736 6.00000000000001
  endloop
endfacet
facet normal -1.415569575773647e-32 0.0 1.0
  outer loop
    vertex 126.62087154479737 40.91213436691856 6.00000000000001
    vertex 126.62634219151496 33.17886638321736 6.00000000000001
    vertex 127.63897558936426 40.91285459122235 6.00000000000001
  endloop
endfacet
facet normal -1.415569575773647e-32 0.0 1.0
  outer loop
    vertex 127.63897558936426 40.91285459122235 6.00000000000001
    vertex 126.62634219151496 33.17886638321736 6.00000000000001
    vertex 127.64444623608186 33.17958660752116 6.00000000000001
  endloop
endfacet
facet normal -1.415569575773647e-32 0.0 1.0
  outer loop
    vertex 127.63897558936426 40.91285459122235 6.00000000000001
    vertex 127.64444623608186 33.17958660752116 6.00000000000001
    vertex 128.62257498762736 40.65004555784827 6.00000000000001
  endloop
endfacet
facet normal -1.415569575773647e-32 0.0 1.0
  outer loop
    vertex 128.62257498762736 40.65004555784827 6.00000000000001
    vertex 127.64444623608186 33.17958660752116 6.00000000000001
    vertex 128.62767281881182 33.443787007406726 6.00000000000001
  endloop
endfacet
facet normal -1.415569575773647e-32 0.0 1.0
  outer loop
    vertex 128.62257498762736 40.65004555784827 6.00000000000001
    vertex 128.62767281881182 33.443787007406726 6.00000000000001
    vertex 129.5046390660699 40.141617268108334 6.00000000000001
  endloop
endfacet
facet normal -1.415569575773647e-32 0.0 1.0
  outer loop
    vertex 129.5046390660699 40.141617268108334 6.00000000000001
    vertex 128.62767281881182 33.443787007406726 6.00000000000001
    vertex 129.50901667295057 33.953462762233684 6.00000000000001
  endloop
endfacet
facet normal -1.415569575773647e-32 0.0 1.0
  outer loop
    vertex 129.5046390660699 40.141617268108334 6.00000000000001
    vertex 129.50901667295057 33.953462762233684 6.00000000000001
    vertex 130.22505661542579 39.4222182697308 6.00000000000001
  endloop
endfacet
facet normal -1.415569575773647e-32 0.0 1.0
  outer loop
    vertex 130.22505661542579 39.4222182697308 6.00000000000001
    vertex 129.50901667295057 33.953462762233684 6.00000000000001
    vertex 130.2284156713281 34.673880311589585 6.00000000000001
  endloop
endfacet
facet normal -1.415569575773647e-32 0.0 1.0
  outer loop
    vertex 130.22505661542579 39.4222182697308 6.00000000000001
    vertex 130.2284156713281 34.673880311589585 6.00000000000001
    vertex 130.73473237025274 38.54087441559208 6.00000000000001
  endloop
endfacet
facet normal -1.415569575773647e-32 0.0 1.0
  outer loop
    vertex 130.73473237025274 38.54087441559208 6.00000000000001
    vertex 130.2284156713281 34.673880311589585 6.00000000000001
    vertex 130.73684396106805 35.5559443900321 6.00000000000001
  endloop
endfacet
facet normal -1.415569575773647e-32 0.0 1.0
  outer loop
    vertex 130.73473237025274 38.54087441559208 6.00000000000001
    vertex 130.73684396106805 35.5559443900321 6.00000000000001
    vertex 130.9989327701383 37.55764783286211 6.00000000000001
  endloop
endfacet
facet normal -1.415569575773647e-32 0.0 1.0
  outer loop
    vertex 130.9989327701383 37.55764783286211 6.00000000000001
    vertex 130.73684396106805 35.5559443900321 6.00000000000001
    vertex 130.9996529944421 36.5395437882952 6.00000000000001
  endloop
endfacet
facet normal -0.0007074170144210437 0.9999997497805527 -1.480997710216189e-17
  outer loop
    vertex 126.62087154479737 40.91213436691856 6.00000000000001
    vertex 127.63897558936426 40.91285459122235 9.164891068280667e-15
    vertex 126.62087154479737 40.91213436691856 9.164891068280667e-15
  endloop
endfacet
facet normal -0.0007074170144210437 0.9999997497805527 -1.480997710216189e-17
  outer loop
    vertex 127.63897558936426 40.91285459122235 9.164891068280667e-15
    vertex 126.62087154479737 40.91213436691856 6.00000000000001
    vertex 127.63897558936426 40.91285459122235 6.00000000000001
  endloop
endfacet
facet normal -0.25950229270514147 0.9657424915994819 -1.4302627765968714e-17
  outer loop
    vertex 125.6376449620674 40.64793396703299 6.00000000000001
    vertex 126.62087154479737 40.91213436691856 9.164891068280667e-15
    vertex 125.6376449620674 40.64793396703299 9.164891068280667e-15
  endloop
endfacet
facet normal -0.25950229270514147 0.9657424915994819 -1.4302627765968714e-17
  outer loop
    vertex 126.62087154479737 40.91213436691856 9.164891068280667e-15
    vertex 125.6376449620674 40.64793396703299 6.00000000000001
    vertex 126.62087154479737 40.91213436691856 6.00000000000001
  endloop
endfacet
facet normal -0.9657424915994804 -0.25950229270514696 3.843223974571103e-18
  outer loop
    vertex 123.26638501074092 36.5340731415776 6.00000000000001
    vertex 123.5305854106265 35.55084655884764 9.164891068280667e-15
    vertex 123.5305854106265 35.55084655884764 6.00000000000001
  endloop
endfacet
facet normal -0.9657424915994804 -0.25950229270514696 3.843223974571103e-18
  outer loop
    vertex 123.5305854106265 35.55084655884764 9.164891068280667e-15
    vertex 123.26638501074092 36.5340731415776 6.00000000000001
    vertex 123.26638501074092 36.5340731415776 9.164891068280667e-15
  endloop
endfacet
facet normal -0.9999997497805526 -0.0007074170144196607 1.047683240672796e-20
  outer loop
    vertex 123.26566478643713 37.552177186144505 6.00000000000001
    vertex 123.26638501074092 36.5340731415776 9.164891068280667e-15
    vertex 123.26638501074092 36.5340731415776 6.00000000000001
  endloop
endfacet
facet normal -0.9999997497805526 -0.0007074170144196607 1.047683240672796e-20
  outer loop
    vertex 123.26638501074092 36.5340731415776 9.164891068280667e-15
    vertex 123.26566478643713 37.552177186144505 6.00000000000001
    vertex 123.26566478643713 37.552177186144505 9.164891068280667e-15
  endloop
endfacet
facet normal 0.8663788955952504 -0.49938723378471983 7.395915348065529e-18
  outer loop
    vertex 130.73684396106805 35.5559443900321 9.164891068280667e-15
    vertex 130.2284156713281 34.673880311589585 6.00000000000001
    vertex 130.2284156713281 34.673880311589585 9.164891068280667e-15
  endloop
endfacet
facet normal 0.8663788955952504 -0.49938723378471983 7.395915348065529e-18
  outer loop
    vertex 130.2284156713281 34.673880311589585 6.00000000000001
    vertex 130.73684396106805 35.5559443900321 9.164891068280667e-15
    vertex 130.73684396106805 35.5559443900321 6.00000000000001
  endloop
endfacet
facet normal 0.7066063848866604 0.7076068236226987 -1.0479643477396262e-17
  outer loop
    vertex 129.5046390660699 40.141617268108334 6.00000000000001
    vertex 130.22505661542579 39.4222182697308 9.164891068280667e-15
    vertex 129.5046390660699 40.141617268108334 9.164891068280667e-15
  endloop
endfacet
facet normal 0.7066063848866604 0.7076068236226987 -1.0479643477396262e-17
  outer loop
    vertex 130.22505661542579 39.4222182697308 9.164891068280667e-15
    vertex 129.5046390660699 40.141617268108334 6.00000000000001
    vertex 130.22505661542579 39.4222182697308 6.00000000000001
  endloop
endfacet
facet normal 0.2595022927051418 -0.9657424915994817 1.430262776596871e-17
  outer loop
    vertex 128.62767281881182 33.443787007406726 6.00000000000001
    vertex 127.64444623608186 33.17958660752116 9.164891068280667e-15
    vertex 128.62767281881182 33.443787007406726 9.164891068280667e-15
  endloop
endfacet
facet normal 0.2595022927051418 -0.9657424915994817 1.430262776596871e-17
  outer loop
    vertex 127.64444623608186 33.17958660752116 9.164891068280667e-15
    vertex 128.62767281881182 33.443787007406726 6.00000000000001
    vertex 127.64444623608186 33.17958660752116 6.00000000000001
  endloop
endfacet
facet normal 0.9657424915994808 0.2595022927051456 -3.843223974571083e-18
  outer loop
    vertex 130.73473237025274 38.54087441559208 9.164891068280667e-15
    vertex 130.9989327701383 37.55764783286211 6.00000000000001
    vertex 130.9989327701383 37.55764783286211 9.164891068280667e-15
  endloop
endfacet
facet normal 0.9657424915994808 0.2595022927051456 -3.843223974571083e-18
  outer loop
    vertex 130.9989327701383 37.55764783286211 6.00000000000001
    vertex 130.73473237025274 38.54087441559208 9.164891068280667e-15
    vertex 130.73473237025274 38.54087441559208 6.00000000000001
  endloop
endfacet
facet normal -0.7066063848866562 -0.7076068236227028 1.0479643477396322e-17
  outer loop
    vertex 124.76067871480933 33.95010370633138 6.00000000000001
    vertex 124.04026116545344 34.669502704708904 9.164891068280667e-15
    vertex 124.76067871480933 33.95010370633138 9.164891068280667e-15
  endloop
endfacet
facet normal -0.7066063848866562 -0.7076068236227028 1.0479643477396322e-17
  outer loop
    vertex 124.04026116545344 34.669502704708904 9.164891068280667e-15
    vertex 124.76067871480933 33.95010370633138 6.00000000000001
    vertex 124.04026116545344 34.669502704708904 6.00000000000001
  endloop
endfacet
facet normal -0.8656714785808315 -0.5006125159958321 7.414061754096348e-18
  outer loop
    vertex 123.5305854106265 35.55084655884764 6.00000000000001
    vertex 124.04026116545344 34.669502704708904 9.164891068280667e-15
    vertex 124.04026116545344 34.669502704708904 6.00000000000001
  endloop
endfacet
facet normal -0.8656714785808315 -0.5006125159958321 7.414061754096348e-18
  outer loop
    vertex 124.04026116545344 34.669502704708904 9.164891068280667e-15
    vertex 123.5305854106265 35.55084655884764 6.00000000000001
    vertex 123.5305854106265 35.55084655884764 9.164891068280667e-15
  endloop
endfacet
facet normal 0.7076068236227028 -0.7066063848866562 1.0464826998916006e-17
  outer loop
    vertex 130.2284156713281 34.673880311589585 9.164891068280667e-15
    vertex 129.50901667295057 33.953462762233684 6.00000000000001
    vertex 129.50901667295057 33.953462762233684 9.164891068280667e-15
  endloop
endfacet
facet normal 0.7076068236227028 -0.7066063848866562 1.0464826998916006e-17
  outer loop
    vertex 129.50901667295057 33.953462762233684 6.00000000000001
    vertex 130.2284156713281 34.673880311589585 9.164891068280667e-15
    vertex 130.2284156713281 34.673880311589585 6.00000000000001
  endloop
endfacet
facet normal 0.0007074170144210416 -0.9999997497805526 1.4809977102161885e-17
  outer loop
    vertex 127.64444623608186 33.17958660752116 6.00000000000001
    vertex 126.62634219151496 33.17886638321736 9.164891068280667e-15
    vertex 127.64444623608186 33.17958660752116 9.164891068280667e-15
  endloop
endfacet
facet normal 0.0007074170144210416 -0.9999997497805526 1.4809977102161885e-17
  outer loop
    vertex 126.62634219151496 33.17886638321736 9.164891068280667e-15
    vertex 127.64444623608186 33.17958660752116 6.00000000000001
    vertex 126.62634219151496 33.17886638321736 6.00000000000001
  endloop
endfacet
facet normal -0.258135667976775 -0.966108677591804 1.430805097348712e-17
  outer loop
    vertex 126.62634219151496 33.17886638321736 6.00000000000001
    vertex 125.64274279325186 33.44167541659143 9.164891068280667e-15
    vertex 126.62634219151496 33.17886638321736 9.164891068280667e-15
  endloop
endfacet
facet normal -0.258135667976775 -0.966108677591804 1.430805097348712e-17
  outer loop
    vertex 125.64274279325186 33.44167541659143 9.164891068280667e-15
    vertex 126.62634219151496 33.17886638321736 6.00000000000001
    vertex 125.64274279325186 33.44167541659143 6.00000000000001
  endloop
endfacet
facet normal 0.5006125159958353 -0.8656714785808295 1.2820577983734654e-17
  outer loop
    vertex 129.50901667295057 33.953462762233684 6.00000000000001
    vertex 128.62767281881182 33.443787007406726 9.164891068280667e-15
    vertex 129.50901667295057 33.953462762233684 9.164891068280667e-15
  endloop
endfacet
facet normal 0.5006125159958353 -0.8656714785808295 1.2820577983734654e-17
  outer loop
    vertex 128.62767281881182 33.443787007406726 9.164891068280667e-15
    vertex 129.50901667295057 33.953462762233684 6.00000000000001
    vertex 128.62767281881182 33.443787007406726 6.00000000000001
  endloop
endfacet
facet normal -0.49938723378472066 -0.8663788955952498 1.283105481614139e-17
  outer loop
    vertex 125.64274279325186 33.44167541659143 6.00000000000001
    vertex 124.76067871480933 33.95010370633138 9.164891068280667e-15
    vertex 125.64274279325186 33.44167541659143 9.164891068280667e-15
  endloop
endfacet
facet normal -0.49938723378472066 -0.8663788955952498 1.283105481614139e-17
  outer loop
    vertex 124.76067871480933 33.95010370633138 9.164891068280667e-15
    vertex 125.64274279325186 33.44167541659143 6.00000000000001
    vertex 124.76067871480933 33.95010370633138 6.00000000000001
  endloop
endfacet
facet normal -0.5006125159958353 0.8656714785808295 -1.2820577983734654e-17
  outer loop
    vertex 124.75630110792866 40.138258212206026 6.00000000000001
    vertex 125.6376449620674 40.64793396703299 9.164891068280667e-15
    vertex 124.75630110792866 40.138258212206026 9.164891068280667e-15
  endloop
endfacet
facet normal -0.5006125159958353 0.8656714785808295 -1.2820577983734654e-17
  outer loop
    vertex 125.6376449620674 40.64793396703299 9.164891068280667e-15
    vertex 124.75630110792866 40.138258212206026 6.00000000000001
    vertex 125.6376449620674 40.64793396703299 6.00000000000001
  endloop
endfacet
facet normal 0.9999997497805526 0.0007074170144182718 -1.047683240670739e-20
  outer loop
    vertex 130.9989327701383 37.55764783286211 9.164891068280667e-15
    vertex 130.9996529944421 36.5395437882952 6.00000000000001
    vertex 130.9996529944421 36.5395437882952 9.164891068280667e-15
  endloop
endfacet
facet normal 0.9999997497805526 0.0007074170144182718 -1.047683240670739e-20
  outer loop
    vertex 130.9996529944421 36.5395437882952 6.00000000000001
    vertex 130.9989327701383 37.55764783286211 9.164891068280667e-15
    vertex 130.9989327701383 37.55764783286211 6.00000000000001
  endloop
endfacet
facet normal 0.8656714785808287 0.5006125159958369 -7.414061754096417e-18
  outer loop
    vertex 130.22505661542579 39.4222182697308 9.164891068280667e-15
    vertex 130.73473237025274 38.54087441559208 6.00000000000001
    vertex 130.73473237025274 38.54087441559208 9.164891068280667e-15
  endloop
endfacet
facet normal 0.8656714785808287 0.5006125159958369 -7.414061754096417e-18
  outer loop
    vertex 130.73473237025274 38.54087441559208 6.00000000000001
    vertex 130.22505661542579 39.4222182697308 9.164891068280667e-15
    vertex 130.22505661542579 39.4222182697308 6.00000000000001
  endloop
endfacet
facet normal -0.7076068236227007 0.7066063848866582 -1.0464826998916035e-17
  outer loop
    vertex 124.75630110792866 40.138258212206026 6.00000000000001
    vertex 124.03690210955115 39.41784066285013 9.164891068280667e-15
    vertex 124.03690210955115 39.41784066285013 6.00000000000001
  endloop
endfacet
facet normal -0.7076068236227007 0.7066063848866582 -1.0464826998916035e-17
  outer loop
    vertex 124.03690210955115 39.41784066285013 9.164891068280667e-15
    vertex 124.75630110792866 40.138258212206026 6.00000000000001
    vertex 124.75630110792866 40.138258212206026 9.164891068280667e-15
  endloop
endfacet
facet normal 0.9661086775918033 -0.2581356679767776 3.822984288572369e-18
  outer loop
    vertex 130.9996529944421 36.5395437882952 9.164891068280667e-15
    vertex 130.73684396106805 35.5559443900321 6.00000000000001
    vertex 130.73684396106805 35.5559443900321 9.164891068280667e-15
  endloop
endfacet
facet normal 0.9661086775918033 -0.2581356679767776 3.822984288572369e-18
  outer loop
    vertex 130.73684396106805 35.5559443900321 6.00000000000001
    vertex 130.9996529944421 36.5395437882952 9.164891068280667e-15
    vertex 130.9996529944421 36.5395437882952 6.00000000000001
  endloop
endfacet
endsolid splunk-spinner-v2
