solid splunk-spinner-v3
facet normal -0.5610166441580001 -0.8278045209937523 -0.0
  outer loop
    vertex -50.58427398271114 549.4650100013981 0.4999999999999984
    vertex -51.62217816572776 550.168414618003 -1.4099832412739487e-15
    vertex -50.58427398271114 549.4650100013981 -1.4099832412739487e-15
  endloop
endfacet
facet normal -0.5610166441580001 -0.8278045209937523 -0.0
  outer loop
    vertex -51.62217816572776 550.168414618003 -1.4099832412739487e-15
    vertex -50.58427398271114 549.4650100013981 0.4999999999999984
    vertex -51.62217816572776 550.168414618003 0.4999999999999984
  endloop
endfacet
facet normal 0.9539294365086023 -0.30003104866393493 0.0
  outer loop
    vertex -42.78974227983922 553.2454385570827 -1.4099832412739487e-15
    vertex -43.16592225052763 552.0493985170181 0.4999999999999984
    vertex -43.16592225052763 552.0493985170181 -1.4099832412739487e-15
  endloop
endfacet
facet normal 0.9539294365086023 -0.30003104866393493 0.0
  outer loop
    vertex -43.16592225052763 552.0493985170181 0.4999999999999984
    vertex -42.78974227983922 553.2454385570827 -1.4099832412739487e-15
    vertex -42.78974227983922 553.2454385570827 0.4999999999999984
  endloop
endfacet
facet normal 0.0 0.0 1.0
  outer loop
    vertex -51.96085644941411 554.2566312057018 7.499999999999999
    vertex -51.698405593177164 555.7465473028896 7.499999999999999
    vertex -51.96121462655123 554.7629479046265 7.499999999999999
  endloop
endfacet
facet normal 0.0 0.0 1.0
  outer loop
    vertex -51.698405593177164 555.7465473028896 7.499999999999999
    vertex -51.96085644941411 554.2566312057018 7.499999999999999
    vertex -51.96049440224744 553.7448438600595 7.499999999999999
  endloop
endfacet
facet normal 0.0 0.0 1.0
  outer loop
    vertex -51.698405593177164 555.7465473028896 7.499999999999999
    vertex -51.96049440224744 553.7448438600595 7.499999999999999
    vertex -51.696294002361874 552.7616172773296 7.499999999999999
  endloop
endfacet
facet normal 0.0 0.0 1.0
  outer loop
    vertex -51.698405593177164 555.7465473028896 7.499999999999999
    vertex -51.696294002361874 552.7616172773296 7.499999999999999
    vertex -51.18997730343721 556.6286113813321 7.499999999999999
  endloop
endfacet
facet normal 0.0 0.0 1.0
  outer loop
    vertex -51.18997730343721 556.6286113813321 7.499999999999999
    vertex -51.696294002361874 552.7616172773296 7.499999999999999
    vertex -51.18661824753491 551.8802734231908 7.499999999999999
  endloop
endfacet
facet normal 0.0 0.0 1.0
  outer loop
    vertex -51.18997730343721 556.6286113813321 7.499999999999999
    vertex -51.18661824753491 551.8802734231908 7.499999999999999
    vertex -50.47057830505969 557.349028930688 7.499999999999999
  endloop
endfacet
facet normal 0.0 0.0 1.0
  outer loop
    vertex -50.47057830505969 557.349028930688 7.499999999999999
    vertex -51.18661824753491 551.8802734231908 7.499999999999999
    vertex -50.466200698179016 551.1608744248133 7.499999999999999
  endloop
endfacet
facet normal 0.0 0.0 1.0
  outer loop
    vertex -50.47057830505969 557.349028930688 7.499999999999999
    vertex -50.466200698179016 551.1608744248133 7.499999999999999
    vertex -49.589234450920955 557.8587046855149 7.499999999999999
  endloop
endfacet
facet normal 0.0 0.0 1.0
  outer loop
    vertex -49.589234450920955 557.8587046855149 7.499999999999999
    vertex -50.466200698179016 551.1608744248133 7.499999999999999
    vertex -49.58413661973649 550.6524461350734 7.499999999999999
  endloop
endfacet
facet normal 0.0 0.0 1.0
  outer loop
    vertex -49.589234450920955 557.8587046855149 7.499999999999999
    vertex -49.58413661973649 550.6524461350734 7.499999999999999
    vertex -48.60600786819099 558.1229050854005 7.499999999999999
  endloop
endfacet
facet normal 0.0 0.0 1.0
  outer loop
    vertex -48.60600786819099 558.1229050854005 7.499999999999999
    vertex -49.58413661973649 550.6524461350734 7.499999999999999
    vertex -48.60053722147339 550.3896371016993 7.499999999999999
  endloop
endfacet
facet normal 0.0 0.0 1.0
  outer loop
    vertex -48.60600786819099 558.1229050854005 7.499999999999999
    vertex -48.60053722147339 550.3896371016993 7.499999999999999
    vertex -47.58790382362409 558.1236253097043 7.499999999999999
  endloop
endfacet
facet normal 0.0 0.0 1.0
  outer loop
    vertex -47.58790382362409 558.1236253097043 7.499999999999999
    vertex -48.60053722147339 550.3896371016993 7.499999999999999
    vertex -48.09422052254874 550.3899952788364 7.499999999999999
  endloop
endfacet
facet normal 0.0 0.0 1.0
  outer loop
    vertex -47.58790382362409 558.1236253097043 7.499999999999999
    vertex -48.09422052254874 550.3899952788364 7.499999999999999
    vertex -47.58243317690649 550.3903573260031 7.499999999999999
  endloop
endfacet
facet normal 0.0 0.0 1.0
  outer loop
    vertex -47.58790382362409 558.1236253097043 7.499999999999999
    vertex -47.58243317690649 550.3903573260031 7.499999999999999
    vertex -46.604304425360986 557.8608162763303 7.499999999999999
  endloop
endfacet
facet normal 0.0 0.0 1.0
  outer loop
    vertex -46.604304425360986 557.8608162763303 7.499999999999999
    vertex -47.58243317690649 550.3903573260031 7.499999999999999
    vertex -46.59920659417653 550.6545577258887 7.499999999999999
  endloop
endfacet
facet normal 0.0 0.0 1.0
  outer loop
    vertex -46.604304425360986 557.8608162763303 7.499999999999999
    vertex -46.59920659417653 550.6545577258887 7.499999999999999
    vertex -45.72224034691846 557.3523879865903 7.499999999999999
  endloop
endfacet
facet normal 0.0 0.0 1.0
  outer loop
    vertex -45.72224034691846 557.3523879865903 7.499999999999999
    vertex -46.59920659417653 550.6545577258887 7.499999999999999
    vertex -45.717862740037795 551.1642334807156 7.499999999999999
  endloop
endfacet
facet normal 0.0 0.0 1.0
  outer loop
    vertex -45.72224034691846 557.3523879865903 7.499999999999999
    vertex -45.717862740037795 551.1642334807156 7.499999999999999
    vertex -45.00182279756257 556.6329889882128 7.499999999999999
  endloop
endfacet
facet normal 0.0 0.0 1.0
  outer loop
    vertex -45.00182279756257 556.6329889882128 7.499999999999999
    vertex -45.717862740037795 551.1642334807156 7.499999999999999
    vertex -44.99846374166027 551.8846510300716 7.499999999999999
  endloop
endfacet
facet normal 0.0 0.0 1.0
  outer loop
    vertex -45.00182279756257 556.6329889882128 7.499999999999999
    vertex -44.99846374166027 551.8846510300716 7.499999999999999
    vertex -44.49214704273562 555.751645134074 7.499999999999999
  endloop
endfacet
facet normal 0.0 0.0 1.0
  outer loop
    vertex -44.49214704273562 555.751645134074 7.499999999999999
    vertex -44.99846374166027 551.8846510300716 7.499999999999999
    vertex -44.49003545192032 552.766715108514 7.499999999999999
  endloop
endfacet
facet normal 0.0 0.0 1.0
  outer loop
    vertex -44.49214704273562 555.751645134074 7.499999999999999
    vertex -44.49003545192032 552.766715108514 7.499999999999999
    vertex -44.22794664285004 554.7684185513441 7.499999999999999
  endloop
endfacet
facet normal 0.0 0.0 1.0
  outer loop
    vertex -44.22794664285004 554.7684185513441 7.499999999999999
    vertex -44.49003545192032 552.766715108514 7.499999999999999
    vertex -44.22722641854625 553.7503145067772 7.499999999999999
  endloop
endfacet
facet normal 0.0 0.0 1.0
  outer loop
    vertex -44.22794664285004 554.7684185513441 7.499999999999999
    vertex -44.22722641854625 553.7503145067772 7.499999999999999
    vertex -44.22758459568337 554.2566312057018 7.499999999999999
  endloop
endfacet
facet normal -0.21713020818725126 0.9761426497661913 0.0
  outer loop
    vertex -49.870741122079245 559.3560404420197 0.4999999999999984
    vertex -48.64685007809581 559.6282790510409 -1.4099832412739487e-15
    vertex -49.870741122079245 559.3560404420197 -1.4099832412739487e-15
  endloop
endfacet
facet normal -0.21713020818725126 0.9761426497661913 0.0
  outer loop
    vertex -48.64685007809581 559.6282790510409 -1.4099832412739487e-15
    vertex -49.870741122079245 559.3560404420197 0.4999999999999984
    vertex -48.64685007809581 559.6282790510409 0.4999999999999984
  endloop
endfacet
facet normal -0.7937837899714 0.6082000450334089 0.0
  outer loop
    vertex -51.97038800126224 558.0163287569636 0.4999999999999984
    vertex -52.7329513297317 557.0210798846416 -1.4099832412739487e-15
    vertex -52.7329513297317 557.0210798846416 0.4999999999999984
  endloop
endfacet
facet normal -0.7937837899714 0.6082000450334089 0.0
  outer loop
    vertex -52.7329513297317 557.0210798846416 -1.4099832412739487e-15
    vertex -51.97038800126224 558.0163287569636 0.4999999999999984
    vertex -51.97038800126224 558.0163287569636 -1.4099832412739487e-15
  endloop
endfacet
facet normal -0.35498950749434244 -0.9348702848892589 -0.0
  outer loop
    vertex -49.41213037313085 549.019922924182 0.4999999999999984
    vertex -50.58427398271114 549.4650100013981 -1.4099832412739487e-15
    vertex -49.41213037313085 549.019922924182 -1.4099832412739487e-15
  endloop
endfacet
facet normal -0.35498950749434244 -0.9348702848892589 -0.0
  outer loop
    vertex -50.58427398271114 549.4650100013981 -1.4099832412739487e-15
    vertex -49.41213037313085 549.019922924182 0.4999999999999984
    vertex -50.58427398271114 549.4650100013981 0.4999999999999984
  endloop
endfacet
facet normal 0.5378961033626332 -0.8430111398951354 0.0
  outer loop
    vertex -44.6807365466141 550.0723598060389 0.4999999999999984
    vertex -45.73770684121507 549.3979438037703 -1.4099832412739487e-15
    vertex -44.6807365466141 550.0723598060389 -1.4099832412739487e-15
  endloop
endfacet
facet normal 0.5378961033626332 -0.8430111398951354 0.0
  outer loop
    vertex -45.73770684121507 549.3979438037703 -1.4099832412739487e-15
    vertex -44.6807365466141 550.0723598060389 0.4999999999999984
    vertex -45.73770684121507 549.3979438037703 0.4999999999999984
  endloop
endfacet
facet normal 0.0 0.0 1.0
  outer loop
    vertex -53.424647838952865 553.3926030669627 0.4999999999999984
    vertex -53.24543947969521 555.8767988684871 0.4999999999999984
    vertex -53.48022408233563 554.6451741942669 0.4999999999999984
  endloop
endfacet
facet normal 0.0 0.0 1.0
  outer loop
    vertex -53.24543947969521 555.8767988684871 0.4999999999999984
    vertex -53.424647838952865 553.3926030669627 0.4999999999999984
    vertex -53.08170687921308 552.1866119202633 0.4999999999999984
  endloop
endfacet
facet normal 0.0 0.0 1.0
  outer loop
    vertex -53.24543947969521 555.8767988684871 0.4999999999999984
    vertex -53.08170687921308 552.1866119202633 0.4999999999999984
    vertex -52.7329513297317 557.0210798846416 0.4999999999999984
  endloop
endfacet
facet normal 0.0 0.0 1.0
  outer loop
    vertex -52.7329513297317 557.0210798846416 0.4999999999999984
    vertex -53.08170687921308 552.1866119202633 0.4999999999999984
    vertex -52.469889239022784 551.0922160490463 0.4999999999999984
  endloop
endfacet
facet normal 0.0 0.0 1.0
  outer loop
    vertex -52.7329513297317 557.0210798846416 0.4999999999999984
    vertex -52.469889239022784 551.0922160490463 0.4999999999999984
    vertex -51.97038800126224 558.0163287569636 0.4999999999999984
  endloop
endfacet
facet normal 0.0 0.0 1.0
  outer loop
    vertex -51.97038800126224 558.0163287569636 0.4999999999999984
    vertex -52.469889239022784 551.0922160490463 0.4999999999999984
    vertex -51.96049440224744 553.7448438600595 0.4999999999999984
  endloop
endfacet
facet normal 0.0 0.0 1.0
  outer loop
    vertex -51.96049440224744 553.7448438600595 0.4999999999999984
    vertex -52.469889239022784 551.0922160490463 0.4999999999999984
    vertex -51.62217816572776 550.168414618003 0.4999999999999984
  endloop
endfacet
facet normal 0.0 0.0 1.0
  outer loop
    vertex -51.97038800126224 558.0163287569636 0.4999999999999984
    vertex -51.96049440224744 553.7448438600595 0.4999999999999984
    vertex -51.96085644941411 554.2566312057018 0.4999999999999984
  endloop
endfacet
facet normal 0.0 0.0 1.0
  outer loop
    vertex -51.97038800126224 558.0163287569636 0.4999999999999984
    vertex -51.96085644941411 554.2566312057018 0.4999999999999984
    vertex -51.96121462655123 554.7629479046265 0.4999999999999984
  endloop
endfacet
facet normal 0.0 0.0 1.0
  outer loop
    vertex -51.96049440224744 553.7448438600595 0.4999999999999984
    vertex -51.62217816572776 550.168414618003 0.4999999999999984
    vertex -51.696294002361874 552.7616172773296 0.4999999999999984
  endloop
endfacet
facet normal 0.0 0.0 1.0
  outer loop
    vertex -51.696294002361874 552.7616172773296 0.4999999999999984
    vertex -51.62217816572776 550.168414618003 0.4999999999999984
    vertex -51.18661824753491 551.8802734231908 0.4999999999999984
  endloop
endfacet
facet normal 0.0 0.0 1.0
  outer loop
    vertex -51.18661824753491 551.8802734231908 0.4999999999999984
    vertex -51.62217816572776 550.168414618003 0.4999999999999984
    vertex -50.58427398271114 549.4650100013981 0.4999999999999984
  endloop
endfacet
facet normal 0.0 0.0 1.0
  outer loop
    vertex -51.18661824753491 551.8802734231908 0.4999999999999984
    vertex -50.58427398271114 549.4650100013981 0.4999999999999984
    vertex -50.466200698179016 551.1608744248133 0.4999999999999984
  endloop
endfacet
facet normal 0.0 0.0 1.0
  outer loop
    vertex -50.466200698179016 551.1608744248133 0.4999999999999984
    vertex -50.58427398271114 549.4650100013981 0.4999999999999984
    vertex -49.41213037313085 549.019922924182 0.4999999999999984
  endloop
endfacet
facet normal 0.0 0.0 1.0
  outer loop
    vertex -50.466200698179016 551.1608744248133 0.4999999999999984
    vertex -49.41213037313085 549.019922924182 0.4999999999999984
    vertex -49.58413661973649 550.6524461350734 0.4999999999999984
  endloop
endfacet
facet normal 0.0 0.0 1.0
  outer loop
    vertex -49.58413661973649 550.6524461350734 0.4999999999999984
    vertex -49.41213037313085 549.019922924182 0.4999999999999984
    vertex -48.60053722147339 550.3896371016993 0.4999999999999984
  endloop
endfacet
facet normal 0.0 0.0 1.0
  outer loop
    vertex -48.60053722147339 550.3896371016993 0.4999999999999984
    vertex -49.41213037313085 549.019922924182 0.4999999999999984
    vertex -48.16893790237743 548.8571481458939 0.4999999999999984
  endloop
endfacet
facet normal 0.0 0.0 1.0
  outer loop
    vertex -48.60053722147339 550.3896371016993 0.4999999999999984
    vertex -48.16893790237743 548.8571481458939 0.4999999999999984
    vertex -48.09422052254874 550.3899952788364 0.4999999999999984
  endloop
endfacet
facet normal 0.0 0.0 1.0
  outer loop
    vertex -48.09422052254874 550.3899952788364 0.4999999999999984
    vertex -48.16893790237743 548.8571481458939 0.4999999999999984
    vertex -46.921717398337584 548.9854608969644 0.4999999999999984
  endloop
endfacet
facet normal 0.0 0.0 1.0
  outer loop
    vertex -48.09422052254874 550.3899952788364 0.4999999999999984
    vertex -46.921717398337584 548.9854608969644 0.4999999999999984
    vertex -47.58243317690649 550.3903573260031 0.4999999999999984
  endloop
endfacet
facet normal 0.0 0.0 1.0
  outer loop
    vertex -47.58243317690649 550.3903573260031 0.4999999999999984
    vertex -46.921717398337584 548.9854608969644 0.4999999999999984
    vertex -46.59920659417653 550.6545577258887 0.4999999999999984
  endloop
endfacet
facet normal 0.0 0.0 1.0
  outer loop
    vertex -46.59920659417653 550.6545577258887 0.4999999999999984
    vertex -46.921717398337584 548.9854608969644 0.4999999999999984
    vertex -45.73770684121507 549.3979438037703 0.4999999999999984
  endloop
endfacet
facet normal 0.0 0.0 1.0
  outer loop
    vertex -46.59920659417653 550.6545577258887 0.4999999999999984
    vertex -45.73770684121507 549.3979438037703 0.4999999999999984
    vertex -45.717862740037795 551.1642334807156 0.4999999999999984
  endloop
endfacet
facet normal 0.0 0.0 1.0
  outer loop
    vertex -45.717862740037795 551.1642334807156 0.4999999999999984
    vertex -45.73770684121507 549.3979438037703 0.4999999999999984
    vertex -44.6807365466141 550.0723598060389 0.4999999999999984
  endloop
endfacet
facet normal 0.0 0.0 1.0
  outer loop
    vertex -45.717862740037795 551.1642334807156 0.4999999999999984
    vertex -44.6807365466141 550.0723598060389 0.4999999999999984
    vertex -44.99846374166027 551.8846510300716 0.4999999999999984
  endloop
endfacet
facet normal 0.0 0.0 1.0
  outer loop
    vertex -44.99846374166027 551.8846510300716 0.4999999999999984
    vertex -44.6807365466141 550.0723598060389 0.4999999999999984
    vertex -44.49003545192032 552.766715108514 0.4999999999999984
  endloop
endfacet
facet normal 0.0 0.0 1.0
  outer loop
    vertex -44.49003545192032 552.766715108514 0.4999999999999984
    vertex -44.6807365466141 550.0723598060389 0.4999999999999984
    vertex -43.80778805670314 550.9723509625214 0.4999999999999984
  endloop
endfacet
facet normal 0.0 0.0 1.0
  outer loop
    vertex -44.49003545192032 552.766715108514 0.4999999999999984
    vertex -43.80778805670314 550.9723509625214 0.4999999999999984
    vertex -44.22722641854625 553.7503145067772 0.4999999999999984
  endloop
endfacet
facet normal 0.0 0.0 1.0
  outer loop
    vertex -44.22722641854625 553.7503145067772 0.4999999999999984
    vertex -43.80778805670314 550.9723509625214 0.4999999999999984
    vertex -44.11550468961343 557.907633851654 0.4999999999999984
  endloop
endfacet
facet normal 0.0 0.0 1.0
  outer loop
    vertex -44.11550468961343 557.907633851654 0.4999999999999984
    vertex -43.80778805670314 550.9723509625214 0.4999999999999984
    vertex -43.380772335537095 556.8916655865698 0.4999999999999984
  endloop
endfacet
facet normal 0.0 0.0 1.0
  outer loop
    vertex -43.380772335537095 556.8916655865698 0.4999999999999984
    vertex -43.80778805670314 550.9723509625214 0.4999999999999984
    vertex -43.16592225052763 552.0493985170181 0.4999999999999984
  endloop
endfacet
facet normal 0.0 0.0 1.0
  outer loop
    vertex -43.380772335537095 556.8916655865698 0.4999999999999984
    vertex -43.16592225052763 552.0493985170181 0.4999999999999984
    vertex -42.90014319325313 555.7336419359599 0.4999999999999984
  endloop
endfacet
facet normal 0.0 0.0 1.0
  outer loop
    vertex -42.90014319325313 555.7336419359599 0.4999999999999984
    vertex -43.16592225052763 552.0493985170181 0.4999999999999984
    vertex -42.78974227983922 553.2454385570827 0.4999999999999984
  endloop
endfacet
facet normal 0.0 0.0 1.0
  outer loop
    vertex -42.90014319325313 555.7336419359599 0.4999999999999984
    vertex -42.78974227983922 553.2454385570827 0.4999999999999984
    vertex -42.69952810422831 554.4959922545718 0.4999999999999984
  endloop
endfacet
facet normal 0.0 0.0 1.0
  outer loop
    vertex -51.96121462655123 554.7629479046265 0.4999999999999984
    vertex -50.99885948070678 558.8088913611357 0.4999999999999984
    vertex -51.97038800126224 558.0163287569636 0.4999999999999984
  endloop
endfacet
facet normal 0.0 0.0 1.0
  outer loop
    vertex -50.99885948070678 558.8088913611357 0.4999999999999984
    vertex -51.96121462655123 554.7629479046265 0.4999999999999984
    vertex -51.698405593177164 555.7465473028896 0.4999999999999984
  endloop
endfacet
facet normal 0.0 0.0 1.0
  outer loop
    vertex -50.99885948070678 558.8088913611357 0.4999999999999984
    vertex -51.698405593177164 555.7465473028896 0.4999999999999984
    vertex -51.18997730343721 556.6286113813321 0.4999999999999984
  endloop
endfacet
facet normal 0.0 0.0 1.0
  outer loop
    vertex -50.99885948070678 558.8088913611357 0.4999999999999984
    vertex -51.18997730343721 556.6286113813321 0.4999999999999984
    vertex -50.47057830505969 557.349028930688 0.4999999999999984
  endloop
endfacet
facet normal 0.0 0.0 1.0
  outer loop
    vertex -50.99885948070678 558.8088913611357 0.4999999999999984
    vertex -50.47057830505969 557.349028930688 0.4999999999999984
    vertex -49.870741122079245 559.3560404420197 0.4999999999999984
  endloop
endfacet
facet normal 0.0 0.0 1.0
  outer loop
    vertex -49.870741122079245 559.3560404420197 0.4999999999999984
    vertex -50.47057830505969 557.349028930688 0.4999999999999984
    vertex -49.589234450920955 557.8587046855149 0.4999999999999984
  endloop
endfacet
facet normal 0.0 0.0 1.0
  outer loop
    vertex -49.870741122079245 559.3560404420197 0.4999999999999984
    vertex -49.589234450920955 557.8587046855149 0.4999999999999984
    vertex -48.64685007809581 559.6282790510409 0.4999999999999984
  endloop
endfacet
facet normal 0.0 0.0 1.0
  outer loop
    vertex -48.64685007809581 559.6282790510409 0.4999999999999984
    vertex -49.589234450920955 557.8587046855149 0.4999999999999984
    vertex -48.60600786819099 558.1229050854005 0.4999999999999984
  endloop
endfacet
facet normal 0.0 0.0 1.0
  outer loop
    vertex -48.64685007809581 559.6282790510409 0.4999999999999984
    vertex -48.60600786819099 558.1229050854005 0.4999999999999984
    vertex -47.39316663173 559.6109307343206 0.4999999999999984
  endloop
endfacet
facet normal 0.0 0.0 1.0
  outer loop
    vertex -47.39316663173 559.6109307343206 0.4999999999999984
    vertex -48.60600786819099 558.1229050854005 0.4999999999999984
    vertex -47.58790382362409 558.1236253097043 0.4999999999999984
  endloop
endfacet
facet normal 0.0 0.0 1.0
  outer loop
    vertex -47.39316663173 559.6109307343206 0.4999999999999984
    vertex -47.58790382362409 558.1236253097043 0.4999999999999984
    vertex -46.604304425360986 557.8608162763303 0.4999999999999984
  endloop
endfacet
facet normal 0.0 0.0 1.0
  outer loop
    vertex -47.39316663173 559.6109307343206 0.4999999999999984
    vertex -46.604304425360986 557.8608162763303 0.4999999999999984
    vertex -46.17727718207927 559.3049307441038 0.4999999999999984
  endloop
endfacet
facet normal 0.0 0.0 1.0
  outer loop
    vertex -46.17727718207927 559.3049307441038 0.4999999999999984
    vertex -46.604304425360986 557.8608162763303 0.4999999999999984
    vertex -45.72224034691846 557.3523879865903 0.4999999999999984
  endloop
endfacet
facet normal 0.0 0.0 1.0
  outer loop
    vertex -46.17727718207927 559.3049307441038 0.4999999999999984
    vertex -45.72224034691846 557.3523879865903 0.4999999999999984
    vertex -45.064730644095526 558.726775619068 0.4999999999999984
  endloop
endfacet
facet normal 0.0 0.0 1.0
  outer loop
    vertex -45.064730644095526 558.726775619068 0.4999999999999984
    vertex -45.72224034691846 557.3523879865903 0.4999999999999984
    vertex -45.00182279756257 556.6329889882128 0.4999999999999984
  endloop
endfacet
facet normal 0.0 0.0 1.0
  outer loop
    vertex -45.064730644095526 558.726775619068 0.4999999999999984
    vertex -45.00182279756257 556.6329889882128 0.4999999999999984
    vertex -44.11550468961343 557.907633851654 0.4999999999999984
  endloop
endfacet
facet normal 0.0 0.0 1.0
  outer loop
    vertex -44.11550468961343 557.907633851654 0.4999999999999984
    vertex -45.00182279756257 556.6329889882128 0.4999999999999984
    vertex -44.49214704273562 555.751645134074 0.4999999999999984
  endloop
endfacet
facet normal 0.0 0.0 1.0
  outer loop
    vertex -44.11550468961343 557.907633851654 0.4999999999999984
    vertex -44.49214704273562 555.751645134074 0.4999999999999984
    vertex -44.22794664285004 554.7684185513441 0.4999999999999984
  endloop
endfacet
facet normal 0.0 0.0 1.0
  outer loop
    vertex -44.11550468961343 557.907633851654 0.4999999999999984
    vertex -44.22794664285004 554.7684185513441 0.4999999999999984
    vertex -44.22758459568337 554.2566312057018 0.4999999999999984
  endloop
endfacet
facet normal 0.0 0.0 1.0
  outer loop
    vertex -44.11550468961343 557.907633851654 0.4999999999999984
    vertex -44.22758459568337 554.2566312057018 0.4999999999999984
    vertex -44.22722641854625 553.7503145067772 0.4999999999999984
  endloop
endfacet
facet normal -0.12982479459607227 -0.9915369497442281 -0.0
  outer loop
    vertex -48.16893790237743 548.8571481458939 0.4999999999999984
    vertex -49.41213037313085 549.019922924182 -1.4099832412739487e-15
    vertex -48.16893790237743 548.8571481458939 -1.4099832412739487e-15
  endloop
endfacet
facet normal -0.12982479459607227 -0.9915369497442281 -0.0
  outer loop
    vertex -49.41213037313085 549.019922924182 -1.4099832412739487e-15
    vertex -48.16893790237743 548.8571481458939 0.4999999999999984
    vertex -49.41213037313085 549.019922924182 0.4999999999999984
  endloop
endfacet
facet normal 0.013836551820127633 0.9999042703347801 0.0
  outer loop
    vertex -48.64685007809581 559.6282790510409 0.4999999999999984
    vertex -47.39316663173 559.6109307343206 -1.4099832412739487e-15
    vertex -48.64685007809581 559.6282790510409 -1.4099832412739487e-15
  endloop
endfacet
facet normal 0.013836551820127633 0.9999042703347801 0.0
  outer loop
    vertex -47.39316663173 559.6109307343206 -1.4099832412739487e-15
    vertex -48.64685007809581 559.6282790510409 0.4999999999999984
    vertex -47.39316663173 559.6109307343206 0.4999999999999984
  endloop
endfacet
facet normal 0.9657424915994804 0.25950229270514696 0.0
  outer loop
    vertex -44.49214704273562 555.751645134074 0.4999999999999984
    vertex -44.22794664285004 554.7684185513441 7.499999999999999
    vertex -44.22794664285004 554.7684185513441 0.4999999999999984
  endloop
endfacet
facet normal 0.9657424915994804 0.25950229270514696 0.0
  outer loop
    vertex -44.22794664285004 554.7684185513441 7.499999999999999
    vertex -44.49214704273562 555.751645134074 0.4999999999999984
    vertex -44.49214704273562 555.751645134074 7.499999999999999
  endloop
endfacet
facet normal -0.8656714785808247 -0.5006125159958438 -0.0
  outer loop
    vertex -51.696294002361874 552.7616172773296 7.499999999999999
    vertex -51.18661824753491 551.8802734231908 0.4999999999999984
    vertex -51.18661824753491 551.8802734231908 7.499999999999999
  endloop
endfacet
facet normal -0.8656714785808247 -0.5006125159958438 -0.0
  outer loop
    vertex -51.18661824753491 551.8802734231908 0.4999999999999984
    vertex -51.696294002361874 552.7616172773296 7.499999999999999
    vertex -51.696294002361874 552.7616172773296 0.4999999999999984
  endloop
endfacet
facet normal -0.7367992283213648 -0.6761116011022451 -0.0
  outer loop
    vertex -52.469889239022784 551.0922160490463 0.4999999999999984
    vertex -51.62217816572776 550.168414618003 -1.4099832412739487e-15
    vertex -51.62217816572776 550.168414618003 0.4999999999999984
  endloop
endfacet
facet normal -0.7367992283213648 -0.6761116011022451 -0.0
  outer loop
    vertex -51.62217816572776 550.168414618003 -1.4099832412739487e-15
    vertex -52.469889239022784 551.0922160490463 0.4999999999999984
    vertex -52.469889239022784 551.0922160490463 -1.4099832412739487e-15
  endloop
endfacet
facet normal 0.0 0.0 1.0
  outer loop
    vertex -55.85170200641946 522.372356899148 0.0
    vertex -53.424647838952865 553.3926030669627 -1.4099832412739487e-15
    vertex -53.48022408233563 554.6451741942669 -1.4099832412739487e-15
  endloop
endfacet
facet normal 0.0 0.0 1.0
  outer loop
    vertex -53.424647838952865 553.3926030669627 -1.4099832412739487e-15
    vertex -55.85170200641946 522.372356899148 0.0
    vertex -47.33511480496961 521.4510032504605 0.0
  endloop
endfacet
facet normal 0.0 0.0 1.0
  outer loop
    vertex -53.424647838952865 553.3926030669627 -1.4099832412739487e-15
    vertex -47.33511480496961 521.4510032504605 0.0
    vertex -53.08170687921308 552.1866119202633 -1.4099832412739487e-15
  endloop
endfacet
facet normal 0.0 0.0 1.0
  outer loop
    vertex -53.08170687921308 552.1866119202633 -1.4099832412739487e-15
    vertex -47.33511480496961 521.4510032504605 0.0
    vertex -52.469889239022784 551.0922160490463 -1.4099832412739487e-15
  endloop
endfacet
facet normal 0.0 0.0 1.0
  outer loop
    vertex -52.469889239022784 551.0922160490463 -1.4099832412739487e-15
    vertex -47.33511480496961 521.4510032504605 0.0
    vertex -51.62217816572776 550.168414618003 -1.4099832412739487e-15
  endloop
endfacet
facet normal 0.0 0.0 1.0
  outer loop
    vertex -51.62217816572776 550.168414618003 -1.4099832412739487e-15
    vertex -47.33511480496961 521.4510032504605 0.0
    vertex -50.58427398271114 549.4650100013981 -1.4099832412739487e-15
  endloop
endfacet
facet normal 0.0 0.0 1.0
  outer loop
    vertex -50.58427398271114 549.4650100013981 -1.4099832412739487e-15
    vertex -47.33511480496961 521.4510032504605 0.0
    vertex -49.41213037313085 549.019922924182 -1.4099832412739487e-15
  endloop
endfacet
facet normal 0.0 0.0 1.0
  outer loop
    vertex -49.41213037313085 549.019922924182 -1.4099832412739487e-15
    vertex -47.33511480496961 521.4510032504605 0.0
    vertex -48.16893790237743 548.8571481458939 -1.4099832412739487e-15
  endloop
endfacet
facet normal 0.0 0.0 1.0
  outer loop
    vertex -48.16893790237743 548.8571481458939 -1.4099832412739487e-15
    vertex -47.33511480496961 521.4510032504605 0.0
    vertex -46.921717398337584 548.9854608969644 -1.4099832412739487e-15
  endloop
endfacet
facet normal 0.0 0.0 1.0
  outer loop
    vertex -46.921717398337584 548.9854608969644 -1.4099832412739487e-15
    vertex -47.33511480496961 521.4510032504605 0.0
    vertex -38.87025940369125 522.7652989330594 0.0
  endloop
endfacet
facet normal 0.0 0.0 1.0
  outer loop
    vertex -46.921717398337584 548.9854608969644 -1.4099832412739487e-15
    vertex -38.87025940369125 522.7652989330594 0.0
    vertex -45.73770684121507 549.3979438037703 -1.4099832412739487e-15
  endloop
endfacet
facet normal 0.0 0.0 1.0
  outer loop
    vertex -45.73770684121507 549.3979438037703 -1.4099832412739487e-15
    vertex -38.87025940369125 522.7652989330594 0.0
    vertex -44.6807365466141 550.0723598060389 -1.4099832412739487e-15
  endloop
endfacet
facet normal 0.0 0.0 1.0
  outer loop
    vertex -44.6807365466141 550.0723598060389 -1.4099832412739487e-15
    vertex -38.87025940369125 522.7652989330594 0.0
    vertex -43.80778805670314 550.9723509625214 -1.4099832412739487e-15
  endloop
endfacet
facet normal 0.0 0.0 1.0
  outer loop
    vertex -43.80778805670314 550.9723509625214 -1.4099832412739487e-15
    vertex -38.87025940369125 522.7652989330594 0.0
    vertex -43.16592225052763 552.0493985170181 -1.4099832412739487e-15
  endloop
endfacet
facet normal 0.0 0.0 1.0
  outer loop
    vertex -43.16592225052763 552.0493985170181 -1.4099832412739487e-15
    vertex -38.87025940369125 522.7652989330594 0.0
    vertex -42.78974227983922 553.2454385570827 -1.4099832412739487e-15
  endloop
endfacet
facet normal 0.0 0.0 1.0
  outer loop
    vertex -42.78974227983922 553.2454385570827 -1.4099832412739487e-15
    vertex -38.87025940369125 522.7652989330594 0.0
    vertex -42.69952810422831 554.4959922545718 -1.4099832412739487e-15
  endloop
endfacet
facet normal 0.0 0.0 1.0
  outer loop
    vertex -42.69952810422831 554.4959922545718 -1.4099832412739487e-15
    vertex -38.87025940369125 522.7652989330594 0.0
    vertex -40.336739038678 586.1409055122557 0.0
  endloop
endfacet
facet normal 0.0 0.0 1.0
  outer loop
    vertex -40.336739038678 586.1409055122557 0.0
    vertex -38.87025940369125 522.7652989330594 0.0
    vertex -32.348811380509645 583.0466912608313 0.0
  endloop
endfacet
facet normal 0.0 0.0 1.0
  outer loop
    vertex -32.348811380509645 583.0466912608313 0.0
    vertex -38.87025940369125 522.7652989330594 0.0
    vertex -31.034001709346573 526.2256768681515 0.0
  endloop
endfacet
facet normal 0.0 0.0 1.0
  outer loop
    vertex -32.348811380509645 583.0466912608313 0.0
    vertex -31.034001709346573 526.2256768681515 0.0
    vertex -25.433907334852307 577.9904819944735 0.0
  endloop
endfacet
facet normal 0.0 0.0 1.0
  outer loop
    vertex -25.433907334852307 577.9904819944735 0.0
    vertex -31.034001709346573 526.2256768681515 0.0
    vertex -24.36036973377699 531.5963180180054 0.0
  endloop
endfacet
facet normal 0.0 0.0 1.0
  outer loop
    vertex -25.433907334852307 577.9904819944735 0.0
    vertex -24.36036973377699 531.5963180180054 0.0
    vertex -20.063266184998398 571.3168500189039 0.0
  endloop
endfacet
facet normal 0.0 0.0 1.0
  outer loop
    vertex -20.063266184998398 571.3168500189039 0.0
    vertex -24.36036973377699 531.5963180180054 0.0
    vertex -19.3041604674193 538.5112220636627 0.0
  endloop
endfacet
facet normal 0.0 0.0 1.0
  outer loop
    vertex -20.063266184998398 571.3168500189039 0.0
    vertex -19.3041604674193 538.5112220636627 0.0
    vertex -16.602888249906247 563.4805923245592 0.0
  endloop
endfacet
facet normal 0.0 0.0 1.0
  outer loop
    vertex -16.602888249906247 563.4805923245592 0.0
    vertex -19.3041604674193 538.5112220636627 0.0
    vertex -16.209946215994872 546.499149721831 0.0
  endloop
endfacet
facet normal 0.0 0.0 1.0
  outer loop
    vertex -16.602888249906247 563.4805923245592 0.0
    vertex -16.209946215994872 546.499149721831 0.0
    vertex -15.288592567307484 555.0157369232809 0.0
  endloop
endfacet
facet normal 0.0 0.0 1.0
  outer loop
    vertex -79.58555279519122 545.0326700868444 0.0
    vertex -79.9784948291026 562.0141126895725 0.0
    vertex -80.89984847779 553.4975254881227 0.0
  endloop
endfacet
facet normal 0.0 0.0 1.0
  outer loop
    vertex -79.9784948291026 562.0141126895725 0.0
    vertex -79.58555279519122 545.0326700868444 0.0
    vertex -76.88428057767817 570.002040347741 0.0
  endloop
endfacet
facet normal 0.0 0.0 1.0
  outer loop
    vertex -76.88428057767817 570.002040347741 0.0
    vertex -79.58555279519122 545.0326700868444 0.0
    vertex -76.12517486009907 537.1964123924997 0.0
  endloop
endfacet
facet normal 0.0 0.0 1.0
  outer loop
    vertex -76.88428057767817 570.002040347741 0.0
    vertex -76.12517486009907 537.1964123924997 0.0
    vertex -71.82807131132049 576.9169443933982 0.0
  endloop
endfacet
facet normal 0.0 0.0 1.0
  outer loop
    vertex -71.82807131132049 576.9169443933982 0.0
    vertex -76.12517486009907 537.1964123924997 0.0
    vertex -70.75453371024513 530.52278041693 0.0
  endloop
endfacet
facet normal 0.0 0.0 1.0
  outer loop
    vertex -71.82807131132049 576.9169443933982 0.0
    vertex -70.75453371024513 530.52278041693 0.0
    vertex -65.1544393357509 582.2875855432521 0.0
  endloop
endfacet
facet normal 0.0 0.0 1.0
  outer loop
    vertex -65.1544393357509 582.2875855432521 0.0
    vertex -70.75453371024513 530.52278041693 0.0
    vertex -63.839629664587825 525.4665711505723 0.0
  endloop
endfacet
facet normal 0.0 0.0 1.0
  outer loop
    vertex -65.1544393357509 582.2875855432521 0.0
    vertex -63.839629664587825 525.4665711505723 0.0
    vertex -57.318181641406206 585.7479634783442 0.0
  endloop
endfacet
facet normal 0.0 0.0 1.0
  outer loop
    vertex -57.318181641406206 585.7479634783442 0.0
    vertex -63.839629664587825 525.4665711505723 0.0
    vertex -55.85170200641946 522.372356899148 0.0
  endloop
endfacet
facet normal 0.0 0.0 1.0
  outer loop
    vertex -57.318181641406206 585.7479634783442 0.0
    vertex -55.85170200641946 522.372356899148 0.0
    vertex -53.48022408233563 554.6451741942669 -1.4099832412739487e-15
  endloop
endfacet
facet normal 0.0 0.0 1.0
  outer loop
    vertex -57.318181641406206 585.7479634783442 0.0
    vertex -53.48022408233563 554.6451741942669 -1.4099832412739487e-15
    vertex -48.853326240127856 587.062259160943 0.0
  endloop
endfacet
facet normal 0.0 0.0 1.0
  outer loop
    vertex -48.853326240127856 587.062259160943 0.0
    vertex -53.48022408233563 554.6451741942669 -1.4099832412739487e-15
    vertex -53.24543947969521 555.8767988684871 -1.4099832412739487e-15
  endloop
endfacet
facet normal 0.0 0.0 1.0
  outer loop
    vertex -48.853326240127856 587.062259160943 0.0
    vertex -53.24543947969521 555.8767988684871 -1.4099832412739487e-15
    vertex -52.7329513297317 557.0210798846416 -1.4099832412739487e-15
  endloop
endfacet
facet normal 0.0 0.0 1.0
  outer loop
    vertex -48.853326240127856 587.062259160943 0.0
    vertex -52.7329513297317 557.0210798846416 -1.4099832412739487e-15
    vertex -51.97038800126224 558.0163287569636 -1.4099832412739487e-15
  endloop
endfacet
facet normal 0.0 0.0 1.0
  outer loop
    vertex -48.853326240127856 587.062259160943 0.0
    vertex -51.97038800126224 558.0163287569636 -1.4099832412739487e-15
    vertex -50.99885948070678 558.8088913611357 -1.4099832412739487e-15
  endloop
endfacet
facet normal 0.0 0.0 1.0
  outer loop
    vertex -48.853326240127856 587.062259160943 0.0
    vertex -50.99885948070678 558.8088913611357 -1.4099832412739487e-15
    vertex -49.870741122079245 559.3560404420197 -1.4099832412739487e-15
  endloop
endfacet
facet normal 0.0 0.0 1.0
  outer loop
    vertex -48.853326240127856 587.062259160943 0.0
    vertex -49.870741122079245 559.3560404420197 -1.4099832412739487e-15
    vertex -48.64685007809581 559.6282790510409 -1.4099832412739487e-15
  endloop
endfacet
facet normal 0.0 0.0 1.0
  outer loop
    vertex -48.853326240127856 587.062259160943 0.0
    vertex -48.64685007809581 559.6282790510409 -1.4099832412739487e-15
    vertex -40.336739038678 586.1409055122557 0.0
  endloop
endfacet
facet normal 0.0 0.0 1.0
  outer loop
    vertex -40.336739038678 586.1409055122557 0.0
    vertex -48.64685007809581 559.6282790510409 -1.4099832412739487e-15
    vertex -47.39316663173 559.6109307343206 -1.4099832412739487e-15
  endloop
endfacet
facet normal 0.0 0.0 1.0
  outer loop
    vertex -40.336739038678 586.1409055122557 0.0
    vertex -47.39316663173 559.6109307343206 -1.4099832412739487e-15
    vertex -46.17727718207927 559.3049307441038 -1.4099832412739487e-15
  endloop
endfacet
facet normal 0.0 0.0 1.0
  outer loop
    vertex -40.336739038678 586.1409055122557 0.0
    vertex -46.17727718207927 559.3049307441038 -1.4099832412739487e-15
    vertex -45.064730644095526 558.726775619068 -1.4099832412739487e-15
  endloop
endfacet
facet normal 0.0 0.0 1.0
  outer loop
    vertex -40.336739038678 586.1409055122557 0.0
    vertex -45.064730644095526 558.726775619068 -1.4099832412739487e-15
    vertex -44.11550468961343 557.907633851654 -1.4099832412739487e-15
  endloop
endfacet
facet normal 0.0 0.0 1.0
  outer loop
    vertex -40.336739038678 586.1409055122557 0.0
    vertex -44.11550468961343 557.907633851654 -1.4099832412739487e-15
    vertex -43.380772335537095 556.8916655865698 -1.4099832412739487e-15
  endloop
endfacet
facet normal 0.0 0.0 1.0
  outer loop
    vertex -40.336739038678 586.1409055122557 0.0
    vertex -43.380772335537095 556.8916655865698 -1.4099832412739487e-15
    vertex -42.90014319325313 555.7336419359599 -1.4099832412739487e-15
  endloop
endfacet
facet normal 0.0 0.0 1.0
  outer loop
    vertex -40.336739038678 586.1409055122557 0.0
    vertex -42.90014319325313 555.7336419359599 -1.4099832412739487e-15
    vertex -42.69952810422831 554.4959922545718 -1.4099832412739487e-15
  endloop
endfacet
facet normal -0.9999997497805525 -0.0007074170144242568 -0.0
  outer loop
    vertex -51.96085644941411 554.2566312057018 7.499999999999999
    vertex -51.96049440224744 553.7448438600595 0.4999999999999984
    vertex -51.96049440224744 553.7448438600595 7.499999999999999
  endloop
endfacet
facet normal -0.9999997497805525 -0.0007074170144242568 -0.0
  outer loop
    vertex -51.96049440224744 553.7448438600595 0.4999999999999984
    vertex -51.96085644941411 554.2566312057018 7.499999999999999
    vertex -51.96085644941411 554.2566312057018 0.4999999999999984
  endloop
endfacet
facet normal 0.0007074170143912201 -0.9999997497805527 0.0
  outer loop
    vertex -47.58243317690649 550.3903573260031 7.499999999999999
    vertex -48.09422052254874 550.3899952788364 0.4999999999999984
    vertex -47.58243317690649 550.3903573260031 0.4999999999999984
  endloop
endfacet
facet normal 0.0007074170143912201 -0.9999997497805527 0.0
  outer loop
    vertex -48.09422052254874 550.3899952788364 0.4999999999999984
    vertex -47.58243317690649 550.3903573260031 7.499999999999999
    vertex -48.09422052254874 550.3899952788364 7.499999999999999
  endloop
endfacet
facet normal 0.7076068236227097 -0.7066063848866493 0.0
  outer loop
    vertex -44.99846374166027 551.8846510300716 0.4999999999999984
    vertex -45.717862740037795 551.1642334807156 7.499999999999999
    vertex -45.717862740037795 551.1642334807156 0.4999999999999984
  endloop
endfacet
facet normal 0.7076068236227097 -0.7066063848866493 0.0
  outer loop
    vertex -45.717862740037795 551.1642334807156 7.499999999999999
    vertex -44.99846374166027 551.8846510300716 0.4999999999999984
    vertex -44.99846374166027 551.8846510300716 7.499999999999999
  endloop
endfacet
facet normal 0.10233880658280557 -0.9947496009887148 0.0
  outer loop
    vertex -46.921717398337584 548.9854608969644 0.4999999999999984
    vertex -48.16893790237743 548.8571481458939 -1.4099832412739487e-15
    vertex -46.921717398337584 548.9854608969644 -1.4099832412739487e-15
  endloop
endfacet
facet normal 0.10233880658280557 -0.9947496009887148 0.0
  outer loop
    vertex -48.16893790237743 548.8571481458939 -1.4099832412739487e-15
    vertex -46.921717398337584 548.9854608969644 0.4999999999999984
    vertex -48.16893790237743 548.8571481458939 0.4999999999999984
  endloop
endfacet
facet normal -0.7066063848866687 -0.7076068236226903 -0.0
  outer loop
    vertex -50.466200698179016 551.1608744248133 7.499999999999999
    vertex -51.18661824753491 551.8802734231908 0.4999999999999984
    vertex -50.466200698179016 551.1608744248133 0.4999999999999984
  endloop
endfacet
facet normal -0.7066063848866687 -0.7076068236226903 -0.0
  outer loop
    vertex -51.18661824753491 551.8802734231908 0.4999999999999984
    vertex -50.466200698179016 551.1608744248133 7.499999999999999
    vertex -51.18661824753491 551.8802734231908 7.499999999999999
  endloop
endfacet
facet normal 0.2595022927051521 -0.965742491599479 0.0
  outer loop
    vertex -46.59920659417653 550.6545577258887 7.499999999999999
    vertex -47.58243317690649 550.3903573260031 0.4999999999999984
    vertex -46.59920659417653 550.6545577258887 0.4999999999999984
  endloop
endfacet
facet normal 0.2595022927051521 -0.965742491599479 0.0
  outer loop
    vertex -47.58243317690649 550.3903573260031 0.4999999999999984
    vertex -46.59920659417653 550.6545577258887 7.499999999999999
    vertex -47.58243317690649 550.3903573260031 7.499999999999999
  endloop
endfacet
facet normal -0.8072236938120626 0.5902456337393861 0.0
  outer loop
    vertex -71.82807131132049 576.9169443933982 0.0
    vertex -76.88428057767817 570.002040347741 -4.045489999999994
    vertex -76.88428057767817 570.002040347741 0.0
  endloop
endfacet
facet normal -0.8072236938120626 0.5902456337393861 0.0
  outer loop
    vertex -76.88428057767817 570.002040347741 -4.045489999999994
    vertex -71.82807131132049 576.9169443933982 0.0
    vertex -71.82807131132049 576.9169443933982 -4.045489999999994
  endloop
endfacet
facet normal -0.9126478281520563 0.4087467942006822 0.0
  outer loop
    vertex -52.7329513297317 557.0210798846416 0.4999999999999984
    vertex -53.24543947969521 555.8767988684871 -1.4099832412739487e-15
    vertex -53.24543947969521 555.8767988684871 0.4999999999999984
  endloop
endfacet
facet normal -0.9126478281520563 0.4087467942006822 0.0
  outer loop
    vertex -53.24543947969521 555.8767988684871 -1.4099832412739487e-15
    vertex -52.7329513297317 557.0210798846416 0.4999999999999984
    vertex -52.7329513297317 557.0210798846416 -1.4099832412739487e-15
  endloop
endfacet
facet normal 0.6533254894775951 0.7570771458701292 0.0
  outer loop
    vertex -45.064730644095526 558.726775619068 0.4999999999999984
    vertex -44.11550468961343 557.907633851654 -1.4099832412739487e-15
    vertex -45.064730644095526 558.726775619068 -1.4099832412739487e-15
  endloop
endfacet
facet normal 0.6533254894775951 0.7570771458701292 0.0
  outer loop
    vertex -44.11550468961343 557.907633851654 -1.4099832412739487e-15
    vertex -45.064730644095526 558.726775619068 0.4999999999999984
    vertex -44.11550468961343 557.907633851654 0.4999999999999984
  endloop
endfacet
facet normal -0.9999997497805526 -0.0007074170144177445 -0.0
  outer loop
    vertex -51.96121462655123 554.7629479046265 7.499999999999999
    vertex -51.96085644941411 554.2566312057018 0.4999999999999984
    vertex -51.96085644941411 554.2566312057018 7.499999999999999
  endloop
endfacet
facet normal -0.9999997497805526 -0.0007074170144177445 -0.0
  outer loop
    vertex -51.96085644941411 554.2566312057018 0.4999999999999984
    vertex -51.96121462655123 554.7629479046265 7.499999999999999
    vertex -51.96121462655123 554.7629479046265 0.4999999999999984
  endloop
endfacet
facet normal 0.9881600380118343 0.1534266576460899 0.0
  outer loop
    vertex -16.602888249906247 563.4805923245592 -4.045489999999994
    vertex -15.288592567307484 555.0157369232809 0.0
    vertex -15.288592567307484 555.0157369232809 -4.045489999999994
  endloop
endfacet
facet normal 0.9881600380118343 0.1534266576460899 0.0
  outer loop
    vertex -15.288592567307484 555.0157369232809 0.0
    vertex -16.602888249906247 563.4805923245592 -4.045489999999994
    vertex -16.602888249906247 563.4805923245592 0.0
  endloop
endfacet
facet normal 0.865671478580827 0.5006125159958396 0.0
  outer loop
    vertex -45.00182279756257 556.6329889882128 0.4999999999999984
    vertex -44.49214704273562 555.751645134074 7.499999999999999
    vertex -44.49214704273562 555.751645134074 0.4999999999999984
  endloop
endfacet
facet normal 0.865671478580827 0.5006125159958396 0.0
  outer loop
    vertex -44.49214704273562 555.751645134074 7.499999999999999
    vertex -45.00182279756257 556.6329889882128 0.4999999999999984
    vertex -45.00182279756257 556.6329889882128 7.499999999999999
  endloop
endfacet
facet normal 0.36120863586666235 0.932485024745891 0.0
  outer loop
    vertex -40.336739038678 586.1409055122557 0.0
    vertex -32.348811380509645 583.0466912608313 -4.045489999999994
    vertex -40.336739038678 586.1409055122557 -4.045489999999994
  endloop
endfacet
facet normal 0.36120863586666235 0.932485024745891 0.0
  outer loop
    vertex -32.348811380509645 583.0466912608313 -4.045489999999994
    vertex -40.336739038678 586.1409055122557 0.0
    vertex -32.348811380509645 583.0466912608313 0.0
  endloop
endfacet
facet normal 0.10755586638512193 0.9941990422476508 0.0
  outer loop
    vertex -48.853326240127856 587.062259160943 0.0
    vertex -40.336739038678 586.1409055122557 -4.045489999999994
    vertex -48.853326240127856 587.062259160943 -4.045489999999994
  endloop
endfacet
facet normal 0.10755586638512193 0.9941990422476508 0.0
  outer loop
    vertex -40.336739038678 586.1409055122557 -4.045489999999994
    vertex -48.853326240127856 587.062259160943 0.0
    vertex -40.336739038678 586.1409055122557 0.0
  endloop
endfacet
facet normal -0.779058367099798 -0.6269514021451715 0.0
  outer loop
    vertex -76.12517486009907 537.1964123924997 0.0
    vertex -70.75453371024513 530.52278041693 -4.045489999999994
    vertex -70.75453371024513 530.52278041693 0.0
  endloop
endfacet
facet normal -0.779058367099798 -0.6269514021451715 0.0
  outer loop
    vertex -70.75453371024513 530.52278041693 -4.045489999999994
    vertex -76.12517486009907 537.1964123924997 0.0
    vertex -76.12517486009907 537.1964123924997 -4.045489999999994
  endloop
endfacet
facet normal -0.4039534085082643 0.9147795601971852 0.0
  outer loop
    vertex -65.1544393357509 582.2875855432521 0.0
    vertex -57.318181641406206 585.7479634783442 -4.045489999999994
    vertex -65.1544393357509 582.2875855432521 -4.045489999999994
  endloop
endfacet
facet normal -0.4039534085082643 0.9147795601971852 0.0
  outer loop
    vertex -57.318181641406206 585.7479634783442 -4.045489999999994
    vertex -65.1544393357509 582.2875855432521 0.0
    vertex -57.318181641406206 585.7479634783442 0.0
  endloop
endfacet
facet normal -0.49938723378471944 -0.8663788955952505 -0.0
  outer loop
    vertex -49.58413661973649 550.6524461350734 7.499999999999999
    vertex -50.466200698179016 551.1608744248133 0.4999999999999984
    vertex -49.58413661973649 550.6524461350734 0.4999999999999984
  endloop
endfacet
facet normal -0.49938723378471944 -0.8663788955952505 -0.0
  outer loop
    vertex -50.466200698179016 551.1608744248133 0.4999999999999984
    vertex -49.58413661973649 550.6524461350734 7.499999999999999
    vertex -50.466200698179016 551.1608744248133 7.499999999999999
  endloop
endfacet
facet normal -0.10755586638512715 -0.9941990422476502 0.0
  outer loop
    vertex -47.33511480496961 521.4510032504605 0.0
    vertex -55.85170200641946 522.372356899148 -4.045489999999994
    vertex -47.33511480496961 521.4510032504605 -4.045489999999994
  endloop
endfacet
facet normal -0.10755586638512715 -0.9941990422476502 0.0
  outer loop
    vertex -55.85170200641946 522.372356899148 -4.045489999999994
    vertex -47.33511480496961 521.4510032504605 0.0
    vertex -55.85170200641946 522.372356899148 0.0
  endloop
endfacet
facet normal -0.9147795601971849 -0.4039534085082647 0.0
  outer loop
    vertex -79.58555279519122 545.0326700868444 0.0
    vertex -76.12517486009907 537.1964123924997 -4.045489999999994
    vertex -76.12517486009907 537.1964123924997 0.0
  endloop
endfacet
facet normal -0.9147795601971849 -0.4039534085082647 0.0
  outer loop
    vertex -76.12517486009907 537.1964123924997 -4.045489999999994
    vertex -79.58555279519122 545.0326700868444 0.0
    vertex -79.58555279519122 545.0326700868444 -4.045489999999994
  endloop
endfacet
facet normal 0.7790583670997993 0.62695140214517 0.0
  outer loop
    vertex -21.51676670113806 573.1229895933718 -4.045489999999994
    vertex -20.063266184998398 571.3168500189039 0.0
    vertex -20.063266184998398 571.3168500189039 -4.045489999999994
  endloop
endfacet
facet normal 0.7790583670997993 0.62695140214517 0.0
  outer loop
    vertex -20.063266184998398 571.3168500189039 0.0
    vertex -21.51676670113806 573.1229895933718 -4.045489999999994
    vertex -25.433907334852307 577.9904819944735 0.0
  endloop
endfacet
facet normal 0.7790583670997993 0.62695140214517 0.0
  outer loop
    vertex -25.433907334852307 577.9904819944735 0.0
    vertex -21.51676670113806 573.1229895933718 -4.045489999999994
    vertex -25.433907334852307 577.9904819944735 -4.045489999999994
  endloop
endfacet
facet normal 0.15342665764609698 -0.988160038011833 0.0
  outer loop
    vertex -38.87025940369125 522.7652989330594 0.0
    vertex -47.33511480496961 521.4510032504605 -4.045489999999994
    vertex -38.87025940369125 522.7652989330594 -4.045489999999994
  endloop
endfacet
facet normal 0.15342665764609698 -0.988160038011833 0.0
  outer loop
    vertex -47.33511480496961 521.4510032504605 -4.045489999999994
    vertex -38.87025940369125 522.7652989330594 0.0
    vertex -47.33511480496961 521.4510032504605 0.0
  endloop
endfacet
facet normal -0.36120863586666213 -0.9324850247458911 0.0
  outer loop
    vertex -55.85170200641946 522.372356899148 0.0
    vertex -59.845665835503645 523.9194640248602 -4.045489999999994
    vertex -55.85170200641946 522.372356899148 -4.045489999999994
  endloop
endfacet
facet normal -0.36120863586666213 -0.9324850247458911 0.0
  outer loop
    vertex -59.845665835503645 523.9194640248602 -4.045489999999994
    vertex -55.85170200641946 522.372356899148 0.0
    vertex -63.839629664587825 525.4665711505723 -4.045489999999994
  endloop
endfacet
facet normal -0.36120863586666213 -0.9324850247458911 0.0
  outer loop
    vertex -63.839629664587825 525.4665711505723 -4.045489999999994
    vertex -55.85170200641946 522.372356899148 0.0
    vertex -63.839629664587825 525.4665711505723 0.0
  endloop
endfacet
facet normal 0.9999997497805525 0.0007074170144242568 0.0
  outer loop
    vertex -44.22794664285004 554.7684185513441 0.4999999999999984
    vertex -44.22758459568337 554.2566312057018 7.499999999999999
    vertex -44.22758459568337 554.2566312057018 0.4999999999999984
  endloop
endfacet
facet normal 0.9999997497805525 0.0007074170144242568 0.0
  outer loop
    vertex -44.22758459568337 554.2566312057018 7.499999999999999
    vertex -44.22794664285004 554.7684185513441 0.4999999999999984
    vertex -44.22794664285004 554.7684185513441 7.499999999999999
  endloop
endfacet
facet normal -0.6269514021451702 0.7790583670997989 0.0
  outer loop
    vertex -71.82807131132049 576.9169443933982 0.0
    vertex -65.1544393357509 582.2875855432521 -4.045489999999994
    vertex -71.82807131132049 576.9169443933982 -4.045489999999994
  endloop
endfacet
facet normal -0.6269514021451702 0.7790583670997989 0.0
  outer loop
    vertex -65.1544393357509 582.2875855432521 -4.045489999999994
    vertex -71.82807131132049 576.9169443933982 0.0
    vertex -65.1544393357509 582.2875855432521 0.0
  endloop
endfacet
facet normal 0.9661086775918016 -0.25813566797678433 0.0
  outer loop
    vertex -44.22722641854625 553.7503145067772 0.4999999999999984
    vertex -44.49003545192032 552.766715108514 7.499999999999999
    vertex -44.49003545192032 552.766715108514 0.4999999999999984
  endloop
endfacet
facet normal 0.9661086775918016 -0.25813566797678433 0.0
  outer loop
    vertex -44.49003545192032 552.766715108514 7.499999999999999
    vertex -44.22722641854625 553.7503145067772 0.4999999999999984
    vertex -44.22722641854625 553.7503145067772 7.499999999999999
  endloop
endfacet
facet normal -0.1534266576460868 0.9881600380118346 0.0
  outer loop
    vertex -57.318181641406206 585.7479634783442 0.0
    vertex -48.853326240127856 587.062259160943 -4.045489999999994
    vertex -57.318181641406206 585.7479634783442 -4.045489999999994
  endloop
endfacet
facet normal -0.1534266576460868 0.9881600380118346 0.0
  outer loop
    vertex -48.853326240127856 587.062259160943 -4.045489999999994
    vertex -57.318181641406206 585.7479634783442 0.0
    vertex -48.853326240127856 587.062259160943 0.0
  endloop
endfacet
facet normal 0.4993872337847219 0.8663788955952492 0.0
  outer loop
    vertex -46.604304425360986 557.8608162763303 7.499999999999999
    vertex -45.72224034691846 557.3523879865903 0.4999999999999984
    vertex -46.604304425360986 557.8608162763303 0.4999999999999984
  endloop
endfacet
facet normal 0.4993872337847219 0.8663788955952492 0.0
  outer loop
    vertex -45.72224034691846 557.3523879865903 0.4999999999999984
    vertex -46.604304425360986 557.8608162763303 7.499999999999999
    vertex -45.72224034691846 557.3523879865903 7.499999999999999
  endloop
endfacet
facet normal -0.2595022927051521 0.965742491599479 0.0
  outer loop
    vertex -49.589234450920955 557.8587046855149 7.499999999999999
    vertex -48.60600786819099 558.1229050854005 0.4999999999999984
    vertex -49.589234450920955 557.8587046855149 0.4999999999999984
  endloop
endfacet
facet normal -0.2595022927051521 0.965742491599479 0.0
  outer loop
    vertex -48.60600786819099 558.1229050854005 0.4999999999999984
    vertex -49.589234450920955 557.8587046855149 7.499999999999999
    vertex -48.60600786819099 558.1229050854005 7.499999999999999
  endloop
endfacet
facet normal -0.0007074170144210456 0.9999997497805526 0.0
  outer loop
    vertex -48.60600786819099 558.1229050854005 7.499999999999999
    vertex -47.58790382362409 558.1236253097043 0.4999999999999984
    vertex -48.60600786819099 558.1229050854005 0.4999999999999984
  endloop
endfacet
facet normal -0.0007074170144210456 0.9999997497805526 0.0
  outer loop
    vertex -47.58790382362409 558.1236253097043 0.4999999999999984
    vertex -48.60600786819099 558.1229050854005 7.499999999999999
    vertex -47.58790382362409 558.1236253097043 7.499999999999999
  endloop
endfacet
facet normal 0.5902456337393887 0.8072236938120606 0.0
  outer loop
    vertex -32.348811380509645 583.0466912608313 0.0
    vertex -25.433907334852307 577.9904819944735 -4.045489999999994
    vertex -32.348811380509645 583.0466912608313 -4.045489999999994
  endloop
endfacet
facet normal 0.5902456337393887 0.8072236938120606 0.0
  outer loop
    vertex -25.433907334852307 577.9904819944735 -4.045489999999994
    vertex -32.348811380509645 583.0466912608313 0.0
    vertex -25.433907334852307 577.9904819944735 0.0
  endloop
endfacet
facet normal 0.0007074170144511856 -0.9999997497805526 0.0
  outer loop
    vertex -48.09422052254874 550.3899952788364 7.499999999999999
    vertex -48.60053722147339 550.3896371016993 0.4999999999999984
    vertex -48.09422052254874 550.3899952788364 0.4999999999999984
  endloop
endfacet
facet normal 0.0007074170144511856 -0.9999997497805526 0.0
  outer loop
    vertex -48.60053722147339 550.3896371016993 0.4999999999999984
    vertex -48.09422052254874 550.3899952788364 7.499999999999999
    vertex -48.60053722147339 550.3896371016993 7.499999999999999
  endloop
endfacet
facet normal 0.2581356679767581 0.9661086775918084 0.0
  outer loop
    vertex -47.58790382362409 558.1236253097043 7.499999999999999
    vertex -46.604304425360986 557.8608162763303 0.4999999999999984
    vertex -47.58790382362409 558.1236253097043 0.4999999999999984
  endloop
endfacet
facet normal 0.2581356679767581 0.9661086775918084 0.0
  outer loop
    vertex -46.604304425360986 557.8608162763303 0.4999999999999984
    vertex -47.58790382362409 558.1236253097043 7.499999999999999
    vertex -46.604304425360986 557.8608162763303 7.499999999999999
  endloop
endfacet
facet normal 0.9999997497805526 0.0007074170144177445 0.0
  outer loop
    vertex -44.22758459568337 554.2566312057018 0.4999999999999984
    vertex -44.22722641854625 553.7503145067772 7.499999999999999
    vertex -44.22722641854625 553.7503145067772 0.4999999999999984
  endloop
endfacet
facet normal 0.9999997497805526 0.0007074170144177445 0.0
  outer loop
    vertex -44.22722641854625 553.7503145067772 7.499999999999999
    vertex -44.22758459568337 554.2566312057018 0.4999999999999984
    vertex -44.22758459568337 554.2566312057018 7.499999999999999
  endloop
endfacet
facet normal 0.8663788955952474 -0.4993872337847249 0.0
  outer loop
    vertex -44.49003545192032 552.766715108514 0.4999999999999984
    vertex -44.99846374166027 551.8846510300716 7.499999999999999
    vertex -44.99846374166027 551.8846510300716 0.4999999999999984
  endloop
endfacet
facet normal 0.8663788955952474 -0.4993872337847249 0.0
  outer loop
    vertex -44.99846374166027 551.8846510300716 7.499999999999999
    vertex -44.49003545192032 552.766715108514 0.4999999999999984
    vertex -44.49003545192032 552.766715108514 7.499999999999999
  endloop
endfacet
facet normal -0.6321266622101461 0.7748650740116372 0.0
  outer loop
    vertex -51.97038800126224 558.0163287569636 0.4999999999999984
    vertex -50.99885948070678 558.8088913611357 -1.4099832412739487e-15
    vertex -51.97038800126224 558.0163287569636 -1.4099832412739487e-15
  endloop
endfacet
facet normal -0.6321266622101461 0.7748650740116372 0.0
  outer loop
    vertex -50.99885948070678 558.8088913611357 -1.4099832412739487e-15
    vertex -51.97038800126224 558.0163287569636 0.4999999999999984
    vertex -50.99885948070678 558.8088913611357 0.4999999999999984
  endloop
endfacet
facet normal -0.2581356679767595 -0.9661086775918082 -0.0
  outer loop
    vertex -48.60053722147339 550.3896371016993 7.499999999999999
    vertex -49.58413661973649 550.6524461350734 0.4999999999999984
    vertex -48.60053722147339 550.3896371016993 0.4999999999999984
  endloop
endfacet
facet normal -0.2581356679767595 -0.9661086775918082 -0.0
  outer loop
    vertex -49.58413661973649 550.6524461350734 0.4999999999999984
    vertex -48.60053722147339 550.3896371016993 7.499999999999999
    vertex -49.58413661973649 550.6524461350734 7.499999999999999
  endloop
endfacet
facet normal -0.8728607753725226 -0.4879693297903863 -0.0
  outer loop
    vertex -53.08170687921308 552.1866119202633 0.4999999999999984
    vertex -52.469889239022784 551.0922160490463 -1.4099832412739487e-15
    vertex -52.469889239022784 551.0922160490463 0.4999999999999984
  endloop
endfacet
facet normal -0.8728607753725226 -0.4879693297903863 -0.0
  outer loop
    vertex -52.469889239022784 551.0922160490463 -1.4099832412739487e-15
    vertex -53.08170687921308 552.1866119202633 0.4999999999999984
    vertex -53.08170687921308 552.1866119202633 -1.4099832412739487e-15
  endloop
endfacet
facet normal -0.8663788955952474 0.4993872337847249 0.0
  outer loop
    vertex -51.18997730343721 556.6286113813321 7.499999999999999
    vertex -51.698405593177164 555.7465473028896 0.4999999999999984
    vertex -51.698405593177164 555.7465473028896 7.499999999999999
  endloop
endfacet
facet normal -0.8663788955952474 0.4993872337847249 0.0
  outer loop
    vertex -51.698405593177164 555.7465473028896 0.4999999999999984
    vertex -51.18997730343721 556.6286113813321 7.499999999999999
    vertex -51.18997730343721 556.6286113813321 0.4999999999999984
  endloop
endfacet
facet normal 0.8072236938120626 -0.5902456337393861 0.0
  outer loop
    vertex -19.3041604674193 538.5112220636627 -4.045489999999994
    vertex -24.36036973377699 531.5963180180054 0.0
    vertex -24.36036973377699 531.5963180180054 -4.045489999999994
  endloop
endfacet
facet normal 0.8072236938120626 -0.5902456337393861 0.0
  outer loop
    vertex -24.36036973377699 531.5963180180054 0.0
    vertex -19.3041604674193 538.5112220636627 -4.045489999999994
    vertex -19.3041604674193 538.5112220636627 0.0
  endloop
endfacet
facet normal -0.9941990422476505 0.10755586638512302 0.0
  outer loop
    vertex -79.9784948291026 562.0141126895725 0.0
    vertex -80.89984847779 553.4975254881227 -4.045489999999994
    vertex -80.89984847779 553.4975254881227 0.0
  endloop
endfacet
facet normal -0.9941990422476505 0.10755586638512302 0.0
  outer loop
    vertex -80.89984847779 553.4975254881227 -4.045489999999994
    vertex -79.9784948291026 562.0141126895725 0.0
    vertex -79.9784948291026 562.0141126895725 -4.045489999999994
  endloop
endfacet
facet normal 0.9871161697044655 0.16000521087759895 0.0
  outer loop
    vertex -42.90014319325313 555.7336419359599 -1.4099832412739487e-15
    vertex -42.69952810422831 554.4959922545718 0.4999999999999984
    vertex -42.69952810422831 554.4959922545718 -1.4099832412739487e-15
  endloop
endfacet
facet normal 0.9871161697044655 0.16000521087759895 0.0
  outer loop
    vertex -42.69952810422831 554.4959922545718 0.4999999999999984
    vertex -42.90014319325313 555.7336419359599 -1.4099832412739487e-15
    vertex -42.90014319325313 555.7336419359599 0.4999999999999984
  endloop
endfacet
facet normal -0.7076068236227124 0.7066063848866464 0.0
  outer loop
    vertex -50.47057830505969 557.349028930688 7.499999999999999
    vertex -51.18997730343721 556.6286113813321 0.4999999999999984
    vertex -51.18997730343721 556.6286113813321 7.499999999999999
  endloop
endfacet
facet normal -0.7076068236227124 0.7066063848866464 0.0
  outer loop
    vertex -51.18997730343721 556.6286113813321 0.4999999999999984
    vertex -50.47057830505969 557.349028930688 7.499999999999999
    vertex -50.47057830505969 557.349028930688 0.4999999999999984
  endloop
endfacet
facet normal -0.9990171145037827 -0.044326120161096834 -0.0
  outer loop
    vertex -53.48022408233563 554.6451741942669 0.4999999999999984
    vertex -53.424647838952865 553.3926030669627 -1.4099832412739487e-15
    vertex -53.424647838952865 553.3926030669627 0.4999999999999984
  endloop
endfacet
facet normal -0.9990171145037827 -0.044326120161096834 -0.0
  outer loop
    vertex -53.424647838952865 553.3926030669627 -1.4099832412739487e-15
    vertex -53.48022408233563 554.6451741942669 0.4999999999999984
    vertex -53.48022408233563 554.6451741942669 -1.4099832412739487e-15
  endloop
endfacet
facet normal 0.8590242235523934 -0.5119349405444089 0.0
  outer loop
    vertex -43.16592225052763 552.0493985170181 -1.4099832412739487e-15
    vertex -43.80778805670314 550.9723509625214 0.4999999999999984
    vertex -43.80778805670314 550.9723509625214 -1.4099832412739487e-15
  endloop
endfacet
facet normal 0.8590242235523934 -0.5119349405444089 0.0
  outer loop
    vertex -43.80778805670314 550.9723509625214 0.4999999999999984
    vertex -43.16592225052763 552.0493985170181 -1.4099832412739487e-15
    vertex -43.16592225052763 552.0493985170181 0.4999999999999984
  endloop
endfacet
facet normal 0.4039534085082604 -0.914779560197187 0.0
  outer loop
    vertex -31.034001709346573 526.2256768681515 0.0
    vertex -38.87025940369125 522.7652989330594 -4.045489999999994
    vertex -31.034001709346573 526.2256768681515 -4.045489999999994
  endloop
endfacet
facet normal 0.4039534085082604 -0.914779560197187 0.0
  outer loop
    vertex -38.87025940369125 522.7652989330594 -4.045489999999994
    vertex -31.034001709346573 526.2256768681515 0.0
    vertex -38.87025940369125 522.7652989330594 0.0
  endloop
endfacet
facet normal -0.5902456337393872 -0.8072236938120619 0.0
  outer loop
    vertex -63.839629664587825 525.4665711505723 0.0
    vertex -70.75453371024513 530.52278041693 -4.045489999999994
    vertex -63.839629664587825 525.4665711505723 -4.045489999999994
  endloop
endfacet
facet normal -0.5902456337393872 -0.8072236938120619 0.0
  outer loop
    vertex -70.75453371024513 530.52278041693 -4.045489999999994
    vertex -63.839629664587825 525.4665711505723 0.0
    vertex -70.75453371024513 530.52278041693 0.0
  endloop
endfacet
facet normal 0.9941990422476505 -0.10755586638512334 0.0
  outer loop
    vertex -15.288592567307484 555.0157369232809 -4.045489999999994
    vertex -16.209946215994872 546.499149721831 0.0
    vertex -16.209946215994872 546.499149721831 -4.045489999999994
  endloop
endfacet
facet normal 0.9941990422476505 -0.10755586638512334 0.0
  outer loop
    vertex -16.209946215994872 546.499149721831 0.0
    vertex -15.288592567307484 555.0157369232809 -4.045489999999994
    vertex -15.288592567307484 555.0157369232809 0.0
  endloop
endfacet
facet normal 0.0 0.0 -1.0
  outer loop
    vertex -79.9784948291026 562.0141126895725 -4.045489999999994
    vertex -79.58555279519122 545.0326700868444 -4.045489999999994
    vertex -80.89984847779 553.4975254881227 -4.045489999999994
  endloop
endfacet
facet normal 0.0 0.0 -1.0
  outer loop
    vertex -79.58555279519122 545.0326700868444 -4.045489999999994
    vertex -79.9784948291026 562.0141126895725 -4.045489999999994
    vertex -76.88428057767817 570.002040347741 -4.045489999999994
  endloop
endfacet
facet normal 0.0 0.0 -1.0
  outer loop
    vertex -79.58555279519122 545.0326700868444 -4.045489999999994
    vertex -76.88428057767817 570.002040347741 -4.045489999999994
    vertex -76.12517486009907 537.1964123924997 -4.045489999999994
  endloop
endfacet
facet normal 0.0 0.0 -1.0
  outer loop
    vertex -76.12517486009907 537.1964123924997 -4.045489999999994
    vertex -76.88428057767817 570.002040347741 -4.045489999999994
    vertex -71.82807131132049 576.9169443933982 -4.045489999999994
  endloop
endfacet
facet normal 0.0 0.0 -1.0
  outer loop
    vertex -76.12517486009907 537.1964123924997 -4.045489999999994
    vertex -71.82807131132049 576.9169443933982 -4.045489999999994
    vertex -70.75453371024513 530.52278041693 -4.045489999999994
  endloop
endfacet
facet normal 0.0 0.0 -1.0
  outer loop
    vertex -70.75453371024513 530.52278041693 -4.045489999999994
    vertex -71.82807131132049 576.9169443933982 -4.045489999999994
    vertex -65.1544393357509 582.2875855432521 -4.045489999999994
  endloop
endfacet
facet normal 0.0 0.0 -1.0
  outer loop
    vertex -70.75453371024513 530.52278041693 -4.045489999999994
    vertex -65.1544393357509 582.2875855432521 -4.045489999999994
    vertex -63.839629664587825 525.4665711505723 -4.045489999999994
  endloop
endfacet
facet normal 0.0 0.0 -1.0
  outer loop
    vertex -63.839629664587825 525.4665711505723 -4.045489999999994
    vertex -65.1544393357509 582.2875855432521 -4.045489999999994
    vertex -57.318181641406206 585.7479634783442 -4.045489999999994
  endloop
endfacet
facet normal 0.0 0.0 -1.0
  outer loop
    vertex -63.839629664587825 525.4665711505723 -4.045489999999994
    vertex -57.318181641406206 585.7479634783442 -4.045489999999994
    vertex -59.845665835503645 523.9194640248602 -4.045489999999994
  endloop
endfacet
facet normal 0.0 0.0 -1.0
  outer loop
    vertex -59.845665835503645 523.9194640248602 -4.045489999999994
    vertex -57.318181641406206 585.7479634783442 -4.045489999999994
    vertex -55.85170200641946 522.372356899148 -4.045489999999994
  endloop
endfacet
facet normal 0.0 0.0 -1.0
  outer loop
    vertex -55.85170200641946 522.372356899148 -4.045489999999994
    vertex -57.318181641406206 585.7479634783442 -4.045489999999994
    vertex -48.853326240127856 587.062259160943 -4.045489999999994
  endloop
endfacet
facet normal 0.0 0.0 -1.0
  outer loop
    vertex -55.85170200641946 522.372356899148 -4.045489999999994
    vertex -48.853326240127856 587.062259160943 -4.045489999999994
    vertex -47.33511480496961 521.4510032504605 -4.045489999999994
  endloop
endfacet
facet normal 0.0 0.0 -1.0
  outer loop
    vertex -47.33511480496961 521.4510032504605 -4.045489999999994
    vertex -48.853326240127856 587.062259160943 -4.045489999999994
    vertex -40.336739038678 586.1409055122557 -4.045489999999994
  endloop
endfacet
facet normal 0.0 0.0 -1.0
  outer loop
    vertex -47.33511480496961 521.4510032504605 -4.045489999999994
    vertex -40.336739038678 586.1409055122557 -4.045489999999994
    vertex -38.87025940369125 522.7652989330594 -4.045489999999994
  endloop
endfacet
facet normal 0.0 0.0 -1.0
  outer loop
    vertex -38.87025940369125 522.7652989330594 -4.045489999999994
    vertex -40.336739038678 586.1409055122557 -4.045489999999994
    vertex -32.348811380509645 583.0466912608313 -4.045489999999994
  endloop
endfacet
facet normal 0.0 0.0 -1.0
  outer loop
    vertex -38.87025940369125 522.7652989330594 -4.045489999999994
    vertex -32.348811380509645 583.0466912608313 -4.045489999999994
    vertex -31.034001709346573 526.2256768681515 -4.045489999999994
  endloop
endfacet
facet normal 0.0 0.0 -1.0
  outer loop
    vertex -31.034001709346573 526.2256768681515 -4.045489999999994
    vertex -32.348811380509645 583.0466912608313 -4.045489999999994
    vertex -25.433907334852307 577.9904819944735 -4.045489999999994
  endloop
endfacet
facet normal 0.0 0.0 -1.0
  outer loop
    vertex -31.034001709346573 526.2256768681515 -4.045489999999994
    vertex -25.433907334852307 577.9904819944735 -4.045489999999994
    vertex -24.36036973377699 531.5963180180054 -4.045489999999994
  endloop
endfacet
facet normal 0.0 0.0 -1.0
  outer loop
    vertex -24.36036973377699 531.5963180180054 -4.045489999999994
    vertex -25.433907334852307 577.9904819944735 -4.045489999999994
    vertex -21.51676670113806 573.1229895933718 -4.045489999999994
  endloop
endfacet
facet normal 0.0 0.0 -1.0
  outer loop
    vertex -24.36036973377699 531.5963180180054 -4.045489999999994
    vertex -21.51676670113806 573.1229895933718 -4.045489999999994
    vertex -19.3041604674193 538.5112220636627 -4.045489999999994
  endloop
endfacet
facet normal 0.0 0.0 -1.0
  outer loop
    vertex -19.3041604674193 538.5112220636627 -4.045489999999994
    vertex -21.51676670113806 573.1229895933718 -4.045489999999994
    vertex -20.063266184998398 571.3168500189039 -4.045489999999994
  endloop
endfacet
facet normal 0.0 0.0 -1.0
  outer loop
    vertex -19.3041604674193 538.5112220636627 -4.045489999999994
    vertex -20.063266184998398 571.3168500189039 -4.045489999999994
    vertex -16.602888249906247 563.4805923245592 -4.045489999999994
  endloop
endfacet
facet normal 0.0 0.0 -1.0
  outer loop
    vertex -19.3041604674193 538.5112220636627 -4.045489999999994
    vertex -16.602888249906247 563.4805923245592 -4.045489999999994
    vertex -16.209946215994872 546.499149721831 -4.045489999999994
  endloop
endfacet
facet normal 0.0 0.0 -1.0
  outer loop
    vertex -16.209946215994872 546.499149721831 -4.045489999999994
    vertex -16.602888249906247 563.4805923245592 -4.045489999999994
    vertex -15.288592567307484 555.0157369232809 -4.045489999999994
  endloop
endfacet
facet normal -0.9881600380118343 -0.1534266576460901 0.0
  outer loop
    vertex -80.89984847779 553.4975254881227 0.0
    vertex -79.58555279519122 545.0326700868444 -4.045489999999994
    vertex -79.58555279519122 545.0326700868444 0.0
  endloop
endfacet
facet normal -0.9881600380118343 -0.1534266576460901 0.0
  outer loop
    vertex -79.58555279519122 545.0326700868444 -4.045489999999994
    vertex -80.89984847779 553.4975254881227 0.0
    vertex -80.89984847779 553.4975254881227 -4.045489999999994
  endloop
endfacet
facet normal -0.5006125159958259 0.865671478580835 0.0
  outer loop
    vertex -50.47057830505969 557.349028930688 7.499999999999999
    vertex -49.589234450920955 557.8587046855149 0.4999999999999984
    vertex -50.47057830505969 557.349028930688 0.4999999999999984
  endloop
endfacet
facet normal -0.5006125159958259 0.865671478580835 0.0
  outer loop
    vertex -49.589234450920955 557.8587046855149 0.4999999999999984
    vertex -50.47057830505969 557.349028930688 7.499999999999999
    vertex -49.589234450920955 557.8587046855149 7.499999999999999
  endloop
endfacet
facet normal 0.24405737973744335 0.9697607928740436 0.0
  outer loop
    vertex -47.39316663173 559.6109307343206 0.4999999999999984
    vertex -46.17727718207927 559.3049307441038 -1.4099832412739487e-15
    vertex -47.39316663173 559.6109307343206 -1.4099832412739487e-15
  endloop
endfacet
facet normal 0.24405737973744335 0.9697607928740436 0.0
  outer loop
    vertex -46.17727718207927 559.3049307441038 -1.4099832412739487e-15
    vertex -47.39316663173 559.6109307343206 0.4999999999999984
    vertex -46.17727718207927 559.3049307441038 0.4999999999999984
  endloop
endfacet
facet normal 0.6269514021451705 -0.7790583670997987 0.0
  outer loop
    vertex -24.36036973377699 531.5963180180054 0.0
    vertex -31.034001709346573 526.2256768681515 -4.045489999999994
    vertex -24.36036973377699 531.5963180180054 -4.045489999999994
  endloop
endfacet
facet normal 0.6269514021451705 -0.7790583670997987 0.0
  outer loop
    vertex -31.034001709346573 526.2256768681515 -4.045489999999994
    vertex -24.36036973377699 531.5963180180054 0.0
    vertex -31.034001709346573 526.2256768681515 0.0
  endloop
endfacet
facet normal 0.7066063848866659 0.7076068236226931 0.0
  outer loop
    vertex -45.72224034691846 557.3523879865903 7.499999999999999
    vertex -45.00182279756257 556.6329889882128 0.4999999999999984
    vertex -45.72224034691846 557.3523879865903 0.4999999999999984
  endloop
endfacet
facet normal 0.7066063848866659 0.7076068236226931 0.0
  outer loop
    vertex -45.00182279756257 556.6329889882128 0.4999999999999984
    vertex -45.72224034691846 557.3523879865903 7.499999999999999
    vertex -45.00182279756257 556.6329889882128 7.499999999999999
  endloop
endfacet
facet normal 0.7178087923543446 -0.6962402872707076 0.0
  outer loop
    vertex -43.80778805670314 550.9723509625214 -1.4099832412739487e-15
    vertex -44.6807365466141 550.0723598060389 0.4999999999999984
    vertex -44.6807365466141 550.0723598060389 -1.4099832412739487e-15
  endloop
endfacet
facet normal 0.7178087923543446 -0.6962402872707076 0.0
  outer loop
    vertex -44.6807365466141 550.0723598060389 0.4999999999999984
    vertex -43.80778805670314 550.9723509625214 -1.4099832412739487e-15
    vertex -43.80778805670314 550.9723509625214 0.4999999999999984
  endloop
endfacet
facet normal 0.4611210111411668 0.8873372600562586 0.0
  outer loop
    vertex -46.17727718207927 559.3049307441038 0.4999999999999984
    vertex -45.064730644095526 558.726775619068 -1.4099832412739487e-15
    vertex -46.17727718207927 559.3049307441038 -1.4099832412739487e-15
  endloop
endfacet
facet normal 0.4611210111411668 0.8873372600562586 0.0
  outer loop
    vertex -45.064730644095526 558.726775619068 -1.4099832412739487e-15
    vertex -46.17727718207927 559.3049307441038 0.4999999999999984
    vertex -45.064730644095526 558.726775619068 0.4999999999999984
  endloop
endfacet
facet normal 0.9974080666271982 -0.07195240528984782 0.0
  outer loop
    vertex -42.69952810422831 554.4959922545718 -1.4099832412739487e-15
    vertex -42.78974227983922 553.2454385570827 0.4999999999999984
    vertex -42.78974227983922 553.2454385570827 -1.4099832412739487e-15
  endloop
endfacet
facet normal 0.9974080666271982 -0.07195240528984782 0.0
  outer loop
    vertex -42.78974227983922 553.2454385570827 0.4999999999999984
    vertex -42.69952810422831 554.4959922545718 -1.4099832412739487e-15
    vertex -42.69952810422831 554.4959922545718 0.4999999999999984
  endloop
endfacet
facet normal -0.9661086775918016 0.25813566797678433 0.0
  outer loop
    vertex -51.698405593177164 555.7465473028896 7.499999999999999
    vertex -51.96121462655123 554.7629479046265 0.4999999999999984
    vertex -51.96121462655123 554.7629479046265 7.499999999999999
  endloop
endfacet
facet normal -0.9661086775918016 0.25813566797678433 0.0
  outer loop
    vertex -51.96121462655123 554.7629479046265 0.4999999999999984
    vertex -51.698405593177164 555.7465473028896 7.499999999999999
    vertex -51.698405593177164 555.7465473028896 0.4999999999999984
  endloop
endfacet
facet normal 0.9147795601971854 0.40395340850826367 0.0
  outer loop
    vertex -20.063266184998398 571.3168500189039 -4.045489999999994
    vertex -16.602888249906247 563.4805923245592 0.0
    vertex -16.602888249906247 563.4805923245592 -4.045489999999994
  endloop
endfacet
facet normal 0.9147795601971854 0.40395340850826367 0.0
  outer loop
    vertex -16.602888249906247 563.4805923245592 0.0
    vertex -20.063266184998398 571.3168500189039 -4.045489999999994
    vertex -20.063266184998398 571.3168500189039 0.0
  endloop
endfacet
facet normal -0.43639142246916934 0.8997569262836129 0.0
  outer loop
    vertex -50.99885948070678 558.8088913611357 0.4999999999999984
    vertex -49.870741122079245 559.3560404420197 -1.4099832412739487e-15
    vertex -50.99885948070678 558.8088913611357 -1.4099832412739487e-15
  endloop
endfacet
facet normal -0.43639142246916934 0.8997569262836129 0.0
  outer loop
    vertex -49.870741122079245 559.3560404420197 -1.4099832412739487e-15
    vertex -50.99885948070678 558.8088913611357 0.4999999999999984
    vertex -49.870741122079245 559.3560404420197 0.4999999999999984
  endloop
endfacet
facet normal 0.8103090215692725 0.5860028067880291 0.0
  outer loop
    vertex -44.11550468961343 557.907633851654 -1.4099832412739487e-15
    vertex -43.380772335537095 556.8916655865698 0.4999999999999984
    vertex -43.380772335537095 556.8916655865698 -1.4099832412739487e-15
  endloop
endfacet
facet normal 0.8103090215692725 0.5860028067880291 0.0
  outer loop
    vertex -43.380772335537095 556.8916655865698 0.4999999999999984
    vertex -44.11550468961343 557.907633851654 -1.4099832412739487e-15
    vertex -44.11550468961343 557.907633851654 0.4999999999999984
  endloop
endfacet
facet normal 0.32898529620933076 -0.944335043762572 0.0
  outer loop
    vertex -45.73770684121507 549.3979438037703 0.4999999999999984
    vertex -46.921717398337584 548.9854608969644 -1.4099832412739487e-15
    vertex -45.73770684121507 549.3979438037703 -1.4099832412739487e-15
  endloop
endfacet
facet normal 0.32898529620933076 -0.944335043762572 0.0
  outer loop
    vertex -46.921717398337584 548.9854608969644 -1.4099832412739487e-15
    vertex -45.73770684121507 549.3979438037703 0.4999999999999984
    vertex -46.921717398337584 548.9854608969644 0.4999999999999984
  endloop
endfacet
facet normal -0.9618661720917783 -0.2735205056033454 -0.0
  outer loop
    vertex -53.424647838952865 553.3926030669627 0.4999999999999984
    vertex -53.08170687921308 552.1866119202633 -1.4099832412739487e-15
    vertex -53.08170687921308 552.1866119202633 0.4999999999999984
  endloop
endfacet
facet normal -0.9618661720917783 -0.2735205056033454 -0.0
  outer loop
    vertex -53.08170687921308 552.1866119202633 -1.4099832412739487e-15
    vertex -53.424647838952865 553.3926030669627 0.4999999999999984
    vertex -53.424647838952865 553.3926030669627 -1.4099832412739487e-15
  endloop
endfacet
facet normal 0.93248502474589 -0.3612086358666647 0.0
  outer loop
    vertex -16.209946215994872 546.499149721831 -4.045489999999994
    vertex -19.3041604674193 538.5112220636627 0.0
    vertex -19.3041604674193 538.5112220636627 -4.045489999999994
  endloop
endfacet
facet normal 0.93248502474589 -0.3612086358666647 0.0
  outer loop
    vertex -19.3041604674193 538.5112220636627 0.0
    vertex -16.209946215994872 546.499149721831 -4.045489999999994
    vertex -16.209946215994872 546.499149721831 0.0
  endloop
endfacet
facet normal -0.9823107856869462 0.18725789789243782 0.0
  outer loop
    vertex -53.24543947969521 555.8767988684871 0.4999999999999984
    vertex -53.48022408233563 554.6451741942669 -1.4099832412739487e-15
    vertex -53.48022408233563 554.6451741942669 0.4999999999999984
  endloop
endfacet
facet normal -0.9823107856869462 0.18725789789243782 0.0
  outer loop
    vertex -53.48022408233563 554.6451741942669 -1.4099832412739487e-15
    vertex -53.24543947969521 555.8767988684871 0.4999999999999984
    vertex -53.24543947969521 555.8767988684871 -1.4099832412739487e-15
  endloop
endfacet
facet normal 0.5006125159958282 -0.8656714785808337 0.0
  outer loop
    vertex -45.717862740037795 551.1642334807156 7.499999999999999
    vertex -46.59920659417653 550.6545577258887 0.4999999999999984
    vertex -45.717862740037795 551.1642334807156 0.4999999999999984
  endloop
endfacet
facet normal 0.5006125159958282 -0.8656714785808337 0.0
  outer loop
    vertex -46.59920659417653 550.6545577258887 0.4999999999999984
    vertex -45.717862740037795 551.1642334807156 7.499999999999999
    vertex -46.59920659417653 550.6545577258887 7.499999999999999
  endloop
endfacet
facet normal 0.9236085845674676 0.38333690471082854 0.0
  outer loop
    vertex -43.380772335537095 556.8916655865698 -1.4099832412739487e-15
    vertex -42.90014319325313 555.7336419359599 0.4999999999999984
    vertex -42.90014319325313 555.7336419359599 -1.4099832412739487e-15
  endloop
endfacet
facet normal 0.9236085845674676 0.38333690471082854 0.0
  outer loop
    vertex -42.90014319325313 555.7336419359599 0.4999999999999984
    vertex -43.380772335537095 556.8916655865698 -1.4099832412739487e-15
    vertex -43.380772335537095 556.8916655865698 0.4999999999999984
  endloop
endfacet
facet normal -0.9657424915994817 -0.2595022927051418 -0.0
  outer loop
    vertex -51.96049440224744 553.7448438600595 7.499999999999999
    vertex -51.696294002361874 552.7616172773296 0.4999999999999984
    vertex -51.696294002361874 552.7616172773296 7.499999999999999
  endloop
endfacet
facet normal -0.9657424915994817 -0.2595022927051418 -0.0
  outer loop
    vertex -51.696294002361874 552.7616172773296 0.4999999999999984
    vertex -51.96049440224744 553.7448438600595 7.499999999999999
    vertex -51.96049440224744 553.7448438600595 0.4999999999999984
  endloop
endfacet
facet normal -0.9324850247458898 0.3612086358666653 0.0
  outer loop
    vertex -76.88428057767817 570.002040347741 0.0
    vertex -79.9784948291026 562.0141126895725 -4.045489999999994
    vertex -79.9784948291026 562.0141126895725 0.0
  endloop
endfacet
facet normal -0.9324850247458898 0.3612086358666653 0.0
  outer loop
    vertex -79.9784948291026 562.0141126895725 -4.045489999999994
    vertex -76.88428057767817 570.002040347741 0.0
    vertex -76.88428057767817 570.002040347741 -4.045489999999994
  endloop
endfacet
endsolid splunk-spinner-v3
