solid special edition spinner
facet normal -4.4109920183690853e-32 7.455197777525218e-32 -1.0
  outer loop
    vertex -1.1510554531372958 -80.04516335178131 -1.4999999999999944
    vertex -1.1510554531372938 -81.04782922029572 -1.4999999999999944
    vertex -1.1825966478793823 -80.5464962860385 -1.4999999999999944
  endloop
endfacet
facet normal -4.4109920183690853e-32 7.455197777525218e-32 -1.0
  outer loop
    vertex -1.1510554531372938 -81.04782922029572 -1.4999999999999944
    vertex -1.1510554531372958 -80.04516335178131 -1.4999999999999944
    vertex -1.056929292393911 -79.5517367373791 -1.4999999999999944
  endloop
endfacet
facet normal -4.4109920183690853e-32 7.455197777525218e-32 -1.0
  outer loop
    vertex -1.1510554531372938 -81.04782922029572 -1.4999999999999944
    vertex -1.056929292393911 -79.5517367373791 -1.4999999999999944
    vertex -1.0569292923939069 -81.54125583469792 -1.4999999999999944
  endloop
endfacet
facet normal -4.4109920183690853e-32 7.455197777525218e-32 -1.0
  outer loop
    vertex -1.0569292923939069 -81.54125583469792 -1.4999999999999944
    vertex -1.056929292393911 -79.5517367373791 -1.4999999999999944
    vertex -0.9017025914323945 -79.07399807529981 -1.4999999999999944
  endloop
endfacet
facet normal -4.4109920183690853e-32 7.455197777525218e-32 -1.0
  outer loop
    vertex -1.0569292923939069 -81.54125583469792 -1.4999999999999944
    vertex -0.9017025914323945 -79.07399807529981 -1.4999999999999944
    vertex -0.9017025914323874 -82.01899449677722 -1.4999999999999944
  endloop
endfacet
facet normal -4.4109920183690853e-32 7.455197777525218e-32 -1.0
  outer loop
    vertex -0.9017025914323874 -82.01899449677722 -1.4999999999999944
    vertex -0.9017025914323945 -79.07399807529981 -1.4999999999999944
    vertex -0.6878233680548455 -78.61948158963168 -1.4999999999999944
  endloop
endfacet
facet normal -4.4109920183690853e-32 7.455197777525218e-32 -1.0
  outer loop
    vertex -0.9017025914323874 -82.01899449677722 -1.4999999999999944
    vertex -0.6878233680548455 -78.61948158963168 -1.4999999999999944
    vertex -0.6878233680548369 -82.47351098244538 -1.4999999999999944
  endloop
endfacet
facet normal -4.4109920183690853e-32 7.455197777525218e-32 -1.0
  outer loop
    vertex -0.6878233680548369 -82.47351098244538 -1.4999999999999944
    vertex -0.6878233680548455 -78.61948158963168 -1.4999999999999944
    vertex -0.4186646253791822 -78.19535527686864 -1.4999999999999944
  endloop
endfacet
facet normal -4.4109920183690853e-32 7.455197777525218e-32 -1.0
  outer loop
    vertex -0.6878233680548369 -82.47351098244538 -1.4999999999999944
    vertex -0.4186646253791822 -78.19535527686864 -1.4999999999999944
    vertex -0.4186646253791723 -82.89763729520841 -1.4999999999999944
  endloop
endfacet
facet normal -4.4109920183690853e-32 7.455197777525218e-32 -1.0
  outer loop
    vertex -0.4186646253791723 -82.89763729520841 -1.4999999999999944
    vertex -0.4186646253791822 -78.19535527686864 -1.4999999999999944
    vertex -0.09847115756503984 -77.80830786232377 -1.4999999999999944
  endloop
endfacet
facet normal -4.4109920183690853e-32 7.455197777525218e-32 -1.0
  outer loop
    vertex -0.4186646253791723 -82.89763729520841 -1.4999999999999944
    vertex -0.09847115756503984 -77.80830786232377 -1.4999999999999944
    vertex -0.0984711575650289 -83.28468470975326 -1.4999999999999944
  endloop
endfacet
facet normal -4.4109920183690853e-32 7.455197777525218e-32 -1.0
  outer loop
    vertex -0.0984711575650289 -83.28468470975326 -1.4999999999999944
    vertex -0.09847115756503984 -77.80830786232377 -1.4999999999999944
    vertex 0.2677073931258463 -77.46444331493537 -1.4999999999999944
  endloop
endfacet
facet normal -4.4109920183690853e-32 7.455197777525218e-32 -1.0
  outer loop
    vertex -0.0984711575650289 -83.28468470975326 -1.4999999999999944
    vertex 0.2677073931258463 -77.46444331493537 -1.4999999999999944
    vertex 0.26770739312585795 -83.62854925714167 -1.4999999999999944
  endloop
endfacet
facet normal -4.4109920183690853e-32 7.455197777525218e-32 -1.0
  outer loop
    vertex 0.26770739312585795 -83.62854925714167 -1.4999999999999944
    vertex 0.2677073931258463 -77.46444331493537 -1.4999999999999944
    vertex 0.6740961722046184 -77.16918458403046 -1.4999999999999944
  endloop
endfacet
facet normal -4.4109920183690853e-32 7.455197777525218e-32 -1.0
  outer loop
    vertex 0.26770739312585795 -83.62854925714167 -1.4999999999999944
    vertex 0.6740961722046184 -77.16918458403046 -1.4999999999999944
    vertex 0.6740961722046304 -83.92380798804658 -1.4999999999999944
  endloop
endfacet
facet normal -4.4109920183690853e-32 7.455197777525218e-32 -1.0
  outer loop
    vertex 0.6740961722046304 -83.92380798804658 -1.4999999999999944
    vertex 0.6740961722046184 -77.16918458403046 -1.4999999999999944
    vertex 1.1142861858603137 -76.92718807617445 -1.4999999999999944
  endloop
endfacet
facet normal -4.4109920183690853e-32 7.455197777525218e-32 -1.0
  outer loop
    vertex 0.6740961722046304 -83.92380798804658 -1.4999999999999944
    vertex 1.1142861858603137 -76.92718807617445 -1.4999999999999944
    vertex 1.1142861858603257 -84.16580449590259 -1.4999999999999944
  endloop
endfacet
facet normal -4.4109920183690853e-32 7.455197777525218e-32 -1.0
  outer loop
    vertex 1.1142861858603257 -84.16580449590259 -1.4999999999999944
    vertex 1.1142861858603137 -76.92718807617445 -1.4999999999999944
    vertex 1.5813353746208145 -76.7422702208579 -1.4999999999999944
  endloop
endfacet
facet normal -4.4109920183690853e-32 7.455197777525218e-32 -1.0
  outer loop
    vertex 1.1142861858603257 -84.16580449590259 -1.4999999999999944
    vertex 1.5813353746208145 -76.7422702208579 -1.4999999999999944
    vertex 1.581335374620826 -84.35072235121913 -1.4999999999999944
  endloop
endfacet
facet normal -4.4109920183690853e-32 7.455197777525218e-32 -1.0
  outer loop
    vertex 1.581335374620826 -84.35072235121913 -1.4999999999999944
    vertex 1.5813353746208145 -76.7422702208579 -1.4999999999999944
    vertex 2.0678780937777055 -76.61734728312376 -1.4999999999999944
  endloop
endfacet
facet normal -4.4109920183690853e-32 7.455197777525218e-32 -1.0
  outer loop
    vertex 1.581335374620826 -84.35072235121913 -1.4999999999999944
    vertex 2.0678780937777055 -76.61734728312376 -1.4999999999999944
    vertex 2.0678780937777166 -84.47564528895327 -1.4999999999999944
  endloop
endfacet
facet normal -4.4109920183690853e-32 7.455197777525218e-32 -1.0
  outer loop
    vertex 2.0678780937777166 -84.47564528895327 -1.4999999999999944
    vertex 2.0678780937777055 -76.61734728312376 -1.4999999999999944
    vertex 2.566241274003351 -76.55438937232542 -1.4999999999999944
  endloop
endfacet
facet normal -4.4109920183690853e-32 7.455197777525218e-32 -1.0
  outer loop
    vertex 2.0678780937777166 -84.47564528895327 -1.4999999999999944
    vertex 2.566241274003351 -76.55438937232542 -1.4999999999999944
    vertex 2.566241274003362 -84.5386031997516 -1.4999999999999944
  endloop
endfacet
facet normal -4.4109920183690853e-32 7.455197777525218e-32 -1.0
  outer loop
    vertex 2.566241274003362 -84.5386031997516 -1.4999999999999944
    vertex 2.566241274003351 -76.55438937232542 -1.4999999999999944
    vertex 3.0685654302378587 -76.55438937232542 -1.4999999999999944
  endloop
endfacet
facet normal -4.4109920183690853e-32 7.455197777525218e-32 -1.0
  outer loop
    vertex 2.566241274003362 -84.5386031997516 -1.4999999999999944
    vertex 3.0685654302378587 -76.55438937232542 -1.4999999999999944
    vertex 3.0685654302378684 -84.5386031997516 -1.4999999999999944
  endloop
endfacet
facet normal -4.4109920183690853e-32 7.455197777525218e-32 -1.0
  outer loop
    vertex 3.0685654302378684 -84.5386031997516 -1.4999999999999944
    vertex 3.0685654302378587 -76.55438937232542 -1.4999999999999944
    vertex 3.5669286104635045 -76.61734728312375 -1.4999999999999944
  endloop
endfacet
facet normal -4.4109920183690853e-32 7.455197777525218e-32 -1.0
  outer loop
    vertex 3.0685654302378684 -84.5386031997516 -1.4999999999999944
    vertex 3.5669286104635045 -76.61734728312375 -1.4999999999999944
    vertex 3.5669286104635134 -84.47564528895327 -1.4999999999999944
  endloop
endfacet
facet normal -4.4109920183690853e-32 7.455197777525218e-32 -1.0
  outer loop
    vertex 3.5669286104635134 -84.47564528895327 -1.4999999999999944
    vertex 3.5669286104635045 -76.61734728312375 -1.4999999999999944
    vertex 4.053471329620397 -76.74227022085789 -1.4999999999999944
  endloop
endfacet
facet normal -4.4109920183690853e-32 7.455197777525218e-32 -1.0
  outer loop
    vertex 3.5669286104635134 -84.47564528895327 -1.4999999999999944
    vertex 4.053471329620397 -76.74227022085789 -1.4999999999999944
    vertex 4.053471329620405 -84.35072235121913 -1.4999999999999944
  endloop
endfacet
facet normal -4.4109920183690853e-32 7.455197777525218e-32 -1.0
  outer loop
    vertex 4.053471329620405 -84.35072235121913 -1.4999999999999944
    vertex 4.053471329620397 -76.74227022085789 -1.4999999999999944
    vertex 4.5205205183808985 -76.92718807617443 -1.4999999999999944
  endloop
endfacet
facet normal -4.4109920183690853e-32 7.455197777525218e-32 -1.0
  outer loop
    vertex 4.053471329620405 -84.35072235121913 -1.4999999999999944
    vertex 4.5205205183808985 -76.92718807617443 -1.4999999999999944
    vertex 4.520520518380906 -84.16580449590259 -1.4999999999999944
  endloop
endfacet
facet normal -4.4109920183690853e-32 7.455197777525218e-32 -1.0
  outer loop
    vertex 4.520520518380906 -84.16580449590259 -1.4999999999999944
    vertex 4.5205205183808985 -76.92718807617443 -1.4999999999999944
    vertex 4.960710532036596 -77.16918458403045 -1.4999999999999944
  endloop
endfacet
facet normal -4.4109920183690853e-32 7.455197777525218e-32 -1.0
  outer loop
    vertex 4.520520518380906 -84.16580449590259 -1.4999999999999944
    vertex 4.960710532036596 -77.16918458403045 -1.4999999999999944
    vertex 4.960710532036602 -83.92380798804658 -1.4999999999999944
  endloop
endfacet
facet normal -4.4109920183690853e-32 7.455197777525218e-32 -1.0
  outer loop
    vertex 4.960710532036602 -83.92380798804658 -1.4999999999999944
    vertex 4.960710532036596 -77.16918458403045 -1.4999999999999944
    vertex 5.367099311115368 -77.46444331493534 -1.4999999999999944
  endloop
endfacet
facet normal -4.4109920183690853e-32 7.455197777525218e-32 -1.0
  outer loop
    vertex 4.960710532036602 -83.92380798804658 -1.4999999999999944
    vertex 5.367099311115368 -77.46444331493534 -1.4999999999999944
    vertex 5.367099311115375 -83.62854925714167 -1.4999999999999944
  endloop
endfacet
facet normal -4.4109920183690853e-32 7.455197777525218e-32 -1.0
  outer loop
    vertex 5.367099311115375 -83.62854925714167 -1.4999999999999944
    vertex 5.367099311115368 -77.46444331493534 -1.4999999999999944
    vertex 5.733277861806256 -77.80830786232374 -1.4999999999999944
  endloop
endfacet
facet normal -4.4109920183690853e-32 7.455197777525218e-32 -1.0
  outer loop
    vertex 5.367099311115375 -83.62854925714167 -1.4999999999999944
    vertex 5.733277861806256 -77.80830786232374 -1.4999999999999944
    vertex 5.733277861806262 -83.28468470975326 -1.4999999999999944
  endloop
endfacet
facet normal -4.4109920183690853e-32 7.455197777525218e-32 -1.0
  outer loop
    vertex 5.733277861806262 -83.28468470975326 -1.4999999999999944
    vertex 5.733277861806256 -77.80830786232374 -1.4999999999999944
    vertex 6.053471329620401 -78.19535527686861 -1.4999999999999944
  endloop
endfacet
facet normal -4.4109920183690853e-32 7.455197777525218e-32 -1.0
  outer loop
    vertex 5.733277861806262 -83.28468470975326 -1.4999999999999944
    vertex 6.053471329620401 -78.19535527686861 -1.4999999999999944
    vertex 6.0534713296204075 -82.8976372952084 -1.4999999999999944
  endloop
endfacet
facet normal -4.4109920183690853e-32 7.455197777525218e-32 -1.0
  outer loop
    vertex 6.0534713296204075 -82.8976372952084 -1.4999999999999944
    vertex 6.053471329620401 -78.19535527686861 -1.4999999999999944
    vertex 6.322630072296067 -78.61948158963165 -1.4999999999999944
  endloop
endfacet
facet normal -4.4109920183690853e-32 7.455197777525218e-32 -1.0
  outer loop
    vertex 6.0534713296204075 -82.8976372952084 -1.4999999999999944
    vertex 6.322630072296067 -78.61948158963165 -1.4999999999999944
    vertex 6.3226300722960715 -82.47351098244538 -1.4999999999999944
  endloop
endfacet
facet normal -4.4109920183690853e-32 7.455197777525218e-32 -1.0
  outer loop
    vertex 6.3226300722960715 -82.47351098244538 -1.4999999999999944
    vertex 6.322630072296067 -78.61948158963165 -1.4999999999999944
    vertex 6.536509295673619 -79.07399807529978 -1.4999999999999944
  endloop
endfacet
facet normal -4.4109920183690853e-32 7.455197777525218e-32 -1.0
  outer loop
    vertex 6.3226300722960715 -82.47351098244538 -1.4999999999999944
    vertex 6.536509295673619 -79.07399807529978 -1.4999999999999944
    vertex 6.536509295673621 -82.01899449677722 -1.4999999999999944
  endloop
endfacet
facet normal -4.4109920183690853e-32 7.455197777525218e-32 -1.0
  outer loop
    vertex 6.536509295673621 -82.01899449677722 -1.4999999999999944
    vertex 6.536509295673619 -79.07399807529978 -1.4999999999999944
    vertex 6.691735996635138 -79.55173673737909 -1.4999999999999944
  endloop
endfacet
facet normal -4.4109920183690853e-32 7.455197777525218e-32 -1.0
  outer loop
    vertex 6.536509295673621 -82.01899449677722 -1.4999999999999944
    vertex 6.691735996635138 -79.55173673737909 -1.4999999999999944
    vertex 6.691735996635141 -81.54125583469792 -1.4999999999999944
  endloop
endfacet
facet normal -4.4109920183690853e-32 7.455197777525218e-32 -1.0
  outer loop
    vertex 6.691735996635141 -81.54125583469792 -1.4999999999999944
    vertex 6.691735996635138 -79.55173673737909 -1.4999999999999944
    vertex 6.785862157378526 -80.04516335178128 -1.4999999999999944
  endloop
endfacet
facet normal -4.4109920183690853e-32 7.455197777525218e-32 -1.0
  outer loop
    vertex 6.691735996635141 -81.54125583469792 -1.4999999999999944
    vertex 6.785862157378526 -80.04516335178128 -1.4999999999999944
    vertex 6.785862157378529 -81.04782922029572 -1.4999999999999944
  endloop
endfacet
facet normal -4.4109920183690853e-32 7.455197777525218e-32 -1.0
  outer loop
    vertex 6.785862157378529 -81.04782922029572 -1.4999999999999944
    vertex 6.785862157378526 -80.04516335178128 -1.4999999999999944
    vertex 6.817403352120615 -80.5464962860385 -1.4999999999999944
  endloop
endfacet
facet normal -0.6845471059286883 0.728968627421412 8.454137111486821e-32
  outer loop
    vertex -0.09847115756503984 -77.80830786232377 11.50000000000007
    vertex 0.2677073931258463 -77.46444331493537 -1.4999999999999944
    vertex -0.09847115756503984 -77.80830786232377 -1.4999999999999944
  endloop
endfacet
facet normal -0.6845471059286883 0.728968627421412 8.454137111486821e-32
  outer loop
    vertex 0.2677073931258463 -77.46444331493537 -1.4999999999999944
    vertex -0.09847115756503984 -77.80830786232377 11.50000000000007
    vertex 0.2677073931258463 -77.46444331493537 11.50000000000007
  endloop
endfacet
facet normal -0.9822872507286889 -0.18738131458572382 2.935896462660718e-32
  outer loop
    vertex -1.1510554531372938 -81.04782922029572 11.50000000000007
    vertex -1.0569292923939069 -81.54125583469792 -1.4999999999999944
    vertex -1.0569292923939069 -81.54125583469792 11.50000000000007
  endloop
endfacet
facet normal -0.9822872507286889 -0.18738131458572382 2.935896462660718e-32
  outer loop
    vertex -1.0569292923939069 -81.54125583469792 -1.4999999999999944
    vertex -1.1510554531372938 -81.04782922029572 11.50000000000007
    vertex -1.1510554531372938 -81.04782922029572 -1.4999999999999944
  endloop
endfacet
facet normal -0.9510565162951533 -0.30901699437494806 1.891319892714194e-32
  outer loop
    vertex -1.0569292923939069 -81.54125583469792 11.50000000000007
    vertex -0.9017025914323874 -82.01899449677722 -1.4999999999999944
    vertex -0.9017025914323874 -82.01899449677722 11.50000000000007
  endloop
endfacet
facet normal -0.9510565162951533 -0.30901699437494806 1.891319892714194e-32
  outer loop
    vertex -0.9017025914323874 -82.01899449677722 -1.4999999999999944
    vertex -1.0569292923939069 -81.54125583469792 11.50000000000007
    vertex -1.0569292923939069 -81.54125583469792 -1.4999999999999944
  endloop
endfacet
facet normal 4.4109920183690853e-32 -7.455197777525218e-32 1.0
  outer loop
    vertex -1.1510554531372938 -81.04782922029572 11.50000000000007
    vertex -1.1510554531372958 -80.04516335178131 11.50000000000007
    vertex -1.1825966478793823 -80.5464962860385 11.50000000000007
  endloop
endfacet
facet normal 4.4109920183690853e-32 -7.455197777525218e-32 1.0
  outer loop
    vertex -1.1510554531372958 -80.04516335178131 11.50000000000007
    vertex -1.1510554531372938 -81.04782922029572 11.50000000000007
    vertex -1.056929292393911 -79.5517367373791 11.50000000000007
  endloop
endfacet
facet normal 4.4109920183690853e-32 -7.455197777525218e-32 1.0
  outer loop
    vertex -1.056929292393911 -79.5517367373791 11.50000000000007
    vertex -1.1510554531372938 -81.04782922029572 11.50000000000007
    vertex -1.0569292923939069 -81.54125583469792 11.50000000000007
  endloop
endfacet
facet normal 4.4109920183690853e-32 -7.455197777525218e-32 1.0
  outer loop
    vertex -1.056929292393911 -79.5517367373791 11.50000000000007
    vertex -1.0569292923939069 -81.54125583469792 11.50000000000007
    vertex -0.9017025914323945 -79.07399807529981 11.50000000000007
  endloop
endfacet
facet normal 4.4109920183690853e-32 -7.455197777525218e-32 1.0
  outer loop
    vertex -0.9017025914323945 -79.07399807529981 11.50000000000007
    vertex -1.0569292923939069 -81.54125583469792 11.50000000000007
    vertex -0.9017025914323874 -82.01899449677722 11.50000000000007
  endloop
endfacet
facet normal 4.4109920183690853e-32 -7.455197777525218e-32 1.0
  outer loop
    vertex -0.9017025914323945 -79.07399807529981 11.50000000000007
    vertex -0.9017025914323874 -82.01899449677722 11.50000000000007
    vertex -0.6878233680548455 -78.61948158963168 11.50000000000007
  endloop
endfacet
facet normal 4.4109920183690853e-32 -7.455197777525218e-32 1.0
  outer loop
    vertex -0.6878233680548455 -78.61948158963168 11.50000000000007
    vertex -0.9017025914323874 -82.01899449677722 11.50000000000007
    vertex -0.6878233680548369 -82.47351098244538 11.50000000000007
  endloop
endfacet
facet normal 4.4109920183690853e-32 -7.455197777525218e-32 1.0
  outer loop
    vertex -0.6878233680548455 -78.61948158963168 11.50000000000007
    vertex -0.6878233680548369 -82.47351098244538 11.50000000000007
    vertex -0.4186646253791822 -78.19535527686864 11.50000000000007
  endloop
endfacet
facet normal 4.4109920183690853e-32 -7.455197777525218e-32 1.0
  outer loop
    vertex -0.4186646253791822 -78.19535527686864 11.50000000000007
    vertex -0.6878233680548369 -82.47351098244538 11.50000000000007
    vertex -0.4186646253791723 -82.89763729520841 11.50000000000007
  endloop
endfacet
facet normal 4.4109920183690853e-32 -7.455197777525218e-32 1.0
  outer loop
    vertex -0.4186646253791822 -78.19535527686864 11.50000000000007
    vertex -0.4186646253791723 -82.89763729520841 11.50000000000007
    vertex -0.09847115756503984 -77.80830786232377 11.50000000000007
  endloop
endfacet
facet normal 4.4109920183690853e-32 -7.455197777525218e-32 1.0
  outer loop
    vertex -0.09847115756503984 -77.80830786232377 11.50000000000007
    vertex -0.4186646253791723 -82.89763729520841 11.50000000000007
    vertex -0.0984711575650289 -83.28468470975326 11.50000000000007
  endloop
endfacet
facet normal 4.4109920183690853e-32 -7.455197777525218e-32 1.0
  outer loop
    vertex -0.09847115756503984 -77.80830786232377 11.50000000000007
    vertex -0.0984711575650289 -83.28468470975326 11.50000000000007
    vertex 0.2677073931258463 -77.46444331493537 11.50000000000007
  endloop
endfacet
facet normal 4.4109920183690853e-32 -7.455197777525218e-32 1.0
  outer loop
    vertex 0.2677073931258463 -77.46444331493537 11.50000000000007
    vertex -0.0984711575650289 -83.28468470975326 11.50000000000007
    vertex 0.26770739312585795 -83.62854925714167 11.50000000000007
  endloop
endfacet
facet normal 4.4109920183690853e-32 -7.455197777525218e-32 1.0
  outer loop
    vertex 0.2677073931258463 -77.46444331493537 11.50000000000007
    vertex 0.26770739312585795 -83.62854925714167 11.50000000000007
    vertex 0.6740961722046184 -77.16918458403046 11.50000000000007
  endloop
endfacet
facet normal 4.4109920183690853e-32 -7.455197777525218e-32 1.0
  outer loop
    vertex 0.6740961722046184 -77.16918458403046 11.50000000000007
    vertex 0.26770739312585795 -83.62854925714167 11.50000000000007
    vertex 0.6740961722046304 -83.92380798804658 11.50000000000007
  endloop
endfacet
facet normal 4.4109920183690853e-32 -7.455197777525218e-32 1.0
  outer loop
    vertex 0.6740961722046184 -77.16918458403046 11.50000000000007
    vertex 0.6740961722046304 -83.92380798804658 11.50000000000007
    vertex 1.1142861858603137 -76.92718807617445 11.50000000000007
  endloop
endfacet
facet normal 4.4109920183690853e-32 -7.455197777525218e-32 1.0
  outer loop
    vertex 1.1142861858603137 -76.92718807617445 11.50000000000007
    vertex 0.6740961722046304 -83.92380798804658 11.50000000000007
    vertex 1.1142861858603257 -84.16580449590259 11.50000000000007
  endloop
endfacet
facet normal 4.4109920183690853e-32 -7.455197777525218e-32 1.0
  outer loop
    vertex 1.1142861858603137 -76.92718807617445 11.50000000000007
    vertex 1.1142861858603257 -84.16580449590259 11.50000000000007
    vertex 1.5813353746208145 -76.7422702208579 11.50000000000007
  endloop
endfacet
facet normal 4.4109920183690853e-32 -7.455197777525218e-32 1.0
  outer loop
    vertex 1.5813353746208145 -76.7422702208579 11.50000000000007
    vertex 1.1142861858603257 -84.16580449590259 11.50000000000007
    vertex 1.581335374620826 -84.35072235121913 11.50000000000007
  endloop
endfacet
facet normal 4.4109920183690853e-32 -7.455197777525218e-32 1.0
  outer loop
    vertex 1.5813353746208145 -76.7422702208579 11.50000000000007
    vertex 1.581335374620826 -84.35072235121913 11.50000000000007
    vertex 2.0678780937777055 -76.61734728312376 11.50000000000007
  endloop
endfacet
facet normal 4.4109920183690853e-32 -7.455197777525218e-32 1.0
  outer loop
    vertex 2.0678780937777055 -76.61734728312376 11.50000000000007
    vertex 1.581335374620826 -84.35072235121913 11.50000000000007
    vertex 2.0678780937777166 -84.47564528895327 11.50000000000007
  endloop
endfacet
facet normal 4.4109920183690853e-32 -7.455197777525218e-32 1.0
  outer loop
    vertex 2.0678780937777055 -76.61734728312376 11.50000000000007
    vertex 2.0678780937777166 -84.47564528895327 11.50000000000007
    vertex 2.566241274003351 -76.55438937232542 11.50000000000007
  endloop
endfacet
facet normal 4.4109920183690853e-32 -7.455197777525218e-32 1.0
  outer loop
    vertex 2.566241274003351 -76.55438937232542 11.50000000000007
    vertex 2.0678780937777166 -84.47564528895327 11.50000000000007
    vertex 2.566241274003362 -84.5386031997516 11.50000000000007
  endloop
endfacet
facet normal 4.4109920183690853e-32 -7.455197777525218e-32 1.0
  outer loop
    vertex 2.566241274003351 -76.55438937232542 11.50000000000007
    vertex 2.566241274003362 -84.5386031997516 11.50000000000007
    vertex 3.0685654302378587 -76.55438937232542 11.50000000000007
  endloop
endfacet
facet normal 4.4109920183690853e-32 -7.455197777525218e-32 1.0
  outer loop
    vertex 3.0685654302378587 -76.55438937232542 11.50000000000007
    vertex 2.566241274003362 -84.5386031997516 11.50000000000007
    vertex 3.0685654302378684 -84.5386031997516 11.50000000000007
  endloop
endfacet
facet normal 4.4109920183690853e-32 -7.455197777525218e-32 1.0
  outer loop
    vertex 3.0685654302378587 -76.55438937232542 11.50000000000007
    vertex 3.0685654302378684 -84.5386031997516 11.50000000000007
    vertex 3.5669286104635045 -76.61734728312375 11.50000000000007
  endloop
endfacet
facet normal 4.4109920183690853e-32 -7.455197777525218e-32 1.0
  outer loop
    vertex 3.5669286104635045 -76.61734728312375 11.50000000000007
    vertex 3.0685654302378684 -84.5386031997516 11.50000000000007
    vertex 3.5669286104635134 -84.47564528895327 11.50000000000007
  endloop
endfacet
facet normal 4.4109920183690853e-32 -7.455197777525218e-32 1.0
  outer loop
    vertex 3.5669286104635045 -76.61734728312375 11.50000000000007
    vertex 3.5669286104635134 -84.47564528895327 11.50000000000007
    vertex 4.053471329620397 -76.74227022085789 11.50000000000007
  endloop
endfacet
facet normal 4.4109920183690853e-32 -7.455197777525218e-32 1.0
  outer loop
    vertex 4.053471329620397 -76.74227022085789 11.50000000000007
    vertex 3.5669286104635134 -84.47564528895327 11.50000000000007
    vertex 4.053471329620405 -84.35072235121913 11.50000000000007
  endloop
endfacet
facet normal 4.4109920183690853e-32 -7.455197777525218e-32 1.0
  outer loop
    vertex 4.053471329620397 -76.74227022085789 11.50000000000007
    vertex 4.053471329620405 -84.35072235121913 11.50000000000007
    vertex 4.5205205183808985 -76.92718807617443 11.50000000000007
  endloop
endfacet
facet normal 4.4109920183690853e-32 -7.455197777525218e-32 1.0
  outer loop
    vertex 4.5205205183808985 -76.92718807617443 11.50000000000007
    vertex 4.053471329620405 -84.35072235121913 11.50000000000007
    vertex 4.520520518380906 -84.16580449590259 11.50000000000007
  endloop
endfacet
facet normal 4.4109920183690853e-32 -7.455197777525218e-32 1.0
  outer loop
    vertex 4.5205205183808985 -76.92718807617443 11.50000000000007
    vertex 4.520520518380906 -84.16580449590259 11.50000000000007
    vertex 4.960710532036596 -77.16918458403045 11.50000000000007
  endloop
endfacet
facet normal 4.4109920183690853e-32 -7.455197777525218e-32 1.0
  outer loop
    vertex 4.960710532036596 -77.16918458403045 11.50000000000007
    vertex 4.520520518380906 -84.16580449590259 11.50000000000007
    vertex 4.960710532036602 -83.92380798804658 11.50000000000007
  endloop
endfacet
facet normal 4.4109920183690853e-32 -7.455197777525218e-32 1.0
  outer loop
    vertex 4.960710532036596 -77.16918458403045 11.50000000000007
    vertex 4.960710532036602 -83.92380798804658 11.50000000000007
    vertex 5.367099311115368 -77.46444331493534 11.50000000000007
  endloop
endfacet
facet normal 4.4109920183690853e-32 -7.455197777525218e-32 1.0
  outer loop
    vertex 5.367099311115368 -77.46444331493534 11.50000000000007
    vertex 4.960710532036602 -83.92380798804658 11.50000000000007
    vertex 5.367099311115375 -83.62854925714167 11.50000000000007
  endloop
endfacet
facet normal 4.4109920183690853e-32 -7.455197777525218e-32 1.0
  outer loop
    vertex 5.367099311115368 -77.46444331493534 11.50000000000007
    vertex 5.367099311115375 -83.62854925714167 11.50000000000007
    vertex 5.733277861806256 -77.80830786232374 11.50000000000007
  endloop
endfacet
facet normal 4.4109920183690853e-32 -7.455197777525218e-32 1.0
  outer loop
    vertex 5.733277861806256 -77.80830786232374 11.50000000000007
    vertex 5.367099311115375 -83.62854925714167 11.50000000000007
    vertex 5.733277861806262 -83.28468470975326 11.50000000000007
  endloop
endfacet
facet normal 4.4109920183690853e-32 -7.455197777525218e-32 1.0
  outer loop
    vertex 5.733277861806256 -77.80830786232374 11.50000000000007
    vertex 5.733277861806262 -83.28468470975326 11.50000000000007
    vertex 6.053471329620401 -78.19535527686861 11.50000000000007
  endloop
endfacet
facet normal 4.4109920183690853e-32 -7.455197777525218e-32 1.0
  outer loop
    vertex 6.053471329620401 -78.19535527686861 11.50000000000007
    vertex 5.733277861806262 -83.28468470975326 11.50000000000007
    vertex 6.0534713296204075 -82.8976372952084 11.50000000000007
  endloop
endfacet
facet normal 4.4109920183690853e-32 -7.455197777525218e-32 1.0
  outer loop
    vertex 6.053471329620401 -78.19535527686861 11.50000000000007
    vertex 6.0534713296204075 -82.8976372952084 11.50000000000007
    vertex 6.322630072296067 -78.61948158963165 11.50000000000007
  endloop
endfacet
facet normal 4.4109920183690853e-32 -7.455197777525218e-32 1.0
  outer loop
    vertex 6.322630072296067 -78.61948158963165 11.50000000000007
    vertex 6.0534713296204075 -82.8976372952084 11.50000000000007
    vertex 6.3226300722960715 -82.47351098244538 11.50000000000007
  endloop
endfacet
facet normal 4.4109920183690853e-32 -7.455197777525218e-32 1.0
  outer loop
    vertex 6.322630072296067 -78.61948158963165 11.50000000000007
    vertex 6.3226300722960715 -82.47351098244538 11.50000000000007
    vertex 6.536509295673619 -79.07399807529978 11.50000000000007
  endloop
endfacet
facet normal 4.4109920183690853e-32 -7.455197777525218e-32 1.0
  outer loop
    vertex 6.536509295673619 -79.07399807529978 11.50000000000007
    vertex 6.3226300722960715 -82.47351098244538 11.50000000000007
    vertex 6.536509295673621 -82.01899449677722 11.50000000000007
  endloop
endfacet
facet normal 4.4109920183690853e-32 -7.455197777525218e-32 1.0
  outer loop
    vertex 6.536509295673619 -79.07399807529978 11.50000000000007
    vertex 6.536509295673621 -82.01899449677722 11.50000000000007
    vertex 6.691735996635138 -79.55173673737909 11.50000000000007
  endloop
endfacet
facet normal 4.4109920183690853e-32 -7.455197777525218e-32 1.0
  outer loop
    vertex 6.691735996635138 -79.55173673737909 11.50000000000007
    vertex 6.536509295673621 -82.01899449677722 11.50000000000007
    vertex 6.691735996635141 -81.54125583469792 11.50000000000007
  endloop
endfacet
facet normal 4.4109920183690853e-32 -7.455197777525218e-32 1.0
  outer loop
    vertex 6.691735996635138 -79.55173673737909 11.50000000000007
    vertex 6.691735996635141 -81.54125583469792 11.50000000000007
    vertex 6.785862157378526 -80.04516335178128 11.50000000000007
  endloop
endfacet
facet normal 4.4109920183690853e-32 -7.455197777525218e-32 1.0
  outer loop
    vertex 6.785862157378526 -80.04516335178128 11.50000000000007
    vertex 6.691735996635141 -81.54125583469792 11.50000000000007
    vertex 6.785862157378529 -81.04782922029572 11.50000000000007
  endloop
endfacet
facet normal 4.4109920183690853e-32 -7.455197777525218e-32 1.0
  outer loop
    vertex 6.785862157378526 -80.04516335178128 11.50000000000007
    vertex 6.785862157378529 -81.04782922029572 11.50000000000007
    vertex 6.817403352120615 -80.5464962860385 11.50000000000007
  endloop
endfacet
facet normal -0.9048270524660211 -0.42577929156506905 8.169160782398801e-33
  outer loop
    vertex -0.9017025914323874 -82.01899449677722 11.50000000000007
    vertex -0.6878233680548369 -82.47351098244538 -1.4999999999999944
    vertex -0.6878233680548369 -82.47351098244538 11.50000000000007
  endloop
endfacet
facet normal -0.9048270524660211 -0.42577929156506905 8.169160782398801e-33
  outer loop
    vertex -0.6878233680548369 -82.47351098244538 -1.4999999999999944
    vertex -0.9017025914323874 -82.01899449677722 11.50000000000007
    vertex -0.9017025914323874 -82.01899449677722 -1.4999999999999944
  endloop
endfacet
facet normal -0.9980267284282716 -0.06279051952931354 3.9341721915715244e-32
  outer loop
    vertex -1.1825966478793823 -80.5464962860385 11.50000000000007
    vertex -1.1510554531372938 -81.04782922029572 -1.4999999999999944
    vertex -1.1510554531372938 -81.04782922029572 11.50000000000007
  endloop
endfacet
facet normal -0.9980267284282716 -0.06279051952931354 3.9341721915715244e-32
  outer loop
    vertex -1.1510554531372938 -81.04782922029572 -1.4999999999999944
    vertex -1.1825966478793823 -80.5464962860385 11.50000000000007
    vertex -1.1825966478793823 -80.5464962860385 -1.4999999999999944
  endloop
endfacet
facet normal -0.9980267284282719 0.06279051952931076 4.87040367486069e-32
  outer loop
    vertex -1.1510554531372958 -80.04516335178131 11.50000000000007
    vertex -1.1825966478793823 -80.5464962860385 -1.4999999999999944
    vertex -1.1825966478793823 -80.5464962860385 11.50000000000007
  endloop
endfacet
facet normal -0.9980267284282719 0.06279051952931076 4.87040367486069e-32
  outer loop
    vertex -1.1825966478793823 -80.5464962860385 -1.4999999999999944
    vertex -1.1510554531372958 -80.04516335178131 11.50000000000007
    vertex -1.1510554531372958 -80.04516335178131 -1.4999999999999944
  endloop
endfacet
facet normal -0.8443279255020163 -0.5358267949789948 -2.7037099079034114e-33
  outer loop
    vertex -0.6878233680548369 -82.47351098244538 11.50000000000007
    vertex -0.4186646253791723 -82.89763729520841 -1.4999999999999944
    vertex -0.4186646253791723 -82.89763729520841 11.50000000000007
  endloop
endfacet
facet normal -0.8443279255020163 -0.5358267949789948 -2.7037099079034114e-33
  outer loop
    vertex -0.4186646253791723 -82.89763729520841 -1.4999999999999944
    vertex -0.6878233680548369 -82.47351098244538 11.50000000000007
    vertex -0.6878233680548369 -82.47351098244538 -1.4999999999999944
  endloop
endfacet
facet normal 0.9822872507286886 0.18738131458572518 -2.9358964626607066e-32
  outer loop
    vertex 6.691735996635138 -79.55173673737909 -1.4999999999999944
    vertex 6.785862157378526 -80.04516335178128 11.50000000000007
    vertex 6.785862157378526 -80.04516335178128 -1.4999999999999944
  endloop
endfacet
facet normal 0.9822872507286886 0.18738131458572518 -2.9358964626607066e-32
  outer loop
    vertex 6.785862157378526 -80.04516335178128 11.50000000000007
    vertex 6.691735996635138 -79.55173673737909 -1.4999999999999944
    vertex 6.691735996635138 -79.55173673737909 11.50000000000007
  endloop
endfacet
facet normal 0.9510565162951533 0.30901699437494806 -1.891319892714194e-32
  outer loop
    vertex 6.536509295673619 -79.07399807529978 -1.4999999999999944
    vertex 6.691735996635138 -79.55173673737909 11.50000000000007
    vertex 6.691735996635138 -79.55173673737909 -1.4999999999999944
  endloop
endfacet
facet normal 0.9510565162951533 0.30901699437494806 -1.891319892714194e-32
  outer loop
    vertex 6.691735996635138 -79.55173673737909 11.50000000000007
    vertex 6.536509295673619 -79.07399807529978 -1.4999999999999944
    vertex 6.536509295673619 -79.07399807529978 11.50000000000007
  endloop
endfacet
facet normal 0.9048270524660161 0.42577929156508004 -8.169160782397765e-33
  outer loop
    vertex 6.322630072296067 -78.61948158963165 -1.4999999999999944
    vertex 6.536509295673619 -79.07399807529978 11.50000000000007
    vertex 6.536509295673619 -79.07399807529978 -1.4999999999999944
  endloop
endfacet
facet normal 0.9048270524660161 0.42577929156508004 -8.169160782397765e-33
  outer loop
    vertex 6.536509295673619 -79.07399807529978 11.50000000000007
    vertex 6.322630072296067 -78.61948158963165 -1.4999999999999944
    vertex 6.322630072296067 -78.61948158963165 11.50000000000007
  endloop
endfacet
facet normal -0.7705132427757857 -0.6374239897486941 -1.3533941477840487e-32
  outer loop
    vertex -0.4186646253791723 -82.89763729520841 11.50000000000007
    vertex -0.0984711575650289 -83.28468470975326 -1.4999999999999944
    vertex -0.0984711575650289 -83.28468470975326 11.50000000000007
  endloop
endfacet
facet normal -0.7705132427757857 -0.6374239897486941 -1.3533941477840487e-32
  outer loop
    vertex -0.0984711575650289 -83.28468470975326 -1.4999999999999944
    vertex -0.4186646253791723 -82.89763729520841 11.50000000000007
    vertex -0.4186646253791723 -82.89763729520841 -1.4999999999999944
  endloop
endfacet
facet normal 0.844327925502015 0.5358267949789968 2.703709907903615e-33
  outer loop
    vertex 6.053471329620401 -78.19535527686861 -1.4999999999999944
    vertex 6.322630072296067 -78.61948158963165 11.50000000000007
    vertex 6.322630072296067 -78.61948158963165 -1.4999999999999944
  endloop
endfacet
facet normal 0.844327925502015 0.5358267949789968 2.703709907903615e-33
  outer loop
    vertex 6.322630072296067 -78.61948158963165 11.50000000000007
    vertex 6.053471329620401 -78.19535527686861 -1.4999999999999944
    vertex 6.053471329620401 -78.19535527686861 11.50000000000007
  endloop
endfacet
facet normal 0.12533323356430331 -0.9921147013144781 -7.949255209178323e-32
  outer loop
    vertex 3.5669286104635134 -84.47564528895327 11.50000000000007
    vertex 3.0685654302378684 -84.5386031997516 -1.4999999999999944
    vertex 3.5669286104635134 -84.47564528895327 -1.4999999999999944
  endloop
endfacet
facet normal 0.12533323356430331 -0.9921147013144781 -7.949255209178323e-32
  outer loop
    vertex 3.0685654302378684 -84.5386031997516 -1.4999999999999944
    vertex 3.5669286104635134 -84.47564528895327 11.50000000000007
    vertex 3.0685654302378684 -84.5386031997516 11.50000000000007
  endloop
endfacet
facet normal -0.24868988716485357 -0.9685831611286315 -6.124009922861246e-32
  outer loop
    vertex 2.0678780937777166 -84.47564528895327 11.50000000000007
    vertex 1.581335374620826 -84.35072235121913 -1.4999999999999944
    vertex 2.0678780937777166 -84.47564528895327 -1.4999999999999944
  endloop
endfacet
facet normal -0.24868988716485357 -0.9685831611286315 -6.124009922861246e-32
  outer loop
    vertex 1.581335374620826 -84.35072235121913 -1.4999999999999944
    vertex 2.0678780937777166 -84.47564528895327 11.50000000000007
    vertex 1.581335374620826 -84.35072235121913 11.50000000000007
  endloop
endfacet
facet normal 0.6845471059286873 -0.728968627421413 -8.454137111486823e-32
  outer loop
    vertex 5.733277861806262 -83.28468470975326 11.50000000000007
    vertex 5.367099311115375 -83.62854925714167 -1.4999999999999944
    vertex 5.733277861806262 -83.28468470975326 -1.4999999999999944
  endloop
endfacet
facet normal 0.6845471059286873 -0.728968627421413 -8.454137111486823e-32
  outer loop
    vertex 5.367099311115375 -83.62854925714167 -1.4999999999999944
    vertex 5.733277861806262 -83.28468470975326 11.50000000000007
    vertex 5.367099311115375 -83.62854925714167 11.50000000000007
  endloop
endfacet
facet normal 0.9510565162951533 -0.30901699437494806 -6.498885512077464e-32
  outer loop
    vertex 6.691735996635141 -81.54125583469792 -1.4999999999999944
    vertex 6.536509295673621 -82.01899449677722 11.50000000000007
    vertex 6.536509295673621 -82.01899449677722 -1.4999999999999944
  endloop
endfacet
facet normal 0.9510565162951533 -0.30901699437494806 -6.498885512077464e-32
  outer loop
    vertex 6.536509295673621 -82.01899449677722 11.50000000000007
    vertex 6.691735996635141 -81.54125583469792 -1.4999999999999944
    vertex 6.691735996635141 -81.54125583469792 11.50000000000007
  endloop
endfacet
facet normal 0.9048270524660211 -0.42577929156506905 -7.165453734624209e-32
  outer loop
    vertex 6.536509295673621 -82.01899449677722 -1.4999999999999944
    vertex 6.3226300722960715 -82.47351098244538 11.50000000000007
    vertex 6.3226300722960715 -82.47351098244538 -1.4999999999999944
  endloop
endfacet
facet normal 0.9048270524660211 -0.42577929156506905 -7.165453734624209e-32
  outer loop
    vertex 6.3226300722960715 -82.47351098244538 11.50000000000007
    vertex 6.536509295673621 -82.01899449677722 -1.4999999999999944
    vertex 6.536509295673621 -82.01899449677722 11.50000000000007
  endloop
endfacet
facet normal -0.4817536741017153 -0.8763066800438635 -4.408028002210865e-32
  outer loop
    vertex 1.1142861858603257 -84.16580449590259 11.50000000000007
    vertex 0.6740961722046304 -83.92380798804658 -1.4999999999999944
    vertex 1.1142861858603257 -84.16580449590259 -1.4999999999999944
  endloop
endfacet
facet normal -0.4817536741017153 -0.8763066800438635 -4.408028002210865e-32
  outer loop
    vertex 0.6740961722046304 -83.92380798804658 -1.4999999999999944
    vertex 1.1142861858603257 -84.16580449590259 11.50000000000007
    vertex 0.6740961722046304 -83.92380798804658 11.50000000000007
  endloop
endfacet
facet normal 0.4817536741017142 -0.8763066800438641 -8.658051224776161e-32
  outer loop
    vertex 4.960710532036602 -83.92380798804658 11.50000000000007
    vertex 4.520520518380906 -84.16580449590259 -1.4999999999999944
    vertex 4.960710532036602 -83.92380798804658 -1.4999999999999944
  endloop
endfacet
facet normal 0.4817536741017142 -0.8763066800438641 -8.658051224776161e-32
  outer loop
    vertex 4.520520518380906 -84.16580449590259 -1.4999999999999944
    vertex 4.960710532036602 -83.92380798804658 11.50000000000007
    vertex 4.520520518380906 -84.16580449590259 11.50000000000007
  endloop
endfacet
facet normal -0.5877852522924785 -0.8090169943749435 -3.4386656420670283e-32
  outer loop
    vertex 0.6740961722046304 -83.92380798804658 11.50000000000007
    vertex 0.26770739312585795 -83.62854925714167 -1.4999999999999944
    vertex 0.6740961722046304 -83.92380798804658 -1.4999999999999944
  endloop
endfacet
facet normal -0.5877852522924785 -0.8090169943749435 -3.4386656420670283e-32
  outer loop
    vertex 0.26770739312585795 -83.62854925714167 -1.4999999999999944
    vertex 0.6740961722046304 -83.92380798804658 11.50000000000007
    vertex 0.26770739312585795 -83.62854925714167 11.50000000000007
  endloop
endfacet
facet normal 0.36812455268468225 -0.9297764858882498 -8.55546205484711e-32
  outer loop
    vertex 4.520520518380906 -84.16580449590259 11.50000000000007
    vertex 4.053471329620405 -84.35072235121913 -1.4999999999999944
    vertex 4.520520518380906 -84.16580449590259 -1.4999999999999944
  endloop
endfacet
facet normal 0.36812455268468225 -0.9297764858882498 -8.55546205484711e-32
  outer loop
    vertex 4.053471329620405 -84.35072235121913 -1.4999999999999944
    vertex 4.520520518380906 -84.16580449590259 11.50000000000007
    vertex 4.053471329620405 -84.35072235121913 11.50000000000007
  endloop
endfacet
facet normal -0.12533323356430331 -0.9921147013144781 -6.843567423401262e-32
  outer loop
    vertex 2.566241274003362 -84.5386031997516 11.50000000000007
    vertex 2.0678780937777166 -84.47564528895327 -1.4999999999999944
    vertex 2.566241274003362 -84.5386031997516 -1.4999999999999944
  endloop
endfacet
facet normal -0.12533323356430331 -0.9921147013144781 -6.843567423401262e-32
  outer loop
    vertex 2.0678780937777166 -84.47564528895327 -1.4999999999999944
    vertex 2.566241274003362 -84.5386031997516 11.50000000000007
    vertex 2.0678780937777166 -84.47564528895327 11.50000000000007
  endloop
endfacet
facet normal 0.7705132427757941 -0.6374239897486839 -8.150849675647354e-32
  outer loop
    vertex 6.0534713296204075 -82.8976372952084 -1.4999999999999944
    vertex 5.733277861806262 -83.28468470975326 11.50000000000007
    vertex 5.733277861806262 -83.28468470975326 -1.4999999999999944
  endloop
endfacet
facet normal 0.7705132427757941 -0.6374239897486839 -8.150849675647354e-32
  outer loop
    vertex 5.733277861806262 -83.28468470975326 11.50000000000007
    vertex 6.0534713296204075 -82.8976372952084 -1.4999999999999944
    vertex 6.0534713296204075 -82.8976372952084 11.50000000000007
  endloop
endfacet
facet normal 0.8443279255020099 -0.5358267949790049 -7.71901847134143e-32
  outer loop
    vertex 6.3226300722960715 -82.47351098244538 -1.4999999999999944
    vertex 6.0534713296204075 -82.8976372952084 11.50000000000007
    vertex 6.0534713296204075 -82.8976372952084 -1.4999999999999944
  endloop
endfacet
facet normal 0.8443279255020099 -0.5358267949790049 -7.71901847134143e-32
  outer loop
    vertex 6.0534713296204075 -82.8976372952084 11.50000000000007
    vertex 6.3226300722960715 -82.47351098244538 -1.4999999999999944
    vertex 6.3226300722960715 -82.47351098244538 11.50000000000007
  endloop
endfacet
facet normal 0.24868988716485335 -0.9685831611286316 -8.317948137527802e-32
  outer loop
    vertex 4.053471329620405 -84.35072235121913 11.50000000000007
    vertex 3.5669286104635134 -84.47564528895327 -1.4999999999999944
    vertex 4.053471329620405 -84.35072235121913 -1.4999999999999944
  endloop
endfacet
facet normal 0.24868988716485335 -0.9685831611286316 -8.317948137527802e-32
  outer loop
    vertex 3.5669286104635134 -84.47564528895327 -1.4999999999999944
    vertex 4.053471329620405 -84.35072235121913 11.50000000000007
    vertex 3.5669286104635134 -84.47564528895327 11.50000000000007
  endloop
endfacet
facet normal 0.9980267284282719 -0.06279051952930935 -4.8704036748606795e-32
  outer loop
    vertex 6.817403352120615 -80.5464962860385 -1.4999999999999944
    vertex 6.785862157378529 -81.04782922029572 11.50000000000007
    vertex 6.785862157378529 -81.04782922029572 -1.4999999999999944
  endloop
endfacet
facet normal 0.9980267284282719 -0.06279051952930935 -4.8704036748606795e-32
  outer loop
    vertex 6.785862157378529 -81.04782922029572 11.50000000000007
    vertex 6.817403352120615 -80.5464962860385 -1.4999999999999944
    vertex 6.817403352120615 -80.5464962860385 11.50000000000007
  endloop
endfacet
facet normal 0.9980267284282716 0.06279051952931353 -3.9341721915715244e-32
  outer loop
    vertex 6.785862157378526 -80.04516335178128 -1.4999999999999944
    vertex 6.817403352120615 -80.5464962860385 11.50000000000007
    vertex 6.817403352120615 -80.5464962860385 -1.4999999999999944
  endloop
endfacet
facet normal 0.9980267284282716 0.06279051952931353 -3.9341721915715244e-32
  outer loop
    vertex 6.817403352120615 -80.5464962860385 11.50000000000007
    vertex 6.785862157378526 -80.04516335178128 -1.4999999999999944
    vertex 6.785862157378526 -80.04516335178128 11.50000000000007
  endloop
endfacet
facet normal -0.36812455268468264 -0.9297764858882497 -5.30787312753146e-32
  outer loop
    vertex 1.581335374620826 -84.35072235121913 11.50000000000007
    vertex 1.1142861858603257 -84.16580449590259 -1.4999999999999944
    vertex 1.581335374620826 -84.35072235121913 -1.4999999999999944
  endloop
endfacet
facet normal -0.36812455268468264 -0.9297764858882497 -5.30787312753146e-32
  outer loop
    vertex 1.1142861858603257 -84.16580449590259 -1.4999999999999944
    vertex 1.581335374620826 -84.35072235121913 11.50000000000007
    vertex 1.1142861858603257 -84.16580449590259 11.50000000000007
  endloop
endfacet
facet normal 0.0 -1.0 -7.455197777525218e-32
  outer loop
    vertex 3.0685654302378684 -84.5386031997516 11.50000000000007
    vertex 2.566241274003362 -84.5386031997516 -1.4999999999999944
    vertex 3.0685654302378684 -84.5386031997516 -1.4999999999999944
  endloop
endfacet
facet normal 0.0 -1.0 -7.455197777525218e-32
  outer loop
    vertex 2.566241274003362 -84.5386031997516 -1.4999999999999944
    vertex 3.0685654302378684 -84.5386031997516 11.50000000000007
    vertex 2.566241274003362 -84.5386031997516 11.50000000000007
  endloop
endfacet
facet normal 0.5877852522924782 -0.8090169943749439 -8.624097754821395e-32
  outer loop
    vertex 5.367099311115375 -83.62854925714167 11.50000000000007
    vertex 4.960710532036602 -83.92380798804658 -1.4999999999999944
    vertex 5.367099311115375 -83.62854925714167 -1.4999999999999944
  endloop
endfacet
facet normal 0.5877852522924782 -0.8090169943749439 -8.624097754821395e-32
  outer loop
    vertex 4.960710532036602 -83.92380798804658 -1.4999999999999944
    vertex 5.367099311115375 -83.62854925714167 11.50000000000007
    vertex 4.960710532036602 -83.92380798804658 11.50000000000007
  endloop
endfacet
facet normal -0.6845471059286875 -0.7289686274214127 -2.415073470588626e-32
  outer loop
    vertex 0.26770739312585795 -83.62854925714167 11.50000000000007
    vertex -0.0984711575650289 -83.28468470975326 -1.4999999999999944
    vertex 0.26770739312585795 -83.62854925714167 -1.4999999999999944
  endloop
endfacet
facet normal -0.6845471059286875 -0.7289686274214127 -2.415073470588626e-32
  outer loop
    vertex -0.0984711575650289 -83.28468470975326 -1.4999999999999944
    vertex 0.26770739312585795 -83.62854925714167 11.50000000000007
    vertex -0.0984711575650289 -83.28468470975326 11.50000000000007
  endloop
endfacet
facet normal 0.9822872507286886 -0.18738131458572518 -5.72982598275921e-32
  outer loop
    vertex 6.785862157378529 -81.04782922029572 -1.4999999999999944
    vertex 6.691735996635141 -81.54125583469792 11.50000000000007
    vertex 6.691735996635141 -81.54125583469792 -1.4999999999999944
  endloop
endfacet
facet normal 0.9822872507286886 -0.18738131458572518 -5.72982598275921e-32
  outer loop
    vertex 6.691735996635141 -81.54125583469792 11.50000000000007
    vertex 6.785862157378529 -81.04782922029572 -1.4999999999999944
    vertex 6.785862157378529 -81.04782922029572 11.50000000000007
  endloop
endfacet
facet normal 0.3681245526846818 0.92977648588825 5.307873127531468e-32
  outer loop
    vertex 4.053471329620397 -76.74227022085789 11.50000000000007
    vertex 4.5205205183808985 -76.92718807617443 -1.4999999999999944
    vertex 4.053471329620397 -76.74227022085789 -1.4999999999999944
  endloop
endfacet
facet normal 0.3681245526846818 0.92977648588825 5.307873127531468e-32
  outer loop
    vertex 4.5205205183808985 -76.92718807617443 -1.4999999999999944
    vertex 4.053471329620397 -76.74227022085789 11.50000000000007
    vertex 4.5205205183808985 -76.92718807617443 11.50000000000007
  endloop
endfacet
facet normal 0.7705132427757935 0.6374239897486846 1.3533941477839455e-32
  outer loop
    vertex 5.733277861806256 -77.80830786232374 -1.4999999999999944
    vertex 6.053471329620401 -78.19535527686861 11.50000000000007
    vertex 6.053471329620401 -78.19535527686861 -1.4999999999999944
  endloop
endfacet
facet normal 0.7705132427757935 0.6374239897486846 1.3533941477839455e-32
  outer loop
    vertex 6.053471329620401 -78.19535527686861 11.50000000000007
    vertex 5.733277861806256 -77.80830786232374 -1.4999999999999944
    vertex 5.733277861806256 -77.80830786232374 11.50000000000007
  endloop
endfacet
facet normal 0.5877852522924628 0.809016994374955 3.438665642067183e-32
  outer loop
    vertex 4.960710532036596 -77.16918458403045 11.50000000000007
    vertex 5.367099311115368 -77.46444331493534 -1.4999999999999944
    vertex 4.960710532036596 -77.16918458403045 -1.4999999999999944
  endloop
endfacet
facet normal 0.5877852522924628 0.809016994374955 3.438665642067183e-32
  outer loop
    vertex 5.367099311115368 -77.46444331493534 -1.4999999999999944
    vertex 4.960710532036596 -77.16918458403045 11.50000000000007
    vertex 5.367099311115368 -77.46444331493534 11.50000000000007
  endloop
endfacet
facet normal 0.6845471059286873 0.728968627421413 2.4150734705886304e-32
  outer loop
    vertex 5.367099311115368 -77.46444331493534 11.50000000000007
    vertex 5.733277861806256 -77.80830786232374 -1.4999999999999944
    vertex 5.367099311115368 -77.46444331493534 -1.4999999999999944
  endloop
endfacet
facet normal 0.6845471059286873 0.728968627421413 2.4150734705886304e-32
  outer loop
    vertex 5.733277861806256 -77.80830786232374 -1.4999999999999944
    vertex 5.367099311115368 -77.46444331493534 11.50000000000007
    vertex 5.733277861806256 -77.80830786232374 11.50000000000007
  endloop
endfacet
facet normal 0.4817536741017142 0.8763066800438641 4.408028002210876e-32
  outer loop
    vertex 4.5205205183808985 -76.92718807617443 11.50000000000007
    vertex 4.960710532036596 -77.16918458403045 -1.4999999999999944
    vertex 4.5205205183808985 -76.92718807617443 -1.4999999999999944
  endloop
endfacet
facet normal 0.4817536741017142 0.8763066800438641 4.408028002210876e-32
  outer loop
    vertex 4.960710532036596 -77.16918458403045 -1.4999999999999944
    vertex 4.5205205183808985 -76.92718807617443 11.50000000000007
    vertex 4.960710532036596 -77.16918458403045 11.50000000000007
  endloop
endfacet
facet normal 0.12533323356430298 0.9921147013144781 6.843567423401264e-32
  outer loop
    vertex 3.0685654302378587 -76.55438937232542 11.50000000000007
    vertex 3.5669286104635045 -76.61734728312375 -1.4999999999999944
    vertex 3.0685654302378587 -76.55438937232542 -1.4999999999999944
  endloop
endfacet
facet normal 0.12533323356430298 0.9921147013144781 6.843567423401264e-32
  outer loop
    vertex 3.5669286104635045 -76.61734728312375 -1.4999999999999944
    vertex 3.0685654302378587 -76.55438937232542 11.50000000000007
    vertex 3.5669286104635045 -76.61734728312375 11.50000000000007
  endloop
endfacet
facet normal 0.248689887164853 0.9685831611286317 6.12400992286125e-32
  outer loop
    vertex 3.5669286104635045 -76.61734728312375 11.50000000000007
    vertex 4.053471329620397 -76.74227022085789 -1.4999999999999944
    vertex 3.5669286104635045 -76.61734728312375 -1.4999999999999944
  endloop
endfacet
facet normal 0.248689887164853 0.9685831611286317 6.12400992286125e-32
  outer loop
    vertex 4.053471329620397 -76.74227022085789 -1.4999999999999944
    vertex 3.5669286104635045 -76.61734728312375 11.50000000000007
    vertex 4.053471329620397 -76.74227022085789 11.50000000000007
  endloop
endfacet
facet normal 0.0 1.0 7.455197777525218e-32
  outer loop
    vertex 2.566241274003351 -76.55438937232542 11.50000000000007
    vertex 3.0685654302378587 -76.55438937232542 -1.4999999999999944
    vertex 2.566241274003351 -76.55438937232542 -1.4999999999999944
  endloop
endfacet
facet normal 0.0 1.0 7.455197777525218e-32
  outer loop
    vertex 3.0685654302378587 -76.55438937232542 -1.4999999999999944
    vertex 2.566241274003351 -76.55438937232542 11.50000000000007
    vertex 3.0685654302378587 -76.55438937232542 11.50000000000007
  endloop
endfacet
facet normal -0.12533323356432524 0.9921147013144753 7.949255209178398e-32
  outer loop
    vertex 2.0678780937777055 -76.61734728312376 11.50000000000007
    vertex 2.566241274003351 -76.55438937232542 -1.4999999999999944
    vertex 2.0678780937777055 -76.61734728312376 -1.4999999999999944
  endloop
endfacet
facet normal -0.12533323356432524 0.9921147013144753 7.949255209178398e-32
  outer loop
    vertex 2.566241274003351 -76.55438937232542 -1.4999999999999944
    vertex 2.0678780937777055 -76.61734728312376 11.50000000000007
    vertex 2.566241274003351 -76.55438937232542 11.50000000000007
  endloop
endfacet
facet normal -0.24868988716485335 0.9685831611286316 8.317948137527802e-32
  outer loop
    vertex 1.5813353746208145 -76.7422702208579 11.50000000000007
    vertex 2.0678780937777055 -76.61734728312376 -1.4999999999999944
    vertex 1.5813353746208145 -76.7422702208579 -1.4999999999999944
  endloop
endfacet
facet normal -0.24868988716485335 0.9685831611286316 8.317948137527802e-32
  outer loop
    vertex 2.0678780937777055 -76.61734728312376 -1.4999999999999944
    vertex 1.5813353746208145 -76.7422702208579 11.50000000000007
    vertex 2.0678780937777055 -76.61734728312376 11.50000000000007
  endloop
endfacet
facet normal -0.36812455268468247 0.9297764858882496 8.555462054847109e-32
  outer loop
    vertex 1.1142861858603137 -76.92718807617445 11.50000000000007
    vertex 1.5813353746208145 -76.7422702208579 -1.4999999999999944
    vertex 1.1142861858603137 -76.92718807617445 -1.4999999999999944
  endloop
endfacet
facet normal -0.36812455268468247 0.9297764858882496 8.555462054847109e-32
  outer loop
    vertex 1.5813353746208145 -76.7422702208579 -1.4999999999999944
    vertex 1.1142861858603137 -76.92718807617445 11.50000000000007
    vertex 1.5813353746208145 -76.7422702208579 11.50000000000007
  endloop
endfacet
facet normal -0.4817536741017153 0.8763066800438635 8.65805122477616e-32
  outer loop
    vertex 0.6740961722046184 -77.16918458403046 11.50000000000007
    vertex 1.1142861858603137 -76.92718807617445 -1.4999999999999944
    vertex 0.6740961722046184 -77.16918458403046 -1.4999999999999944
  endloop
endfacet
facet normal -0.4817536741017153 0.8763066800438635 8.65805122477616e-32
  outer loop
    vertex 1.1142861858603137 -76.92718807617445 -1.4999999999999944
    vertex 0.6740961722046184 -77.16918458403046 11.50000000000007
    vertex 1.1142861858603137 -76.92718807617445 11.50000000000007
  endloop
endfacet
facet normal -0.5877852522924788 0.8090169943749432 8.624097754821391e-32
  outer loop
    vertex 0.2677073931258463 -77.46444331493537 11.50000000000007
    vertex 0.6740961722046184 -77.16918458403046 -1.4999999999999944
    vertex 0.2677073931258463 -77.46444331493537 -1.4999999999999944
  endloop
endfacet
facet normal -0.5877852522924788 0.8090169943749432 8.624097754821391e-32
  outer loop
    vertex 0.6740961722046184 -77.16918458403046 -1.4999999999999944
    vertex 0.2677073931258463 -77.46444331493537 11.50000000000007
    vertex 0.6740961722046184 -77.16918458403046 11.50000000000007
  endloop
endfacet
facet normal -0.9822872507286896 0.18738131458571974 5.729825982759174e-32
  outer loop
    vertex -1.056929292393911 -79.5517367373791 11.50000000000007
    vertex -1.1510554531372958 -80.04516335178131 -1.4999999999999944
    vertex -1.1510554531372958 -80.04516335178131 11.50000000000007
  endloop
endfacet
facet normal -0.9822872507286896 0.18738131458571974 5.729825982759174e-32
  outer loop
    vertex -1.1510554531372958 -80.04516335178131 -1.4999999999999944
    vertex -1.056929292393911 -79.5517367373791 11.50000000000007
    vertex -1.056929292393911 -79.5517367373791 -1.4999999999999944
  endloop
endfacet
facet normal -0.7705132427757958 0.6374239897486818 8.150849675647347e-32
  outer loop
    vertex -0.09847115756503984 -77.80830786232377 11.50000000000007
    vertex -0.4186646253791822 -78.19535527686864 -1.4999999999999944
    vertex -0.4186646253791822 -78.19535527686864 11.50000000000007
  endloop
endfacet
facet normal -0.7705132427757958 0.6374239897486818 8.150849675647347e-32
  outer loop
    vertex -0.4186646253791822 -78.19535527686864 -1.4999999999999944
    vertex -0.09847115756503984 -77.80830786232377 11.50000000000007
    vertex -0.09847115756503984 -77.80830786232377 -1.4999999999999944
  endloop
endfacet
facet normal -0.9048270524660182 0.4257792915650755 7.165453734624246e-32
  outer loop
    vertex -0.6878233680548455 -78.61948158963168 11.50000000000007
    vertex -0.9017025914323945 -79.07399807529981 -1.4999999999999944
    vertex -0.9017025914323945 -79.07399807529981 11.50000000000007
  endloop
endfacet
facet normal -0.9048270524660182 0.4257792915650755 7.165453734624246e-32
  outer loop
    vertex -0.9017025914323945 -79.07399807529981 -1.4999999999999944
    vertex -0.6878233680548455 -78.61948158963168 11.50000000000007
    vertex -0.6878233680548455 -78.61948158963168 -1.4999999999999944
  endloop
endfacet
facet normal -0.8443279255020176 0.5358267949789928 7.719018471341376e-32
  outer loop
    vertex -0.4186646253791822 -78.19535527686864 11.50000000000007
    vertex -0.6878233680548455 -78.61948158963168 -1.4999999999999944
    vertex -0.6878233680548455 -78.61948158963168 11.50000000000007
  endloop
endfacet
facet normal -0.8443279255020176 0.5358267949789928 7.719018471341376e-32
  outer loop
    vertex -0.6878233680548455 -78.61948158963168 -1.4999999999999944
    vertex -0.4186646253791822 -78.19535527686864 11.50000000000007
    vertex -0.4186646253791822 -78.19535527686864 -1.4999999999999944
  endloop
endfacet
facet normal -0.9510565162951551 0.309016994374943 6.498885512077435e-32
  outer loop
    vertex -0.9017025914323945 -79.07399807529981 11.50000000000007
    vertex -1.056929292393911 -79.5517367373791 -1.4999999999999944
    vertex -1.056929292393911 -79.5517367373791 11.50000000000007
  endloop
endfacet
facet normal -0.9510565162951551 0.309016994374943 6.498885512077435e-32
  outer loop
    vertex -1.056929292393911 -79.5517367373791 -1.4999999999999944
    vertex -0.9017025914323945 -79.07399807529981 11.50000000000007
    vertex -0.9017025914323945 -79.07399807529981 -1.4999999999999944
  endloop
endfacet
endsolid special edition spinner
