solid splunk-spinner-mcu-walls
facet normal 0.0 -1.0 0.0
  outer loop
    vertex 64.27269845498574 39.24708175666181 0.0
    vertex 57.772698454985736 39.24708175666181 7.4703399999999975
    vertex 12.272698454985768 39.24708175666181 0.0
  endloop
endfacet
facet normal 0.0 -1.0 0.0
  outer loop
    vertex 57.772698454985736 39.24708175666181 7.4703399999999975
    vertex 64.27269845498574 39.24708175666181 0.0
    vertex 64.27269845498574 39.24708175666181 9.999999999999998
  endloop
endfacet
facet normal 0.0 -1.0 0.0
  outer loop
    vertex 57.772698454985736 39.24708175666181 7.4703399999999975
    vertex 64.27269845498574 39.24708175666181 9.999999999999998
    vertex 57.772698454985736 39.24708175666181 9.999999999999998
  endloop
endfacet
facet normal 0.0 -1.0 0.0
  outer loop
    vertex 12.272698454985768 39.24708175666181 0.0
    vertex 53.27269845498572 39.24708175666181 7.4703399999999975
    vertex 12.272698454985768 39.24708175666181 9.999999999999998
  endloop
endfacet
facet normal 0.0 -1.0 0.0
  outer loop
    vertex 53.27269845498572 39.24708175666181 7.4703399999999975
    vertex 12.272698454985768 39.24708175666181 0.0
    vertex 57.772698454985736 39.24708175666181 7.4703399999999975
  endloop
endfacet
facet normal 0.0 -1.0 0.0
  outer loop
    vertex 12.272698454985768 39.24708175666181 9.999999999999998
    vertex 53.27269845498572 39.24708175666181 7.4703399999999975
    vertex 53.27269845498572 39.24708175666181 9.999999999999998
  endloop
endfacet
facet normal 0.0 1.0 0.0
  outer loop
    vertex 12.272698454985768 15.247081756661807 9.999999999999998
    vertex 64.27269845498574 15.247081756661807 0.0
    vertex 12.272698454985768 15.247081756661807 0.0
  endloop
endfacet
facet normal 0.0 1.0 0.0
  outer loop
    vertex 64.27269845498574 15.247081756661807 0.0
    vertex 12.272698454985768 15.247081756661807 9.999999999999998
    vertex 64.27269845498574 15.247081756661807 9.999999999999998
  endloop
endfacet
facet normal 1.0 0.0 0.0
  outer loop
    vertex 67.77269845498574 42.74708175666181 0.0
    vertex 67.77269845498574 11.747081756661808 9.999999999999998
    vertex 67.77269845498574 11.747081756661808 0.0
  endloop
endfacet
facet normal 1.0 0.0 0.0
  outer loop
    vertex 67.77269845498574 11.747081756661808 9.999999999999998
    vertex 67.77269845498574 42.74708175666181 0.0
    vertex 67.77269845498574 42.74708175666181 9.999999999999998
  endloop
endfacet
facet normal 0.0 0.0 -1.0
  outer loop
    vertex 8.772698454985768 42.74708175666181 0.0
    vertex 12.272698454985768 39.24708175666181 0.0
    vertex 8.772698454985768 11.747081756661808 0.0
  endloop
endfacet
facet normal 0.0 0.0 -1.0
  outer loop
    vertex 12.272698454985768 39.24708175666181 0.0
    vertex 8.772698454985768 42.74708175666181 0.0
    vertex 67.77269845498574 42.74708175666181 0.0
  endloop
endfacet
facet normal 0.0 0.0 -1.0
  outer loop
    vertex 12.272698454985768 39.24708175666181 0.0
    vertex 67.77269845498574 42.74708175666181 0.0
    vertex 64.27269845498574 39.24708175666181 0.0
  endloop
endfacet
facet normal 0.0 0.0 -1.0
  outer loop
    vertex 64.27269845498574 39.24708175666181 0.0
    vertex 67.77269845498574 42.74708175666181 0.0
    vertex 64.27269845498574 15.247081756661807 0.0
  endloop
endfacet
facet normal 0.0 0.0 -1.0
  outer loop
    vertex 8.772698454985768 11.747081756661808 0.0
    vertex 12.272698454985768 15.247081756661807 0.0
    vertex 67.77269845498574 11.747081756661808 0.0
  endloop
endfacet
facet normal 0.0 0.0 -1.0
  outer loop
    vertex 12.272698454985768 15.247081756661807 0.0
    vertex 8.772698454985768 11.747081756661808 0.0
    vertex 12.272698454985768 39.24708175666181 0.0
  endloop
endfacet
facet normal 0.0 0.0 -1.0
  outer loop
    vertex 67.77269845498574 11.747081756661808 0.0
    vertex 12.272698454985768 15.247081756661807 0.0
    vertex 64.27269845498574 15.247081756661807 0.0
  endloop
endfacet
facet normal 0.0 0.0 -1.0
  outer loop
    vertex 67.77269845498574 11.747081756661808 0.0
    vertex 64.27269845498574 15.247081756661807 0.0
    vertex 67.77269845498574 42.74708175666181 0.0
  endloop
endfacet
facet normal -1.0 0.0 0.0
  outer loop
    vertex 8.772698454985768 42.74708175666181 9.999999999999998
    vertex 8.772698454985767 33.24708175666181 4.999999999999998
    vertex 8.772698454985768 33.24708175666181 9.999999999999998
  endloop
endfacet
facet normal -1.0 0.0 0.0
  outer loop
    vertex 8.772698454985768 21.247081756661807 9.999999999999998
    vertex 8.772698454985768 11.747081756661808 0.0
    vertex 8.772698454985768 11.747081756661808 9.999999999999998
  endloop
endfacet
facet normal -1.0 0.0 0.0
  outer loop
    vertex 8.772698454985768 11.747081756661808 0.0
    vertex 8.772698454985768 21.247081756661807 9.999999999999998
    vertex 8.772698454985767 21.247081756661807 4.999999999999998
  endloop
endfacet
facet normal -1.0 0.0 0.0
  outer loop
    vertex 8.772698454985768 11.747081756661808 0.0
    vertex 8.772698454985767 21.247081756661807 4.999999999999998
    vertex 8.772698454985768 42.74708175666181 0.0
  endloop
endfacet
facet normal -1.0 0.0 0.0
  outer loop
    vertex 8.772698454985768 42.74708175666181 0.0
    vertex 8.772698454985767 21.247081756661807 4.999999999999998
    vertex 8.772698454985767 33.24708175666181 4.999999999999998
  endloop
endfacet
facet normal -1.0 0.0 0.0
  outer loop
    vertex 8.772698454985768 42.74708175666181 0.0
    vertex 8.772698454985767 33.24708175666181 4.999999999999998
    vertex 8.772698454985768 42.74708175666181 9.999999999999998
  endloop
endfacet
facet normal -0.0 -1.0 -0.0
  outer loop
    vertex 67.77269845498574 11.747081756661808 9.999999999999998
    vertex 8.772698454985768 11.747081756661808 0.0
    vertex 67.77269845498574 11.747081756661808 0.0
  endloop
endfacet
facet normal -0.0 -1.0 -0.0
  outer loop
    vertex 8.772698454985768 11.747081756661808 0.0
    vertex 67.77269845498574 11.747081756661808 9.999999999999998
    vertex 8.772698454985768 11.747081756661808 9.999999999999998
  endloop
endfacet
facet normal -0.0 1.0 -0.0
  outer loop
    vertex 8.772698454985768 42.74708175666181 9.999999999999998
    vertex 67.77269845498574 42.74708175666181 0.0
    vertex 8.772698454985768 42.74708175666181 0.0
  endloop
endfacet
facet normal -0.0 1.0 -0.0
  outer loop
    vertex 67.77269845498574 42.74708175666181 0.0
    vertex 8.772698454985768 42.74708175666181 9.999999999999998
    vertex 53.27269845498572 42.74708175666181 7.4703399999999975
  endloop
endfacet
facet normal -0.0 1.0 -0.0
  outer loop
    vertex 53.27269845498572 42.74708175666181 7.4703399999999975
    vertex 8.772698454985768 42.74708175666181 9.999999999999998
    vertex 53.27269845498572 42.74708175666181 9.999999999999998
  endloop
endfacet
facet normal -0.0 1.0 -0.0
  outer loop
    vertex 67.77269845498574 42.74708175666181 0.0
    vertex 57.772698454985736 42.74708175666181 7.4703399999999975
    vertex 67.77269845498574 42.74708175666181 9.999999999999998
  endloop
endfacet
facet normal -0.0 1.0 -0.0
  outer loop
    vertex 57.772698454985736 42.74708175666181 7.4703399999999975
    vertex 67.77269845498574 42.74708175666181 0.0
    vertex 53.27269845498572 42.74708175666181 7.4703399999999975
  endloop
endfacet
facet normal -0.0 1.0 -0.0
  outer loop
    vertex 67.77269845498574 42.74708175666181 9.999999999999998
    vertex 57.772698454985736 42.74708175666181 7.4703399999999975
    vertex 57.772698454985736 42.74708175666181 9.999999999999998
  endloop
endfacet
facet normal -1.0 0.0 0.0
  outer loop
    vertex 64.27269845498574 39.24708175666181 9.999999999999998
    vertex 64.27269845498574 15.247081756661807 0.0
    vertex 64.27269845498574 15.247081756661807 9.999999999999998
  endloop
endfacet
facet normal -1.0 0.0 0.0
  outer loop
    vertex 64.27269845498574 15.247081756661807 0.0
    vertex 64.27269845498574 39.24708175666181 9.999999999999998
    vertex 64.27269845498574 39.24708175666181 0.0
  endloop
endfacet
facet normal -0.0 -0.0 1.0
  outer loop
    vertex 12.272698454985768 33.24708175666181 9.999999999999998
    vertex 8.772698454985768 42.74708175666181 9.999999999999998
    vertex 8.772698454985768 33.24708175666181 9.999999999999998
  endloop
endfacet
facet normal -0.0 -0.0 1.0
  outer loop
    vertex 8.772698454985768 42.74708175666181 9.999999999999998
    vertex 12.272698454985768 33.24708175666181 9.999999999999998
    vertex 12.272698454985768 39.24708175666181 9.999999999999998
  endloop
endfacet
facet normal -0.0 -0.0 1.0
  outer loop
    vertex 8.772698454985768 42.74708175666181 9.999999999999998
    vertex 12.272698454985768 39.24708175666181 9.999999999999998
    vertex 53.27269845498572 42.74708175666181 9.999999999999998
  endloop
endfacet
facet normal -0.0 -0.0 1.0
  outer loop
    vertex 53.27269845498572 42.74708175666181 9.999999999999998
    vertex 12.272698454985768 39.24708175666181 9.999999999999998
    vertex 53.27269845498572 39.24708175666181 9.999999999999998
  endloop
endfacet
facet normal 1.0 -0.0 -0.0
  outer loop
    vertex 12.272698454985768 15.247081756661807 0.0
    vertex 12.272698454985768 21.247081756661807 4.999999999999998
    vertex 12.272698454985768 15.247081756661807 9.999999999999998
  endloop
endfacet
facet normal 1.0 -0.0 -0.0
  outer loop
    vertex 12.272698454985768 21.247081756661807 4.999999999999998
    vertex 12.272698454985768 15.247081756661807 0.0
    vertex 12.272698454985768 39.24708175666181 0.0
  endloop
endfacet
facet normal 1.0 -0.0 -0.0
  outer loop
    vertex 12.272698454985768 21.247081756661807 4.999999999999998
    vertex 12.272698454985768 39.24708175666181 0.0
    vertex 12.272698454985768 33.24708175666181 4.999999999999998
  endloop
endfacet
facet normal 1.0 -0.0 -0.0
  outer loop
    vertex 12.272698454985768 33.24708175666181 4.999999999999998
    vertex 12.272698454985768 39.24708175666181 0.0
    vertex 12.272698454985768 33.24708175666181 9.999999999999998
  endloop
endfacet
facet normal 1.0 -0.0 -0.0
  outer loop
    vertex 12.272698454985768 33.24708175666181 9.999999999999998
    vertex 12.272698454985768 39.24708175666181 0.0
    vertex 12.272698454985768 39.24708175666181 9.999999999999998
  endloop
endfacet
facet normal 1.0 -0.0 -0.0
  outer loop
    vertex 12.272698454985768 21.247081756661807 9.999999999999998
    vertex 12.272698454985768 15.247081756661807 9.999999999999998
    vertex 12.272698454985768 21.247081756661807 4.999999999999998
  endloop
endfacet
facet normal -0.0 1.0 -0.0
  outer loop
    vertex 8.772698454985768 21.247081756661807 9.999999999999998
    vertex 12.272698454985768 21.247081756661807 4.999999999999998
    vertex 8.772698454985767 21.247081756661807 4.999999999999998
  endloop
endfacet
facet normal -0.0 1.0 -0.0
  outer loop
    vertex 12.272698454985768 21.247081756661807 4.999999999999998
    vertex 8.772698454985768 21.247081756661807 9.999999999999998
    vertex 12.272698454985768 21.247081756661807 9.999999999999998
  endloop
endfacet
facet normal -0.0 -0.0 1.0
  outer loop
    vertex 12.272698454985768 21.247081756661807 4.999999999999998
    vertex 8.772698454985767 33.24708175666181 4.999999999999998
    vertex 8.772698454985767 21.247081756661807 4.999999999999998
  endloop
endfacet
facet normal -0.0 -0.0 1.0
  outer loop
    vertex 8.772698454985767 33.24708175666181 4.999999999999998
    vertex 12.272698454985768 21.247081756661807 4.999999999999998
    vertex 12.272698454985768 33.24708175666181 4.999999999999998
  endloop
endfacet
facet normal 0.0 -1.0 0.0
  outer loop
    vertex 12.272698454985768 33.24708175666181 9.999999999999998
    vertex 8.772698454985767 33.24708175666181 4.999999999999998
    vertex 12.272698454985768 33.24708175666181 4.999999999999998
  endloop
endfacet
facet normal 0.0 -1.0 0.0
  outer loop
    vertex 8.772698454985767 33.24708175666181 4.999999999999998
    vertex 12.272698454985768 33.24708175666181 9.999999999999998
    vertex 8.772698454985768 33.24708175666181 9.999999999999998
  endloop
endfacet
facet normal -0.0 -0.0 1.0
  outer loop
    vertex 8.772698454985768 11.747081756661808 9.999999999999998
    vertex 12.272698454985768 15.247081756661807 9.999999999999998
    vertex 8.772698454985768 21.247081756661807 9.999999999999998
  endloop
endfacet
facet normal -0.0 -0.0 1.0
  outer loop
    vertex 12.272698454985768 15.247081756661807 9.999999999999998
    vertex 8.772698454985768 11.747081756661808 9.999999999999998
    vertex 67.77269845498574 11.747081756661808 9.999999999999998
  endloop
endfacet
facet normal -0.0 -0.0 1.0
  outer loop
    vertex 12.272698454985768 15.247081756661807 9.999999999999998
    vertex 67.77269845498574 11.747081756661808 9.999999999999998
    vertex 64.27269845498574 15.247081756661807 9.999999999999998
  endloop
endfacet
facet normal -0.0 -0.0 1.0
  outer loop
    vertex 64.27269845498574 15.247081756661807 9.999999999999998
    vertex 67.77269845498574 11.747081756661808 9.999999999999998
    vertex 64.27269845498574 39.24708175666181 9.999999999999998
  endloop
endfacet
facet normal -0.0 -0.0 1.0
  outer loop
    vertex 64.27269845498574 39.24708175666181 9.999999999999998
    vertex 57.772698454985736 42.74708175666181 9.999999999999998
    vertex 57.772698454985736 39.24708175666181 9.999999999999998
  endloop
endfacet
facet normal -0.0 -0.0 1.0
  outer loop
    vertex 57.772698454985736 42.74708175666181 9.999999999999998
    vertex 64.27269845498574 39.24708175666181 9.999999999999998
    vertex 67.77269845498574 42.74708175666181 9.999999999999998
  endloop
endfacet
facet normal -0.0 -0.0 1.0
  outer loop
    vertex 67.77269845498574 42.74708175666181 9.999999999999998
    vertex 64.27269845498574 39.24708175666181 9.999999999999998
    vertex 67.77269845498574 11.747081756661808 9.999999999999998
  endloop
endfacet
facet normal -0.0 -0.0 1.0
  outer loop
    vertex 12.272698454985768 21.247081756661807 9.999999999999998
    vertex 8.772698454985768 21.247081756661807 9.999999999999998
    vertex 12.272698454985768 15.247081756661807 9.999999999999998
  endloop
endfacet
facet normal -0.0 -0.0 1.0
  outer loop
    vertex 57.772698454985736 39.24708175666181 7.4703399999999975
    vertex 53.27269845498572 42.74708175666181 7.4703399999999975
    vertex 53.27269845498572 39.24708175666181 7.4703399999999975
  endloop
endfacet
facet normal -0.0 -0.0 1.0
  outer loop
    vertex 53.27269845498572 42.74708175666181 7.4703399999999975
    vertex 57.772698454985736 39.24708175666181 7.4703399999999975
    vertex 57.772698454985736 42.74708175666181 7.4703399999999975
  endloop
endfacet
facet normal -1.0 0.0 0.0
  outer loop
    vertex 57.772698454985736 42.74708175666181 9.999999999999998
    vertex 57.772698454985736 39.24708175666181 7.4703399999999975
    vertex 57.772698454985736 39.24708175666181 9.999999999999998
  endloop
endfacet
facet normal -1.0 0.0 0.0
  outer loop
    vertex 57.772698454985736 39.24708175666181 7.4703399999999975
    vertex 57.772698454985736 42.74708175666181 9.999999999999998
    vertex 57.772698454985736 42.74708175666181 7.4703399999999975
  endloop
endfacet
facet normal 1.0 -0.0 -0.0
  outer loop
    vertex 53.27269845498572 42.74708175666181 7.4703399999999975
    vertex 53.27269845498572 39.24708175666181 9.999999999999998
    vertex 53.27269845498572 39.24708175666181 7.4703399999999975
  endloop
endfacet
facet normal 1.0 -0.0 -0.0
  outer loop
    vertex 53.27269845498572 39.24708175666181 9.999999999999998
    vertex 53.27269845498572 42.74708175666181 7.4703399999999975
    vertex 53.27269845498572 42.74708175666181 9.999999999999998
  endloop
endfacet
endsolid splunk-spinner-mcu-walls
