solid Untitled-59a17294
facet normal -0.0 -1.0 -0.0
  outer loop
    vertex 54.70369814627738 388.04490838543734 19.0
    vertex 50.70369814627738 388.04490838543734 0.0
    vertex 54.70369814627738 388.04490838543734 0.0
  endloop
endfacet
facet normal -0.0 -1.0 -0.0
  outer loop
    vertex 50.70369814627738 388.04490838543734 0.0
    vertex 54.70369814627738 388.04490838543734 19.0
    vertex 50.70369814627738 388.04490838543734 19.0
  endloop
endfacet
facet normal 0.0 0.0 1.0
  outer loop
    vertex 54.70369814627738 388.04490838543734 19.0
    vertex 50.70369814627738 392.04490838543734 19.0
    vertex 50.70369814627738 388.04490838543734 19.0
  endloop
endfacet
facet normal 0.0 0.0 1.0
  outer loop
    vertex 50.70369814627738 392.04490838543734 19.0
    vertex 54.70369814627738 388.04490838543734 19.0
    vertex 54.70369814627738 392.04490838543734 19.0
  endloop
endfacet
facet normal 1.0 0.0 0.0
  outer loop
    vertex 54.70369814627738 392.04490838543734 0.0
    vertex 54.70369814627738 388.04490838543734 19.0
    vertex 54.70369814627738 388.04490838543734 0.0
  endloop
endfacet
facet normal 1.0 0.0 0.0
  outer loop
    vertex 54.70369814627738 388.04490838543734 19.0
    vertex 54.70369814627738 392.04490838543734 0.0
    vertex 54.70369814627738 392.04490838543734 19.0
  endloop
endfacet
facet normal 0.0 0.0 -1.0
  outer loop
    vertex 54.70369814627738 392.04490838543734 0.0
    vertex 50.70369814627738 388.04490838543734 0.0
    vertex 50.70369814627738 392.04490838543734 0.0
  endloop
endfacet
facet normal 0.0 0.0 -1.0
  outer loop
    vertex 50.70369814627738 388.04490838543734 0.0
    vertex 54.70369814627738 392.04490838543734 0.0
    vertex 54.70369814627738 388.04490838543734 0.0
  endloop
endfacet
facet normal 0.0 1.0 0.0
  outer loop
    vertex 50.70369814627738 392.04490838543734 19.0
    vertex 54.70369814627738 392.04490838543734 0.0
    vertex 50.70369814627738 392.04490838543734 0.0
  endloop
endfacet
facet normal 0.0 1.0 0.0
  outer loop
    vertex 54.70369814627738 392.04490838543734 0.0
    vertex 50.70369814627738 392.04490838543734 19.0
    vertex 54.70369814627738 392.04490838543734 19.0
  endloop
endfacet
facet normal -1.0 0.0 0.0
  outer loop
    vertex 50.70369814627738 392.04490838543734 19.0
    vertex 50.70369814627738 388.04490838543734 0.0
    vertex 50.70369814627738 388.04490838543734 19.0
  endloop
endfacet
facet normal -1.0 0.0 0.0
  outer loop
    vertex 50.70369814627738 388.04490838543734 0.0
    vertex 50.70369814627738 392.04490838543734 19.0
    vertex 50.70369814627738 392.04490838543734 0.0
  endloop
endfacet
endsolid Untitled-59a17294
